<?xml version="1.0" encoding="utf-8"?>
<!-- Generator: Adobe Illustrator 27.0.0, SVG Export Plug-In . SVG Version: 6.00 Build 0)  -->
<svg version="1.1" id="Layer_1" xmlns="http://www.w3.org/2000/svg" xmlns:xlink="http://www.w3.org/1999/xlink" x="0px" y="0px"
	 viewBox="0 0 820.5 521" style="enable-background:new 0 0 820.5 521;" xml:space="preserve">
<style type="text/css">
	.st0{fill:#DB2E2E;}
	.st1{fill:#FFFFFF;}
	.st2{fill:#2E4593;}
</style>
<g>
	<g>
		<g>
			<g>
				<g>
					<rect y="160.3" class="st0" width="821.7" height="40.2"/>
				</g>
				<g>
					<rect y="80.1" class="st0" width="821.7" height="40.1"/>
				</g>
				<g>
					<rect class="st0" width="821.7" height="40.2"/>
				</g>
				<g>
					<rect y="240.5" class="st0" width="821.7" height="40.2"/>
				</g>
				<g>
					<rect y="320.6" class="st0" width="821.7" height="40.1"/>
				</g>
				<g>
					<rect y="400.8" class="st0" width="821.7" height="40.2"/>
				</g>
				<g>
					<rect y="480.8" class="st0" width="821.7" height="40.2"/>
				</g>
			</g>
		</g>
		<g>
			<rect y="120.3" class="st1" width="821.7" height="40.1"/>
		</g>
		<g>
			<rect y="40.2" class="st1" width="821.7" height="40.1"/>
		</g>
		<g>
			<rect y="200.5" class="st1" width="821.7" height="40.1"/>
		</g>
		<g>
			<rect y="280.5" class="st1" width="821.7" height="40.2"/>
		</g>
		<g>
			<rect y="360.7" class="st1" width="821.7" height="40.1"/>
		</g>
		<g>
			<rect y="440.9" class="st1" width="821.7" height="40.1"/>
		</g>
	</g>
	<g>
		<rect y="1.3" class="st2" width="315.2" height="242.7"/>
	</g>
	<g>
		<g>
			<g>
				<g>
					<polygon class="st1" points="263.4,49.4 266.7,58.9 258.7,53 258.7,53 258.7,53 250.8,58.9 254.1,49.4 254.2,49.4 254.1,49.4 
						245.9,43.9 255.8,43.9 258.5,34.5 261.5,43.9 261.5,43.9 261.6,43.9 271.6,43.9 263.3,49.4 263.3,49.4 					"/>
				</g>
			</g>
			<g>
				<g>
					<polygon class="st1" points="263.4,98.5 266.7,107.9 258.7,102 258.7,102 258.7,102 250.8,107.9 254.1,98.5 254.2,98.4 
						254.1,98.4 245.9,92.9 255.8,92.9 258.5,83.5 261.5,92.9 261.5,92.9 261.6,92.9 271.6,92.9 263.3,98.4 263.3,98.4 					"/>
				</g>
			</g>
			<g>
				<g>
					<polygon class="st1" points="263.4,147.6 266.7,157 258.7,151 258.7,151 258.7,151 250.8,157 254.1,147.6 254.2,147.4 
						254.1,147.4 245.9,141.9 255.8,141.9 258.5,132.5 261.5,141.9 261.5,141.9 261.6,141.9 271.6,141.9 263.3,147.4 263.3,147.4 
											"/>
				</g>
			</g>
			<g>
				<g>
					<polygon class="st1" points="263.4,196.6 266.7,206 258.7,200 258.7,200 258.7,200 250.8,206 254.1,196.6 254.2,196.5 
						254.1,196.5 245.9,190.9 255.8,190.9 258.5,181.5 261.5,190.9 261.5,191 261.6,190.9 271.6,190.9 263.3,196.5 263.3,196.5 
											"/>
				</g>
			</g>
		</g>
		<g>
			<g>
				<g>
					<polygon class="st1" points="211.2,49.4 214.6,58.9 206.7,53 206.6,53 206.6,53 198.6,58.9 202,49.4 202,49.4 202,49.4 
						193.8,43.9 203.7,43.9 206.4,34.5 209.4,43.9 209.4,43.9 209.5,43.9 219.4,43.9 211.2,49.4 211.2,49.4 					"/>
				</g>
			</g>
			<g>
				<g>
					<polygon class="st1" points="211.2,98.5 214.6,107.9 206.7,102 206.6,102 206.6,102 198.6,107.9 202,98.5 202,98.4 202,98.4 
						193.8,92.9 203.7,92.9 206.4,83.5 209.4,92.9 209.4,92.9 209.5,92.9 219.4,92.9 211.2,98.4 211.2,98.4 					"/>
				</g>
			</g>
			<g>
				<g>
					<polygon class="st1" points="211.2,147.6 214.6,157 206.7,151 206.6,151 206.6,151 198.6,157 202,147.6 202,147.4 202,147.4 
						193.8,141.9 203.7,141.9 206.4,132.5 209.4,141.9 209.4,141.9 209.5,141.9 219.4,141.9 211.2,147.4 211.2,147.4 					"/>
				</g>
			</g>
			<g>
				<g>
					<polygon class="st1" points="211.2,196.6 214.6,206 206.7,200 206.6,200 206.6,200 198.6,206 202,196.6 202,196.5 202,196.5 
						193.8,190.9 203.7,190.9 206.4,181.5 209.4,190.9 209.4,191 209.5,190.9 219.4,190.9 211.2,196.5 211.2,196.5 					"/>
				</g>
			</g>
		</g>
		<g>
			<g>
				<g>
					<polygon class="st1" points="159.1,49.4 162.5,58.9 154.5,53 154.5,53 154.5,53 146.5,58.9 149.8,49.4 149.9,49.4 149.9,49.4 
						141.7,43.9 151.6,43.9 154.2,34.5 157.3,43.9 157.3,43.9 157.3,43.9 167.3,43.9 159,49.4 159,49.4 					"/>
				</g>
			</g>
			<g>
				<g>
					<polygon class="st1" points="159.1,98.5 162.5,107.9 154.5,102 154.5,102 154.5,102 146.5,107.9 149.8,98.5 149.9,98.4 
						149.9,98.4 141.7,92.9 151.6,92.9 154.2,83.5 157.3,92.9 157.3,92.9 157.3,92.9 167.3,92.9 159,98.4 159,98.4 					"/>
				</g>
			</g>
			<g>
				<g>
					<polygon class="st1" points="159.1,147.6 162.5,157 154.5,151 154.5,151 154.5,151 146.5,157 149.8,147.6 149.9,147.4 
						149.9,147.4 141.7,141.9 151.6,141.9 154.2,132.5 157.3,141.9 157.3,141.9 157.3,141.9 167.3,141.9 159,147.4 159,147.4 					
						"/>
				</g>
			</g>
			<g>
				<g>
					<polygon class="st1" points="159.1,196.6 162.5,206 154.5,200 154.5,200 154.5,200 146.5,206 149.8,196.6 149.9,196.5 
						149.9,196.5 141.7,190.9 151.6,190.9 154.2,181.5 157.3,190.9 157.3,191 157.3,190.9 167.3,190.9 159,196.5 159,196.5 					"/>
				</g>
			</g>
		</g>
		<g>
			<g>
				<g>
					<polygon class="st1" points="107.9,49.4 111.2,58.9 103.3,53 103.3,53 103.3,53 95.2,58.9 98.5,49.4 98.7,49.4 98.6,49.4 
						90.4,43.9 100.3,43.9 103,34.5 106,43.9 106,43.9 106,43.9 116,43.9 107.8,49.4 107.8,49.4 					"/>
				</g>
			</g>
			<g>
				<g>
					<polygon class="st1" points="107.9,98.5 111.2,107.9 103.3,102 103.3,102 103.3,102 95.2,107.9 98.5,98.5 98.7,98.4 98.6,98.4 
						90.4,92.9 100.3,92.9 103,83.5 106,92.9 106,92.9 106,92.9 116,92.9 107.8,98.4 107.8,98.4 					"/>
				</g>
			</g>
			<g>
				<g>
					<polygon class="st1" points="107.9,147.6 111.2,157 103.3,151 103.3,151 103.3,151 95.2,157 98.5,147.6 98.7,147.4 98.6,147.4 
						90.4,141.9 100.3,141.9 103,132.5 106,141.9 106,141.9 106,141.9 116,141.9 107.8,147.4 107.8,147.4 					"/>
				</g>
			</g>
			<g>
				<g>
					<polygon class="st1" points="107.9,196.6 111.2,206 103.3,200 103.3,200 103.3,200 95.2,206 98.5,196.6 98.7,196.5 98.6,196.5 
						90.4,190.9 100.3,190.9 103,181.5 106,190.9 106,191 106,190.9 116,190.9 107.8,196.5 107.8,196.5 					"/>
				</g>
			</g>
		</g>
		<g>
			<g>
				<g>
					<polygon class="st1" points="56.5,49.4 59.9,58.9 51.9,53 51.9,53 51.9,53 43.9,58.9 47.2,49.4 47.4,49.4 47.3,49.4 39.1,43.9 
						49,43.9 51.7,34.5 54.8,43.9 54.8,43.9 54.8,43.9 64.7,43.9 56.5,49.4 56.5,49.4 					"/>
				</g>
			</g>
			<g>
				<g>
					<polygon class="st1" points="56.5,98.5 59.9,107.9 51.9,102 51.9,102 51.9,102 43.9,107.9 47.2,98.5 47.4,98.4 47.3,98.4 
						39.1,92.9 49,92.9 51.7,83.5 54.8,92.9 54.8,92.9 54.8,92.9 64.7,92.9 56.5,98.4 56.5,98.4 					"/>
				</g>
			</g>
			<g>
				<g>
					<polygon class="st1" points="56.5,147.6 59.9,157 51.9,151 51.9,151 51.9,151 43.9,157 47.2,147.6 47.4,147.4 47.3,147.4 
						39.1,141.9 49,141.9 51.7,132.5 54.8,141.9 54.8,141.9 54.8,141.9 64.7,141.9 56.5,147.4 56.5,147.4 					"/>
				</g>
			</g>
			<g>
				<g>
					<polygon class="st1" points="56.5,196.6 59.9,206 51.9,200 51.9,200 51.9,200 43.9,206 47.2,196.6 47.4,196.5 47.3,196.5 
						39.1,190.9 49,190.9 51.7,181.5 54.8,190.9 54.8,191 54.8,190.9 64.7,190.9 56.5,196.5 56.5,196.5 					"/>
				</g>
			</g>
		</g>
		<g>
			<g>
				<g>
					<polygon class="st1" points="288.7,74 292,83.3 284,77.5 284,77.5 284,77.5 276.1,83.3 279.4,74 279.5,73.8 279.4,73.8 
						271.2,68.4 281.1,68.4 283.8,58.9 286.8,68.4 286.8,68.4 286.9,68.4 296.9,68.4 288.6,73.8 288.6,73.8 					"/>
				</g>
			</g>
			<g>
				<g>
					<polygon class="st1" points="288.7,123 292,132.4 284,126.4 284,126.4 284,126.4 276.1,132.4 279.4,123 279.5,123 279.4,123 
						271.2,117.4 281.1,117.4 283.8,108 286.8,117.4 286.8,117.4 286.9,117.4 296.9,117.4 288.6,123 288.6,123 					"/>
				</g>
			</g>
			<g>
				<g>
					<polygon class="st1" points="288.7,172.1 292,181.5 284,175.5 284,175.5 284,175.5 276.1,181.5 279.4,172.1 279.5,172 
						279.4,172 271.2,166.4 281.1,166.5 283.8,157.1 286.8,166.4 286.8,166.5 286.9,166.5 296.9,166.4 288.6,172 288.6,172 					"/>
				</g>
			</g>
			<g>
				<g>
					<polygon class="st1" points="288.7,221.2 292,230.5 284,224.7 284,224.6 284,224.7 276.1,230.5 279.4,221.2 279.5,221.1 
						279.4,221.1 271.2,215.6 281.1,215.6 283.8,206.1 286.8,215.6 286.8,215.6 286.9,215.6 296.9,215.6 288.6,221.1 288.6,221.1 
											"/>
				</g>
			</g>
			<g>
				<g>
					<polygon class="st1" points="288.7,25.2 292,34.6 284,28.7 284,28.6 284,28.7 276.1,34.6 279.4,25.2 279.5,25.1 279.4,25.1 
						271.2,19.5 281.1,19.5 283.8,10.1 286.8,19.5 286.8,19.6 286.9,19.5 296.9,19.5 288.6,25.1 288.6,25.1 					"/>
				</g>
			</g>
		</g>
		<g>
			<g>
				<g>
					<polygon class="st1" points="237.7,74 241.1,83.3 233,77.5 233,77.5 233,77.5 225.1,83.3 228.4,74 228.5,73.8 228.5,73.8 
						220.2,68.4 230.1,68.4 232.8,58.9 235.8,68.4 235.8,68.4 235.9,68.4 245.9,68.4 237.6,73.8 237.6,73.8 					"/>
				</g>
			</g>
			<g>
				<g>
					<polygon class="st1" points="237.7,123 241.1,132.4 233,126.4 233,126.4 233,126.4 225.1,132.4 228.4,123 228.5,123 228.5,123 
						220.2,117.4 230.1,117.4 232.8,108 235.8,117.4 235.8,117.4 235.9,117.4 245.9,117.4 237.6,123 237.6,123 					"/>
				</g>
			</g>
			<g>
				<g>
					<polygon class="st1" points="237.7,172.1 241.1,181.5 233,175.5 233,175.5 233,175.5 225.1,181.5 228.4,172.1 228.5,172 
						228.5,172 220.2,166.4 230.1,166.5 232.8,157.1 235.8,166.4 235.8,166.5 235.9,166.5 245.9,166.4 237.6,172 237.6,172 					"/>
				</g>
			</g>
			<g>
				<g>
					<polygon class="st1" points="237.7,221.2 241.1,230.5 233,224.7 233,224.6 233,224.7 225.1,230.5 228.4,221.2 228.5,221.1 
						228.5,221.1 220.2,215.6 230.1,215.6 232.8,206.1 235.8,215.6 235.8,215.6 235.9,215.6 245.9,215.6 237.6,221.1 237.6,221.1 
											"/>
				</g>
			</g>
			<g>
				<g>
					<polygon class="st1" points="237.7,25.2 241.1,34.6 233,28.7 233,28.6 233,28.7 225.1,34.6 228.4,25.2 228.5,25.1 228.5,25.1 
						220.2,19.5 230.1,19.5 232.8,10.1 235.8,19.5 235.8,19.6 235.9,19.5 245.9,19.5 237.6,25.1 237.6,25.1 					"/>
				</g>
			</g>
		</g>
		<g>
			<g>
				<g>
					<polygon class="st1" points="184.7,74 188,83.3 180,77.5 180,77.5 180,77.5 172,83.3 175.4,74 175.4,73.8 175.4,73.8 
						167.3,68.4 177.1,68.4 179.9,58.9 182.9,68.4 182.9,68.4 182.9,68.4 192.8,68.4 184.6,73.8 184.6,73.8 					"/>
				</g>
			</g>
			<g>
				<g>
					<polygon class="st1" points="184.7,123 188,132.4 180,126.4 180,126.4 180,126.4 172,132.4 175.4,123 175.4,123 175.4,123 
						167.3,117.4 177.1,117.4 179.9,108 182.9,117.4 182.9,117.4 182.9,117.4 192.8,117.4 184.6,123 184.6,123 					"/>
				</g>
			</g>
			<g>
				<g>
					<polygon class="st1" points="184.7,172.1 188,181.5 180,175.5 180,175.5 180,175.5 172,181.5 175.4,172.1 175.4,172 175.4,172 
						167.3,166.4 177.1,166.5 179.9,157.1 182.9,166.4 182.9,166.5 182.9,166.5 192.8,166.4 184.6,172 184.6,172 					"/>
				</g>
			</g>
			<g>
				<g>
					<polygon class="st1" points="184.7,221.2 188,230.5 180,224.7 180,224.6 180,224.7 172,230.5 175.4,221.2 175.4,221.1 
						175.4,221.1 167.3,215.6 177.1,215.6 179.9,206.1 182.9,215.6 182.9,215.6 182.9,215.6 192.8,215.6 184.6,221.1 184.6,221.1 
											"/>
				</g>
			</g>
			<g>
				<g>
					<polygon class="st1" points="184.7,25.2 188,34.6 180,28.7 180,28.6 180,28.7 172,34.6 175.4,25.2 175.4,25.1 175.4,25.1 
						167.3,19.5 177.1,19.5 179.9,10.1 182.9,19.5 182.9,19.6 182.9,19.5 192.8,19.5 184.6,25.1 184.6,25.1 					"/>
				</g>
			</g>
		</g>
		<g>
			<g>
				<g>
					<polygon class="st1" points="132.9,74 136.2,83.3 128.3,77.5 128.2,77.5 128.2,77.5 120.2,83.3 123.5,74 123.6,73.8 
						123.6,73.8 115.4,68.4 125.2,68.4 128,58.9 131,68.4 131,68.4 131,68.4 141,68.4 132.8,73.8 132.8,73.8 					"/>
				</g>
			</g>
			<g>
				<g>
					<polygon class="st1" points="132.9,123 136.2,132.4 128.3,126.4 128.2,126.4 128.2,126.4 120.2,132.4 123.5,123 123.6,123 
						123.6,123 115.4,117.4 125.2,117.4 128,108 131,117.4 131,117.4 131,117.4 141,117.4 132.8,123 132.8,123 					"/>
				</g>
			</g>
			<g>
				<g>
					<polygon class="st1" points="132.9,172.1 136.2,181.5 128.3,175.5 128.2,175.5 128.2,175.5 120.2,181.5 123.5,172.1 123.6,172 
						123.6,172 115.4,166.4 125.2,166.5 128,157.1 131,166.4 131,166.5 131,166.5 141,166.4 132.8,172 132.8,172 					"/>
				</g>
			</g>
			<g>
				<g>
					<polygon class="st1" points="132.9,221.2 136.2,230.5 128.3,224.7 128.2,224.6 128.2,224.7 120.2,230.5 123.5,221.2 
						123.6,221.1 123.6,221.1 115.4,215.6 125.2,215.6 128,206.1 131,215.6 131,215.6 131,215.6 141,215.6 132.8,221.1 132.8,221.1 
											"/>
				</g>
			</g>
			<g>
				<g>
					<polygon class="st1" points="132.9,25.2 136.2,34.6 128.3,28.7 128.2,28.6 128.2,28.7 120.2,34.6 123.5,25.2 123.6,25.1 
						123.6,25.1 115.4,19.5 125.2,19.5 128,10.1 131,19.5 131,19.6 131,19.5 141,19.5 132.8,25.1 132.8,25.1 					"/>
				</g>
			</g>
		</g>
		<g>
			<g>
				<g>
					<polygon class="st1" points="82.1,74 85.5,83.3 77.5,77.5 77.4,77.5 77.4,77.5 69.5,83.3 72.8,74 72.9,73.8 72.9,73.8 
						64.7,68.4 74.5,68.4 77.2,58.9 80.3,68.4 80.3,68.4 80.3,68.4 90.3,68.4 82,73.8 82,73.8 					"/>
				</g>
			</g>
			<g>
				<g>
					<polygon class="st1" points="82.1,123 85.5,132.4 77.5,126.4 77.4,126.4 77.4,126.4 69.5,132.4 72.8,123 72.9,123 72.9,123 
						64.7,117.4 74.5,117.4 77.2,108 80.3,117.4 80.3,117.4 80.3,117.4 90.3,117.4 82,123 82,123 					"/>
				</g>
			</g>
			<g>
				<g>
					<polygon class="st1" points="82.1,172.1 85.5,181.5 77.5,175.5 77.4,175.5 77.4,175.5 69.5,181.5 72.8,172.1 72.9,172 
						72.9,172 64.7,166.4 74.5,166.5 77.2,157.1 80.3,166.4 80.3,166.5 80.3,166.5 90.3,166.4 82,172 82,172 					"/>
				</g>
			</g>
			<g>
				<g>
					<polygon class="st1" points="82.1,221.2 85.5,230.5 77.5,224.7 77.4,224.6 77.4,224.7 69.5,230.5 72.8,221.2 72.9,221.1 
						72.9,221.1 64.7,215.6 74.5,215.6 77.2,206.1 80.3,215.6 80.3,215.6 80.3,215.6 90.3,215.6 82,221.1 82,221.1 					"/>
				</g>
			</g>
			<g>
				<g>
					<polygon class="st1" points="82.1,25.2 85.5,34.6 77.5,28.7 77.4,28.6 77.4,28.7 69.5,34.6 72.8,25.2 72.9,25.1 72.9,25.1 
						64.7,19.5 74.5,19.5 77.2,10.1 80.3,19.5 80.3,19.6 80.3,19.5 90.3,19.5 82,25.1 82,25.1 					"/>
				</g>
			</g>
		</g>
		<g>
			<g>
				<g>
					<polygon class="st1" points="30.5,74 33.8,83.3 25.9,77.5 25.9,77.5 25.9,77.5 17.9,83.3 21.2,74 21.3,73.8 21.3,73.8 13,68.4 
						22.9,68.4 25.6,58.9 28.7,68.4 28.7,68.4 28.7,68.4 38.6,68.4 30.5,73.8 30.4,73.8 					"/>
				</g>
			</g>
			<g>
				<g>
					<polygon class="st1" points="30.5,123 33.8,132.4 25.9,126.4 25.9,126.4 25.9,126.4 17.9,132.4 21.2,123 21.3,123 21.3,123 
						13,117.4 22.9,117.4 25.6,108 28.7,117.4 28.7,117.4 28.7,117.4 38.6,117.4 30.5,123 30.4,123 					"/>
				</g>
			</g>
			<g>
				<g>
					<polygon class="st1" points="30.5,172.1 33.8,181.5 25.9,175.5 25.9,175.5 25.9,175.5 17.9,181.5 21.2,172.1 21.3,172 
						21.3,172 13,166.4 22.9,166.5 25.6,157.1 28.7,166.4 28.7,166.5 28.7,166.5 38.6,166.4 30.5,172 30.4,172 					"/>
				</g>
			</g>
			<g>
				<g>
					<polygon class="st1" points="30.5,221.2 33.8,230.5 25.9,224.7 25.9,224.6 25.9,224.7 17.9,230.5 21.2,221.2 21.3,221.1 
						21.3,221.1 13,215.6 22.9,215.6 25.6,206.1 28.7,215.6 28.7,215.6 28.7,215.6 38.6,215.6 30.5,221.1 30.4,221.1 					"/>
				</g>
			</g>
			<g>
				<g>
					<polygon class="st1" points="30.5,25.2 33.8,34.6 25.9,28.7 25.9,28.6 25.9,28.7 17.9,34.6 21.2,25.2 21.3,25.1 21.3,25.1 
						13,19.5 22.9,19.5 25.6,10.1 28.7,19.5 28.7,19.6 28.7,19.5 38.6,19.5 30.5,25.1 30.4,25.1 					"/>
				</g>
			</g>
		</g>
	</g>
</g>
</svg>
