<?xml version="1.0" encoding="utf-8"?>
<!-- Generator: Adobe Illustrator 27.0.0, SVG Export Plug-In . SVG Version: 6.00 Build 0)  -->
<svg version="1.1" id="Layer_1" xmlns="http://www.w3.org/2000/svg" xmlns:xlink="http://www.w3.org/1999/xlink" x="0px" y="0px"
	 viewBox="0 0 1080 1080" style="enable-background:new 0 0 1080 1080;" xml:space="preserve">
<style type="text/css">
	.st0{fill:#6B4E45;}
	.st1{fill:#E9DFCF;}
</style>
<rect class="st0" width="1080" height="1080"/>
<g>
	<g>
		<g>
			<path class="st1" d="M484,501.2c-7.5-3.7-13.5-2.5-19.3-2.5c-57.2-0.1-114.4-0.3-171.6,0.3c-13.6,0.2-17.9-4-17.3-17.7
				c1-23.9,0.7-47.9-0.1-71.8c-0.5-12.4,4.1-15.4,16-15.4c163.4,0.3,326.8,0.2,490.2,0.2c2.7,0,5.5,0.4,8.2,0
				c10.6-1.4,14.2,2.8,13.9,13.6c-0.7,25.6-0.7,51.1-0.2,76.7c0.2,10.1-2.4,13.8-13.5,14.4c-136.9,7.4-247.8,64.7-329.4,175.4
				c-35.6,48.3-59.6,102.2-70.9,161.8c-4.7,25.1-5.7,50.5-9.7,75.6c-1.4,8.6-4.2,10.7-12.2,10.6c-26.1-0.5-52.3-0.5-78.4-0.3
				c-9.6,0.1-13.2-2.9-12.6-13.5c2.9-52.9,10.7-104.5,27.8-155.3c22.4-66.4,57-125.1,101.5-178.2c19.3-23,41.4-43.8,65.2-62.4
				C475.7,509.5,479.3,505.8,484,501.2z"/>
			<path class="st1" d="M589.3,269.3l92.4,92.4c4.1,4.1,10.9,4.1,15,0l92.4-92.4c4.1-4.1,4.1-10.9,0-15l-92.4-92.4
				c-4.1-4.1-10.9-4.1-15,0l-92.4,92.4C585.1,258.4,585.1,265.2,589.3,269.3z"/>
		</g>
	</g>
</g>
</svg>
