<?xml version="1.0" encoding="utf-8"?>
<!-- Generator: Adobe Illustrator 27.0.0, SVG Export Plug-In . SVG Version: 6.00 Build 0)  -->
<svg version="1.1" id="Layer_1" xmlns="http://www.w3.org/2000/svg" xmlns:xlink="http://www.w3.org/1999/xlink" x="0px" y="0px"
	 viewBox="0 0 819.8 520.2" style="enable-background:new 0 0 819.8 520.2;" xml:space="preserve">
<style type="text/css">
	.st0{fill:#006C35;}
	.st1{fill:#FFFFFF;}
</style>
<g>
	<g>
		<g>
			<g>
				<rect x="0.1" class="st0" width="819.6" height="520.2"/>
			</g>
		</g>
	</g>
	<g>
		<g>
			<g>
				<g>
					<path class="st1" d="M557.5,375.8h-40.9v-3.3l3-3c0.5-0.5,0.5-1.4,0-2l-3.9-3.9c-0.5-0.5-1.4-0.5-2,0l-3.9,3.9
						c-0.5,0.5-0.5,1.4,0,2l3,3v3.3H253.9c0.3,0.2,8.9,9.1,23.3,9.1l235.8,0.3v3.6l-3,3c-0.5,0.5-0.5,1.4,0,2l3.9,3.9
						c0.5,0.5,1.4,0.5,2,0l3.5-3.5h11.7c0.8,1.1,2.5,1.9,4.3,1.9c1.9,0,3.5-0.8,4.3-1.9h13.5c1.3,1.2,2.9,1.9,4.8,1.9l0.9,0
						c3.2,0,5.7-2.5,5.8-5.7l0.1-7.3C564.9,379.1,561.6,375.8,557.5,375.8z M516.6,385.2l35.1,0l-0.2,0.5c-0.4,1-0.6,2-0.6,3.1v0.2
						c0,0.7,0.1,1.3,0.3,1.9h-11.6c-0.8-1.1-2.5-1.9-4.3-1.9c-1.9,0-3.5,0.8-4.3,1.9h-12.2l-2.1-2.1V385.2z"/>
				</g>
			</g>
		</g>
		<g>
			<g>
				<g>
					<g>
						<path class="st1" d="M203.5,138.3c0,0-0.3-7.9,9.6-12.1c0,0-5.9,10-4.8,11.7c1.1,1.6,8.1-1.1,8.1-1.1s-2.1,8.7-8,7.9
							C203.5,143.8,203.5,138.3,203.5,138.3z"/>
					</g>
				</g>
			</g>
			<g>
				<g>
					<g>
						<path class="st1" d="M209.6,147.6c0,0-6.8,1.7-6.3,14.4c0.5,12.7,4.9,15.5,11.4,15.5c6.5,0,9.3-4.1,11.7-11.8
							c2.4-7.7,3.7-17.9,7.8-19.7c0,0-2.9,9.6-2.9,14.6c0,5.2,0.6,13.8,15.2,17.3l5,50.5c0,0,4.4,0.6,5.1-16.7
							c0.7-17.3-1.7-35.5-1.7-35.5s11.8-3.6,14.3-18.1c0,0,2.8,15.6,18.5,15.3c15.7-0.3,14.1-15.9,14.1-15.9s-0.6-7.9-5.1-14.2
							c-4.5-6.3-2.7-8.6,1.2-7.9c0,0-4.5-10.4-9.2-12.1c-4.8-1.8-4.3,6.8-4.3,6.8s0.8,6.3,4.3,12.5c3.5,6.2,7.2,14.4,6.7,16.9
							c-0.5,2.5-1.8,5.9-7.1,5.7c-5.3-0.3-13.8-4.4-15.4-14c-1.6-9.7-0.3-11.1-2.1-17.9c-1.8-6.8-2.9-7.7-4-7.7
							c-1.1,0-5.2,3.4-4.5,5.8c0.7,2.4,4.4,13.9,4.4,17.3c0,3.4-1.7,16.2-12.6,19.5l-2.5-24.9l3.9,0.8c0,0-0.1-12.1-6.8-20.8
							c0,0-6.1,1.6-5.8,5c0.3,3.4,2.7,39.9,2.7,39.9s-9.8-2.4-8.7-11.6c1-9.2,4.2-22.7,4.2-22.7s-11.4,1.1-15.8,20.6
							c0,0-3.9,18.5-10.8,17.4c-4.6-0.7-7.3-5.4-7.3-13.3C207,150.8,209.6,147.6,209.6,147.6z"/>
					</g>
				</g>
			</g>
			<g>
				<g>
					<g>
						<path class="st1" d="M278.6,146.4c3.1,0.1,8.8,2.1,7.2,14.9c0,0-2.5-8-7-10.7c-0.6-0.4-1.1-0.7-1.5-1.1
							C276.1,148.4,276.9,146.4,278.6,146.4z"/>
					</g>
				</g>
			</g>
			<g>
				<g>
					<g>
						<path class="st1" d="M318.3,131.3c3.1,0.1,8.8,2.1,7.2,14.9c0,0-2.5-8-7-10.7c-0.6-0.4-1.1-0.7-1.5-1.1
							C315.9,133.3,316.7,131.3,318.3,131.3z"/>
					</g>
				</g>
			</g>
			<g>
				<g>
					<g>
						<path class="st1" d="M376.9,125.3c3.1,0.1,8.8,2.1,7.2,14.9c0,0-2.5-8-7-10.7c-0.6-0.4-1.1-0.7-1.5-1.1
							C374.5,127.3,375.3,125.2,376.9,125.3z"/>
					</g>
				</g>
			</g>
			<g>
				<g>
					<g>
						<path class="st1" d="M587.5,159.7c3.5,0.2,9.9,2.5,8.2,17.9c0,0-2.9-9.6-7.9-13c-0.7-0.5-1.3-0.9-1.7-1.3
							C584.7,162.1,585.6,159.7,587.5,159.7z"/>
					</g>
				</g>
			</g>
			<g>
				<g>
					<g>
						<path class="st1" d="M516,241.1c2.7,0.1,7.6,1.9,6.3,13.8c0,0-2.2-7.4-6-10c-0.5-0.4-1-0.7-1.3-1
							C513.9,242.9,514.6,241,516,241.1z"/>
					</g>
				</g>
			</g>
			<g>
				<g>
					<g>
						<path class="st1" d="M275.6,141.9c-3-1.3-2.3-4.3-1.7-5.7c0.1-0.4,0.6-0.4,0.8-0.1c0.5,0.8,1.1,2.1,1.1,3.5l1.2-0.3
							c0.3-0.1,0.6-0.4,0.6-0.7l0.3-3.1c0-0.2,0.3-0.3,0.4-0.1l1.7,2.8c0.1,0.1,0.2,0.2,0.4,0.2l1.5-0.2c0.2,0,0.4-0.2,0.4-0.4v-2.9
							c0-0.4,0.5-0.6,0.8-0.3c1.2,1.2,2.4,4,1.3,5.3c-1.9,2.1-6.3,2.1-7.7,2.2C276.3,142.1,276,142,275.6,141.9z"/>
					</g>
				</g>
			</g>
			<g>
				<g>
					<g>
						<path class="st1" d="M220,179.1c-2.3,4,0.4,8.6,0.3,9.7c-0.3,3.5-11.1,9-14.9,10.2c-2.1,0.7-1.5,1.9-1,1.9
							c1.4,0.2,12.8-2.5,15.6-4.6c2.4-1.8,4.2-4.6,7.2-5.5c0.6-0.2,4.2-0.4,5.1-3.6C233.9,180.9,222.8,174.4,220,179.1z
							 M224.5,182.5l-0.7,2c-0.2,0.5-0.9,0.5-1,0c-0.2-0.7-0.5-1.6-0.7-2.2c-0.1-0.4,0.2-0.8,0.6-0.7l1.5,0.2
							C224.4,181.8,224.6,182.1,224.5,182.5z M227.2,187.9c-0.4,0-0.7-0.4-0.5-0.8l1.2-2.6c0.2-0.4,0.8-0.4,1,0c0.4,1.2,1,2.9,1,3
							C229.9,187.8,228.3,187.9,227.2,187.9z"/>
					</g>
				</g>
			</g>
			<g>
				<g>
					<g>
						<path class="st1" d="M533.9,200c-2.3,4,0.4,8.6,0.3,9.7c-0.3,3.5-11.1,9-14.9,10.2c-2.1,0.7-1.5,1.9-1,1.9
							c1.4,0.2,12.8-2.5,15.6-4.6c2.4-1.8,4.2-4.6,7.2-5.5c0.6-0.2,4.2-0.4,5.1-3.6C547.8,201.8,536.7,195.3,533.9,200z
							 M538.4,203.3l-0.7,2c-0.2,0.5-0.9,0.5-1,0c-0.2-0.7-0.5-1.6-0.7-2.2c-0.1-0.4,0.2-0.8,0.6-0.7l1.5,0.2
							C538.3,202.6,538.5,203,538.4,203.3z M541.1,208.7c-0.4,0-0.7-0.4-0.5-0.8l1.2-2.6c0.2-0.4,0.8-0.4,1,0c0.4,1.2,1,2.9,1,3.1
							C543.8,208.7,542.2,208.7,541.1,208.7z"/>
					</g>
				</g>
			</g>
			<g>
				<g>
					<g>
						<path class="st1" d="M237.3,192.4c-3-1.6-23.2,9.2-28.2,15.2c-0.6,0.8-0.1,2,0.9,2l1.1,0.1c0.2,0,0.4,0,0.6-0.1
							c2-1,13.6-6.9,24.7-11.9c0.6-0.3,1.1-0.7,1.4-1.3C238.3,195.2,238.9,193.3,237.3,192.4z"/>
					</g>
				</g>
			</g>
			<g>
				<g>
					<g>
						<path class="st1" d="M213.6,215c0.4-0.5-0.2-1.2-0.8-0.8c-3.6,2.1-9,6.2-8.5,11.3c0.7,7.6,6.6,6.1,6.6,6.1s5.3-1.6,5.8-7
							L210,226c-0.3,0.1-0.5-0.2-0.4-0.4C209.8,223.9,210.9,218.7,213.6,215z"/>
					</g>
				</g>
			</g>
			<g>
				<g>
					<g>
						<path class="st1" d="M339.1,176.9c-0.9,0-1.8,6.3-2.2,9.3c-0.4,2.9-3,5-5.9,4.7c0,0-0.1,0-0.1,0c-6.7-0.8-4.4-9.4-4.4-9.4
							s-8.3,2.6-9.9,9.1l-1.5-14.2c0,0,24.7-10.8,21.3-13.3c-3.3-2.4-21.9,9.2-21.9,9.2l-4.3-29.1l4,2.1c0,0,0-16.4-7.7-21
							c0,0-5.9,0.5-5.2,7.6c0.7,7.1,7,63.1,7,63.1s-7.9,2.1-7.5-9.9c0,0-8.3,4.2-15.3,10.1c0,0-5.1-12-15.1-11
							c-10,1-11.9,9.8-11.9,15.2c0,5.3,2.7,9.2,10.9,9.5c8.2,0.3,12.8-3.4,12.8-3.4s1.9,5.7-3.8,9.6c-5.6,3.9-28.9,18.5-45.9,24.4
							c0,0-5.7-21.7,3.8-37.2c-0.4,0.4-14.9,14.2-12.1,40.2l-18.9,6.3c0,0,14.3,2,22,0c0,0,5,7.9,21.5,7.9
							c16.5,0,42.9-8.3,57.9-25.5c10.9-12.5,10.2-27.8,10.2-27.8c0.4-0.4,3.9-8.6,3.9-8.6s3.1,7.2,9.3,5.8c6.3-1.4,12.6-6,12.6-13
							C342.8,180.5,343.6,176.9,339.1,176.9z M265.6,196.2c1.5-5.1,11.2,1.3,11.2,1.3S264.5,200.2,265.6,196.2z M269.5,242.5
							c-8.3,2.3-16.1,2.5-28.4,3c0,0,32.3-12.1,44.1-27.7c5.3-7,3.6-15,3.6-15.3c0,0,5.5-3,6.9-5.6c0,0,3.1,8.8,14.2,7.8
							C310,204.7,315.1,229.5,269.5,242.5z"/>
					</g>
				</g>
			</g>
			<g>
				<g>
					<g>
						<path class="st1" d="M348.2,149.6c0,0,0.4-3.4,1.9-5.4c1.5-2.1,2-3,1.9-5.4c-0.2-2.4-2.9-12.6-8.3-11.8
							c-3.5,0.5-3.6,2.7-3.3,4.2c0.2,0.7,0.5,1.4,1,2l2.4,2.7c-1.5,6-14.1,13.2-14.1,13.2s9.3,0.5,18.1-11.9c0,0,0.7,4-1.6,7.4
							c-2.2,3.4-2.6,8.6,1.6,9.4c0,0,4.2,1.1,3.9-6.1L348.2,149.6z M343.6,129.2c1.4,0.2,2,2.6,2,2.6
							C344.5,131.4,343.6,129.2,343.6,129.2z"/>
					</g>
				</g>
			</g>
			<g>
				<g>
					<g>
						<path class="st1" d="M340.6,149.2c0,0-3.8,9-3.4,16.3c0.4,7.3,4.2,12.2,10.3,12c6.2-0.3,9.9-4.1,12.5-13.7
							c2.6-9.7,4.4-14.9,7.3-17.7c0,0-2.9,11.2-2.9,16.3c0,5.1,2.8,14.8,16.8,15.5c14,0.7,21.3-15.2,21.3-18.7
							c0,0,2.4,14.9,17.4,14.6c15-0.2,14.4-15.5,14.4-15.5s-1.1-8.3-4.6-13.8c-3.4-5.5-2.9-8.9-2.9-8.9h4.5c0,0-5.8-11.1-10.3-10.2
							c-4.5,1-1.7,11.4-0.5,14.2c1.2,2.8,9.1,17.2,8.7,20.8c-0.4,3.6-3.4,5.5-7.5,5.5c-4,0-13.1-2.3-15.7-18.9
							c-2.5-16.6-2.2-20.2-5-21.1c-2.8-0.9-4.9,3.8-4.9,7.2c0,3.4,4.8,7.3,4.4,16.1c-0.4,8.8-3.2,19.4-17.5,20.8
							c-6.7,0.7-10.1-2.6-11.8-5.9c-1.6-3.1-1.9-6.7-0.9-10.1c1.5-5.4,4.3-16,3.9-18.4c0,0-4.9-0.8-9.8,8.2
							c-4.9,9-8.2,21.1-8.2,21.1s-2.5,7.6-7.5,7.6c-5,0-8.2-5.5-8.1-10.4C340.5,157.4,340.6,149.2,340.6,149.2z"/>
					</g>
				</g>
			</g>
			<g>
				<g>
					<g>
						<path class="st1" d="M376.5,142.9c0,0-4,1.8-3.6,6.1c0.5,4.4,2.2,6.4,5.4,6.4c3.2,0,4.6-2.8,4.6-2.8s2.7,3,5.1,2.8
							c2.4-0.2,5.3-2.9,4.9-4.9c-0.4-2-3.6-7.1-3-10l-1.9,1.5c-0.6,0.5-1,1.3-0.9,2.1l0.8,6.5c0,0-4.4-1-4.4-8.6
							c0,0-3.1-0.3-3.3,4.5c-0.1,2.2-0.3,3.4-0.5,4c-0.1,0.4-0.5,0.6-0.9,0.6c-1.2-0.2-3.4-0.8-2.8-3.1
							C376.5,146,376.5,142.9,376.5,142.9z"/>
					</g>
				</g>
			</g>
			<g>
				<g>
					<g>
						<path class="st1" d="M389.8,181.7c0,0-4,1.8-3.6,6.1c0.5,4.4,2.2,6.4,5.4,6.4c3.2,0,4.6-2.8,4.6-2.8s2.7,3,5.1,2.8
							c2.4-0.2,5.3-2.9,4.9-4.9c-0.4-2-3.6-7.1-3-10l-1.9,1.5c-0.6,0.5-0.9,1.3-0.9,2.1l0.8,6.5c0,0-4.4-1-4.4-8.5
							c0,0-3.1-0.3-3.3,4.5c-0.1,2.2-0.3,3.4-0.5,4c-0.1,0.4-0.5,0.6-0.9,0.6c-1.2-0.2-3.4-0.8-2.8-3.1
							C389.8,184.7,389.8,181.7,389.8,181.7z"/>
					</g>
				</g>
			</g>
			<g>
				<g>
					<g>
						<path class="st1" d="M487,159c0,0-4,1.8-3.6,6.1c0.5,4.4,2.2,6.4,5.4,6.4c3.2,0,4.6-2.8,4.6-2.8s2.7,3,5.1,2.8
							c2.4-0.2,5.3-2.9,4.9-4.9c-0.4-2-3.6-7.1-3-10l-1.9,1.5c-0.6,0.5-0.9,1.3-0.9,2.1l0.8,6.5c0,0-4.4-1-4.4-8.5
							c0,0-3.1-0.3-3.3,4.5c-0.1,2.2-0.3,3.4-0.5,4c-0.1,0.4-0.5,0.6-0.9,0.6c-1.2-0.2-3.4-0.8-2.8-3.1C487,162.1,487,159,487,159z"
							/>
					</g>
				</g>
			</g>
			<g>
				<g>
					<g>
						<path class="st1" d="M330.9,219c0,0-2-7.3-7-10.2c-0.7-0.4-1.3-1.1-1.6-1.9c-0.4-1.2,1.1-2.8,2.7-2.5c4.8,1,5.4,4.1,5.4,4.1
							s1.8-5.9,5.2-5.8c2.3,0.1,3.6,1.2,4.3,2.1c0.4,0.5,0.4,1.2,0.1,1.8l-1.1,1.5c-0.2,0.3-0.7,0.4-1.1,0.1c-0.7-0.6-2-1.5-2.9-1.2
							C333.4,207.4,330.9,219,330.9,219z"/>
					</g>
				</g>
			</g>
			<g>
				<g>
					<g>
						<path class="st1" d="M487.7,141.6c0,0-2-7.3-7-10.2c-0.7-0.4-1.3-1.1-1.6-1.9c-0.4-1.2,1.1-2.8,2.7-2.5c4.8,1,5.4,4.1,5.4,4.1
							s1.8-5.9,5.2-5.8c2.3,0.1,3.6,1.2,4.3,2.1c0.4,0.5,0.4,1.2,0.1,1.8l-1.1,1.5c-0.2,0.3-0.7,0.4-1.1,0.1c-0.7-0.6-2-1.5-2.9-1.2
							C490.2,130,487.7,141.6,487.7,141.6z"/>
					</g>
				</g>
			</g>
			<g>
				<g>
					<g>
						<path class="st1" d="M465.4,216.6c-0.2-0.5-0.8-0.9-1.4-0.9h-60.7c5.9-5.6,15.4-8.9,22.9-10.7c2,3.1,2.4,5.1,2.4,5.1
							s2.5-0.1,3-4.8c0-0.5,0-1,0-1.4c5.4-1,12.6-0.8,13.2-8.6c0.4-5-13.5-10.6-18.9-10.8c-5.4-0.2-8.3,5.8-8.8,8.3
							c-0.6,2.6,1.3,3.4,3.9,5.9c-9.1,2.7-18.9,8-18.9,8c-13.3,5.8-16.8,16.4-11.9,16.5l35,0.3c0,0-6.9,2.8-17.6,6.9
							c-10.8,4.1-9.4,10.1-9.4,10.1c-4.5,0-10.2-6.8-11.3-16.1c-1.2-9.8-3.8-20.9-4.8-25c-2-8-12-22-13.8-22
							c-1.8,0-5.1,6.9,0.6,16.3c5.7,9.4,10.5,25.2,10.5,25.2c-2.8,1.4-10.7,8.3-10.7,8.3c-13.5,12.1-27,15.9-29.9,15.9
							c-2.9,0-4.4-2.1-4.4-2.1c40.9-26.5,25.5-31.5,21.3-45.8l3.4-0.8c0,0-8.5-14.7-10.6-12.5c-2.2,2.1-2.2,8.6-2.2,8.6
							c0,3.2,5.7,16.2,7.7,20.7c2.5,5.6-20.1,19.1-21.4,20.3c-0.8-3.5,4-13.6,4-13.6c-11,6.1-6.3,11.2-9.9,16.6
							c-3.6,5.3-49.5,23.8-49.5,23.8c29.7,0.4,50.5-13.5,50.5-13.5s3.1,10.5,10.7,8.9c25.3-5.1,42.3-28.8,42.3-28.8
							c2.4,29.5,30.8,31.7,33.7,31.7c2.9,0,4.7-0.6,5.7-4.9c1.6-6.4-4.4-5.9-19.2-10c15.3-15.3,57.4-10.8,64.7-23.5
							c0-0.1,0.1-0.2,0.1-0.3C465.7,217.4,465.7,217,465.4,216.6z M426.3,190.5c2.5-0.6,7.9,2.3,8.2,3.7c0.2,1.4-5.9,4-7.9,2.3
							c-1.8-1.5-3.5-2.6-3.8-3.2C422.1,192,423.8,191.1,426.3,190.5z"/>
					</g>
				</g>
			</g>
			<g>
				<g>
					<g>
						<path class="st1" d="M374.8,238.7c-0.2-0.8,0.3-1.6,1-1.8c1.9-0.5,6.1-1.2,6.4,3.1c0.3,3.9-5.5,3.4-5.5,3.4s-4,0.1-1.8,3.7
							c2.2,3.6,2.9,6.6,0,9.5c0,0-0.5-6.1-3.7-10.6c-0.8-1.1-0.8-2.7,0.1-3.8c0.7-0.9,1.8-1.8,3.8-2.8
							C375,239.3,374.8,239,374.8,238.7z"/>
					</g>
				</g>
			</g>
			<g>
				<g>
					<g>
						<path class="st1" d="M436.6,241.7H432c0,0,3.1-5.4,7.4-5c4.3,0.4,6.5,2,6.5,2.5c0,0.5-6,5-9,7.2c-0.6,0.5-0.3,1.5,0.5,1.6
							c0.4,0,0.9,0,1.5-0.1c2.8-0.4,9.2-4.6,12.6-4.6c0,0-7,8.6-10.9,8.6c-3.9,0-8.9-1.5-9.2-4.2C431,244.9,436.6,241.7,436.6,241.7
							z"/>
					</g>
				</g>
			</g>
			<g>
				<g>
					<g>
						<path class="st1" d="M461,235.8c0,0-5.9,2.9-5.4,8c0.6,6.3,8.7,4.6,5.6,0.2C459.2,241.2,458.4,241.1,461,235.8z"/>
					</g>
				</g>
			</g>
			<g>
				<g>
					<g>
						<path class="st1" d="M442.6,210.1c-0.2,0,9.1-1.1,12.1-6.7c0,0-3.4-7.3,3.7-8.5c0,0,1.2,7.4,2.6,8.2l-2.7,0.5
							C458.3,203.7,455.6,212.1,442.6,210.1z"/>
					</g>
				</g>
			</g>
			<g>
				<g>
					<g>
						<path class="st1" d="M440.4,175.2l-4.9,1.1c0,0,2.1-6.4,6.8-6.1c3.3,0.2,2.9,3.9,2.3,6c-0.3,1-0.8,1.9-1.5,2.6
							c-1.9,2-6.4,5.7-13.2,5.4c0,0,5.8-2,8.7-4.3c0.9-0.7,1.5-1.8,1.6-2.9L440.4,175.2z"/>
					</g>
				</g>
			</g>
			<g>
				<g>
					<g>
						<path class="st1" d="M442.5,123.7c0,0-10.3,5.1-9.9,11.6c0.3,4.6,2.6,6.3,4.7,6.3c2.1,0,6.8-1.3,7.9-7.2c0,0-5.6,2-7.3,1.4
							C436.3,135.2,442.5,123.7,442.5,123.7z"/>
					</g>
				</g>
			</g>
			<g>
				<g>
					<g>
						<path class="st1" d="M479.1,148.3l2.4,4c0,0-6.9-1.1-6.5-4.6c0.4-3.4,20.6-10.3,25.6-11.3c2.3-0.4,3.9,0.1,3.9,0.1
							s-1.1,2.2-3.7,3.3C498.2,140.8,486.5,144.3,479.1,148.3z"/>
					</g>
				</g>
			</g>
			<g>
				<g>
					<g>
						<path class="st1" d="M483.4,189l1.8,2.1l24.9-12.7c0,0,3.1-1.8,2.8-3.7c-0.3-1.9-4.9,0.8-4.9,0.8S488.6,184.7,483.4,189z"/>
					</g>
				</g>
			</g>
			<g>
				<g>
					<g>
						<path class="st1" d="M543.9,255.5l0.5,0.7c0.3,0.4,0.8,0.5,1.2,0.4l25.3-9.9c0,0,0,0,0.1,0c0.3-0.2,3.2-1.6,3.1-3.4
							c-0.1-1.8-4.5,0.1-4.9,0.3c0,0,0,0-0.1,0c-0.8,0.3-18.4,6.6-24.8,10.4C543.7,254.4,543.5,255.1,543.9,255.5z"/>
					</g>
				</g>
			</g>
			<g>
				<g>
					<g>
						<path class="st1" d="M614.4,176.8C614.4,176.8,614.4,176.8,614.4,176.8c-1.1-15.3-2.8-31-3.1-34.8l3.4,1.1
							c0,0,0.2-11.9-4.5-18.5c-1-1.4-2.9-1.8-4.4-0.9c-1.7,1-3.6,2.8-3.4,5.9c0,0,2.8,34.9,5.5,61.3c0,0,0,0,0,0c0,0,0,0.1,0,0.2
							c0,0,0,0.1,0,0.1c0,0,0,0.1,0,0.1c0,0.2,0.1,0.5,0.1,0.9c0.1,0.6,0.1,1.4,0.2,2.4c0,0.1,0,0.2,0,0.4c0,0,0,0.1,0,0.1
							c0.8,8.1,2.2,25.1,0.3,28.1c0,0,0.5-6.5-7.6-14.6c-3.3-3.4-9.9-9.2-17.5-16c-1.2-20.7-3-43.1-3.5-49.3
							c1.6,0.7,3.6,1.5,3.6,1.5s0.4-2.3-0.1-5.8c2.8-2.7,6.5-6.4,8.7-8.6c3.9-3.9,3.3-8.3,3.3-8.3l-14.1,9.6
							c-0.9-1.9-2.1-3.9-3.7-5.9c-1.3-1.6-3.7-1.7-5.1-0.2c-1.7,1.8-3.1,5.6-1.5,13l-18.6,15.9c-0.7-5.2-1.4-9.1-2.1-11.2l4.6,1.4
							c0,0,0.2-9.9-5.9-19.2c-1.1-1.8-3.6-2.1-5.1-0.7c-1.4,1.3-2.5,3.6-2.2,7.9c0.2,2.1,0.8,8.1,1.6,16.2c0.5,0.5,0.7,0.8,0.7,0.8
							l-0.6,0.2c0.1,1.4,0.3,2.9,0.5,4.4c-1.5-1.6-2.5-2.7-3.2-3.4l2.7-1c0-0.4-0.1-0.7-0.1-1.1c-2.3-2.6-9.9-10.7-17.2-13.2
							c-1.9-0.6-3.6,0.3-4.1,2c-0.5,2-0.5,5,2.1,7.6c0,0,6.6,7.5,17.3,18.5l-19.8,17c-1.1-15.9-2.9-33-3.3-37.1l3.4,1.1
							c0,0,0.2-11.9-4.5-18.5c-1-1.4-2.9-1.8-4.4-0.9c-1.7,1-3.6,2.8-3.4,5.9c0,0,2.4,30.3,4.9,55.8l-0.8,0.7c0,0-8.4,5.7-17,13.8
							c-5.6-4.9-10.9-7.7-24.9-20.8c-1.3-19.6-2.9-37.4-2.9-37.4l3.7,1.3c0,0,0.3-11.3-5-18.8c-1.1-1.5-3.1-1.8-4.6-0.8
							c-1.9,1.3-4,3.5-3.8,7.5l2.9,38.8c-7.5-7.5-12.4-13.1-12.4-13.1h5.7c0,0-5.2-9.8-15.6-13.8c-2.5-1-5,1.2-4.4,3.8
							c2.3,10.4,19.9,27.6,27.6,35c1.2,15.5,2,26,2.5,33.3c0,0.4,0.1,0.9,0.1,1.3c1.5,20.3,1,13.5,3.3,25.7c0,0,3.6-4.5,4.5-16.4
							c0.5-6.5-0.1-20.4-1-35.1c7.9,7.1,17,14.8,18.1,15.6c-6.5,7.2-11.8,15.4-11.4,22.7c0.1,1.8,0.7,3.2,1.7,4.3
							c-0.3,5.9,0.3,19.3,11,24.7c4.2,2.1,9.3,1.1,12.3-2.5c1.9-2.4,3.6-6,4.9-11.5c2.7-11.4,12.9-12.9,12.9-12.9
							s4.1,19.4,19.7,17.4c15.6-2,16.6-11.1,16.6-17.1c0-12.5-1.3-35.7-3.2-55.5c0.7,0.7,1.4,1.4,2.2,2.1c6.3,6,12.8,11.6,18.6,16.6
							c1.6,21.3,3.4,41.8,4.6,48.2c0,0,3.3-4.4,4.1-15.9c0.3-4.9,0.1-14.4-0.5-25.3c5.6,4.8,9.8,8.6,11.5,11.2c0,0,7.9,9.4,9.7,17.9
							c-6.9,10.3-39.5,23.8-39.5,23.8s10.3,3,26.3-4.4c16-7.4,24.1-18.2,24.5-36.4C616.8,197.8,614.5,178.1,614.4,176.8z M496,212.5
							c2.7,2.6,5.3,5.6,5.3,7.6c0,4.1-8.6,7.9-15.9,6.9C485.4,227,486.8,220.8,496,212.5z M541.4,240.3c-11.1,0-11.8-9-13.7-12.1
							c0,0-1.1-5.1-6.2-4.8c-5.1,0.3-10.6,3.5-16.1,14.8c-5.5,11.2-5.2,14.8-10.7,14.8c-4.9,0-9.6-9.7-9.5-16
							c8.8,1.5,24-6.3,23.2-14.8c0,0,2-5.4-5.9-14.7c3-2.1,7.5-5.8,13-10.4c1,9.5,1.9,16.3,2.7,20.2c0.1,0.6,0.8,0.7,1.2,0.3
							c1-1.4,2.7-4.5,3.2-10.7c0.3-3.4,0.2-9.1-0.2-15.7c7.3-6.3,15.5-13.5,23.3-20.5c2.7,26.2,5.7,56,5.7,56
							S554.7,240.3,541.4,240.3z M562.9,173.7c-3.3-3.2-6.5-6.3-9.3-9.2c0-0.3-0.1-0.6-0.1-0.9c7.5-6.7,14.2-12.7,18.6-16.6
							c0.6,9.1,1.6,23.2,2.7,37.9C570.9,181.1,566.8,177.4,562.9,173.7z"/>
					</g>
				</g>
			</g>
			<g>
				<g>
					<g>
						<path class="st1" d="M608.1,193.8c-0.1-0.7-0.1-1.2-0.2-1.7C608,192.7,608,193.3,608.1,193.8z M608.1,193.8
							c0,0.2,0,0.5,0.1,0.7C608.1,194.3,608.1,194.1,608.1,193.8z"/>
					</g>
				</g>
			</g>
			<g>
				<g>
					<g>
						<path class="st1" d="M543.5,148.9c0,0.3,0.1,0.7,0.1,1.1l0.6-0.2C544.2,149.7,543.9,149.4,543.5,148.9z"/>
					</g>
				</g>
			</g>
		</g>
	</g>
</g>
</svg>
