<?xml version="1.0" encoding="UTF-8"?>
<svg id="Layer_2" data-name="Layer 2" xmlns="http://www.w3.org/2000/svg" viewBox="0 0 500 500">
  <defs>
    <style>
      .cls-1 {
        fill: #000;
      }

      .cls-1, .cls-2, .cls-3 {
        stroke-width: 0px;
      }

      .cls-4 {
        isolation: isolate;
      }

      .cls-2 {
        fill: red;
      }

      .cls-5 {
        fill: none;
        stroke: #ef2138;
        stroke-miterlimit: 10;
        stroke-width: 1.41px;
      }

      .cls-3 {
        fill: #fff;
      }
    </style>
  </defs>
  <g id="Objects">
    <g id="BACKGROUND">
      <rect class="cls-3" width="500" height="500"/>
    </g>
    <g>
      <polygon class="cls-3" points="250.34 387.44 249.65 387.44 250 387.29 250.34 387.44"/>
      <path class="cls-2" d="M368.6,220.87c-.15.93-.32,1.87-.49,2.82h-236.18c-.17-.94-.34-1.89-.49-2.82h237.17Z"/>
      <path class="cls-2" d="M354.37,276.98c-.37.94-.75,1.87-1.13,2.82h-206.27c-.38-.94-.76-1.87-1.13-2.82h208.53Z"/>
      <path class="cls-2" d="M141.46,165.54c.06,4.3.49,33.55,2.86,45.69l-1.38.27c-2.58-13.17-2.89-46.14-2.89-46.48v-.54s19.5-5.78,19.5-5.78l.4,1.35-18.49,5.48Z"/>
      <path class="cls-2" d="M359.22,164.48v.54c-.01.34-.34,33.31-2.9,46.48l-1.38-.27c2.37-12.15,2.8-41.39,2.86-45.69l-17.85-5.3.39-1.35,18.88,5.6Z"/>
      <path class="cls-5" d="M336.11,287.25s-9.96,23.59-30.41,47.2c-13.99,16.15-33.87,33.55-55.71,42.53h0c-21.84-8.98-41.72-26.38-55.71-42.53-20.45-23.61-30.41-47.2-30.41-47.2"/>
      <g>
        <path class="cls-1" d="M253.04,138.39c.22-1.91,2.89-3.48,6.51-4.78-.22-2.51-.36-12.23-1.68-17.37-1.65-1.83-5.13-2.79-5.13-2.79,1.91.18,3.12.46,3.87.68-1.02-.94-2.75-1.71-5.57-1.11-4.69,1-4.82,4.98-4.69,7.17.21,3.63.54,9.17.72,11.41.26,3.21.32,9.43,2.85,11.34,1.74,1.31,3.88,1.49,5.07,1.31-1.53-1.98-2.11-4.2-1.94-5.86ZM274.01,122.88c.57-3.5-3.52-6.01-5.1-6.53-1.99-.66-6.44-.82-7.85,3.58-.14,4.06.4,10.69.82,12.91,1.14-.35,1.82-.52,3.03-.84,3.07-.77,5.78-1.46,8.42-1.64,0-.92.06-3.51.02-5.7,0-2.9-1.95-4.91-2.18-5.15,1.61,1.09,2.43,2.35,2.84,3.37ZM253.04,138.39c.22-1.91,2.89-3.48,6.51-4.78-.22-2.51-.36-12.23-1.68-17.37-1.65-1.83-5.13-2.79-5.13-2.79,1.91.18,3.12.46,3.87.68-1.02-.94-2.75-1.71-5.57-1.11-4.69,1-4.82,4.98-4.69,7.17.21,3.63.54,9.17.72,11.41.26,3.21.32,9.43,2.85,11.34,1.74,1.31,3.88,1.49,5.07,1.31-1.53-1.98-2.11-4.2-1.94-5.86ZM274.01,122.88c.57-3.5-3.52-6.01-5.1-6.53-1.99-.66-6.44-.82-7.85,3.58-.14,4.06.4,10.69.82,12.91,1.14-.35,1.82-.52,3.03-.84,3.07-.77,5.78-1.46,8.42-1.64,0-.92.06-3.51.02-5.7,0-2.9-1.95-4.91-2.18-5.15,1.61,1.09,2.43,2.35,2.84,3.37ZM338.2,124.67h-5.51v-15.28c0-2.95-2.39-5.33-5.33-5.33h-2.59c-2.95,0-5.33,2.39-5.33,5.33v15.28h-.47v-22.01c0-2.95-2.39-5.33-5.33-5.33h-2.59c-2.95,0-5.33,2.39-5.33,5.33v22.01h-.47v-28.2c0-2.95-2.39-5.33-5.33-5.33h-2.59c-2.95,0-5.33,2.39-5.33,5.33v28.2h-12.84s-.05-.07-.05-.07c-1.93-6.28-4.24-9.29-8.54-11.33-5.11-2.42-9.5.06-9.5.06,0,0-2.62-4.23-8.12-4.61-5.49-.38-9.2,3.81-9.2,3.81,0,0-3.88-2.64-8.19-2.19-4.32.44-7.57,4.14-7.57,4.14,0,0-5.9-1.72-10.19-.1-3.28,1.24-4.95,4.87-5.18,6.96-.09.82-.21,2-.35,3.33h-3.98v-28.2c0-2.95-2.39-5.33-5.34-5.33h-2.59c-2.95,0-5.34,2.39-5.34,5.33v28.2h-.47v-22.01c0-2.95-2.39-5.33-5.34-5.33h-2.59c-2.95,0-5.34,2.39-5.34,5.33v22.01h-.47v-15.28c0-2.95-2.39-5.33-5.34-5.33h-2.59c-2.95,0-5.34,2.39-5.34,5.33v15.28h-5.28c-1.01,0-1.84.83-1.84,1.84v10.16c0,1.04.83,1.85,1.84,1.85h5.28v15.28c0,2.95,2.39,5.34,5.34,5.34h2.59c2.95,0,5.34-2.39,5.34-5.34v-15.28h.47v22.02c0,2.95,2.39,5.34,5.34,5.34h2.59c2.95,0,5.34-2.39,5.34-5.34v-22.02h.47v28.2c0,2.95,2.39,5.34,5.34,5.34h2.59c2.95,0,5.34-2.39,5.34-5.34v-28.2h2.77c0,4.57.16,15.7,1.51,24.81,1.76,11.78,7.67,14.98,7.67,14.98l-1.8,31.37h1.91l1.81-32.02c-1.64-1.15-3.09-2.57-4.11-4.37-6.28-11.19-4.93-34.77-4.93-34.77h2.37s-.11,1.9-.1,4.86c.72-.82,1.52-1.32,2.13-1.59-.17-.43-.32-.89-.48-1.38-2.13-6.65-2.55-15.67-2.38-17.53.18-1.88,1.16-5.86,5.69-6.92,4.53-1.07,8.83.54,8.83.54,0,0,2.23-3.74,7.15-4.14,4.91-.4,8.34,2.93,8.34,2.93,1.84-3.68,6.12-4.8,9.74-4.35,5.72.71,5.85,6.34,5.85,6.34,0,0,1.77-3.55,6.52-3.17,3.58.28,9.32,2.84,10.26,10.56h-1.7c0,2.34-.14,4.71-.16,5.6,1.04,0,1.96.11,2.67.38,1.32.5,2.42,1.5,3.34,2.76.9,1.27,1.61,2.81,2.18,4.36,0,0,3.91,9.41,4.71,12.88.47,2,1.5,4.43,1,6.89-.33,1.79-1.54,3.5-3.64,6.09-2.95,3.56-6.49,7.55-10.07,10.7-5.98,5.32-9.04,7.61-9.04,7.61l1.64,27.75h2.18l-1.76-27.14c10.04-7.18,18.88-17.99,19.7-18.95,1.71-1.99,4.04-5.94,2.23-11.43-1.42-4.33-2.7-8.65-4.2-12.42-.17-.41-.33-.82-.5-1.22h6.37v28.2c0,2.95,2.39,5.34,5.33,5.34h2.59c2.95,0,5.33-2.39,5.33-5.34v-28.2h.47v22.02c0,2.95,2.39,5.34,5.33,5.34h2.59c2.95,0,5.33-2.39,5.33-5.34v-22.02h.47v15.28c0,2.95,2.39,5.34,5.33,5.34h2.59c2.95,0,5.33-2.39,5.33-5.34v-15.28h5.51c1.02,0,1.84-.82,1.84-1.85v-10.16c0-1.01-.82-1.84-1.84-1.84ZM167.54,127.14h-5.63v-.08c0-.3.09-1.15,1.26-1.15h4.37v1.23h0ZM171.02,110.96l-1.3,13.71v-14.29c0-4.38,4.61-4.54,4.61-4.54-3.21.93-3.31,5.12-3.31,5.12ZM184.78,104.18l-1.3,20.49v-21.07c0-4.39,4.61-4.54,4.61-4.54-3.21.93-3.31,5.12-3.31,5.12ZM198.31,97.89l-1.3,26.78v-27.35c0-4.39,4.61-4.54,4.61-4.54-3.22.93-3.31,5.11-3.31,5.11ZM208.26,127.14v-1.23h3.87c.01.35.07,1.23.07,1.23h-3.93ZM291.97,127.14h-15.17s.06-.88.07-1.23h15.11v1.23h0ZM295.29,97.89l-1.3,26.78v-27.35c0-4.39,4.61-4.54,4.61-4.54-3.22.93-3.31,5.11-3.31,5.11ZM308.82,104.18l-1.29,20.49v-21.07c0-4.39,4.61-4.54,4.61-4.54-3.22.93-3.32,5.12-3.32,5.12ZM322.49,110.96l-1.3,13.71v-14.29c0-4.38,4.61-4.54,4.61-4.54-3.22.93-3.31,5.12-3.31,5.12ZM338.32,127.14h-5.63v-1.23h4.37c1.17,0,1.26.85,1.26,1.15,0,.06,0,.08,0,.08ZM274.01,122.88c.57-3.5-3.52-6.01-5.1-6.53-1.99-.66-6.44-.82-7.85,3.58-.14,4.06.4,10.69.82,12.91,1.14-.35,1.82-.52,3.03-.84,3.07-.77,5.78-1.46,8.42-1.64,0-.92.06-3.51.02-5.7,0-2.9-1.95-4.91-2.18-5.15,1.61,1.09,2.43,2.35,2.84,3.37ZM253.04,138.39c.22-1.91,2.89-3.48,6.51-4.78-.22-2.51-.36-12.23-1.68-17.37-1.65-1.83-5.13-2.79-5.13-2.79,1.91.18,3.12.46,3.87.68-1.02-.94-2.75-1.71-5.57-1.11-4.69,1-4.82,4.98-4.69,7.17.21,3.63.54,9.17.72,11.41.26,3.21.32,9.43,2.85,11.34,1.74,1.31,3.88,1.49,5.07,1.31-1.53-1.98-2.11-4.2-1.94-5.86ZM274.01,122.88c.57-3.5-3.52-6.01-5.1-6.53-1.99-.66-6.44-.82-7.85,3.58-.14,4.06.4,10.69.82,12.91,1.14-.35,1.82-.52,3.03-.84,3.07-.77,5.78-1.46,8.42-1.64,0-.92.06-3.51.02-5.7,0-2.9-1.95-4.91-2.18-5.15,1.61,1.09,2.43,2.35,2.84,3.37ZM253.04,138.39c.22-1.91,2.89-3.48,6.51-4.78-.22-2.51-.36-12.23-1.68-17.37-1.65-1.83-5.13-2.79-5.13-2.79,1.91.18,3.12.46,3.87.68-1.02-.94-2.75-1.71-5.57-1.11-4.69,1-4.82,4.98-4.69,7.17.21,3.63.54,9.17.72,11.41.26,3.21.32,9.43,2.85,11.34,1.74,1.31,3.88,1.49,5.07,1.31-1.53-1.98-2.11-4.2-1.94-5.86ZM277.16,132.71c-1.52-.8-6.12-.19-10.69.89,2.68,2.35,2.72,5.34,2.72,5.46-.18-.44-.4-.85-.64-1.22-1.66-2.56-4.94-3.57-7.83-2.62-.95.32-1.83.64-2.58.96-2.02.83-3.17,2.13-3.03,3.18.02.1.03.18.06.28.46.76,1.49,1.56,3.68,2.02,5.07,1.12,8.34-1.04,8.34-1.04,0,0-2.64,2.58-8.37,1.73-1.54-.24-2.56-.68-3.25-1.17,1.69,4.86,6.85,6.23,11.78,6.04,2.39-.09,5.93-1.31,7.76-2.85,1.16-.97,2.22-2.24,2.75-3.82,0,0-.08,2.72-1.92,4.87,1.86-.18,2.92-.89,3.06-.99-.1.24-2.08,4.08-12.22,4.43-2.06.07-3.83-.16-5.38-.57-15.34,2.85-18.48,19.87-18.48,19.87.19-14.51,11.25-20.07,14.77-21.46-.35-.22-.69-.46-1-.72,0,0-.85-.73-1.21-1.12,0,0-5.22,2.1-8.49-2.68-.41.49-1.25,1.21-2.95,1.67-2.79.76-4.85-.55-4.85-.55,4.53,1.02,6.9-2.67,6.9-2.67h.01c-.25-.56-.49-1.14-.68-1.81-1.32-4.28-1.66-16.23-1.74-20.18-1.97-1.91-4.57-2.64-4.57-2.64,2.64.18,4.15,1.08,4.48,1.3-.5-.49-3.91-3.5-7.76-2.7-.03.01-.08.01-.12.02-3.12.69-5.16,3.66-4.9,6.85.31,3.73.88,10.17,1.37,13.46.72,4.78,1.57,8.99,5.73,10.68,3.95,1.58,8.36-1.81,8.8-2.16-.26.44-3.25,5.13-8.77,4.19-2.07-.35-4.11-1.62-5.54-4.01-.49.44-1.26.93-2.54,1.29-2.79.76-4.85-.55-4.85-.55,3.59.82,5.85-1.37,6.61-2.3-.16-.35-.3-.71-.42-1.1-1.15-3.61-2.55-17.3-2.9-20.91-2.14-.99-4.93-1.13-4.93-1.13,1.63-.59,4.55.17,4.81.24-.39-.21-4.78-2.41-8.77-.38-4.16,2.13-2.95,9.6-2.25,13.59.84,4.93,2.56,12.54,6.55,13.96,3.79,1.34,8.17-1.3,8.61-1.56-.22.36-2.59,4.1-7.31,3.79-2.85-.18-5.27-1.24-7.26-6.04-2.3,1.89-2.31,5.22-2.31,5.31v-.05s-.01.08-.01.08c1.43-1.51,3.4-2.02,3.64-2.07-3.45,2.07-3.14,8.51-3.12,8.84.68,6.06,2.08,12.61,4.86,17.4,3.42,5.91,14.17,9.87,14.17,9.87,0,0-3.12-.19-6.79-1.37l-1.95,18.62-.16-19.38c-.39-.16-.77-.33-1.16-.51l-2.34,30.39h42.94l-2.49-26.91c-1.35.35-5.85.63-8.02.77l-.94,22.51-1.57-22.35c-2.74.11-5.26.07-6.31-.1,1.87-.12,5.04-.5,8.79-1.5-6.85.64-13.21.1-13.21.1,10.81-.75,17.41-1.65,21.05-2.99,2.58-.96,5.01-2.7,7.45-4.6,10.27-8.05,15.96-16.24,16.47-17.82.92-2.9-5.87-22.08-9.62-24.08ZM241.75,170.27s-1.4-5.18.32-10.44c-.32-1.68-1.19-3.04-1.3-3.21.76.47,1.43,1.48,1.75,2,.82-1.93,2.1-3.84,4.1-5.44-.57.65-5.31,6.32-4.87,17.08ZM269.22,149.18c.3.21,5.68,3.92,10.49,3.01,0,0-7.14,3.2-10.49-3.01ZM274.01,122.88c.57-3.5-3.52-6.01-5.1-6.53-1.99-.66-6.44-.82-7.85,3.58-.14,4.06.4,10.69.82,12.91,1.14-.35,1.82-.52,3.03-.84,3.07-.77,5.78-1.46,8.42-1.64,0-.92.06-3.51.02-5.7,0-2.9-1.95-4.91-2.18-5.15,1.61,1.09,2.43,2.35,2.84,3.37ZM253.04,138.39c.22-1.91,2.89-3.48,6.51-4.78-.22-2.51-.36-12.23-1.68-17.37-1.65-1.83-5.13-2.79-5.13-2.79,1.91.18,3.12.46,3.87.68-1.02-.94-2.75-1.71-5.57-1.11-4.69,1-4.82,4.98-4.69,7.17.21,3.63.54,9.17.72,11.41.26,3.21.32,9.43,2.85,11.34,1.74,1.31,3.88,1.49,5.07,1.31-1.53-1.98-2.11-4.2-1.94-5.86Z"/>
        <path class="cls-1" d="M267.95,209.68h-2.39l.57,6.13h2.18l-.36-6.13ZM220.32,209.68l-.35,6.13h2.17l.48-6.13h-2.3Z"/>
      </g>
      <polygon class="cls-2" points="249.65 387.44 250 387.29 250.34 387.44 249.65 387.44"/>
      <path class="cls-2" d="M328.37,283.79l9.13,6.62c-19.12,40.65-48.52,70.99-87.5,90.18-38.98-19.19-68.36-49.5-87.48-90.12l9.23-6.68h-23.2l.41.98c20.58,48.86,53.85,84.55,98.86,106.04l2.2,1.05,2.2-1.05c45.01-21.5,78.26-57.17,98.84-106.04l.41-.98h-23.08ZM343.51,294.65c-1.27,2.72-2.61,5.42-4,8.08-1.39,2.67-2.84,5.3-4.35,7.92-1.5,2.61-3.06,5.17-4.66,7.72-1.61,2.54-3.29,5.05-5.01,7.52-1.73,2.46-3.48,4.91-5.31,7.3-1.81,2.41-3.71,4.74-5.62,7.09l-2.91,3.45-3.01,3.38c-.99,1.14-2.04,2.21-3.07,3.31-1.05,1.09-2.07,2.2-3.15,3.24l-3.23,3.17-3.33,3.06c-1.09,1.04-2.26,2-3.4,2.98-1.16.98-2.27,1.99-3.47,2.91l-3.54,2.82c-1.19.93-2.42,1.8-3.64,2.7-2.4,1.84-4.96,3.45-7.45,5.15l-3.84,2.39-1.93,1.18-1.98,1.1-3.96,2.21-4.05,2.04-2.04,1-2.07.92-4.14,1.85-.34.15-.35-.15-4.15-1.84-2.07-.92-2.02-1.01-4.05-2.04-3.96-2.21-1.98-1.1-1.93-1.18-3.86-2.38c-2.48-1.72-5.04-3.32-7.44-5.16-1.22-.9-2.45-1.76-3.64-2.7l-3.54-2.82c-1.19-.92-2.31-1.93-3.47-2.91-1.14-.98-2.31-1.95-3.4-2.98l-3.33-3.06-3.23-3.17c-1.08-1.05-2.1-2.15-3.15-3.24-1.04-1.09-2.09-2.17-3.08-3.31l-3-3.38-2.92-3.45c-1.9-2.33-3.8-4.67-5.61-7.09-1.83-2.39-3.58-4.83-5.31-7.3-1.73-2.47-3.39-4.98-5.02-7.52-1.59-2.55-3.15-5.12-4.66-7.72-1.49-2.62-2.96-5.24-4.33-7.9-1.41-2.66-2.74-5.36-4.01-8.09-1.26-2.72-2.49-5.47-3.57-8.27,1.16,2.77,2.45,5.48,3.78,8.18,1.34,2.68,2.74,5.35,4.2,7.96,1.46,2.63,2.98,5.21,4.53,7.78,1.57,2.56,3.18,5.08,4.83,7.59,1.67,2.49,3.35,4.97,5.11,7.4,1.75,2.42,3.53,4.83,5.39,7.19,1.82,2.38,3.74,4.67,5.68,6.96l2.95,3.39,3.04,3.31c.99,1.11,2.06,2.17,3.09,3.24,1.05,1.07,2.08,2.16,3.17,3.18l3.22,3.12,3.32,3.01c1.09,1.02,2.25,1.98,3.39,2.95,1.15.96,2.25,1.97,3.45,2.87l3.51,2.77c1.18.92,2.41,1.77,3.62,2.66,2.38,1.81,4.93,3.38,7.39,5.06l3.82,2.34,1.91,1.16,1.97,1.08,3.92,2.16,4,1.99,2.01.99,2.05.9,3.76,1.66,3.74-1.66,2.05-.9,2.01-.99,4.02-1.99,3.92-2.16,1.96-1.08,1.91-1.16,3.82-2.34c2.47-1.68,5.02-3.25,7.39-5.06,1.21-.89,2.43-1.74,3.62-2.66l3.52-2.77c1.19-.9,2.3-1.91,3.45-2.87,1.14-.97,2.3-1.91,3.39-2.93l3.32-3.03,3.22-3.12c1.09-1.02,2.13-2.12,3.17-3.18,1.05-1.07,2.1-2.13,3.11-3.24l3.03-3.31,2.95-3.39c1.93-2.29,3.86-4.58,5.68-6.96,1.86-2.34,3.64-4.77,5.39-7.19,1.75-2.43,3.43-4.91,5.11-7.4,1.65-2.5,3.26-5.03,4.83-7.59,1.55-2.57,3.08-5.15,4.53-7.78,1.46-2.62,2.86-5.28,4.2-7.96,1.33-2.7,2.62-5.4,3.78-8.18-1.09,2.8-2.31,5.55-3.58,8.27Z"/>
      <path class="cls-2" d="M372.39,159.19l-.26-3.29-3.11-1.12c-6.86-2.41-13.61-4.63-20.18-6.63l-1.43-13.23-6.31,21.51.68.21c6.94,2.04,13.88,4.25,20.64,6.61.28,7.84.44,27.73-3.45,52.82l-.14.81h10.29l.09-.59c4.97-32.58,3.24-56.11,3.16-57.1ZM370.4,185.28c-.14,2.26-.25,4.53-.45,6.79-.18,2.26-.41,4.53-.66,6.79l-.43,3.38c-.14,1.13-.34,2.24-.52,3.37-.34,2.24-.79,4.47-1.25,6.7.1-1.14.18-2.26.31-3.39.12-1.13.19-2.26.28-3.39.18-2.25.3-4.52.45-6.77.09-2.26.26-4.52.32-6.78.1-2.25.18-4.52.25-6.78l.17-6.78.1-6.78c.02-4.35.06-8.71,0-13.06-3.12-1.16-6.26-2.34-9.36-3.56l-4.9-1.95c-1.63-.65-3.26-1.31-4.88-1.99,1.7.48,3.38.98,5.06,1.49l5.04,1.54c3.37,1.05,6.71,2.14,10.04,3.23l.49.15.02.54c.11,2.29.18,4.55.23,6.81.06,2.27.06,4.55.06,6.81,0,4.54-.15,9.09-.37,13.63Z"/>
      <path class="cls-2" d="M158.21,156.64l.68-.21-6.28-21.51-1.46,13.22c-6.72,2.06-13.49,4.28-20.19,6.64l-3.11,1.12-.25,3.28c-.02.24-1.89,24.01,3.15,57.1l.09.6h10.32l-.12-.81c-3.91-25.13-3.76-45-3.48-52.82,6.85-2.38,13.8-4.6,20.65-6.61ZM132.34,171.64l.1,6.78.17,6.78c.07,2.26.15,4.53.25,6.78.06,2.26.23,4.52.32,6.78.16,2.25.28,4.52.46,6.77.09,1.13.16,2.26.28,3.39.12,1.13.21,2.25.31,3.39-.47-2.23-.91-4.46-1.25-6.7-.17-1.13-.39-2.24-.52-3.37l-.43-3.38c-.24-2.26-.48-4.53-.66-6.79-.19-2.26-.32-4.53-.46-6.79-.22-4.54-.36-9.09-.36-13.63,0-2.26,0-4.54.06-6.81.04-2.26.11-4.53.23-6.81l.02-.54.49-.15c3.33-1.09,6.68-2.18,10.04-3.23l5.04-1.54c1.68-.51,3.37-1.01,5.06-1.49-1.62.68-3.24,1.34-4.88,1.99l-4.9,1.95c-3.1,1.22-6.24,2.4-9.36,3.56-.06,4.34-.02,8.71,0,13.06Z"/>
      <polygon class="cls-2" points="139.05 209.68 362.83 209.68 362 216.88 138.22 216.88 139.05 209.68"/>
      <g>
        <polygon class="cls-2" points="250.11 333.01 253.83 340.55 262.15 341.75 256.13 347.62 257.55 355.9 250.11 351.99 242.67 355.9 244.1 347.62 238.08 341.75 246.39 340.55 250.11 333.01"/>
        <polygon class="cls-2" points="218.85 328.09 221.14 332.72 226.25 333.46 222.55 337.07 223.43 342.16 218.85 339.75 214.28 342.16 215.16 337.07 211.46 333.46 216.57 332.72 218.85 328.09"/>
        <polygon class="cls-2" points="281.37 328.09 283.66 332.72 288.77 333.46 285.07 337.07 285.95 342.16 281.37 339.75 276.8 342.16 277.68 337.07 273.98 333.46 279.09 332.72 281.37 328.09"/>
      </g>
      <g class="cls-4">
        <path class="cls-1" d="M227.71,293.35c1.9.72,3.41,1.78,4.52,3.19,1.12,1.41,1.68,3.12,1.68,5.13h-7.6c0-1.03-.46-1.87-1.37-2.5-.91-.64-2.02-.96-3.31-.96-1.87,0-3.29.5-4.25,1.5-.96,1-1.44,2.41-1.44,4.23v2.31c0,1.83.48,3.24,1.44,4.23.96,1,2.38,1.5,4.25,1.5,1.3,0,2.4-.31,3.31-.92.91-.61,1.37-1.4,1.37-2.36h-5.62v-5.04h13.22v13.84h-4.11l-.79-2.45c-2.26,1.92-5.21,2.88-8.86,2.88-4.11,0-7.19-1.08-9.26-3.23-2.07-2.15-3.1-5.35-3.1-9.6s1.17-7.39,3.51-9.57c2.34-2.17,5.67-3.26,10-3.26,2.38,0,4.52.36,6.41,1.08Z"/>
        <path class="cls-1" d="M254.23,317.5h-7.96v-9.62l-9.84-15.17h9.15l4.76,8.25h.14l4.76-8.25h8.68l-9.69,15.17v9.62Z"/>
        <path class="cls-1" d="M288.18,317.5v-8.94c0-1.11.04-2.24.13-3.41s.17-2.14.27-2.94c.1-.79.16-1.3.18-1.51h-.14l-4.58,16.79h-6.23l-4.61-16.75h-.14c.02.22.09.71.2,1.5.11.78.21,1.75.31,2.92.1,1.17.14,2.3.14,3.41v8.94h-7.31v-24.79h11.24l3.75,14.3h.14l3.71-14.3h10.85v24.79h-7.89Z"/>
      </g>
      <g class="cls-4">
        <path class="cls-1" d="M175.58,250c0,11.78-6.18,17.67-18.55,17.67h-15.31v-35.35h15.31c12.36,0,18.55,5.89,18.55,17.68ZM153.07,259.2h3.75c4.76,0,7.14-2.55,7.14-7.65v-3.08c0-5.1-2.38-7.66-7.14-7.66h-3.75v18.39Z"/>
        <path class="cls-1" d="M218.53,236.39c3.32,3.12,4.98,7.65,4.98,13.62s-1.66,10.5-4.98,13.62c-3.32,3.12-8.03,4.67-14.13,4.67s-10.8-1.55-14.1-4.65c-3.31-3.1-4.96-7.65-4.96-13.64s1.65-10.54,4.96-13.64c3.3-3.1,8.01-4.65,14.1-4.65s10.81,1.56,14.13,4.68ZM198.85,242.4c-1.27,1.47-1.9,3.46-1.9,5.96v3.29c0,2.5.63,4.49,1.9,5.96,1.27,1.47,3.12,2.21,5.55,2.21s4.29-.73,5.57-2.21c1.28-1.47,1.93-3.46,1.93-5.96v-3.29c0-2.5-.64-4.49-1.93-5.96-1.28-1.47-3.14-2.21-5.57-2.21s-4.28.74-5.55,2.21Z"/>
        <path class="cls-1" d="M268.62,250c0,11.78-6.18,17.67-18.55,17.67h-15.31v-35.35h15.31c12.36,0,18.55,5.89,18.55,17.68ZM246.12,259.2h3.75c4.76,0,7.14-2.55,7.14-7.65v-3.08c0-5.1-2.38-7.66-7.14-7.66h-3.75v18.39Z"/>
        <path class="cls-1" d="M306.79,233.25c2.71,1.03,4.86,2.54,6.45,4.55,1.59,2,2.39,4.44,2.39,7.32h-10.84c0-1.47-.65-2.66-1.95-3.57-1.3-.91-2.88-1.36-4.73-1.36-2.67,0-4.69.71-6.06,2.13-1.37,1.42-2.06,3.43-2.06,6.04v3.29c0,2.6.68,4.62,2.06,6.04,1.37,1.42,3.39,2.13,6.06,2.13,1.85,0,3.42-.44,4.73-1.31,1.3-.88,1.95-1.99,1.95-3.37h-8.02v-7.19h18.86v19.73h-5.86l-1.13-3.49c-3.22,2.74-7.43,4.11-12.64,4.11-5.86,0-10.26-1.53-13.2-4.6-2.95-3.06-4.42-7.63-4.42-13.69s1.67-10.54,5.01-13.64c3.34-3.1,8.09-4.65,14.26-4.65,3.39,0,6.44.51,9.15,1.54Z"/>
        <path class="cls-1" d="M327.81,232.33h30.57v8.48h-19.22v4.88h16.44v8.12h-16.44v5.39h19.57v8.48h-30.93v-35.35Z"/>
      </g>
    </g>
  </g>
</svg>