<?xml version="1.0" encoding="utf-8"?>
<!-- Generator: Adobe Illustrator 27.6.1, SVG Export Plug-In . SVG Version: 6.00 Build 0)  -->
<svg version="1.1" id="Layer_2_00000077305351585515552680000003602321769008976563_"
	 xmlns="http://www.w3.org/2000/svg" xmlns:xlink="http://www.w3.org/1999/xlink" x="0px" y="0px" viewBox="0 0 562.5 574.7"
	 style="enable-background:new 0 0 562.5 574.7;" xml:space="preserve">
<style type="text/css">
	.st0{fill:#FFFFFF;}
	.st1{fill:#FF0000;}
	.st2{fill:#EF2138;}
	.st3{enable-background:new    ;}
</style>
<g id="Objects">
	<g>
		<g>
			<polygon class="st0" points="1702.9,1327.4 1701.8,1327.4 1702.4,1327.1 			"/>
		</g>
		<g>
			<path class="st1" d="M1890.5,1063.1c-0.2,1.5-0.5,3-0.8,4.5h-374.7c-0.3-1.5-0.5-3-0.8-4.5H1890.5z"/>
		</g>
		<g>
			<path class="st1" d="M1868,1152.1c-0.6,1.5-1.2,3-1.8,4.5H1539c-0.6-1.5-1.2-3-1.8-4.5H1868z"/>
		</g>
		<g>
			<path class="st1" d="M1530.2,975.4c0.1,6.8,0.8,53.2,4.5,72.5l-2.2,0.4c-4.1-20.9-4.6-73.2-4.6-73.7v-0.9l30.9-9.2l0.6,2.1
				L1530.2,975.4L1530.2,975.4z"/>
		</g>
		<g>
			<path class="st1" d="M1875.7,973.7v0.9c0,0.5-0.5,52.8-4.6,73.7l-2.2-0.4c3.8-19.3,4.4-65.7,4.5-72.5l-28.3-8.4l0.6-2.1
				L1875.7,973.7L1875.7,973.7z"/>
		</g>
		<g>
			<path class="st2" d="M1702.4,1311.6l-0.3-0.1c-40.6-16.7-73-49.5-88.6-67.7c-32.1-37.1-48.2-74.7-48.4-75.1l1.3-0.5
				c0.2,0.4,16.1,37.8,48.1,74.7c15.6,18,47.6,50.6,87.8,67.2c40.2-16.6,72.3-49.2,87.8-67.2c32-36.9,48-74.3,48.1-74.7l1.3,0.5
				c-0.2,0.4-16.2,38-48.4,75.1c-15.7,18.1-48.1,51-88.6,67.7L1702.4,1311.6z"/>
		</g>
		<g>
			<g>
				<path d="M1707.2,932.3c0.3-3,4.6-5.5,10.3-7.6c-0.3-4-0.6-19.4-2.7-27.6c-2.6-2.9-8.1-4.4-8.1-4.4c3,0.3,4.9,0.7,6.1,1.1
					c-1.6-1.5-4.4-2.7-8.8-1.8c-7.4,1.6-7.6,7.9-7.4,11.4c0.3,5.8,0.9,14.5,1.1,18.1c0.4,5.1,0.5,15,4.5,18c2.8,2.1,6.2,2.4,8,2.1
					C1707.9,938.5,1707,935,1707.2,932.3L1707.2,932.3z M1740.5,907.7c0.9-5.6-5.6-9.5-8.1-10.4c-3.2-1-10.2-1.3-12.5,5.7
					c-0.2,6.4,0.6,17,1.3,20.5c1.8-0.6,2.9-0.8,4.8-1.3c4.9-1.2,9.2-2.3,13.4-2.6c0-1.5,0.1-5.6,0-9c0-4.6-3.1-7.8-3.5-8.2
					C1738.5,904.1,1739.8,906.1,1740.5,907.7z M1707.2,932.3c0.3-3,4.6-5.5,10.3-7.6c-0.3-4-0.6-19.4-2.7-27.6
					c-2.6-2.9-8.1-4.4-8.1-4.4c3,0.3,4.9,0.7,6.1,1.1c-1.6-1.5-4.4-2.7-8.8-1.8c-7.4,1.6-7.6,7.9-7.4,11.4
					c0.3,5.8,0.9,14.5,1.1,18.1c0.4,5.1,0.5,15,4.5,18c2.8,2.1,6.2,2.4,8,2.1C1707.9,938.5,1707,935,1707.2,932.3L1707.2,932.3z
					 M1740.5,907.7c0.9-5.6-5.6-9.5-8.1-10.4c-3.2-1-10.2-1.3-12.5,5.7c-0.2,6.4,0.6,17,1.3,20.5c1.8-0.6,2.9-0.8,4.8-1.3
					c4.9-1.2,9.2-2.3,13.4-2.6c0-1.5,0.1-5.6,0-9c0-4.6-3.1-7.8-3.5-8.2C1738.5,904.1,1739.8,906.1,1740.5,907.7z M1842.3,910.5
					h-8.7v-24.2c0-4.7-3.8-8.5-8.5-8.5h-4.1c-4.7,0-8.5,3.8-8.5,8.5v24.2h-0.7v-34.9c0-4.7-3.8-8.5-8.5-8.5h-4.1
					c-4.7,0-8.5,3.8-8.5,8.5v34.9h-0.7v-44.7c0-4.7-3.8-8.5-8.5-8.5h-4.1c-4.7,0-8.5,3.8-8.5,8.5v44.7h-20.4l-0.1-0.1
					c-3.1-10-6.7-14.7-13.5-18c-8.1-3.8-15.1,0.1-15.1,0.1s-4.2-6.7-12.9-7.3c-8.7-0.6-14.6,6-14.6,6s-6.2-4.2-13-3.5
					c-6.9,0.7-12,6.6-12,6.6s-9.4-2.7-16.2-0.2c-5.2,2-7.9,7.7-8.2,11c-0.1,1.3-0.3,3.2-0.6,5.3h-6.3v-44.7c0-4.7-3.8-8.5-8.5-8.5
					h-4.1c-4.7,0-8.5,3.8-8.5,8.5v44.7h-0.7v-34.9c0-4.7-3.8-8.5-8.5-8.5h-4.1c-4.7,0-8.5,3.8-8.5,8.5v34.9h-0.7v-24.2
					c0-4.7-3.8-8.5-8.5-8.5h-4.1c-4.7,0-8.5,3.8-8.5,8.5v24.2h-8.4c-1.6,0-2.9,1.3-2.9,2.9v16.1c0,1.6,1.3,2.9,2.9,2.9h8.4v24.2
					c0,4.7,3.8,8.5,8.5,8.5h4.1c4.7,0,8.5-3.8,8.5-8.5v-24.2h0.7v34.9c0,4.7,3.8,8.5,8.5,8.5h4.1c4.7,0,8.5-3.8,8.5-8.5v-34.9h0.7
					v44.7c0,4.7,3.8,8.5,8.5,8.5h4.1c4.7,0,8.5-3.8,8.5-8.5v-44.7h4.4c0,7.2,0.3,24.9,2.4,39.4c2.8,18.7,12.2,23.8,12.2,23.8
					l-2.9,49.8h3l2.9-50.8c-2.6-1.8-4.9-4.1-6.5-6.9c-10-17.8-7.8-55.2-7.8-55.2h3.8c0,0-0.2,3-0.2,7.7c1.1-1.3,2.4-2.1,3.4-2.5
					c-0.3-0.7-0.5-1.4-0.8-2.2c-3.4-10.5-4-24.9-3.8-27.8c0.3-3,1.8-9.3,9-11c7.2-1.7,14,0.9,14,0.9s3.5-5.9,11.3-6.6
					c7.8-0.6,13.2,4.6,13.2,4.6c2.9-5.8,9.7-7.6,15.5-6.9c9.1,1.1,9.3,10.1,9.3,10.1s2.8-5.6,10.3-5c5.7,0.4,14.8,4.5,16.3,16.8
					h-2.7c0,3.7-0.2,7.5-0.3,8.9c1.6,0,3.1,0.2,4.2,0.6c2.1,0.8,3.8,2.4,5.3,4.4c1.4,2,2.6,4.5,3.5,6.9c0,0,6.2,14.9,7.5,20.4
					c0.7,3.2,2.4,7,1.6,10.9c-0.5,2.8-2.4,5.6-5.8,9.7c-4.7,5.6-10.3,12-16,17c-9.5,8.4-14.3,12.1-14.3,12.1l2.6,44h3.5l-2.8-43.1
					c15.9-11.4,29.9-28.5,31.2-30.1c2.7-3.2,6.4-9.4,3.5-18.1c-2.3-6.9-4.3-13.7-6.7-19.7c-0.3-0.7-0.5-1.3-0.8-1.9h10.1v44.7
					c0,4.7,3.8,8.5,8.5,8.5h4.1c4.7,0,8.5-3.8,8.5-8.5v-44.7h0.7v34.9c0,4.7,3.8,8.5,8.5,8.5h4.1c4.7,0,8.5-3.8,8.5-8.5v-34.9h0.7
					v24.2c0,4.7,3.8,8.5,8.5,8.5h4.1c4.7,0,8.5-3.8,8.5-8.5v-24.2h8.7c1.6,0,2.9-1.3,2.9-2.9v-16.1
					C1845.2,911.9,1843.9,910.6,1842.3,910.5L1842.3,910.5z M1571.6,914.5h-8.9v-0.1c0-0.5,0.1-1.8,2-1.8h6.9V914.5
					C1571.6,914.5,1571.6,914.5,1571.6,914.5z M1577.1,888.8l-2.1,21.7v-22.7c0-6.9,7.3-7.2,7.3-7.2
					C1577.3,882.2,1577.1,888.8,1577.1,888.8z M1598.9,878.1l-2.1,32.5v-33.4c0-7,7.3-7.2,7.3-7.2
					C1599.1,871.4,1598.9,878.1,1598.9,878.1z M1620.4,868.1l-2.1,42.5v-43.4c0-7,7.3-7.2,7.3-7.2
					C1620.5,861.4,1620.4,868.1,1620.4,868.1z M1636.2,914.5v-2h6.1c0,0.6,0.1,2,0.1,2H1636.2L1636.2,914.5z M1769,914.5h-24.1
					c0,0,0.1-1.4,0.1-2h24L1769,914.5L1769,914.5L1769,914.5z M1774.2,868.1l-2.1,42.5v-43.4c0-7,7.3-7.2,7.3-7.2
					C1774.4,861.4,1774.2,868.1,1774.2,868.1z M1795.7,878.1l-2,32.5v-33.4c0-7,7.3-7.2,7.3-7.2
					C1795.8,871.4,1795.7,878.1,1795.7,878.1z M1817.4,888.8l-2.1,21.7v-22.7c0-6.9,7.3-7.2,7.3-7.2
					C1817.5,882.2,1817.4,888.8,1817.4,888.8z M1842.5,914.5h-8.9v-2h6.9c1.9,0,2,1.3,2,1.8C1842.5,914.4,1842.5,914.5,1842.5,914.5
					L1842.5,914.5z M1740.5,907.7c0.9-5.6-5.6-9.5-8.1-10.4c-3.2-1-10.2-1.3-12.5,5.7c-0.2,6.4,0.6,17,1.3,20.5
					c1.8-0.6,2.9-0.8,4.8-1.3c4.9-1.2,9.2-2.3,13.4-2.6c0-1.5,0.1-5.6,0-9c0-4.6-3.1-7.8-3.5-8.2
					C1738.5,904.1,1739.8,906.1,1740.5,907.7z M1707.2,932.3c0.3-3,4.6-5.5,10.3-7.6c-0.3-4-0.6-19.4-2.7-27.6
					c-2.6-2.9-8.1-4.4-8.1-4.4c3,0.3,4.9,0.7,6.1,1.1c-1.6-1.5-4.4-2.7-8.8-1.8c-7.4,1.6-7.6,7.9-7.4,11.4
					c0.3,5.8,0.9,14.5,1.1,18.1c0.4,5.1,0.5,15,4.5,18c2.8,2.1,6.2,2.4,8,2.1C1707.9,938.5,1707,935,1707.2,932.3L1707.2,932.3z
					 M1740.5,907.7c0.9-5.6-5.6-9.5-8.1-10.4c-3.2-1-10.2-1.3-12.5,5.7c-0.2,6.4,0.6,17,1.3,20.5c1.8-0.6,2.9-0.8,4.8-1.3
					c4.9-1.2,9.2-2.3,13.4-2.6c0-1.5,0.1-5.6,0-9c0-4.6-3.1-7.8-3.5-8.2C1738.5,904.1,1739.8,906.1,1740.5,907.7z M1707.2,932.3
					c0.3-3,4.6-5.5,10.3-7.6c-0.3-4-0.6-19.4-2.7-27.6c-2.6-2.9-8.1-4.4-8.1-4.4c3,0.3,4.9,0.7,6.1,1.1c-1.6-1.5-4.4-2.7-8.8-1.8
					c-7.4,1.6-7.6,7.9-7.4,11.4c0.3,5.8,0.9,14.5,1.1,18.1c0.4,5.1,0.5,15,4.5,18c2.8,2.1,6.2,2.4,8,2.1
					C1707.9,938.5,1707,935,1707.2,932.3L1707.2,932.3z M1745.5,923.3c-2.4-1.3-9.7-0.3-17,1.4c4.3,3.7,4.3,8.5,4.3,8.7
					c-0.3-0.7-0.6-1.3-1-1.9c-2.6-4.1-7.8-5.7-12.4-4.2c-1.5,0.5-2.9,1-4.1,1.5c-3.2,1.3-5,3.4-4.8,5c0,0.2,0,0.3,0.1,0.4
					c0.7,1.2,2.4,2.5,5.8,3.2c8,1.8,13.2-1.6,13.2-1.6s-4.2,4.1-13.3,2.7c-2.4-0.4-4.1-1.1-5.2-1.9c2.7,7.7,10.9,9.9,18.7,9.6
					c3.8-0.1,9.4-2.1,12.3-4.5c1.8-1.5,3.5-3.6,4.4-6.1c0,0-0.1,4.3-3,7.7c3-0.3,4.6-1.4,4.9-1.6c-0.2,0.4-3.3,6.5-19.4,7
					c-3.3,0.1-6.1-0.3-8.5-0.9c-24.3,4.5-29.3,31.5-29.3,31.5c0.3-23,17.8-31.8,23.4-34c-0.6-0.3-1.1-0.7-1.6-1.1
					c0,0-1.3-1.2-1.9-1.8c0,0-8.3,3.3-13.5-4.3c-0.7,0.8-2,1.9-4.7,2.6c-4.4,1.2-7.7-0.9-7.7-0.9c7.2,1.6,10.9-4.2,10.9-4.2h0
					c-0.4-0.9-0.8-1.8-1.1-2.9c-2.1-6.8-2.6-25.7-2.8-32c-3.1-3-7.2-4.2-7.2-4.2c4.2,0.3,6.6,1.7,7.1,2.1c-0.8-0.8-6.2-5.6-12.3-4.3
					c0,0-0.1,0-0.2,0c-4.9,1.1-8.2,5.8-7.8,10.9c0.5,5.9,1.4,16.1,2.2,21.4c1.1,7.6,2.5,14.3,9.1,16.9c6.3,2.5,13.3-2.9,14-3.4
					c-0.4,0.7-5.2,8.1-13.9,6.6c-3.3-0.6-6.5-2.6-8.8-6.4c-0.8,0.7-2,1.5-4,2c-4.4,1.2-7.7-0.9-7.7-0.9c5.7,1.3,9.3-2.2,10.5-3.6
					c-0.3-0.6-0.5-1.1-0.7-1.7c-1.8-5.7-4-27.4-4.6-33.2c-3.4-1.6-7.8-1.8-7.8-1.8c2.6-0.9,7.2,0.3,7.6,0.4
					c-0.6-0.3-7.6-3.8-13.9-0.6c-6.6,3.4-4.7,15.2-3.6,21.6c1.3,7.8,4.1,19.9,10.4,22.1c6,2.1,13-2.1,13.7-2.5
					c-0.3,0.6-4.1,6.5-11.6,6c-4.5-0.3-8.4-2-11.5-9.6c-3.6,3-3.7,8.3-3.7,8.4v-0.1l0,0.1c2.3-2.4,5.4-3.2,5.8-3.3
					c-5.5,3.3-5,13.5-4.9,14c1.1,9.6,3.3,20,7.7,27.6c5.4,9.4,22.5,15.7,22.5,15.7s-4.9-0.3-10.8-2.2l-3.1,29.5l-0.3-30.7
					c-0.6-0.3-1.2-0.5-1.8-0.8l-3.7,48.2h68.1l-3.9-42.7c-2.1,0.6-9.3,1-12.7,1.2l-1.5,35.7l-2.5-35.5c-4.3,0.2-8.3,0.1-10-0.2
					c3-0.2,8-0.8,13.9-2.4c-10.9,1-21,0.2-21,0.2c17.1-1.2,27.6-2.6,33.4-4.7c4.1-1.5,7.9-4.3,11.8-7.3
					c16.3-12.8,25.3-25.8,26.1-28.3C1762.1,956.9,1751.4,926.4,1745.5,923.3L1745.5,923.3z M1689.3,982.9c0,0-2.2-8.2,0.5-16.6
					c-0.5-2.7-1.9-4.8-2.1-5.1c1.2,0.7,2.3,2.3,2.8,3.2c1.3-3.1,3.3-6.1,6.5-8.6C1696.1,956.8,1688.6,965.8,1689.3,982.9
					L1689.3,982.9z M1732.9,949.4c0.5,0.3,9,6.2,16.6,4.8C1749.5,954.2,1738.2,959.3,1732.9,949.4z M1740.5,907.7
					c0.9-5.6-5.6-9.5-8.1-10.4c-3.2-1-10.2-1.3-12.5,5.7c-0.2,6.4,0.6,17,1.3,20.5c1.8-0.6,2.9-0.8,4.8-1.3
					c4.9-1.2,9.2-2.3,13.4-2.6c0-1.5,0.1-5.6,0-9c0-4.6-3.1-7.8-3.5-8.2C1738.5,904.1,1739.8,906.1,1740.5,907.7z M1707.2,932.3
					c0.3-3,4.6-5.5,10.3-7.6c-0.3-4-0.6-19.4-2.7-27.6c-2.6-2.9-8.1-4.4-8.1-4.4c3,0.3,4.9,0.7,6.1,1.1c-1.6-1.5-4.4-2.7-8.8-1.8
					c-7.4,1.6-7.6,7.9-7.4,11.4c0.3,5.8,0.9,14.5,1.1,18.1c0.4,5.1,0.5,15,4.5,18c2.8,2.1,6.2,2.4,8,2.1
					C1707.9,938.5,1707,935,1707.2,932.3L1707.2,932.3z"/>
			</g>
			<g>
				<path d="M1730.9,1045.4h-3.8l0.9,9.7h3.5L1730.9,1045.4z M1655.3,1045.4l-0.6,9.7h3.4l0.8-9.7H1655.3z"/>
			</g>
		</g>
		<g>
			<polygon class="st1" points="1701.8,1327.4 1702.4,1327.1 1702.9,1327.4 			"/>
		</g>
		<g>
			<path class="st1" d="M1826.7,1163l14.5,10.5c-30.3,64.5-77,112.6-138.8,143.1c-61.8-30.4-108.4-78.5-138.8-143l14.6-10.6h-36.8
				l0.7,1.6c32.6,77.5,85.4,134.1,156.8,168.2l3.5,1.7l3.5-1.7c71.4-34.1,124.1-90.7,156.8-168.2l0.7-1.6L1826.7,1163L1826.7,1163z
				 M1850.7,1180.2c-2,4.3-4.1,8.6-6.3,12.8c-2.2,4.2-4.5,8.4-6.9,12.6c-2.4,4.1-4.9,8.2-7.4,12.2c-2.6,4-5.2,8-7.9,11.9
				c-2.7,3.9-5.5,7.8-8.4,11.6c-2.9,3.8-5.9,7.5-8.9,11.2l-4.6,5.5l-4.8,5.4c-1.6,1.8-3.2,3.5-4.9,5.3c-1.7,1.7-3.3,3.5-5,5.1
				l-5.1,5l-5.3,4.9c-1.7,1.6-3.6,3.2-5.4,4.7c-1.8,1.6-3.6,3.2-5.5,4.6l-5.6,4.5c-1.9,1.5-3.8,2.9-5.8,4.3
				c-3.8,2.9-7.9,5.5-11.8,8.2l-6.1,3.8l-3.1,1.9l-3.1,1.7l-6.3,3.5l-6.4,3.2l-3.2,1.6l-3.3,1.5l-6.6,2.9l-0.5,0.2l-0.6-0.2
				l-6.6-2.9l-3.3-1.5l-3.2-1.6l-6.4-3.2l-6.3-3.5l-3.1-1.7l-3.1-1.9l-6.1-3.8c-3.9-2.7-8-5.3-11.8-8.2c-1.9-1.4-3.9-2.8-5.8-4.3
				l-5.6-4.5c-1.9-1.5-3.7-3.1-5.5-4.6c-1.8-1.6-3.7-3.1-5.4-4.7l-5.3-4.9l-5.1-5c-1.7-1.7-3.3-3.4-5-5.1c-1.6-1.7-3.3-3.4-4.9-5.3
				l-4.8-5.4l-4.6-5.5c-3-3.7-6-7.4-8.9-11.2c-2.9-3.8-5.7-7.7-8.4-11.6s-5.4-7.9-8-11.9c-2.5-4-5-8.1-7.4-12.2
				c-2.4-4.2-4.7-8.3-6.9-12.5c-2.2-4.2-4.3-8.5-6.4-12.8c-2-4.3-3.9-8.7-5.7-13.1c1.8,4.4,3.9,8.7,6,13c2.1,4.3,4.3,8.5,6.7,12.6
				c2.3,4.2,4.7,8.3,7.2,12.3c2.5,4.1,5,8.1,7.7,12c2.6,3.9,5.3,7.9,8.1,11.7c2.8,3.8,5.6,7.7,8.6,11.4c2.9,3.8,5.9,7.4,9,11
				l4.7,5.4l4.8,5.3c1.6,1.8,3.3,3.4,4.9,5.1c1.7,1.7,3.3,3.4,5,5l5.1,4.9l5.3,4.8c1.7,1.6,3.6,3.1,5.4,4.7c1.8,1.5,3.6,3.1,5.5,4.6
				l5.6,4.4c1.9,1.5,3.8,2.8,5.7,4.2c3.8,2.9,7.8,5.4,11.7,8l6.1,3.7l3,1.8l3.1,1.7l6.2,3.4l6.3,3.2l3.2,1.6l3.3,1.4l6,2.6l5.9-2.6
				l3.3-1.4l3.2-1.6l6.4-3.2l6.2-3.4l3.1-1.7l3-1.8l6.1-3.7c3.9-2.7,8-5.2,11.7-8c1.9-1.4,3.9-2.8,5.7-4.2l5.6-4.4
				c1.9-1.4,3.6-3,5.5-4.6c1.8-1.5,3.6-3,5.4-4.6l5.3-4.8l5.1-4.9c1.7-1.6,3.4-3.4,5-5c1.7-1.7,3.3-3.4,4.9-5.1l4.8-5.3l4.7-5.4
				c3.1-3.6,6.1-7.3,9-11c3-3.7,5.8-7.6,8.6-11.4c2.8-3.9,5.4-7.8,8.1-11.7c2.6-4,5.2-8,7.7-12c2.5-4.1,4.9-8.2,7.2-12.3
				c2.3-4.2,4.5-8.4,6.7-12.6c2.1-4.3,4.2-8.6,6-13c-1.7,4.4-3.7,8.8-5.7,13.1L1850.7,1180.2z"/>
		</g>
		<g>
			<path class="st1" d="M1896.5,965.3l-0.4-5.2l-4.9-1.8c-10.9-3.8-21.6-7.3-32-10.5l-2.3-21l-10,34.1l1.1,0.3
				c11,3.2,22,6.7,32.7,10.5c0.4,12.4,0.7,44-5.5,83.8l-0.2,1.3h16.3l0.1-0.9C1899.4,1004.2,1896.6,966.9,1896.5,965.3L1896.5,965.3
				z M1893.4,1006.7c-0.2,3.6-0.4,7.2-0.7,10.8c-0.3,3.6-0.7,7.2-1,10.8l-0.7,5.4c-0.2,1.8-0.5,3.6-0.8,5.3c-0.5,3.6-1.3,7.1-2,10.6
				c0.2-1.8,0.3-3.6,0.5-5.4c0.2-1.8,0.3-3.6,0.4-5.4c0.3-3.6,0.5-7.2,0.7-10.7c0.1-3.6,0.4-7.2,0.5-10.8c0.2-3.6,0.3-7.2,0.4-10.8
				l0.3-10.8l0.2-10.8c0-6.9,0.1-13.8,0-20.7c-4.9-1.8-9.9-3.7-14.8-5.6l-7.8-3.1c-2.6-1-5.2-2.1-7.7-3.2c2.7,0.8,5.4,1.6,8,2.4
				l8,2.4c5.3,1.7,10.6,3.4,15.9,5.1l0.8,0.2l0,0.9c0.2,3.6,0.3,7.2,0.4,10.8c0.1,3.6,0.1,7.2,0.1,10.8
				C1894,992.3,1893.7,999.5,1893.4,1006.7z"/>
		</g>
		<g>
			<path class="st1" d="M1556.8,961.3l1.1-0.3l-10-34.1l-2.3,21c-10.7,3.3-21.4,6.8-32,10.5l-4.9,1.8l-0.4,5.2c0,0.4-3,38.1,5,90.6
				l0.1,1h16.4l-0.2-1.3c-6.2-39.9-6-71.4-5.5-83.8C1534.9,968,1545.9,964.5,1556.8,961.3z M1515.8,985.1l0.2,10.8l0.3,10.8
				c0.1,3.6,0.2,7.2,0.4,10.8c0.1,3.6,0.4,7.2,0.5,10.8c0.3,3.6,0.4,7.2,0.7,10.7c0.1,1.8,0.3,3.6,0.4,5.4c0.2,1.8,0.3,3.6,0.5,5.4
				c-0.7-3.5-1.4-7.1-2-10.6c-0.3-1.8-0.6-3.6-0.8-5.3l-0.7-5.4c-0.4-3.6-0.8-7.2-1-10.8c-0.3-3.6-0.5-7.2-0.7-10.8
				c-0.3-7.2-0.6-14.4-0.6-21.6c0-3.6,0-7.2,0.1-10.8c0.1-3.6,0.2-7.2,0.4-10.8l0-0.9l0.8-0.2c5.3-1.7,10.6-3.5,15.9-5.1l8-2.4
				c2.7-0.8,5.3-1.6,8-2.4c-2.6,1.1-5.1,2.1-7.7,3.2l-7.8,3.1c-4.9,1.9-9.9,3.8-14.8,5.6C1515.7,971.2,1515.7,978.2,1515.8,985.1
				L1515.8,985.1z"/>
		</g>
		<g>
			<polygon class="st1" points="1526.4,1045.4 1881.4,1045.4 1880.1,1056.8 1525.1,1056.8 			"/>
		</g>
		<g>
			<g>
				<polygon class="st1" points="1702.6,1241 1708.5,1253 1721.7,1254.9 1712.1,1264.2 1714.4,1277.4 1702.6,1271.2 1690.8,1277.4 
					1693,1264.2 1683.5,1254.9 1696.7,1253 				"/>
			</g>
			<g>
				<polygon class="st1" points="1653,1233.2 1656.6,1240.6 1664.7,1241.8 1658.9,1247.5 1660.2,1255.5 1653,1251.7 1645.7,1255.5 
					1647.1,1247.5 1641.2,1241.8 1649.4,1240.6 				"/>
			</g>
			<g>
				<polygon class="st1" points="1752.2,1233.2 1755.8,1240.6 1763.9,1241.8 1758,1247.5 1759.4,1255.5 1752.2,1251.7 
					1744.9,1255.5 1746.3,1247.5 1740.4,1241.8 1748.5,1240.6 				"/>
			</g>
		</g>
		<g>
			<g>
				<path d="M1667,1178.1c3,1.1,5.4,2.8,7.2,5.1c1.8,2.2,2.7,4.9,2.7,8.1h-12.1c0-1.6-0.7-3-2.2-4c-1.4-1-3.2-1.5-5.3-1.5
					c-3,0-5.2,0.8-6.7,2.4s-2.3,3.8-2.3,6.7v3.7c0,2.9,0.8,5.1,2.3,6.7c1.5,1.6,3.8,2.4,6.7,2.4c2.1,0,3.8-0.5,5.3-1.5
					c1.4-1,2.2-2.2,2.2-3.7h-8.9v-8h21v22h-6.5l-1.3-3.9c-3.6,3-8.3,4.6-14.1,4.6c-6.5,0-11.4-1.7-14.7-5.1
					c-3.3-3.4-4.9-8.5-4.9-15.2s1.9-11.7,5.6-15.2c3.7-3.4,9-5.2,15.9-5.2C1660.6,1176.4,1664,1177,1667,1178.1z"/>
			</g>
			<g>
				<path d="M1709.1,1216.4h-12.6v-15.3l-15.6-24.1h14.5l7.6,13.1h0.2l7.6-13.1h13.8l-15.4,24.1
					C1709.1,1201.2,1709.1,1216.4,1709.1,1216.4z"/>
			</g>
			<g>
				<path d="M1762.9,1216.4v-14.2c0-1.8,0.1-3.6,0.2-5.4c0.1-1.9,0.3-3.4,0.4-4.7c0.2-1.3,0.3-2.1,0.3-2.4h-0.2l-7.3,26.6h-9.9
					l-7.3-26.6h-0.2c0,0.3,0.1,1.1,0.3,2.4c0.2,1.2,0.3,2.8,0.5,4.6c0.2,1.9,0.2,3.6,0.2,5.4v14.2h-11.6v-39.3h17.8l5.9,22.7h0.2
					l5.9-22.7h17.2v39.3L1762.9,1216.4L1762.9,1216.4z"/>
			</g>
		</g>
		<g>
			<g>
				<path d="M1584.3,1109.4c0,18.7-9.8,28-29.4,28h-24.3v-56.1h24.3C1574.5,1081.3,1584.3,1090.7,1584.3,1109.4z M1548.6,1123.9h5.9
					c7.6,0,11.3-4,11.3-12.1v-4.9c0-8.1-3.8-12.2-11.3-12.2h-5.9V1123.9z"/>
			</g>
			<g>
				<path d="M1652.5,1087.8c5.3,4.9,7.9,12.1,7.9,21.6s-2.6,16.7-7.9,21.6s-12.7,7.4-22.4,7.4c-9.7,0-17.1-2.5-22.4-7.4
					c-5.3-4.9-7.9-12.1-7.9-21.6s2.6-16.7,7.9-21.6c5.2-4.9,12.7-7.4,22.4-7.4C1639.7,1080.4,1647.2,1082.8,1652.5,1087.8
					L1652.5,1087.8z M1621.3,1097.3c-2,2.3-3,5.5-3,9.5v5.2c0,4,1,7.1,3,9.5c2,2.3,4.9,3.5,8.8,3.5c3.9,0,6.8-1.2,8.8-3.5
					c2-2.3,3.1-5.5,3.1-9.5v-5.2c0-4-1-7.1-3.1-9.5c-2-2.3-5-3.5-8.8-3.5C1626.2,1093.8,1623.3,1095,1621.3,1097.3z"/>
			</g>
			<g>
				<path d="M1731.9,1109.4c0,18.7-9.8,28-29.4,28h-24.3v-56.1h24.3C1722.1,1081.3,1731.9,1090.7,1731.9,1109.4z M1696.2,1123.9h5.9
					c7.6,0,11.3-4,11.3-12.1v-4.9c0-8.1-3.8-12.2-11.3-12.2h-5.9V1123.9z"/>
			</g>
			<g>
				<path d="M1792.5,1082.8c4.3,1.6,7.7,4,10.2,7.2c2.5,3.2,3.8,7,3.8,11.6h-17.2c0-2.3-1-4.2-3.1-5.7s-4.6-2.2-7.5-2.2
					c-4.2,0-7.4,1.1-9.6,3.4s-3.3,5.4-3.3,9.6v5.2c0,4.1,1.1,7.3,3.3,9.6c2.2,2.3,5.4,3.4,9.6,3.4c2.9,0,5.4-0.7,7.5-2.1
					c2.1-1.4,3.1-3.2,3.1-5.3h-12.7v-11.4h29.9v31.3h-9.3l-1.8-5.5c-5.1,4.3-11.8,6.5-20.1,6.5c-9.3,0-16.3-2.4-20.9-7.3
					c-4.7-4.9-7-12.1-7-21.7s2.6-16.7,7.9-21.6c5.3-4.9,12.8-7.4,22.6-7.4C1783.4,1080.4,1788.2,1081.2,1792.5,1082.8L1792.5,1082.8
					z"/>
			</g>
			<g>
				<path d="M1825.8,1081.3h48.5v13.5h-30.5v7.7h26.1v12.9h-26.1v8.6h31v13.5h-49.1L1825.8,1081.3L1825.8,1081.3z"/>
			</g>
		</g>
	</g>
</g>
<g id="Objects_00000119118878705062373920000014124215117857243830_">
	<g>
		<g>
			<polygon class="st0" points="281.9,561.4 280.6,561.4 281.3,561.2 			"/>
		</g>
		<g>
			<path class="st1" d="M500,254.3c-0.3,1.7-0.6,3.4-0.9,5.2H63.5c-0.3-1.7-0.6-3.5-0.9-5.2H500z"/>
		</g>
		<g>
			<path class="st1" d="M473.8,357.7c-0.7,1.7-1.4,3.4-2.1,5.2H91.3c-0.7-1.7-1.4-3.4-2.1-5.2H473.8z"/>
		</g>
		<g>
			<path class="st1" d="M81.1,152.2c0.1,7.9,0.9,61.9,5.3,84.3l-2.5,0.5c-4.8-24.3-5.3-85.1-5.3-85.7v-1l36-10.7l0.7,2.5L81.1,152.2
				L81.1,152.2z"/>
		</g>
		<g>
			<path class="st1" d="M482.7,150.3v1c0,0.6-0.6,61.4-5.3,85.7l-2.5-0.5c4.4-22.4,5.2-76.3,5.3-84.3l-32.9-9.8l0.7-2.5L482.7,150.3
				L482.7,150.3z"/>
		</g>
		<g>
			<path class="st2" d="M281.3,542.9l-0.3-0.1c-47.2-19.4-84.8-57.6-103-78.6c-37.4-43.1-56-86.8-56.2-87.2l1.3-0.5
				c0.2,0.4,18.8,43.9,56,86.9c18.1,20.9,55.4,58.8,102.2,78.1c46.8-19.3,84.1-57.2,102.2-78.1c37.2-42.9,55.8-86.4,56-86.9l1.3,0.5
				c-0.2,0.4-18.8,44.1-56.2,87.2c-18.2,21-55.8,59.2-103,78.6L281.3,542.9z"/>
		</g>
		<g>
			<g>
				<path class="st0" d="M286.9,102.2c0.4-3.5,5.3-6.4,12-8.8c-0.4-4.6-0.7-22.6-3.1-32c-3-3.4-9.5-5.1-9.5-5.1
					c3.5,0.3,5.8,0.8,7.1,1.3c-1.9-1.7-5.1-3.2-10.3-2c-8.6,1.8-8.9,9.2-8.6,13.2c0.4,6.7,1,16.9,1.3,21c0.5,5.9,0.6,17.4,5.3,20.9
					c3.2,2.4,7.2,2.7,9.3,2.4C287.6,109.3,286.6,105.2,286.9,102.2L286.9,102.2z M325.6,73.6c1.1-6.5-6.5-11.1-9.4-12
					c-3.7-1.2-11.9-1.5-14.5,6.6c-0.3,7.5,0.7,19.7,1.5,23.8c2.1-0.6,3.4-1,5.6-1.5c5.7-1.4,10.7-2.7,15.5-3c0-1.7,0.1-6.5,0-10.5
					c0-5.3-3.6-9.1-4-9.5C323.3,69.4,324.8,71.7,325.6,73.6z M286.9,102.2c0.4-3.5,5.3-6.4,12-8.8c-0.4-4.6-0.7-22.6-3.1-32
					c-3-3.4-9.5-5.1-9.5-5.1c3.5,0.3,5.8,0.8,7.1,1.3c-1.9-1.7-5.1-3.2-10.3-2c-8.6,1.8-8.9,9.2-8.6,13.2c0.4,6.7,1,16.9,1.3,21
					c0.5,5.9,0.6,17.4,5.3,20.9c3.2,2.4,7.2,2.7,9.3,2.4C287.6,109.3,286.6,105.2,286.9,102.2L286.9,102.2z M325.6,73.6
					c1.1-6.5-6.5-11.1-9.4-12c-3.7-1.2-11.9-1.5-14.5,6.6c-0.3,7.5,0.7,19.7,1.5,23.8c2.1-0.6,3.4-1,5.6-1.5
					c5.7-1.4,10.7-2.7,15.5-3c0-1.7,0.1-6.5,0-10.5c0-5.3-3.6-9.1-4-9.5C323.3,69.4,324.8,71.7,325.6,73.6z M443.9,76.8h-10.2V48.7
					c0-5.4-4.4-9.8-9.8-9.8h-4.8c-5.4,0-9.8,4.4-9.8,9.8v28.2h-0.9V36.3c0-5.4-4.4-9.8-9.8-9.8h-4.8c-5.4,0-9.8,4.4-9.8,9.8v40.6
					h-0.9v-52c0-5.4-4.4-9.8-9.8-9.8h-4.8c-5.4,0-9.8,4.4-9.8,9.8v52H335l-0.1-0.1c-3.6-11.6-7.8-17.1-15.7-20.9
					c-9.4-4.5-17.5,0.1-17.5,0.1s-4.8-7.8-15-8.5c-10.1-0.7-17,7-17,7s-7.2-4.9-15.1-4c-8,0.8-14,7.6-14,7.6s-10.9-3.2-18.8-0.2
					c-6,2.3-9.1,9-9.6,12.8c-0.2,1.5-0.4,3.7-0.6,6.1h-7.3v-52c0-5.4-4.4-9.8-9.8-9.8h-4.8c-5.4,0-9.8,4.4-9.8,9.8v52H179V36.3
					c0-5.4-4.4-9.8-9.8-9.8h-4.8c-5.4,0-9.8,4.4-9.8,9.8v40.6h-0.9V48.7c0-5.4-4.4-9.8-9.8-9.8H139c-5.4,0-9.8,4.4-9.8,9.8v28.2
					h-9.7c-1.9,0-3.4,1.5-3.4,3.4V99c0,1.9,1.5,3.4,3.4,3.4h9.7v28.2c0,5.4,4.4,9.8,9.8,9.8h4.8c5.4,0,9.8-4.4,9.8-9.8v-28.2h0.9
					V143c0,5.4,4.4,9.8,9.8,9.8h4.8c5.4,0,9.8-4.4,9.8-9.8v-40.6h0.9v52c0,5.4,4.4,9.8,9.8,9.8h4.8c5.4,0,9.8-4.4,9.8-9.8v-52h5.1
					c0,8.4,0.3,29,2.8,45.8c3.2,21.7,14.1,27.6,14.1,27.6l-3.3,57.8h3.5l3.3-59c-3-2.1-5.7-4.7-7.6-8.1
					c-11.6-20.6-9.1-64.1-9.1-64.1h4.4c0,0-0.2,3.5-0.2,9c1.3-1.5,2.8-2.4,3.9-2.9c-0.3-0.8-0.6-1.6-0.9-2.5
					c-3.9-12.3-4.7-28.9-4.4-32.3c0.3-3.5,2.1-10.8,10.5-12.8c8.4-2,16.3,1,16.3,1s4.1-6.9,13.2-7.6c9.1-0.7,15.4,5.4,15.4,5.4
					c3.4-6.8,11.3-8.9,18-8c10.5,1.3,10.8,11.7,10.8,11.7s3.3-6.5,12-5.8c6.6,0.5,17.2,5.2,18.9,19.5H328c0,4.3-0.3,8.7-0.3,10.3
					c1.9,0,3.6,0.2,4.9,0.7c2.4,0.9,4.5,2.8,6.2,5.1c1.7,2.3,3,5.2,4,8c0,0,7.2,17.4,8.7,23.8c0.9,3.7,2.8,8.2,1.8,12.7
					c-0.6,3.3-2.8,6.5-6.7,11.2c-5.4,6.6-12,13.9-18.6,19.7c-11,9.8-16.7,14-16.7,14l3,51.2h4l-3.2-50
					c18.5-13.2,34.8-33.2,36.3-34.9c3.2-3.7,7.5-11,4.1-21.1c-2.6-8-5-16-7.7-22.9c-0.3-0.8-0.6-1.5-0.9-2.2h11.7v52
					c0,5.4,4.4,9.8,9.8,9.8h4.8c5.4,0,9.8-4.4,9.8-9.8v-52h0.9V143c0,5.4,4.4,9.8,9.8,9.8h4.8c5.4,0,9.8-4.4,9.8-9.8v-40.6h0.9v28.2
					c0,5.4,4.4,9.8,9.8,9.8h4.8c5.4,0,9.8-4.4,9.8-9.8v-28.2h10.2c1.9,0,3.4-1.5,3.4-3.4V80.3C447.3,78.4,445.8,76.9,443.9,76.8
					L443.9,76.8z M129.2,81.4h-10.4v-0.1c0-0.6,0.2-2.1,2.3-2.1h8.1V81.4C129.2,81.4,129.2,81.4,129.2,81.4z M135.6,51.6l-2.4,25.3
					V50.5c0-8.1,8.5-8.4,8.5-8.4C135.8,43.9,135.6,51.6,135.6,51.6z M161,39.1l-2.4,37.8V38c0-8.1,8.5-8.4,8.5-8.4
					C161.2,31.4,161,39.1,161,39.1z M186,27.5l-2.4,49.4V26.4c0-8.1,8.5-8.4,8.5-8.4C186.1,19.8,186,27.5,186,27.5z M204.3,81.4
					v-2.3h7.1c0,0.6,0.1,2.3,0.1,2.3H204.3L204.3,81.4z M358.7,81.4h-28c0,0,0.1-1.6,0.1-2.3h27.9L358.7,81.4L358.7,81.4L358.7,81.4
					z M364.8,27.5l-2.4,49.4V26.4c0-8.1,8.5-8.4,8.5-8.4C365,19.8,364.8,27.5,364.8,27.5z M389.7,39.1l-2.4,37.8V38
					c0-8.1,8.5-8.4,8.5-8.4C389.9,31.4,389.7,39.1,389.7,39.1z M415,51.6l-2.4,25.3V50.5c0-8.1,8.5-8.4,8.5-8.4
					C415.1,43.9,415,51.6,415,51.6z M444.2,81.4h-10.4v-2.3h8.1c2.2,0,2.3,1.6,2.3,2.1C444.2,81.4,444.2,81.4,444.2,81.4L444.2,81.4
					z M325.6,73.6c1.1-6.5-6.5-11.1-9.4-12c-3.7-1.2-11.9-1.5-14.5,6.6c-0.3,7.5,0.7,19.7,1.5,23.8c2.1-0.6,3.4-1,5.6-1.5
					c5.7-1.4,10.7-2.7,15.5-3c0-1.7,0.1-6.5,0-10.5c0-5.3-3.6-9.1-4-9.5C323.3,69.4,324.8,71.7,325.6,73.6z M286.9,102.2
					c0.4-3.5,5.3-6.4,12-8.8c-0.4-4.6-0.7-22.6-3.1-32c-3-3.4-9.5-5.1-9.5-5.1c3.5,0.3,5.8,0.8,7.1,1.3c-1.9-1.7-5.1-3.2-10.3-2
					c-8.6,1.8-8.9,9.2-8.6,13.2c0.4,6.7,1,16.9,1.3,21c0.5,5.9,0.6,17.4,5.3,20.9c3.2,2.4,7.2,2.7,9.3,2.4
					C287.6,109.3,286.6,105.2,286.9,102.2L286.9,102.2z M325.6,73.6c1.1-6.5-6.5-11.1-9.4-12c-3.7-1.2-11.9-1.5-14.5,6.6
					c-0.3,7.5,0.7,19.7,1.5,23.8c2.1-0.6,3.4-1,5.6-1.5c5.7-1.4,10.7-2.7,15.5-3c0-1.7,0.1-6.5,0-10.5c0-5.3-3.6-9.1-4-9.5
					C323.3,69.4,324.8,71.7,325.6,73.6z M286.9,102.2c0.4-3.5,5.3-6.4,12-8.8c-0.4-4.6-0.7-22.6-3.1-32c-3-3.4-9.5-5.1-9.5-5.1
					c3.5,0.3,5.8,0.8,7.1,1.3c-1.9-1.7-5.1-3.2-10.3-2c-8.6,1.8-8.9,9.2-8.6,13.2c0.4,6.7,1,16.9,1.3,21c0.5,5.9,0.6,17.4,5.3,20.9
					c3.2,2.4,7.2,2.7,9.3,2.4C287.6,109.3,286.6,105.2,286.9,102.2L286.9,102.2z M331.4,91.7c-2.8-1.5-11.3-0.4-19.7,1.6
					c4.9,4.3,5,9.8,5,10.1c-0.3-0.8-0.7-1.6-1.2-2.2c-3.1-4.7-9.1-6.6-14.4-4.8c-1.8,0.6-3.4,1.2-4.8,1.8c-3.7,1.5-5.8,3.9-5.6,5.9
					c0,0.2,0.1,0.3,0.1,0.5c0.8,1.4,2.7,2.9,6.8,3.7c9.3,2.1,15.4-1.9,15.4-1.9s-4.9,4.8-15.4,3.2c-2.8-0.4-4.7-1.3-6-2.2
					c3.1,9,12.6,11.5,21.7,11.1c4.4-0.2,10.9-2.4,14.3-5.3c2.1-1.8,4.1-4.1,5.1-7c0,0-0.1,5-3.5,9c3.4-0.3,5.4-1.6,5.6-1.8
					c-0.2,0.4-3.8,7.5-22.5,8.2c-3.8,0.1-7.1-0.3-9.9-1.1c-28.3,5.3-34.1,36.6-34.1,36.6c0.4-26.8,20.7-37,27.2-39.6
					c-0.6-0.4-1.3-0.8-1.8-1.3c0,0-1.6-1.3-2.2-2.1c0,0-9.6,3.9-15.7-4.9c-0.8,0.9-2.3,2.2-5.4,3.1c-5.1,1.4-8.9-1-8.9-1
					c8.4,1.9,12.7-4.9,12.7-4.9h0c-0.5-1-0.9-2.1-1.3-3.3c-2.4-7.9-3.1-29.9-3.2-37.2c-3.6-3.5-8.4-4.9-8.4-4.9
					c4.9,0.3,7.7,2,8.3,2.4c-0.9-0.9-7.2-6.5-14.3-5c-0.1,0-0.1,0-0.2,0c-5.8,1.3-9.5,6.7-9,12.6c0.6,6.9,1.6,18.8,2.5,24.8
					c1.3,8.8,2.9,16.6,10.6,19.7c7.3,2.9,15.4-3.3,16.2-4c-0.5,0.8-6,9.5-16.2,7.7c-3.8-0.6-7.6-3-10.2-7.4
					c-0.9,0.8-2.3,1.7-4.7,2.4c-5.1,1.4-8.9-1-8.9-1c6.6,1.5,10.8-2.5,12.2-4.2c-0.3-0.6-0.6-1.3-0.8-2c-2.1-6.7-4.7-31.9-5.3-38.6
					c-3.9-1.8-9.1-2.1-9.1-2.1c3-1.1,8.4,0.3,8.9,0.4c-0.7-0.4-8.8-4.4-16.2-0.7c-7.7,3.9-5.4,17.7-4.1,25.1
					c1.5,9.1,4.7,23.1,12.1,25.7c7,2.5,15.1-2.4,15.9-2.9c-0.4,0.7-4.8,7.6-13.5,7c-5.3-0.3-9.7-2.3-13.4-11.1
					c-4.2,3.5-4.3,9.6-4.3,9.8v-0.1l0,0.1c2.6-2.8,6.3-3.7,6.7-3.8c-6.4,3.8-5.8,15.7-5.8,16.3c1.3,11.2,3.8,23.3,9,32.1
					c6.3,10.9,26.1,18.2,26.1,18.2s-5.8-0.4-12.5-2.5l-3.6,34.3l-0.3-35.7c-0.7-0.3-1.4-0.6-2.1-0.9l-4.3,56h79.2l-4.6-49.6
					c-2.5,0.6-10.8,1.2-14.8,1.4l-1.7,41.5l-2.9-41.2c-5.1,0.2-9.7,0.1-11.6-0.2c3.4-0.2,9.3-0.9,16.2-2.8
					c-12.6,1.2-24.4,0.2-24.4,0.2c19.9-1.4,32.1-3,38.8-5.5c4.8-1.8,9.2-5,13.7-8.5c18.9-14.8,29.4-29.9,30.4-32.9
					C350.7,130.7,338.2,95.3,331.4,91.7L331.4,91.7z M266.1,160.9c0,0-2.6-9.6,0.6-19.3c-0.6-3.1-2.2-5.6-2.4-5.9
					c1.4,0.9,2.6,2.7,3.2,3.7c1.5-3.6,3.9-7.1,7.6-10C274,130.6,265.3,141.1,266.1,160.9L266.1,160.9z M316.7,122
					c0.6,0.4,10.5,7.2,19.3,5.6C336.1,127.6,322.9,133.5,316.7,122z M325.6,73.6c1.1-6.5-6.5-11.1-9.4-12
					c-3.7-1.2-11.9-1.5-14.5,6.6c-0.3,7.5,0.7,19.7,1.5,23.8c2.1-0.6,3.4-1,5.6-1.5c5.7-1.4,10.7-2.7,15.5-3c0-1.7,0.1-6.5,0-10.5
					c0-5.3-3.6-9.1-4-9.5C323.3,69.4,324.8,71.7,325.6,73.6z M286.9,102.2c0.4-3.5,5.3-6.4,12-8.8c-0.4-4.6-0.7-22.6-3.1-32
					c-3-3.4-9.5-5.1-9.5-5.1c3.5,0.3,5.8,0.8,7.1,1.3c-1.9-1.7-5.1-3.2-10.3-2c-8.6,1.8-8.9,9.2-8.6,13.2c0.4,6.7,1,16.9,1.3,21
					c0.5,5.9,0.6,17.4,5.3,20.9c3.2,2.4,7.2,2.7,9.3,2.4C287.6,109.3,286.6,105.2,286.9,102.2L286.9,102.2z"/>
			</g>
			<g>
				<path class="st0" d="M314.4,233.6H310l1.1,11.3h4L314.4,233.6z M226.5,233.6l-0.6,11.3h4l0.9-11.3H226.5z"/>
			</g>
		</g>
		<g>
			<polygon class="st1" points="280.6,561.4 281.3,561.2 281.9,561.4 			"/>
		</g>
		<g>
			<path class="st1" d="M425.8,370.3l16.8,12.2c-35.3,75-89.5,130.9-161.4,166.3c-71.9-35.4-126.1-91.3-161.3-166.2l17-12.3H94.2
				l0.8,1.8c38,90.1,99.3,155.9,182.3,195.5l4.1,1.9l4.1-1.9c83-39.6,144.3-105.4,182.3-195.5l0.8-1.8L425.8,370.3L425.8,370.3z
				 M453.7,390.3c-2.3,5-4.8,10-7.4,14.9c-2.6,4.9-5.2,9.8-8,14.6c-2.8,4.8-5.6,9.5-8.6,14.2c-3,4.7-6.1,9.3-9.2,13.9
				c-3.2,4.5-6.4,9.1-9.8,13.5c-3.3,4.4-6.8,8.7-10.4,13.1l-5.4,6.4l-5.6,6.2c-1.8,2.1-3.8,4.1-5.7,6.1c-1.9,2-3.8,4.1-5.8,6l-6,5.8
				l-6.1,5.6c-2,1.9-4.2,3.7-6.3,5.5c-2.1,1.8-4.2,3.7-6.4,5.4l-6.5,5.2c-2.2,1.7-4.5,3.3-6.7,5c-4.4,3.4-9.1,6.4-13.7,9.5l-7.1,4.4
				l-3.6,2.2l-3.7,2l-7.3,4.1l-7.5,3.8l-3.8,1.8l-3.8,1.7l-7.6,3.4l-0.6,0.3l-0.6-0.3l-7.7-3.4l-3.8-1.7l-3.7-1.9l-7.5-3.8l-7.3-4.1
				l-3.7-2l-3.6-2.2l-7.1-4.4c-4.6-3.2-9.3-6.1-13.7-9.5c-2.2-1.7-4.5-3.2-6.7-5l-6.5-5.2c-2.2-1.7-4.3-3.6-6.4-5.4
				c-2.1-1.8-4.3-3.6-6.3-5.5l-6.1-5.6l-6-5.8c-2-1.9-3.9-4-5.8-6c-1.9-2-3.9-4-5.7-6.1l-5.5-6.2l-5.4-6.4c-3.5-4.3-7-8.6-10.3-13.1
				c-3.4-4.4-6.6-8.9-9.8-13.5c-3.2-4.6-6.3-9.2-9.3-13.9c-2.9-4.7-5.8-9.4-8.6-14.2c-2.7-4.8-5.5-9.7-8-14.6
				c-2.6-4.9-5.1-9.9-7.4-14.9c-2.3-5-4.6-10.1-6.6-15.3c2.1,5.1,4.5,10.1,7,15.1c2.5,4.9,5.1,9.9,7.7,14.7
				c2.7,4.9,5.5,9.6,8.4,14.3c2.9,4.7,5.9,9.4,8.9,14c3.1,4.6,6.2,9.2,9.4,13.6c3.2,4.5,6.5,8.9,9.9,13.3c3.4,4.4,6.9,8.6,10.5,12.8
				l5.4,6.3l5.6,6.1c1.8,2,3.8,4,5.7,6c1.9,2,3.8,4,5.8,5.9l5.9,5.8l6.1,5.6c2,1.9,4.1,3.7,6.3,5.4c2.1,1.8,4.1,3.6,6.4,5.3l6.5,5.1
				c2.2,1.7,4.4,3.3,6.7,4.9c4.4,3.3,9.1,6.2,13.6,9.3l7,4.3l3.5,2.1l3.6,2l7.2,4l7.4,3.7l3.7,1.8l3.8,1.7l6.9,3.1l6.9-3.1l3.8-1.7
				l3.7-1.8l7.4-3.7l7.2-4l3.6-2l3.5-2.1l7-4.3c4.6-3.1,9.3-6,13.6-9.3c2.2-1.6,4.5-3.2,6.7-4.9l6.5-5.1c2.2-1.7,4.2-3.5,6.4-5.3
				c2.1-1.8,4.2-3.5,6.3-5.4l6.1-5.6l5.9-5.8c2-1.9,3.9-3.9,5.8-5.9c1.9-2,3.9-3.9,5.7-6l5.6-6.1l5.4-6.3c3.6-4.2,7.1-8.4,10.5-12.8
				c3.4-4.3,6.7-8.8,9.9-13.3c3.2-4.5,6.3-9.1,9.4-13.6c3-4.6,6-9.3,8.9-14c2.9-4.7,5.7-9.5,8.4-14.3c2.7-4.8,5.3-9.7,7.7-14.7
				c2.5-5,4.8-10,7-15.1c-2,5.2-4.3,10.2-6.6,15.3L453.7,390.3z"/>
		</g>
		<g>
			<path class="st1" d="M507,140.5l-0.5-6.1l-5.7-2.1c-12.7-4.4-25.1-8.5-37.2-12.2l-2.6-24.4l-11.6,39.7l1.3,0.4
				c12.8,3.8,25.6,7.8,38.1,12.2c0.5,14.5,0.8,51.1-6.4,97.4l-0.3,1.5h19l0.2-1.1C510.3,185.7,507.1,142.3,507,140.5L507,140.5z
				 M503.3,188.6c-0.3,4.2-0.5,8.4-0.8,12.5c-0.3,4.2-0.8,8.4-1.2,12.5l-0.8,6.2c-0.3,2.1-0.6,4.1-1,6.2c-0.6,4.1-1.5,8.2-2.3,12.4
				c0.2-2.1,0.3-4.2,0.6-6.3c0.2-2.1,0.4-4.2,0.5-6.3c0.3-4.1,0.6-8.3,0.8-12.5c0.2-4.2,0.5-8.3,0.6-12.5c0.2-4.1,0.3-8.3,0.5-12.5
				l0.3-12.5l0.2-12.5c0-8,0.1-16.1,0-24.1c-5.8-2.1-11.5-4.3-17.3-6.6l-9-3.6c-3-1.2-6-2.4-9-3.7c3.1,0.9,6.2,1.8,9.3,2.7l9.3,2.8
				c6.2,1.9,12.4,3.9,18.5,6l0.9,0.3l0,1c0.2,4.2,0.3,8.4,0.4,12.6c0.1,4.2,0.1,8.4,0.1,12.6C504,171.9,503.7,180.3,503.3,188.6z"/>
		</g>
		<g>
			<path class="st1" d="M112,135.8l1.3-0.4l-11.6-39.7L99,120.1c-12.4,3.8-24.9,7.9-37.2,12.2l-5.7,2.1l-0.5,6
				c0,0.4-3.5,44.3,5.8,105.3l0.2,1.1h19l-0.2-1.5c-7.2-46.3-6.9-83-6.4-97.4C86.5,143.6,99.4,139.5,112,135.8z M64.3,163.5
				l0.2,12.5l0.3,12.5c0.1,4.2,0.3,8.4,0.5,12.5c0.1,4.2,0.4,8.3,0.6,12.5c0.3,4.1,0.5,8.3,0.8,12.5c0.2,2.1,0.3,4.2,0.5,6.3
				s0.4,4.1,0.6,6.3c-0.9-4.1-1.7-8.2-2.3-12.4c-0.3-2.1-0.7-4.1-1-6.2l-0.8-6.2c-0.4-4.2-0.9-8.4-1.2-12.5
				c-0.4-4.2-0.6-8.4-0.8-12.5c-0.4-8.4-0.7-16.8-0.7-25.1c0-4.2,0-8.4,0.1-12.6c0.1-4.2,0.2-8.4,0.4-12.6l0-1l0.9-0.3
				c6.1-2,12.3-4,18.5-6l9.3-2.8c3.1-0.9,6.2-1.9,9.3-2.7c-3,1.3-6,2.5-9,3.7l-9,3.6c-5.7,2.2-11.5,4.4-17.3,6.6
				C64.2,147.4,64.3,155.5,64.3,163.5L64.3,163.5z"/>
		</g>
		<g>
			<polygon class="st1" points="76.7,233.6 489.3,233.6 487.8,246.9 75.1,246.9 			"/>
		</g>
		<g>
			<g>
				<polygon class="st1" points="281.5,461.1 288.3,475 303.7,477.2 292.6,488 295.2,503.3 281.5,496.1 267.8,503.3 270.4,488 
					259.3,477.2 274.6,475 				"/>
			</g>
			<g>
				<polygon class="st1" points="223.8,452 228.1,460.5 237.5,461.9 230.7,468.5 232.3,477.9 223.8,473.5 215.4,477.9 217,468.5 
					210.2,461.9 219.6,460.5 				"/>
			</g>
			<g>
				<polygon class="st1" points="339.1,452 343.4,460.5 352.8,461.9 346,468.5 347.6,477.9 339.1,473.5 330.7,477.9 332.3,468.5 
					325.5,461.9 334.9,460.5 				"/>
			</g>
		</g>
		<g class="st3">
			<path class="st0" d="M227.8,413.8v-5.6l20.1,0v17.6c-3.1,2.5-6.3,4.3-9.6,5.6c-3.3,1.2-6.7,1.9-10.1,1.9c-4.7,0-8.9-1-12.7-3
				c-3.8-2-6.7-4.9-8.6-8.7c-1.9-3.8-2.9-8-2.9-12.7c0-4.6,1-8.9,2.9-13c1.9-4,4.7-7,8.4-8.9c3.6-1.9,7.8-2.9,12.6-2.9
				c3.4,0,6.5,0.6,9.3,1.7s5,2.7,6.5,4.7s2.8,4.6,3.6,7.8l-5.7,1.6c-0.7-2.4-1.6-4.3-2.7-5.7c-1.1-1.4-2.6-2.5-4.5-3.3
				c-2-0.8-4.2-1.2-6.6-1.2c-2.9,0-5.4,0.4-7.5,1.3s-3.8,2-5.1,3.5c-1.3,1.4-2.3,3-3,4.7c-1.2,2.9-1.8,6.1-1.8,9.6
				c0,4.2,0.7,7.8,2.2,10.6c1.5,2.9,3.6,5,6.4,6.4c2.8,1.4,5.8,2.1,8.9,2.1c2.7,0,5.4-0.5,8-1.6c2.6-1,4.6-2.2,5.9-3.4v-8.9H227.8z"
				/>
			<path class="st0" d="M270.6,432.4v-20.1l-18.3-27.4h7.7l9.4,14.3c1.7,2.7,3.3,5.4,4.8,8c1.4-2.5,3.2-5.3,5.2-8.4l9.2-14h7.3
				l-19,27.4v20.1H270.6z"/>
			<path class="st0" d="M301.4,432.4v-47.6h9.5l11.3,33.7c1,3.1,1.8,5.5,2.3,7c0.5-1.7,1.4-4.3,2.5-7.6l11.4-33.1h8.5v47.6h-6.1
				v-39.8l-13.8,39.8h-5.7L307.4,392v40.5H301.4z"/>
		</g>
		<g>
			<g>
				<path class="st0" d="M144,308c0,21.7-11.4,32.6-34.2,32.6H81.6v-65.2h28.2C132.6,275.4,144,286.2,144,308z M102.5,324.9h6.9
					c8.8,0,13.2-4.7,13.2-14.1v-5.7c0-9.4-4.4-14.1-13.2-14.1h-6.9V324.9z"/>
			</g>
			<g>
				<path class="st0" d="M223.2,282.9c6.1,5.8,9.2,14.1,9.2,25.1c0,11-3.1,19.4-9.2,25.1c-6.1,5.8-14.8,8.6-26.1,8.6
					c-11.2,0-19.9-2.9-26-8.6c-6.1-5.7-9.1-14.1-9.1-25.2c0-11,3-19.4,9.1-25.2c6.1-5.7,14.8-8.6,26-8.6
					C208.4,274.3,217.1,277.1,223.2,282.9L223.2,282.9z M187,294c-2.3,2.7-3.5,6.4-3.5,11v6.1c0,4.6,1.2,8.3,3.5,11
					c2.3,2.7,5.8,4.1,10.2,4.1s7.9-1.3,10.3-4.1c2.4-2.7,3.6-6.4,3.6-11v-6.1c0-4.6-1.2-8.3-3.6-11c-2.4-2.7-5.8-4.1-10.3-4.1
					S189.3,291.2,187,294z"/>
			</g>
			<g>
				<path class="st0" d="M315.6,308c0,21.7-11.4,32.6-34.2,32.6h-28.2v-65.2h28.2C304.2,275.4,315.6,286.2,315.6,308z M274.1,324.9
					h6.9c8.8,0,13.2-4.7,13.2-14.1v-5.7c0-9.4-4.4-14.1-13.2-14.1h-6.9V324.9z"/>
			</g>
			<g>
				<path class="st0" d="M386,277.1c5,1.9,9,4.7,11.9,8.4c2.9,3.7,4.4,8.2,4.4,13.5h-20c0-2.7-1.2-4.9-3.6-6.6
					c-2.4-1.7-5.3-2.5-8.7-2.5c-4.9,0-8.6,1.3-11.2,3.9c-2.5,2.6-3.8,6.3-3.8,11.1v6.1c0,4.8,1.3,8.5,3.8,11.1
					c2.5,2.6,6.3,3.9,11.2,3.9c3.4,0,6.3-0.8,8.7-2.4c2.4-1.6,3.6-3.7,3.6-6.2h-14.8v-13.3h34.8v36.4h-10.8l-2.1-6.4
					c-5.9,5.1-13.7,7.6-23.3,7.6c-10.8,0-18.9-2.8-24.3-8.5c-5.4-5.6-8.2-14.1-8.2-25.2s3.1-19.4,9.2-25.2s14.9-8.6,26.3-8.6
					C375.4,274.3,381,275.2,386,277.1L386,277.1z"/>
			</g>
			<g>
				<path class="st0" d="M424.8,275.4h56.4V291h-35.4v9H476v15h-30.3v9.9h36.1v15.6h-57L424.8,275.4L424.8,275.4z"/>
			</g>
		</g>
	</g>
</g>
<g id="Objects_00000183957553305572897490000012938153417262706878_">
	<g>
		<g>
			<polygon class="st0" points="1513.6,251.3 1512.3,251.3 1513,251 			"/>
		</g>
		<g>
			<path class="st1" d="M1731.7-55.9c-0.3,1.7-0.6,3.4-0.9,5.2h-435.6c-0.3-1.7-0.6-3.5-0.9-5.2H1731.7z"/>
		</g>
		<g>
			<path class="st1" d="M1705.4,47.6c-0.7,1.7-1.4,3.4-2.1,5.2H1323c-0.7-1.7-1.4-3.4-2.1-5.2H1705.4z"/>
		</g>
		<g>
			<path class="st1" d="M1312.8-157.9c0.1,7.9,0.9,61.9,5.3,84.3l-2.5,0.5c-4.8-24.3-5.3-85.1-5.3-85.7v-1l36-10.7l0.7,2.5
				L1312.8-157.9L1312.8-157.9z"/>
		</g>
		<g>
			<path class="st1" d="M1714.4-159.9v1c0,0.6-0.6,61.4-5.3,85.7l-2.5-0.5c4.4-22.4,5.2-76.3,5.3-84.3l-32.9-9.8l0.7-2.5
				L1714.4-159.9L1714.4-159.9z"/>
		</g>
		<g>
			<path class="st2" d="M1512.9,232.8l-0.3-0.1c-47.2-19.4-84.8-57.6-103-78.6c-37.4-43.1-56-86.8-56.2-87.2l1.3-0.5
				c0.2,0.4,18.8,43.9,56,86.9c18.1,20.9,55.4,58.8,102.2,78.1c46.8-19.3,84.1-57.2,102.2-78.1c37.2-42.9,55.8-86.4,56-86.9l1.3,0.5
				c-0.2,0.4-18.8,44.1-56.2,87.2c-18.2,21-55.8,59.2-103,78.6L1512.9,232.8z"/>
		</g>
		<g>
			<g>
				<path class="st0" d="M1518.5-208c0.4-3.5,5.3-6.4,12-8.8c-0.4-4.6-0.7-22.6-3.1-32c-3-3.4-9.5-5.1-9.5-5.1
					c3.5,0.3,5.8,0.8,7.1,1.3c-1.9-1.7-5.1-3.2-10.3-2c-8.6,1.8-8.9,9.2-8.6,13.2c0.4,6.7,1,16.9,1.3,21c0.5,5.9,0.6,17.4,5.3,20.9
					c3.2,2.4,7.2,2.7,9.3,2.4C1519.3-200.8,1518.2-204.9,1518.5-208L1518.5-208z M1557.2-236.6c1.1-6.5-6.5-11.1-9.4-12
					c-3.7-1.2-11.9-1.5-14.5,6.6c-0.3,7.5,0.7,19.7,1.5,23.8c2.1-0.6,3.4-1,5.6-1.5c5.7-1.4,10.7-2.7,15.5-3c0-1.7,0.1-6.5,0-10.5
					c0-5.3-3.6-9.1-4-9.5C1555-240.8,1556.5-238.5,1557.2-236.6z M1518.5-208c0.4-3.5,5.3-6.4,12-8.8c-0.4-4.6-0.7-22.6-3.1-32
					c-3-3.4-9.5-5.1-9.5-5.1c3.5,0.3,5.8,0.8,7.1,1.3c-1.9-1.7-5.1-3.2-10.3-2c-8.6,1.8-8.9,9.2-8.6,13.2c0.4,6.7,1,16.9,1.3,21
					c0.5,5.9,0.6,17.4,5.3,20.9c3.2,2.4,7.2,2.7,9.3,2.4C1519.3-200.8,1518.2-204.9,1518.5-208L1518.5-208z M1557.2-236.6
					c1.1-6.5-6.5-11.1-9.4-12c-3.7-1.2-11.9-1.5-14.5,6.6c-0.3,7.5,0.7,19.7,1.5,23.8c2.1-0.6,3.4-1,5.6-1.5
					c5.7-1.4,10.7-2.7,15.5-3c0-1.7,0.1-6.5,0-10.5c0-5.3-3.6-9.1-4-9.5C1555-240.8,1556.5-238.5,1557.2-236.6z M1675.6-233.3h-10.2
					v-28.2c0-5.4-4.4-9.8-9.8-9.8h-4.8c-5.4,0-9.8,4.4-9.8,9.8v28.2h-0.9v-40.6c0-5.4-4.4-9.8-9.8-9.8h-4.8c-5.4,0-9.8,4.4-9.8,9.8
					v40.6h-0.9v-52c0-5.4-4.4-9.8-9.8-9.8h-4.8c-5.4,0-9.8,4.4-9.8,9.8v52h-23.7l-0.1-0.1c-3.6-11.6-7.8-17.1-15.7-20.9
					c-9.4-4.5-17.5,0.1-17.5,0.1s-4.8-7.8-15-8.5c-10.1-0.7-17,7-17,7s-7.2-4.9-15.1-4c-8,0.8-14,7.6-14,7.6s-10.9-3.2-18.8-0.2
					c-6,2.3-9.1,9-9.6,12.8c-0.2,1.5-0.4,3.7-0.6,6.1h-7.3v-52c0-5.4-4.4-9.8-9.8-9.8h-4.8c-5.4,0-9.8,4.4-9.8,9.8v52h-0.9v-40.6
					c0-5.4-4.4-9.8-9.8-9.8h-4.8c-5.4,0-9.8,4.4-9.8,9.8v40.6h-0.9v-28.2c0-5.4-4.4-9.8-9.8-9.8h-4.8c-5.4,0-9.8,4.4-9.8,9.8v28.2
					h-9.7c-1.9,0-3.4,1.5-3.4,3.4v18.7c0,1.9,1.5,3.4,3.4,3.4h9.7v28.2c0,5.4,4.4,9.8,9.8,9.8h4.8c5.4,0,9.8-4.4,9.8-9.8v-28.2h0.9
					v40.6c0,5.4,4.4,9.8,9.8,9.8h4.8c5.4,0,9.8-4.4,9.8-9.8v-40.6h0.9v52c0,5.4,4.4,9.8,9.8,9.8h4.8c5.4,0,9.8-4.4,9.8-9.8v-52h5.1
					c0,8.4,0.3,29,2.8,45.8c3.2,21.7,14.1,27.6,14.1,27.6l-3.3,57.8h3.5l3.3-59c-3-2.1-5.7-4.7-7.6-8.1
					c-11.6-20.6-9.1-64.1-9.1-64.1h4.4c0,0-0.2,3.5-0.2,9c1.3-1.5,2.8-2.4,3.9-2.9c-0.3-0.8-0.6-1.6-0.9-2.5
					c-3.9-12.3-4.7-28.9-4.4-32.3c0.3-3.5,2.1-10.8,10.5-12.8c8.4-2,16.3,1,16.3,1s4.1-6.9,13.2-7.6c9.1-0.7,15.4,5.4,15.4,5.4
					c3.4-6.8,11.3-8.9,18-8c10.5,1.3,10.8,11.7,10.8,11.7s3.3-6.5,12-5.8c6.6,0.5,17.2,5.2,18.9,19.5h-3.1c0,4.3-0.3,8.7-0.3,10.3
					c1.9,0,3.6,0.2,4.9,0.7c2.4,0.9,4.5,2.8,6.2,5.1c1.7,2.3,3,5.2,4,8c0,0,7.2,17.4,8.7,23.8c0.9,3.7,2.8,8.2,1.8,12.7
					c-0.6,3.3-2.8,6.5-6.7,11.2c-5.4,6.6-12,13.9-18.6,19.7c-11,9.8-16.7,14-16.7,14l3,51.2h4l-3.2-50
					c18.5-13.2,34.8-33.2,36.3-34.9c3.2-3.7,7.5-11,4.1-21.1c-2.6-8-5-16-7.7-22.9c-0.3-0.8-0.6-1.5-0.9-2.2h11.7v52
					c0,5.4,4.4,9.8,9.8,9.8h4.8c5.4,0,9.8-4.4,9.8-9.8v-52h0.9v40.6c0,5.4,4.4,9.8,9.8,9.8h4.8c5.4,0,9.8-4.4,9.8-9.8v-40.6h0.9
					v28.2c0,5.4,4.4,9.8,9.8,9.8h4.8c5.4,0,9.8-4.4,9.8-9.8v-28.2h10.2c1.9,0,3.4-1.5,3.4-3.4v-18.7
					C1679-231.7,1677.4-233.3,1675.6-233.3L1675.6-233.3z M1360.9-228.7h-10.4v-0.1c0-0.6,0.2-2.1,2.3-2.1h8.1V-228.7
					C1360.9-228.7,1360.9-228.7,1360.9-228.7z M1367.3-258.6l-2.4,25.3v-26.4c0-8.1,8.5-8.4,8.5-8.4
					C1367.5-266.3,1367.3-258.6,1367.3-258.6z M1392.7-271.1l-2.4,37.8v-38.9c0-8.1,8.5-8.4,8.5-8.4
					C1392.9-278.8,1392.7-271.1,1392.7-271.1z M1417.6-282.7l-2.4,49.4v-50.4c0-8.1,8.5-8.4,8.5-8.4
					C1417.8-290.4,1417.6-282.7,1417.6-282.7z M1436-228.7v-2.3h7.1c0,0.6,0.1,2.3,0.1,2.3H1436L1436-228.7z M1590.4-228.7h-28
					c0,0,0.1-1.6,0.1-2.3h27.9L1590.4-228.7L1590.4-228.7L1590.4-228.7z M1596.5-282.7l-2.4,49.4v-50.4c0-8.1,8.5-8.4,8.5-8.4
					C1596.6-290.4,1596.5-282.7,1596.5-282.7z M1621.4-271.1l-2.4,37.8v-38.9c0-8.1,8.5-8.4,8.5-8.4
					C1621.6-278.8,1621.4-271.1,1621.4-271.1z M1646.6-258.6l-2.4,25.3v-26.4c0-8.1,8.5-8.4,8.5-8.4
					C1646.8-266.3,1646.6-258.6,1646.6-258.6z M1675.8-228.7h-10.4v-2.3h8.1c2.2,0,2.3,1.6,2.3,2.1
					C1675.8-228.8,1675.8-228.7,1675.8-228.7L1675.8-228.7z M1557.2-236.6c1.1-6.5-6.5-11.1-9.4-12c-3.7-1.2-11.9-1.5-14.5,6.6
					c-0.3,7.5,0.7,19.7,1.5,23.8c2.1-0.6,3.4-1,5.6-1.5c5.7-1.4,10.7-2.7,15.5-3c0-1.7,0.1-6.5,0-10.5c0-5.3-3.6-9.1-4-9.5
					C1555-240.8,1556.5-238.5,1557.2-236.6z M1518.5-208c0.4-3.5,5.3-6.4,12-8.8c-0.4-4.6-0.7-22.6-3.1-32c-3-3.4-9.5-5.1-9.5-5.1
					c3.5,0.3,5.8,0.8,7.1,1.3c-1.9-1.7-5.1-3.2-10.3-2c-8.6,1.8-8.9,9.2-8.6,13.2c0.4,6.7,1,16.9,1.3,21c0.5,5.9,0.6,17.4,5.3,20.9
					c3.2,2.4,7.2,2.7,9.3,2.4C1519.3-200.8,1518.2-204.9,1518.5-208L1518.5-208z M1557.2-236.6c1.1-6.5-6.5-11.1-9.4-12
					c-3.7-1.2-11.9-1.5-14.5,6.6c-0.3,7.5,0.7,19.7,1.5,23.8c2.1-0.6,3.4-1,5.6-1.5c5.7-1.4,10.7-2.7,15.5-3c0-1.7,0.1-6.5,0-10.5
					c0-5.3-3.6-9.1-4-9.5C1555-240.8,1556.5-238.5,1557.2-236.6z M1518.5-208c0.4-3.5,5.3-6.4,12-8.8c-0.4-4.6-0.7-22.6-3.1-32
					c-3-3.4-9.5-5.1-9.5-5.1c3.5,0.3,5.8,0.8,7.1,1.3c-1.9-1.7-5.1-3.2-10.3-2c-8.6,1.8-8.9,9.2-8.6,13.2c0.4,6.7,1,16.9,1.3,21
					c0.5,5.9,0.6,17.4,5.3,20.9c3.2,2.4,7.2,2.7,9.3,2.4C1519.3-200.8,1518.2-204.9,1518.5-208L1518.5-208z M1563-218.5
					c-2.8-1.5-11.3-0.4-19.7,1.6c4.9,4.3,5,9.8,5,10.1c-0.3-0.8-0.7-1.6-1.2-2.2c-3.1-4.7-9.1-6.6-14.4-4.8
					c-1.8,0.6-3.4,1.2-4.8,1.8c-3.7,1.5-5.8,3.9-5.6,5.9c0,0.2,0.1,0.3,0.1,0.5c0.8,1.4,2.7,2.9,6.8,3.7c9.3,2.1,15.4-1.9,15.4-1.9
					s-4.9,4.8-15.4,3.2c-2.8-0.4-4.7-1.3-6-2.2c3.1,9,12.6,11.5,21.7,11.1c4.4-0.2,10.9-2.4,14.3-5.3c2.1-1.8,4.1-4.1,5.1-7
					c0,0-0.1,5-3.5,9c3.4-0.3,5.4-1.6,5.6-1.8c-0.2,0.4-3.8,7.5-22.5,8.2c-3.8,0.1-7.1-0.3-9.9-1.1c-28.3,5.3-34.1,36.6-34.1,36.6
					c0.4-26.8,20.7-37,27.2-39.6c-0.6-0.4-1.3-0.8-1.8-1.3c0,0-1.6-1.3-2.2-2.1c0,0-9.6,3.9-15.7-4.9c-0.8,0.9-2.3,2.2-5.4,3.1
					c-5.1,1.4-8.9-1-8.9-1c8.4,1.9,12.7-4.9,12.7-4.9h0c-0.5-1-0.9-2.1-1.3-3.3c-2.4-7.9-3.1-29.9-3.2-37.2
					c-3.6-3.5-8.4-4.9-8.4-4.9c4.9,0.3,7.7,2,8.3,2.4c-0.9-0.9-7.2-6.5-14.3-5c-0.1,0-0.1,0-0.2,0c-5.8,1.3-9.5,6.7-9,12.6
					c0.6,6.9,1.6,18.8,2.5,24.8c1.3,8.8,2.9,16.6,10.6,19.7c7.3,2.9,15.4-3.3,16.2-4c-0.5,0.8-6,9.5-16.2,7.7
					c-3.8-0.6-7.6-3-10.2-7.4c-0.9,0.8-2.3,1.7-4.7,2.4c-5.1,1.4-8.9-1-8.9-1c6.6,1.5,10.8-2.5,12.2-4.2c-0.3-0.6-0.6-1.3-0.8-2
					c-2.1-6.7-4.7-31.9-5.3-38.6c-3.9-1.8-9.1-2.1-9.1-2.1c3-1.1,8.4,0.3,8.9,0.4c-0.7-0.4-8.8-4.4-16.2-0.7
					c-7.7,3.9-5.4,17.7-4.1,25.1c1.5,9.1,4.7,23.1,12.1,25.7c7,2.5,15.1-2.4,15.9-2.9c-0.4,0.7-4.8,7.6-13.5,7
					c-5.3-0.3-9.7-2.3-13.4-11.1c-4.2,3.5-4.3,9.6-4.3,9.8v-0.1l0,0.1c2.6-2.8,6.3-3.7,6.7-3.8c-6.4,3.8-5.8,15.7-5.8,16.3
					c1.3,11.2,3.8,23.3,9,32.1c6.3,10.9,26.1,18.2,26.1,18.2s-5.8-0.4-12.5-2.5l-3.6,34.3l-0.3-35.7c-0.7-0.3-1.4-0.6-2.1-0.9
					l-4.3,56h79.2l-4.6-49.6c-2.5,0.6-10.8,1.2-14.8,1.4l-1.7,41.5l-2.9-41.2c-5.1,0.2-9.7,0.1-11.6-0.2c3.4-0.2,9.3-0.9,16.2-2.8
					c-12.6,1.2-24.4,0.2-24.4,0.2c19.9-1.4,32.1-3,38.8-5.5c4.8-1.8,9.2-5,13.7-8.5c18.9-14.8,29.4-29.9,30.4-32.9
					C1582.4-179.4,1569.9-214.8,1563-218.5L1563-218.5z M1497.7-149.2c0,0-2.6-9.6,0.6-19.3c-0.6-3.1-2.2-5.6-2.4-5.9
					c1.4,0.9,2.6,2.7,3.2,3.7c1.5-3.6,3.9-7.1,7.6-10C1505.7-179.5,1496.9-169.1,1497.7-149.2L1497.7-149.2z M1548.4-188.1
					c0.6,0.4,10.5,7.2,19.3,5.6C1567.7-182.5,1554.6-176.6,1548.4-188.1z M1557.2-236.6c1.1-6.5-6.5-11.1-9.4-12
					c-3.7-1.2-11.9-1.5-14.5,6.6c-0.3,7.5,0.7,19.7,1.5,23.8c2.1-0.6,3.4-1,5.6-1.5c5.7-1.4,10.7-2.7,15.5-3c0-1.7,0.1-6.5,0-10.5
					c0-5.3-3.6-9.1-4-9.5C1555-240.8,1556.5-238.5,1557.2-236.6z M1518.5-208c0.4-3.5,5.3-6.4,12-8.8c-0.4-4.6-0.7-22.6-3.1-32
					c-3-3.4-9.5-5.1-9.5-5.1c3.5,0.3,5.8,0.8,7.1,1.3c-1.9-1.7-5.1-3.2-10.3-2c-8.6,1.8-8.9,9.2-8.6,13.2c0.4,6.7,1,16.9,1.3,21
					c0.5,5.9,0.6,17.4,5.3,20.9c3.2,2.4,7.2,2.7,9.3,2.4C1519.3-200.8,1518.2-204.9,1518.5-208L1518.5-208z"/>
			</g>
			<g>
				<path class="st0" d="M1546.1-76.5h-4.4l1.1,11.3h4L1546.1-76.5z M1458.2-76.5l-0.6,11.3h4l0.9-11.3H1458.2z"/>
			</g>
		</g>
		<g>
			<polygon class="st1" points="1512.3,251.3 1513,251 1513.6,251.3 			"/>
		</g>
		<g>
			<path class="st1" d="M1657.5,60.2l16.8,12.2c-35.3,75-89.5,130.9-161.4,166.3c-71.9-35.4-126.1-91.3-161.3-166.2l17-12.3h-42.8
				l0.8,1.8c38,90.1,99.3,155.9,182.3,195.5l4.1,1.9l4.1-1.9c83-39.6,144.3-105.4,182.3-195.5l0.8-1.8L1657.5,60.2L1657.5,60.2z
				 M1685.4,80.2c-2.3,5-4.8,10-7.4,14.9c-2.6,4.9-5.2,9.8-8,14.6c-2.8,4.8-5.6,9.5-8.6,14.2c-3,4.7-6.1,9.3-9.2,13.9
				c-3.2,4.5-6.4,9.1-9.8,13.5c-3.3,4.4-6.8,8.7-10.4,13.1l-5.4,6.4l-5.6,6.2c-1.8,2.1-3.8,4.1-5.7,6.1c-1.9,2-3.8,4.1-5.8,6l-6,5.8
				l-6.1,5.6c-2,1.9-4.2,3.7-6.3,5.5c-2.1,1.8-4.2,3.7-6.4,5.4l-6.5,5.2c-2.2,1.7-4.5,3.3-6.7,5c-4.4,3.4-9.1,6.4-13.7,9.5l-7.1,4.4
				l-3.6,2.2l-3.7,2l-7.3,4.1l-7.5,3.8l-3.8,1.8l-3.8,1.7l-7.6,3.4l-0.6,0.3l-0.6-0.3l-7.7-3.4l-3.8-1.7l-3.7-1.9l-7.5-3.8l-7.3-4.1
				l-3.7-2l-3.6-2.2l-7.1-4.4c-4.6-3.2-9.3-6.1-13.7-9.5c-2.2-1.7-4.5-3.2-6.7-5l-6.5-5.2c-2.2-1.7-4.3-3.6-6.4-5.4
				c-2.1-1.8-4.3-3.6-6.3-5.5l-6.1-5.6l-6-5.8c-2-1.9-3.9-4-5.8-6c-1.9-2-3.9-4-5.7-6.1l-5.5-6.2l-5.4-6.4c-3.5-4.3-7-8.6-10.3-13.1
				c-3.4-4.4-6.6-8.9-9.8-13.5s-6.3-9.2-9.3-13.9c-2.9-4.7-5.8-9.4-8.6-14.2c-2.7-4.8-5.5-9.7-8-14.6c-2.6-4.9-5.1-9.9-7.4-14.9
				c-2.3-5-4.6-10.1-6.6-15.3c2.1,5.1,4.5,10.1,7,15.1c2.5,4.9,5.1,9.9,7.7,14.7c2.7,4.8,5.5,9.6,8.4,14.3c2.9,4.7,5.9,9.4,8.9,14
				c3.1,4.6,6.2,9.2,9.4,13.6c3.2,4.5,6.5,8.9,9.9,13.3c3.4,4.4,6.9,8.6,10.5,12.8l5.4,6.3l5.6,6.1c1.8,2,3.8,4,5.7,6
				c1.9,2,3.8,4,5.8,5.9l5.9,5.8l6.1,5.6c2,1.9,4.1,3.7,6.3,5.4c2.1,1.8,4.1,3.6,6.4,5.3l6.5,5.1c2.2,1.7,4.4,3.3,6.7,4.9
				c4.4,3.3,9.1,6.2,13.6,9.3l7,4.3l3.5,2.1l3.6,2l7.2,4l7.4,3.7l3.7,1.8l3.8,1.7l6.9,3.1l6.9-3.1l3.8-1.7l3.7-1.8l7.4-3.7l7.2-4
				l3.6-2l3.5-2.1l7-4.3c4.6-3.1,9.3-6,13.6-9.3c2.2-1.6,4.5-3.2,6.7-4.9l6.5-5.1c2.2-1.7,4.2-3.5,6.4-5.3c2.1-1.8,4.2-3.5,6.3-5.4
				l6.1-5.6l5.9-5.8c2-1.9,3.9-3.9,5.8-5.9c1.9-2,3.9-3.9,5.7-6l5.6-6.1l5.4-6.3c3.6-4.2,7.1-8.4,10.5-12.8
				c3.4-4.3,6.7-8.8,9.9-13.3c3.2-4.5,6.3-9.1,9.4-13.6c3-4.6,6-9.3,8.9-14c2.9-4.7,5.7-9.5,8.4-14.3c2.7-4.8,5.3-9.7,7.7-14.7
				c2.5-5,4.8-10,7-15.1c-2,5.2-4.3,10.2-6.6,15.3L1685.4,80.2z"/>
		</g>
		<g>
			<path class="st1" d="M1738.7-169.6l-0.5-6.1l-5.7-2.1c-12.7-4.4-25.1-8.5-37.2-12.2l-2.6-24.4l-11.6,39.7l1.3,0.4
				c12.8,3.8,25.6,7.8,38.1,12.2c0.5,14.5,0.8,51.1-6.4,97.4l-0.3,1.5h19l0.2-1.1C1742-124.4,1738.8-167.8,1738.7-169.6
				L1738.7-169.6z M1735-121.5c-0.3,4.2-0.5,8.4-0.8,12.5c-0.3,4.2-0.8,8.4-1.2,12.5l-0.8,6.2c-0.3,2.1-0.6,4.1-1,6.2
				c-0.6,4.1-1.5,8.2-2.3,12.4c0.2-2.1,0.3-4.2,0.6-6.3c0.2-2.1,0.4-4.2,0.5-6.3c0.3-4.1,0.6-8.3,0.8-12.5c0.2-4.2,0.5-8.3,0.6-12.5
				c0.2-4.1,0.3-8.3,0.5-12.5l0.3-12.5l0.2-12.5c0-8,0.1-16.1,0-24.1c-5.8-2.1-11.5-4.3-17.3-6.6l-9-3.6c-3-1.2-6-2.4-9-3.7
				c3.1,0.9,6.2,1.8,9.3,2.7l9.3,2.8c6.2,1.9,12.4,3.9,18.5,6l0.9,0.3l0,1c0.2,4.2,0.3,8.4,0.4,12.6c0.1,4.2,0.1,8.4,0.1,12.6
				C1735.7-138.3,1735.4-129.9,1735-121.5z"/>
		</g>
		<g>
			<path class="st1" d="M1343.7-174.3l1.3-0.4l-11.6-39.7l-2.7,24.4c-12.4,3.8-24.9,7.9-37.2,12.2l-5.7,2.1l-0.5,6
				c0,0.4-3.5,44.3,5.8,105.3l0.2,1.1h19l-0.2-1.5c-7.2-46.3-6.9-83-6.4-97.4C1318.2-166.5,1331-170.6,1343.7-174.3z M1296-146.7
				l0.2,12.5l0.3,12.5c0.1,4.2,0.3,8.4,0.5,12.5c0.1,4.2,0.4,8.3,0.6,12.5c0.3,4.1,0.5,8.3,0.8,12.5c0.2,2.1,0.3,4.2,0.5,6.3
				s0.4,4.1,0.6,6.3c-0.9-4.1-1.7-8.2-2.3-12.4c-0.3-2.1-0.7-4.1-1-6.2l-0.8-6.2c-0.4-4.2-0.9-8.4-1.2-12.5
				c-0.4-4.2-0.6-8.4-0.8-12.5c-0.4-8.4-0.7-16.8-0.7-25.1c0-4.2,0-8.4,0.1-12.6c0.1-4.2,0.2-8.4,0.4-12.6l0-1l0.9-0.3
				c6.1-2,12.3-4,18.5-6l9.3-2.8c3.1-0.9,6.2-1.9,9.3-2.7c-3,1.3-6,2.5-9,3.7l-9,3.6c-5.7,2.2-11.5,4.4-17.3,6.6
				C1295.9-162.7,1296-154.7,1296-146.7L1296-146.7z"/>
		</g>
		<g>
			<polygon class="st1" points="1308.3,-76.5 1721,-76.5 1719.5,-63.2 1306.8,-63.2 			"/>
		</g>
		<g>
			<g>
				<polygon class="st1" points="1513.2,150.9 1520,164.8 1535.4,167 1524.3,177.9 1526.9,193.1 1513.2,185.9 1499.4,193.1 
					1502.1,177.9 1491,167 1506.3,164.8 				"/>
			</g>
			<g>
				<polygon class="st1" points="1455.5,141.8 1459.7,150.4 1469.2,151.8 1462.3,158.4 1463.9,167.8 1455.5,163.4 1447.1,167.8 
					1448.7,158.4 1441.9,151.8 1451.3,150.4 				"/>
			</g>
			<g>
				<polygon class="st1" points="1570.8,141.8 1575,150.4 1584.5,151.8 1577.6,158.4 1579.2,167.8 1570.8,163.4 1562.4,167.8 
					1564,158.4 1557.2,151.8 1566.6,150.4 				"/>
			</g>
		</g>
		<g class="st3">
			<path class="st0" d="M1459.5,103.7v-5.6l20.1,0v17.6c-3.1,2.5-6.3,4.3-9.6,5.6c-3.3,1.2-6.7,1.9-10.1,1.9c-4.7,0-8.9-1-12.7-3
				c-3.8-2-6.7-4.9-8.6-8.7c-1.9-3.8-2.9-8-2.9-12.7c0-4.6,1-8.9,2.9-13c1.9-4,4.7-7,8.4-8.9c3.6-1.9,7.8-2.9,12.6-2.9
				c3.4,0,6.5,0.6,9.3,1.7s5,2.7,6.5,4.7s2.8,4.6,3.6,7.8l-5.7,1.6c-0.7-2.4-1.6-4.3-2.7-5.7c-1.1-1.4-2.6-2.5-4.5-3.3
				c-2-0.8-4.2-1.2-6.6-1.2c-2.9,0-5.4,0.4-7.5,1.3s-3.8,2-5.1,3.5c-1.3,1.4-2.3,3-3,4.7c-1.2,2.9-1.8,6.1-1.8,9.6
				c0,4.2,0.7,7.8,2.2,10.6c1.5,2.9,3.6,5,6.4,6.4c2.8,1.4,5.8,2.1,8.9,2.1c2.7,0,5.4-0.5,8-1.6c2.6-1,4.6-2.2,5.9-3.4v-8.9H1459.5z
				"/>
			<path class="st0" d="M1502.3,122.3v-20.1L1484,74.7h7.7l9.4,14.3c1.7,2.7,3.3,5.4,4.8,8c1.4-2.5,3.2-5.3,5.2-8.4l9.2-14h7.3
				l-19,27.4v20.1H1502.3z"/>
			<path class="st0" d="M1533,122.3V74.7h9.5l11.3,33.7c1,3.1,1.8,5.5,2.3,7c0.5-1.7,1.4-4.3,2.5-7.6l11.4-33.1h8.5v47.6h-6.1V82.5
				l-13.8,39.8h-5.7l-13.8-40.5v40.5H1533z"/>
		</g>
		<g>
			<g>
				<path class="st0" d="M1375.7-2.2c0,21.7-11.4,32.6-34.2,32.6h-28.2v-65.2h28.2C1364.3-34.8,1375.7-23.9,1375.7-2.2z
					 M1334.2,14.8h6.9c8.8,0,13.2-4.7,13.2-14.1V-5c0-9.4-4.4-14.1-13.2-14.1h-6.9V14.8z"/>
			</g>
			<g>
				<path class="st0" d="M1454.9-27.3c6.1,5.8,9.2,14.1,9.2,25.1s-3.1,19.4-9.2,25.1c-6.1,5.8-14.8,8.6-26.1,8.6s-19.9-2.9-26-8.6
					c-6.1-5.7-9.1-14.1-9.1-25.2s3-19.4,9.1-25.2c6.1-5.7,14.8-8.6,26-8.6S1448.8-33,1454.9-27.3L1454.9-27.3z M1418.6-16.2
					c-2.3,2.7-3.5,6.4-3.5,11v6.1c0,4.6,1.2,8.3,3.5,11s5.8,4.1,10.2,4.1s7.9-1.3,10.3-4.1c2.4-2.7,3.6-6.4,3.6-11v-6.1
					c0-4.6-1.2-8.3-3.6-11s-5.8-4.1-10.3-4.1S1421-18.9,1418.6-16.2z"/>
			</g>
			<g>
				<path class="st0" d="M1547.3-2.2c0,21.7-11.4,32.6-34.2,32.6h-28.2v-65.2h28.2C1535.9-34.8,1547.3-23.9,1547.3-2.2z
					 M1505.8,14.8h6.9c8.8,0,13.2-4.7,13.2-14.1V-5c0-9.4-4.4-14.1-13.2-14.1h-6.9V14.8z"/>
			</g>
			<g>
				<path class="st0" d="M1617.7-33c5,1.9,9,4.7,11.9,8.4c2.9,3.7,4.4,8.2,4.4,13.5h-20c0-2.7-1.2-4.9-3.6-6.6s-5.3-2.5-8.7-2.5
					c-4.9,0-8.6,1.3-11.2,3.9c-2.5,2.6-3.8,6.3-3.8,11.1v6.1c0,4.8,1.3,8.5,3.8,11.1c2.5,2.6,6.3,3.9,11.2,3.9
					c3.4,0,6.3-0.8,8.7-2.4c2.4-1.6,3.6-3.7,3.6-6.2h-14.8V-5.9h34.8v36.4h-10.8l-2.1-6.4c-5.9,5.1-13.7,7.6-23.3,7.6
					c-10.8,0-18.9-2.8-24.3-8.5c-5.4-5.6-8.2-14.1-8.2-25.2s3.1-19.4,9.2-25.2s14.9-8.6,26.3-8.6C1607.1-35.9,1612.7-34.9,1617.7-33
					L1617.7-33z"/>
			</g>
			<g>
				<path class="st0" d="M1656.4-34.8h56.4v15.6h-35.4v9h30.3v15h-30.3v9.9h36.1v15.6h-57L1656.4-34.8L1656.4-34.8z"/>
			</g>
		</g>
	</g>
</g>
</svg>
