<?xml version="1.0" encoding="utf-8"?>
<!-- Generator: Adobe Illustrator 27.0.0, SVG Export Plug-In . SVG Version: 6.00 Build 0)  -->
<svg version="1.1" id="Layer_1" xmlns="http://www.w3.org/2000/svg" xmlns:xlink="http://www.w3.org/1999/xlink" x="0px" y="0px"
	 viewBox="0 0 1061.5 366.8" style="enable-background:new 0 0 1061.5 366.8;" xml:space="preserve">
<style type="text/css">
	.st0{fill:#A87747;}
	.st1{fill:#6B4E45;}
</style>
<g>
	<g>
		<path class="st0" d="M26.7,347.9c-4.2,0-7.7-0.4-10.3-1.1c-2.7-0.7-4.7-1.8-6-3.1c-1.3-1.3-2.1-2.9-2.3-4.5
			c-0.2-1.7-0.3-3.9-0.3-6.5h2.1c0.6,3.4,2,6.2,4.4,8.1c2.4,2,5.8,3,10.3,3c4,0,7-0.7,8.8-2.1c1.9-1.4,2.8-3.2,2.8-5.3
			s-0.8-3.9-2.4-5.3c-1.6-1.4-4-2.8-7.1-4.2l-6.3-2.6c-4-1.6-7.1-3.5-9.3-5.8s-3.3-5.1-3.3-8.5c0-4.4,1.7-7.8,5-10.2
			c3.3-2.4,7.5-3.5,12.5-3.5c4,0,7.3,0.4,9.9,1.1c2.6,0.7,4.6,1.8,5.9,3.1c1.3,1.3,2.1,2.9,2.3,4.5c0.2,1.7,0.3,3.9,0.3,6.5h-2.1
			c-0.6-3.4-2-6.2-4.4-8.1c-2.4-2-5.6-3-9.9-3c-3.4,0-6.1,0.7-7.9,2.1c-1.8,1.4-2.7,3.2-2.7,5.3c0,1.8,0.7,3.5,2.2,5
			c1.5,1.5,3.6,2.8,6.2,4l6.3,2.6c4.5,1.8,7.9,3.8,10.2,6c2.3,2.2,3.5,5.1,3.5,8.8c0,4.4-1.8,7.8-5.3,10.2
			C36.4,346.7,32,347.9,26.7,347.9z"/>
		<path class="st0" d="M74.4,347.9c-1.5,0-3.1-0.2-4.8-0.7c-1.7-0.5-3.4-1.2-5-2.4c-1.6-1.1-2.9-2.6-4-4.5c-1-1.9-1.5-4.3-1.5-7.2
			c0-3.9,1.2-6.9,3.7-9c2.5-2.1,5.8-3.6,9.9-4.5c4.1-0.9,8.5-1.3,13.3-1.3h3.2c0-4.9-0.5-8.7-1.5-11.2c-1-2.6-2.3-4.3-4-5.3
			c-1.7-1-3.5-1.4-5.6-1.4c-3,0-5.4,0.6-7.4,1.9c-2,1.3-3.4,3.6-4.2,7.1h-4.8c0-1.8,0.1-3.5,0.3-5.1c0.2-1.6,1-3,2.3-4.4
			c1.3-1.3,3.5-2.3,6.5-2.9c3-0.6,6.1-0.8,9.3-0.8c2.4,0,4.7,0.3,6.9,0.8c2.2,0.6,4.2,1.6,5.9,3.1c1.7,1.5,3.1,3.7,4.1,6.7
			c1,2.9,1.5,6.8,1.5,11.6v28.5h-5.3l-3.7-4.8h-0.5c-1.1,1.3-2.8,2.6-5.2,3.9C81.6,347.2,78.4,347.9,74.4,347.9z M79.1,343.1
			c2.6,0,4.7-0.7,6.2-2c1.5-1.3,2.8-2.8,3.9-4.4v-14.3H86c-5.3,0-9.4,1-12.4,2.9c-3,1.9-4.5,4.5-4.5,7.7c0,3.4,1,6,3.1,7.6
			C74.2,342.3,76.5,343.1,79.1,343.1z"/>
		<path class="st0" d="M136.7,347.9c-3,0-5.8-0.5-8.6-1.6c-2.7-1.1-5-3-6.8-5.7c-1.8-2.7-2.6-6.7-2.6-11.7v-19
			c0-3.2-0.4-5.7-1.3-7.7c-0.9-1.9-2.9-2.9-6.1-2.9h-1.1v-2.1h8.4c2.5,0,4.4,0.3,5.8,1s2.3,1.9,2.9,3.7c0.6,1.8,0.8,4.5,0.8,8v19
			c0,3.5,0.6,6.3,1.7,8.4c1.1,2.1,2.6,3.6,4.4,4.5c1.8,0.9,3.6,1.4,5.5,1.4c1.4,0,2.7-0.3,4-0.8c1.3-0.5,2.5-1.2,3.6-2.1
			c1.1-0.8,2.1-1.8,3-2.7v-40.3h9.5v49.6h-5.3l-3.7-4.2h-0.5c-1.3,1.3-3.2,2.6-5.5,3.6C142.6,347.3,139.8,347.9,136.7,347.9z"/>
		<path class="st0" d="M196.7,347.9c-4.2,0-7.7-1.2-10.6-3.5c-2.8-2.3-4.9-5.5-6.3-9.4c-1.4-3.9-2.1-8.3-2.1-13
			c0-4.8,0.7-9.1,2.2-13c1.4-3.9,3.6-7,6.6-9.3c3-2.3,6.7-3.5,11.3-3.5c3,0,5.5,0.3,7.6,1c2.1,0.7,4,1.4,5.6,2.2v-9.5
			c0-3.2-0.4-5.7-1.3-7.7c-0.9-1.9-2.9-2.9-6.1-2.9h-2.1v-2.1h9.5c2.5,0,4.4,0.3,5.8,1c1.4,0.6,2.3,1.9,2.9,3.7
			c0.6,1.8,0.8,4.5,0.8,8v57h-5.3l-3.7-4.8H211c-1.1,1.3-2.7,2.6-4.8,3.9C204.2,347.2,201,347.9,196.7,347.9z M199.9,343.6
			c2.2,0,3.9-0.3,5.3-1c1.3-0.6,2.4-1.4,3.3-2.4c0.9-1,1.7-2,2.5-3v-33.8c-1.6-0.8-3.3-1.5-5-2.2c-1.7-0.7-3.4-1-5-1
			c-3.2,0-5.7,1-7.7,2.9c-1.9,1.9-3.3,4.5-4.2,7.8c-0.9,3.2-1.3,6.9-1.3,11c0,4,0.4,7.7,1.3,10.9c0.8,3.3,2.2,5.9,4,7.8
			C194.8,342.7,197.1,343.6,199.9,343.6z"/>
		<path class="st0" d="M242.6,346.8v-37c0-3.2-0.4-5.7-1.3-7.7c-0.9-1.9-2.9-2.9-6.1-2.9h-2.1v-2.1h9.5c2.5,0,4.4,0.3,5.8,1
			c1.4,0.6,2.3,1.9,2.9,3.7c0.6,1.8,0.8,4.5,0.8,8v37H242.6z M246.6,290.9c-1.6,0-3-0.7-4.2-2c-1.2-1.3-1.7-2.9-1.7-4.8
			c0-1.5,0.4-2.6,1.3-3.5c0.9-0.8,2.1-1.3,3.5-1.3c1.6,0,3,0.7,4.2,2c1.2,1.3,1.7,2.9,1.7,4.8c0,1.5-0.4,2.6-1.3,3.5
			C249.2,290.4,248,290.9,246.6,290.9z"/>
		<path class="st0" d="M284.1,347.9c-1.5,0-3.1-0.2-4.8-0.7c-1.7-0.5-3.4-1.2-5-2.4c-1.6-1.1-2.9-2.6-4-4.5c-1-1.9-1.5-4.3-1.5-7.2
			c0-3.9,1.2-6.9,3.7-9c2.5-2.1,5.8-3.6,9.9-4.5c4.1-0.9,8.5-1.3,13.3-1.3h3.2c0-4.9-0.5-8.7-1.5-11.2c-1-2.6-2.3-4.3-4-5.3
			c-1.7-1-3.5-1.4-5.6-1.4c-3,0-5.4,0.6-7.4,1.9c-2,1.3-3.4,3.6-4.2,7.1h-4.8c0-1.8,0.1-3.5,0.3-5.1c0.2-1.6,1-3,2.3-4.4
			c1.3-1.3,3.5-2.3,6.5-2.9c3-0.6,6.1-0.8,9.3-0.8c2.4,0,4.7,0.3,6.9,0.8c2.2,0.6,4.2,1.6,5.9,3.1c1.7,1.5,3.1,3.7,4.1,6.7
			c1,2.9,1.5,6.8,1.5,11.6v28.5h-5.3l-3.7-4.8h-0.5c-1.1,1.3-2.8,2.6-5.2,3.9C291.3,347.2,288.1,347.9,284.1,347.9z M288.8,343.1
			c2.6,0,4.7-0.7,6.2-2c1.5-1.3,2.8-2.8,3.9-4.4v-14.3h-3.2c-5.3,0-9.4,1-12.4,2.9c-3,1.9-4.5,4.5-4.5,7.7c0,3.4,1,6,3.1,7.6
			C283.9,342.3,286.2,343.1,288.8,343.1z"/>
		<path class="st0" d="M376.6,347.9c-4.2,0-7.7-0.4-10.3-1.1c-2.7-0.7-4.7-1.8-6-3.1c-1.3-1.3-2.1-2.9-2.3-4.5
			c-0.2-1.7-0.3-3.9-0.3-6.5h2.1c0.6,3.4,2,6.2,4.4,8.1c2.4,2,5.8,3,10.3,3c4,0,7-0.7,8.8-2.1c1.9-1.4,2.8-3.2,2.8-5.3
			s-0.8-3.9-2.4-5.3s-4-2.8-7.1-4.2l-6.3-2.6c-4-1.6-7.1-3.5-9.3-5.8s-3.3-5.1-3.3-8.5c0-4.4,1.7-7.8,5-10.2
			c3.3-2.4,7.5-3.5,12.5-3.5c4,0,7.3,0.4,9.9,1.1c2.6,0.7,4.6,1.8,5.9,3.1c1.3,1.3,2.1,2.9,2.3,4.5c0.2,1.7,0.3,3.9,0.3,6.5h-2.1
			c-0.6-3.4-2-6.2-4.4-8.1c-2.4-2-5.6-3-9.9-3c-3.4,0-6.1,0.7-7.9,2.1c-1.8,1.4-2.7,3.2-2.7,5.3c0,1.8,0.7,3.5,2.2,5
			c1.5,1.5,3.6,2.8,6.2,4l6.3,2.6c4.5,1.8,7.9,3.8,10.2,6c2.3,2.2,3.5,5.1,3.5,8.8c0,4.4-1.8,7.8-5.3,10.2
			C386.2,346.7,381.8,347.9,376.6,347.9z"/>
		<path class="st0" d="M431.7,347.9c-4.9,0-9-1.2-12.3-3.5c-3.3-2.3-5.7-5.5-7.4-9.4c-1.7-3.9-2.5-8.3-2.5-13c0-4.8,0.8-9.1,2.5-13
			c1.7-3.9,4.1-7,7.3-9.3c3.2-2.3,6.9-3.5,11.3-3.5c4.8,0,8.7,0.9,11.9,2.7c3.1,1.8,5.5,4.4,7,7.9c1.5,3.5,2.3,7.7,2.3,12.7
			l-0.2,4.2h-32c0,5.8,1.2,10.6,3.7,14.4c2.5,3.8,6,5.7,10.5,5.7c3.4,0,6.3-0.7,8.6-2.2c2.3-1.5,4.3-3.6,6.2-6.2l2.1,1.6
			c-1.5,2.7-3.3,4.8-5.2,6.4c-1.9,1.6-4,2.8-6.3,3.5C436.8,347.5,434.3,347.9,431.7,347.9z M419.5,319.4h22.2
			c0-6.1-0.9-10.8-2.7-14.1c-1.8-3.3-4.6-4.9-8.3-4.9c-2.1,0-4,0.8-5.6,2.5c-1.7,1.7-3,3.9-4,6.8C420,312.4,419.5,315.7,419.5,319.4
			z"/>
		<path class="st0" d="M470,346.8v-37c0-3.2-0.4-5.7-1.3-7.7c-0.9-1.9-2.9-2.9-6.1-2.9h-1.1v-2.1h8.4c2.7,0,4.7,0.4,6.1,1.2
			c1.4,0.8,2.3,2,2.9,3.6c1.2-1.2,2.9-2.5,5.2-3.8c2.3-1.3,4.9-2,8-2c1.1,0,2.2,0.1,3.4,0.4c1.2,0.2,2.2,0.7,3,1.2
			c0.8,0.6,1.4,1.2,2,2c0.6,0.8,1.1,1.7,1.7,2.7l-4.2,3.2c-0.8-1.1-1.9-1.8-3.4-2.4c-1.5-0.5-3.2-0.8-5-0.8c-2.1,0-4,0.5-5.8,1.4
			c-1.8,1-3.2,2.2-4.2,3.9c0,0.4,0,0.9,0,1.5s0,1.2,0,1.6v35.9H470z"/>
		<path class="st0" d="M535.6,347.9l-16.4-38.5c-1.7-3.9-3.3-6.7-4.9-8.3c-1.5-1.6-3.6-2.4-6.1-2.6v-2.1c0.3,0,0.8,0,1.6-0.1
			c0.8-0.1,1.5-0.1,2-0.1c2.2,0,4.3,0.3,6.5,1c2.1,0.7,4.2,2,6.2,3.9c2,1.9,3.7,4.7,5.3,8.3l9.5,22.7l14.8-34.8h5.3l-21.6,50.7
			H535.6z"/>
		<path class="st0" d="M575.7,346.8v-37c0-3.2-0.4-5.7-1.3-7.7c-0.9-1.9-2.9-2.9-6.1-2.9h-2.1v-2.1h9.5c2.5,0,4.4,0.3,5.8,1
			c1.4,0.6,2.3,1.9,2.9,3.7c0.6,1.8,0.8,4.5,0.8,8v37H575.7z M579.7,290.9c-1.6,0-3-0.7-4.2-2c-1.2-1.3-1.7-2.9-1.7-4.8
			c0-1.5,0.4-2.6,1.3-3.5c0.9-0.8,2.1-1.3,3.5-1.3c1.6,0,3,0.7,4.2,2c1.2,1.3,1.7,2.9,1.7,4.8c0,1.5-0.4,2.6-1.3,3.5
			C582.4,290.4,581.2,290.9,579.7,290.9z"/>
		<path class="st0" d="M625.7,347.9c-5.2,0-9.5-1.2-13-3.5c-3.4-2.3-6-5.5-7.7-9.4c-1.7-3.9-2.5-8.3-2.5-13c0-4.8,0.8-9.1,2.5-13
			c1.7-3.9,4.3-7,7.7-9.3c3.4-2.3,7.8-3.5,13-3.5c3.7,0,6.9,0.3,9.5,0.8c2.6,0.6,4.5,1.5,5.9,2.9c1.3,1.3,2.1,3,2.3,4.9
			c0.2,1.9,0.3,4.9,0.3,8.8h-2.1c-0.3-4.5-1.7-7.8-4.3-10c-2.6-2.1-5.7-3.2-9.4-3.2c-3.5,0-6.4,1-8.7,2.9c-2.3,1.9-3.9,4.5-5,7.8
			c-1.1,3.2-1.6,6.9-1.6,11c0,4,0.5,7.7,1.6,10.9c1.1,3.3,2.8,5.9,5,7.8c2.3,1.9,5.1,2.9,8.7,2.9c3.7,0,6.8-0.7,9.1-2.2
			c2.3-1.5,4.4-3.6,6.2-6.2l2.1,1.6c-1.5,2.7-3.3,4.8-5.3,6.4c-2,1.6-4.1,2.8-6.5,3.5C631.1,347.5,628.6,347.9,625.7,347.9z"/>
		<path class="st0" d="M681,347.9c-4.9,0-9-1.2-12.3-3.5c-3.3-2.3-5.7-5.5-7.4-9.4c-1.7-3.9-2.5-8.3-2.5-13c0-4.8,0.8-9.1,2.5-13
			c1.7-3.9,4.1-7,7.3-9.3c3.2-2.3,6.9-3.5,11.3-3.5c4.8,0,8.7,0.9,11.9,2.7c3.1,1.8,5.5,4.4,7,7.9c1.5,3.5,2.3,7.7,2.3,12.7
			l-0.2,4.2h-32c0,5.8,1.2,10.6,3.7,14.4c2.5,3.8,6,5.7,10.5,5.7c3.4,0,6.3-0.7,8.6-2.2c2.3-1.5,4.3-3.6,6.2-6.2l2.1,1.6
			c-1.5,2.7-3.3,4.8-5.2,6.4c-1.9,1.6-4,2.8-6.3,3.5C686.1,347.5,683.6,347.9,681,347.9z M668.8,319.4H691c0-6.1-0.9-10.8-2.7-14.1
			c-1.8-3.3-4.6-4.9-8.3-4.9c-2.1,0-4,0.8-5.6,2.5c-1.7,1.7-3,3.9-4,6.8C669.3,312.4,668.8,315.7,668.8,319.4z"/>
		<path class="st0" d="M735,347.9c-4.2,0-7.7-0.4-10.3-1.1c-2.7-0.7-4.7-1.8-6-3.1c-1.3-1.3-2.1-2.9-2.3-4.5
			c-0.2-1.7-0.3-3.9-0.3-6.5h2.1c0.6,3.4,2,6.2,4.4,8.1c2.4,2,5.8,3,10.3,3c4,0,7-0.7,8.8-2.1c1.9-1.4,2.8-3.2,2.8-5.3
			s-0.8-3.9-2.4-5.3c-1.6-1.4-4-2.8-7.1-4.2l-6.3-2.6c-4-1.6-7.1-3.5-9.3-5.8s-3.3-5.1-3.3-8.5c0-4.4,1.7-7.8,5-10.2
			c3.3-2.4,7.5-3.5,12.5-3.5c4,0,7.3,0.4,9.9,1.1c2.6,0.7,4.6,1.8,5.9,3.1c1.3,1.3,2.1,2.9,2.3,4.5c0.2,1.7,0.3,3.9,0.3,6.5h-2.1
			c-0.6-3.4-2-6.2-4.4-8.1c-2.4-2-5.6-3-9.9-3c-3.4,0-6.1,0.7-7.9,2.1c-1.8,1.4-2.7,3.2-2.7,5.3c0,1.8,0.7,3.5,2.2,5
			c1.5,1.5,3.6,2.8,6.2,4l6.3,2.6c4.5,1.8,7.9,3.8,10.2,6c2.3,2.2,3.5,5.1,3.5,8.8c0,4.4-1.8,7.8-5.3,10.2
			C744.7,346.7,740.3,347.9,735,347.9z"/>
	</g>
	<g>
		<path class="st1" d="M80.8,210.8c0,6.1-5,11.1-11.2,11.1h-0.8c-8.8,0-14.2-4.2-17.1-12.4c-3.6,6.1-9.7,10.1-19.3,10.1
			c-18.7,0-24-14.4-24.3-28.6v-0.6c0-0.3,0-0.6,0-0.9c0.5-11.7,7.4-25,24.7-25c6,0,11.9,2,16.2,5.8v-9.2h7.4v26v2.4
			c0,10,0,10,12.2,10h0.8C75.7,199.6,80.8,204.7,80.8,210.8z M24.6,134.9l9.3,9.2l9.2-9.2l10.7,10.7l-10.7,10.7l-9.2-9.3l-9.2,9.2
			l-10.7-10.7L24.6,134.9z M32.4,197.4c15.4,0,16.7-1.5,16.7-9.5c-0.1-5.3-8-8.4-16.2-8.4c-13.9,0-17.1,5.2-17.3,10.8
			C15.8,195.5,18.2,197.4,32.4,197.4z"/>
		<path class="st1" d="M57.4,210.8c0-6.1,5-11.2,11.2-11.2h5.2c11.8,0,11.8,0,11.8-9.5v-17.7H93v17.7c0,21.9-5.8,31.8-19.3,31.8
			h-5.2C62.4,221.9,57.4,216.9,57.4,210.8z M75.1,228.7l8.6,8.6l8.5-8.5l9.9,9.9l-9.9,9.9l-8.6-8.6l-8.5,8.6l-9.9-10L75.1,228.7z"/>
		<path class="st1" d="M129.7,221.9h-22.6v-22.3h22.6c14,0,16.5-1.9,16.6-6h0v-0.4c0-11.5-12-13.8-28.8-11.9v-14.9
			c17.7-1.8,36.2,1.8,36.2,26.8v0.4C153.5,208.2,148.4,221.9,129.7,221.9z"/>
		<path class="st1" d="M161.7,234.5h9.9c13.7,0,22-2.9,24.9-12.6h-13.3c-18.2,0-22.9-13.9-22.1-28.9h0c1.1-13,10.5-23.5,20.4-23.5
			c10.9,0,22.1,7.6,23.5,30.1h4.4c6.1,0,11.2,5,11.2,11.2c0,6.1-5,11.1-11.2,11.1h-4.8c-3,22.7-17.4,29.3-32.9,29.3h-9.9V234.5z
			 M183.2,199.6h14.2c-1.2-12.3-7.2-15.1-16-15.1c-8.4,0-13,5.2-13,10.9C168.6,199.1,170.9,199.6,183.2,199.6z"/>
		<path class="st1" d="M197.1,210.8c0-6.1,5-11.2,11.2-11.2h10.4c3.6,0,7.1-0.4,10.3-0.9c-4.4-3.9-9.8-9.7-16.3-18.8l0.2-0.2h-0.3
			v-14.9l57.1,0.1v14.9h-0.1c-3.5,7-9.2,13.8-15.2,18.8c4.2,0.6,9,0.9,14.1,0.9h6c6.1,0,11.2,5,11.2,11.2c0,6.1-5,11.1-11.2,11.1h-6
			c-12.1,0-17.3-1.1-27.6-7.1c-8.7,5.7-13.1,7.1-22.2,7.1h-10.4C202.1,221.9,197.1,216.9,197.1,210.8z M241.2,194.8
			c6.7-2.7,13.8-8.7,18.5-14.9l-36,0C231.4,189.1,236.9,192.8,241.2,194.8z"/>
		<path class="st1" d="M385.6,210.8c0,6.1-5,11.1-11.2,11.1h-2.9c-6.7,0-11.4-3.9-14.4-10.1c-3.2,6-8.7,10.1-17,10.1h-0.4
			c-6.6,0-11.2-3.9-16.9-9.9c-7,12.5-20.1,16.1-33.2,0.1c-4.1,7-9.4,9.8-15.1,9.8h-1.1c-6.1,0-11.2-5-11.2-11.1
			c0-6.1,5-11.2,11.2-11.2h1.1c11.5,0,13.9-2.2,15.1-20.9h7.5c-0.4,7-1.2,13.1-2.2,18.2c8,6.1,25,4.2,25.8-4.9l1.2-13.3h7.6
			l-1.3,15.3l-0.2,2.1c2.5,2,6.2,3.5,11.9,3.5h0.4c11.8,0,13.5-1.6,13.5-6v-17.5h7.4v17.5v1.2c0.2,5,2.1,4.8,10.5,4.8h2.9
			C380.6,199.6,385.6,204.7,385.6,210.8z"/>
		<path class="st1" d="M362.2,210.8c0-6.1,5-11.2,11.2-11.2h1.3c12.3,0,12.3,0,12.3-10v-56.5h7.4v56.5c0,21.1-5.4,32.3-19.7,32.3
			h-1.3C367.3,221.9,362.2,216.9,362.2,210.8z"/>
		<path class="st1" d="M411.1,222.9v-89.8h7.4v89.8H411.1z"/>
		<path class="st1" d="M454,191c0.3,7.7,8,8.7,22.4,8.7h34.1c13.9,0,16.6-2.6,16.6-9.2v-21.6h7.4v21.6c0,16.2-6.3,31.4-24,31.4
			h-34.1c-19.9,0-29.5-8.2-29.8-30.2v-0.5c0-0.2,0-0.4,0-0.7c0.2-7.3,2.5-14.6,5.8-20.6l6.5,3.6C455.9,178.9,454.1,184.7,454,191z
			 M483.3,147.5l9.3,9.2l9.2-9.2l10.7,10.7L501.8,169l-9.2-9.3l-9.2,9.2l-10.7-10.7L483.3,147.5z"/>
		<path class="st1" d="M577.7,210.8c0,6.1-5,11.1-11.2,11.1h-1.8c-14.4,0-20.2-11-20.2-33.2v-55.6h7.4v55.6c0,11,0,11,12.7,11h1.8
			C572.6,199.6,577.7,204.7,577.7,210.8z"/>
		<path class="st1" d="M621.2,195.5c0,14.6-4.9,29.8-22.3,29.8c-10.3,0-16.6-6.2-19.7-14.3c-2.5,5.9-6.4,10.9-12.6,10.9h-1.1
			c-6.1,0-11.2-5-11.2-11.1c0-6.1,5-11.2,11.2-11.2h1.1c9.5,0,9-1.6,10.2-7.5c1.4-13,10.8-22.7,22.2-22.7
			c11.5,0,21.7,10.5,22.3,24.9h0V195.5z M583.9,195.4v0.5c0,4.6,1.9,7,14.9,7c14.3,0,14.9-1.2,14.9-7.5v-0.1
			c-0.1-6-5.2-11.1-14.9-11.1C589.8,184.3,584,188.8,583.9,195.4L583.9,195.4z"/>
		<path class="st1" d="M673.8,198.2c2.2,0.9,5.3,1.5,9.4,1.5h1.1c6.1,0,11.2,5,11.2,11.2c0,6.1-5,11.1-11.2,11.1h-1.1
			c-6.3,0-10.9-2.8-14.6-8.2c-3.7,5-9.6,8.2-18.6,8.2h-22.6v-22.3h22.6c14,0,16.5-1.9,16.6-6h0v-0.4c0-11.5-12-13.8-28.8-11.9v-14.9
			c17.7-1.8,36.2,1.8,36.2,26.8v0.4C674,195.2,673.9,196.7,673.8,198.2z"/>
		<path class="st1" d="M693.3,221.9h-10.1c-6.1,0-11.2-5-11.2-11.1c0-6.1,5-11.2,11.2-11.2h10.1c10.9,0,28.4-0.5,46.9-10.6
			c-6.7-1.8-12.9-4.5-21.9-9.1c-10.8-5.7-21-3.1-29.3,2.7v-12c10.2-5.7,20.1-7.3,32.7-0.8c12.3,6.3,19,8.7,31.8,10.2v17.8
			C722.6,222.5,706.4,221.9,693.3,221.9z M707.2,136.7l10.7,10.7l-10.7,10.7l-10.7-10.7L707.2,136.7z"/>
	</g>
	<g>
		<g>
			<g>
				<path class="st1" d="M916,166.4c-3.2-1.6-5.8-1.1-8.3-1.1c-24.6,0-49.3-0.1-73.9,0.1c-5.8,0.1-7.7-1.7-7.5-7.6
					c0.4-10.3,0.3-20.6-0.1-30.9c-0.2-5.4,1.8-6.6,6.9-6.6c70.4,0.1,140.7,0.1,211.1,0.1c1.2,0,2.4,0.2,3.5,0c4.6-0.6,6.1,1.2,6,5.9
					c-0.3,11-0.3,22-0.1,33c0.1,4.4-1,5.9-5.8,6.2c-59,3.2-106.7,27.8-141.9,75.5c-15.3,20.8-25.7,44-30.5,69.7
					c-2,10.8-2.5,21.7-4.2,32.5c-0.6,3.7-1.8,4.6-5.3,4.6c-11.3-0.2-22.5-0.2-33.8-0.1c-4.2,0-5.7-1.2-5.4-5.8
					c1.3-22.8,4.6-45,12-66.9c9.6-28.6,24.5-53.9,43.7-76.7c8.3-9.9,17.8-18.9,28.1-26.9C912.4,170,913.9,168.4,916,166.4z"/>
				<path class="st0" d="M961.3,66.5l39.8,39.8c1.8,1.8,4.7,1.8,6.5,0l39.8-39.8c1.8-1.8,1.8-4.7,0-6.5l-39.8-39.8
					c-1.8-1.8-4.7-1.8-6.5,0l-39.8,39.8C959.5,61.8,959.5,64.7,961.3,66.5z"/>
			</g>
		</g>
	</g>
</g>
</svg>
