<?xml version="1.0" encoding="utf-8"?>
<!-- Generator: Adobe Illustrator 27.0.0, SVG Export Plug-In . SVG Version: 6.00 Build 0)  -->
<svg version="1.1" id="Layer_1" xmlns="http://www.w3.org/2000/svg" xmlns:xlink="http://www.w3.org/1999/xlink" x="0px" y="0px"
	 viewBox="0 0 500 428" style="enable-background:new 0 0 500 428;" xml:space="preserve">
<style type="text/css">
	.st0{fill:#EBEBEB;}
	.st1{fill-rule:evenodd;clip-rule:evenodd;fill:#EBEBEB;}
	.st2{fill:#E6E6E6;}
	.st3{fill:#F0F0F0;}
	.st4{fill:#FAFAFA;}
	.st5{fill:#FFFFFF;}
	.st6{opacity:0.6;fill:#EBEBEB;enable-background:new    ;}
	.st7{fill:#E0E0E0;}
	.st8{fill:#F5F5F5;}
	.st9{fill:#E3C558;}
	.st10{fill-rule:evenodd;clip-rule:evenodd;fill:#E3C558;}
	.st11{fill:#D26A58;}
	.st12{fill:#912B38;}
	.st13{fill:#809C73;}
	.st14{opacity:0.1;fill:#263238;enable-background:new    ;}
	.st15{fill:#FFBD9C;}
	.st16{fill:#263238;}
	.st17{fill:#6B4E45;}
	.st18{fill-rule:evenodd;clip-rule:evenodd;fill:#0DA487;}
	.st19{opacity:0.2;enable-background:new    ;}
	.st20{opacity:0.2;}
</style>
<g id="freepik--background-complete--inject-17">
	<path id="Layer" class="st0" d="M0,382.4h500v0.3H0V382.4z"/>
	<path id="Layer_00000114792617801845209340000010138955802670485127_" class="st0" d="M416.8,398.5h33.1v0.2h-33.1V398.5z"/>
	<path id="Layer_00000124851049407281506420000014002955155978650529_" class="st0" d="M322.5,401.2h8.7v0.3h-8.7V401.2z"/>
	<path id="Layer_00000057844476902316750460000001408344935422948483_" class="st0" d="M396.6,389.2h19.2v0.3h-19.2V389.2z"/>
	<path id="Layer_00000070108737045387677270000017865384644212525489_" class="st0" d="M52.5,390.9h43.2v0.2H52.5L52.5,390.9z"/>
	<path id="Layer_00000023960665552097653060000014454153955432275885_" class="st0" d="M104.6,390.9h6.3v0.2h-6.3V390.9z"/>
	<path id="Layer_00000067947242780918187820000008183411075606340768_" class="st0" d="M131.5,395.1h93.7v0.3h-93.7V395.1z"/>
	<path id="Layer_00000065764128804449405970000005345222172927783096_" class="st1" d="M237,337.8H43.9c-0.7,0-1.5-0.1-2.2-0.4
		c-0.7-0.3-1.3-0.8-1.8-1.3s-1-1.1-1.3-1.8c-0.3-0.7-0.4-1.5-0.4-2.2V60.7c0-0.8,0.2-1.5,0.5-2.2c0.3-0.7,0.7-1.3,1.2-1.8
		s1.1-1,1.8-1.3c0.7-0.3,1.5-0.4,2.2-0.4H237c0.7,0,1.5,0.1,2.2,0.4c0.7,0.3,1.3,0.8,1.8,1.3s1,1.1,1.3,1.8c0.3,0.7,0.4,1.5,0.4,2.2
		v271.4c0,0.7-0.1,1.5-0.4,2.2c-0.3,0.7-0.8,1.3-1.3,1.8s-1.1,1-1.8,1.3C238.5,337.7,237.7,337.8,237,337.8z M43.9,55.2
		c-0.7,0-1.4,0.1-2.1,0.4c-0.7,0.3-1.2,0.7-1.7,1.2c-0.5,0.5-0.9,1.1-1.2,1.8c-0.3,0.7-0.4,1.4-0.4,2.1v271.4c0,0.7,0.1,1.4,0.4,2.1
		c0.3,0.7,0.7,1.2,1.2,1.7c0.5,0.5,1,0.9,1.7,1.2s1.4,0.4,2.1,0.5l193.1-0.1c0.7,0,1.4-0.1,2.1-0.4c0.7-0.3,1.3-0.7,1.8-1.2
		c0.5-0.5,0.8-1,1.1-1.7c0.3-0.7,0.5-1.4,0.5-2.1V60.7c0-0.7-0.2-1.4-0.5-2.1c-0.3-0.7-0.6-1.3-1.1-1.8c-0.5-0.5-1.1-0.9-1.8-1.2
		c-0.7-0.3-1.4-0.4-2.1-0.4H43.9z"/>
	<path id="Layer_00000119086123951227456350000004017729165980753063_" class="st1" d="M453.3,337.8H260.2c-0.7,0-1.5-0.1-2.2-0.4
		c-0.7-0.3-1.3-0.8-1.8-1.3c-0.5-0.5-1-1.1-1.3-1.8c-0.3-0.7-0.4-1.5-0.4-2.2V60.7c0-0.8,0.2-1.5,0.5-2.2c0.3-0.7,0.7-1.3,1.2-1.8
		c0.5-0.5,1.1-1,1.8-1.3c0.7-0.3,1.5-0.4,2.2-0.4h193.1c0.7,0,1.5,0.1,2.2,0.4c0.7,0.3,1.3,0.8,1.8,1.3c0.5,0.5,1,1.1,1.3,1.8
		c0.3,0.7,0.4,1.4,0.4,2.2v271.4c0,0.7-0.1,1.5-0.4,2.2c-0.3,0.7-0.8,1.3-1.3,1.8c-0.5,0.5-1.1,1-1.8,1.3
		C454.8,337.7,454,337.8,453.3,337.8z M260.2,55.2c-0.7,0-1.4,0.1-2.1,0.4c-0.7,0.3-1.2,0.7-1.7,1.2c-0.5,0.5-0.9,1.1-1.2,1.8
		c-0.3,0.7-0.4,1.4-0.5,2.1v271.4c0.1,0.7,0.2,1.4,0.5,2.1c0.3,0.7,0.7,1.2,1.2,1.7c0.5,0.5,1,0.9,1.7,1.2s1.4,0.4,2.1,0.4h193.1
		c0.7,0,1.4-0.1,2.1-0.4c0.7-0.3,1.3-0.7,1.8-1.2c0.5-0.5,0.9-1,1.2-1.7c0.3-0.7,0.4-1.4,0.4-2.1V60.7c0-0.7-0.1-1.4-0.4-2.1
		c-0.3-0.7-0.7-1.3-1.2-1.8c-0.5-0.5-1.1-0.9-1.8-1.2c-0.7-0.3-1.4-0.4-2.1-0.4H260.2z"/>
	<path id="Layer_00000025404655618307429880000007258502488875933375_" class="st2" d="M101.3,76.2h291.8v136.5H101.3L101.3,76.2z"
		/>
	<path id="Layer_00000096049346396058982670000002944046224596560258_" class="st3" d="M103.3,76.2h294.2v136.5H103.3L103.3,76.2z"
		/>
	<path id="Layer_00000091695279744527869430000013259910569807806848_" class="st2" d="M101.3,212.7h291.8v6.9H101.3L101.3,212.7z"
		/>
	<path id="Layer_00000047768474946788910290000007930304390797708990_" class="st3" d="M110.7,212.7h294.1v6.9H110.7L110.7,212.7z"
		/>
	<path id="Layer_00000027602468239272120070000003754840804268964015_" class="st4" d="M391.3,82.3v124.2H109.5V82.3H391.3z"/>
	<path id="Layer_00000097492766224840591720000012256974167113242272_" class="st5" d="M139.7,206.5l17.2-124.2h26.7l-17.1,124.2
		H139.7L139.7,206.5z"/>
	<path id="Layer_00000058568129563641574250000001225258747253689760_" class="st3" d="M112.3,200.4
		C112.3,200.4,112.3,200.4,112.3,200.4c-0.2-0.1-0.2-0.1-0.3-0.1c0-0.1,0-0.1-0.1-0.2c0-0.1,0-0.1,0-0.1V86.3c0-0.1,0-0.1,0-0.1
		c0.1-0.1,0.1-0.1,0.1-0.2c0.1-0.1,0.1-0.1,0.2-0.1s0.1,0,0.1,0c0.1,0,0.1,0,0.2,0s0.1,0,0.2,0.1c0,0.1,0,0.1,0,0.2
		c0.1,0,0.1,0,0.1,0.1V200c0,0.1,0,0.1-0.1,0.2c0,0,0,0-0.1,0.1c0,0,0,0-0.1,0.1C112.4,200.4,112.4,200.4,112.3,200.4z"/>
	<path id="Layer_00000006673745146554067410000003784797591116427432_" class="st5" d="M172.2,206.5l17.1-124.2h10.5l-17.2,124.2
		H172.2L172.2,206.5z"/>
	<path id="Layer_00000010277502268696682810000016780990665664041117_" class="st2" d="M391.3,82.3v124.2h-0.8V82.3H391.3z"/>
	<path id="Layer_00000121984932347750256870000007272491701599375015_" class="st6" d="M398.9,91.6H107.1l-0.5-6.9h291.8L398.9,91.6
		z"/>
	<path id="Layer_00000083796949403438330250000013785265027482499728_" class="st6" d="M398.9,102.9H107.1l-0.5-6.9h291.8
		L398.9,102.9z"/>
	<path id="Layer_00000112601849225188088050000011884277506051329678_" class="st6" d="M398.9,114.2H107.1l-0.5-6.9h291.8
		L398.9,114.2z"/>
	<path id="Layer_00000016062334777377304210000010482103592530575503_" class="st6" d="M398.9,125.5H107.1l-0.5-6.9h291.8
		L398.9,125.5z"/>
	<path id="Layer_00000004508026802962880400000015416232837530190472_" class="st6" d="M398.9,136.8H107.1l-0.5-6.9h291.8
		L398.9,136.8z"/>
	<path id="Layer_00000090269059132962042670000001258331965087175048_" class="st6" d="M398.9,148.1H107.1l-0.5-6.9h291.8
		L398.9,148.1z"/>
	<path id="Layer_00000003800000556839294090000001783637968876390581_" class="st2" d="M394.5,247H439v135.4h-44.5V247z"/>
	<path id="Layer_00000090990305990720077550000014170280008942409399_" class="st4" d="M427.1,382.4H439v-18.7h-24.4L427.1,382.4z"
		/>
	<path id="Layer_00000026149611387156855150000008320689192760127918_" class="st2" d="M273.1,247h44.5v135.4h-44.5V247z"/>
	<path id="Layer_00000173866193057758336350000000916317457932501432_" class="st4" d="M307.2,247H439v129H307.2V247z"/>
	<path id="Layer_00000106139775773760732830000003638863758938503557_" class="st4" d="M319.1,382.4h-11.9v-18.7h24.4L319.1,382.4z"
		/>
	<path id="Layer_00000089574537630231891220000015956363384255383441_" class="st3" d="M316.4,295.1h113.4v32.2H316.4V295.1z"/>
	<path id="Layer_00000167365815050426641720000018236013821527930519_" class="st3" d="M316.4,334.2h113.4v32.3H316.4V334.2z"/>
	<path id="Layer_00000170237287727092291850000008840212779894445482_" class="st4" d="M334.2,292.3H412v1.5c0,0.7-0.1,1.3-0.4,1.8
		c-0.2,0.6-0.5,1.1-1,1.5c-0.4,0.5-0.9,0.8-1.5,1c-0.5,0.3-1.1,0.4-1.8,0.4h-68.4c-0.6,0-1.2-0.1-1.8-0.4c-0.5-0.2-1-0.5-1.5-1
		c-0.4-0.4-0.7-0.9-1-1.5c-0.2-0.5-0.3-1.1-0.3-1.8v-1.5C0,0,0,0,0,0L334.2,292.3z"/>
	<path id="Layer_00000027565203062182635400000005720321453669317285_" class="st3" d="M316.4,255.9h113.4v32.2H316.4V255.9z"/>
	<path id="Layer_00000008139441085427412220000000090771168913386670_" class="st4" d="M334.2,253.1H412v1.6c0,0.6-0.1,1.2-0.4,1.7
		c-0.2,0.6-0.5,1.1-1,1.6c-0.4,0.4-0.9,0.7-1.5,1c-0.5,0.2-1.1,0.3-1.8,0.3h-68.4c-0.6,0-1.2-0.1-1.8-0.3c-0.5-0.3-1-0.6-1.5-1
		c-0.4-0.5-0.7-1-1-1.6c-0.2-0.5-0.3-1.1-0.3-1.7v-1.6C0,0,0,0,0,0L334.2,253.1z"/>
	<path id="Layer_00000173866590496004686640000014242073182615374736_" class="st4" d="M334.2,331.4H412v1.6c0,0.6-0.1,1.2-0.4,1.8
		c-0.2,0.5-0.5,1-1,1.5c-0.4,0.5-0.9,0.8-1.5,1c-0.5,0.3-1.1,0.4-1.8,0.4h-68.4c-0.6,0-1.2-0.1-1.8-0.4c-0.5-0.2-1-0.5-1.5-1
		c-0.4-0.5-0.7-1-1-1.5c-0.2-0.6-0.3-1.2-0.3-1.8v-1.6C0,0,0,0,0,0L334.2,331.4z"/>
	<path id="Layer_00000122687144186733698290000013803109087380729011_" class="st2" d="M53.4,275.9c2.5-7.2,22,2.5,30,14.3
		c5.3,7.9,8.5,16.3,10,27.6c-0.2-12.9-0.4-26.7-0.6-39.8c-1.6-3.2-5.2-10.7-7.9-16.6c-8.8-19.9-29.7-27.2-37-39.8
		c-9.4-16.4-9.4-41-1.3-49.8c7-7.7,30.2,44.4,32.8,50.2c9,20,11.6,35,13.3,49.4c-0.2-12.3-0.4-23.5-0.5-32.2
		c-0.5-28.3-1.1-37.4-1.4-40.2c-1-1.4-2.1-3-2.8-3.8c-5.6-7.3-18.1-15.9-24.3-26.4c-9.1-15.3-7.6-33.7-1.2-40.5
		c6.7-7.2,18.5,9.7,24.7,26.5s3.6,32.7,5.4,46.7c0.3,2.7,0.7,13,1,27.4c2-15.5,5.7-25.8,12.7-35.5c8.6-11.8,16.1-26.3,23.2-24.4
		c7.1,1.9,3.3,21-2.4,34.4c-5,11.9-29.6,23.9-33.3,33.5c0.5,19.5,0.8,44.1,1.1,67.1c2-11.9,0.6-12.9,8.6-31
		c4.7-10.8,24.2-24.1,26.5-16.7s-1.2,21.5-8.6,31.3c-5.9,7.9-19,7.9-22,12.8c-0.8,1.2-3,5.6-4.4,8.1c0.3,28,0.4,52.8,0.3,61.2
		l-1.3,0.1c0.1-2.2-0.1-16.4-0.4-35.3c-3.1-10-24.6-15.9-31.2-26.4C55.4,297.2,50.4,284.4,53.4,275.9z"/>
	<path id="Layer_00000183213348206637224090000002479124670612690351_" class="st3" d="M73.6,382.4h41.2c0.5,0,1.1-0.1,1.6-0.3
		c0.5-0.2,1-0.5,1.4-0.8c0.4-0.3,0.8-0.7,1.1-1.2c0.3-0.5,0.4-1,0.5-1.5l3-14.4H66l3,14.4c0.1,0.5,0.3,1,0.6,1.5
		c0.3,0.5,0.6,0.9,1,1.2c0.5,0.3,0.9,0.6,1.4,0.8C72.5,382.3,73.1,382.4,73.6,382.4z"/>
	<path id="Layer_00000173853218305994268830000004256641424019750303_" class="st3" d="M64.9,369.8h58.6c0.4,0,0.7-0.1,1-0.2
		c0.3-0.1,0.6-0.3,0.9-0.5c0.3-0.3,0.5-0.5,0.6-0.8c0.1-0.3,0.2-0.7,0.3-1l1.2-10.6c0.1-0.4,0-0.8-0.1-1.2c-0.1-0.3-0.3-0.7-0.6-1
		c-0.3-0.3-0.6-0.5-0.9-0.7c-0.4-0.1-0.8-0.2-1.2-0.2h-61c-0.4,0-0.8,0.1-1.2,0.2c-0.3,0.2-0.6,0.4-0.9,0.7c-0.3,0.3-0.5,0.7-0.6,1
		c-0.1,0.4-0.2,0.8-0.1,1.2l1.2,10.6c0.1,0.3,0.2,0.7,0.3,1c0.1,0.3,0.3,0.5,0.6,0.8c0.3,0.2,0.6,0.4,0.9,0.5
		C64.2,369.7,64.5,369.8,64.9,369.8z"/>
	<path id="Layer_00000011726262581028017240000016607209179220328584_" class="st7" d="M142.6,317.6h35.2v64.8h-35.2V317.6z"/>
	<path id="Layer_00000099663006776212589240000017171944813635977117_" class="st2" d="M267.6,382.4H149.7l-12.4-87.9h117.9
		L267.6,382.4z"/>
	<path id="Layer_00000073713298467129919150000003478147153122247590_" class="st3" d="M284.8,382.4H154.4L142,294.5h130.4
		L284.8,382.4z"/>
	<path id="Layer_00000162347403389859039920000017466800809556280762_" class="st5" d="M167.1,368.7l-10.4-60.5h102.9l10.5,60.5
		H167.1z"/>
	<path id="Layer_00000084497002267341283930000010400301700848669873_" class="st4" d="M211.4,368.7l-35-60.5h10.9l35,60.5H211.4z"
		/>
	<path id="Layer_00000128484567560301983300000013973659995179467146_" class="st4" d="M227,368.7l-35-60.5h18.7l35,60.5H227z"/>
</g>
<g id="freepik--Shadow--inject-17">
	<path id="freepik--path--inject-17" class="st8" d="M250,427.6c-107.2,0-193.9-5.1-193.9-11.4c0-6.2,86.7-11.3,193.9-11.3
		s193.9,5.1,193.9,11.3C443.9,422.5,357.2,427.6,250,427.6z"/>
</g>
<g id="freepik--Warning--inject-17">
	<path id="Layer_00000069360428670071733200000014260868797850954408_" class="st9" d="M77.3,221.5c-0.1,0-0.1,0-0.2,0
		s-0.1,0-0.1-0.1c-0.1,0-0.1,0-0.1-0.1c-0.1-0.1-0.1-0.1-0.1-0.2l-2.2-26.7c0,0,0,0,0-0.1c0.1-0.1,0.1-0.1,0.1-0.2
		c0.1,0,0.1,0,0.1-0.1c0.1,0,0.1,0,0.2,0s0.1,0,0.2,0c0,0,0,0,0.1,0.1c0.1,0.1,0.1,0.1,0.1,0.1c0.1,0.1,0.1,0.1,0.1,0.2l2.2,26.7
		c0,0.1,0,0.1,0,0.2c-0.1,0-0.1,0-0.1,0.1C77.5,221.5,77.5,221.5,77.3,221.5C77.4,221.5,77.4,221.5,77.3,221.5z"/>
	<path id="Layer_00000129925481549320976360000014456135252785187515_" class="st9" d="M78.6,237.4c-0.1,0-0.1,0-0.2,0
		c0-0.1,0-0.1-0.1-0.1c-0.1-0.1-0.1-0.1-0.1-0.1c0-0.1,0-0.1,0-0.2l-0.7-8.1c0-0.1,0-0.1,0-0.1c0-0.1,0-0.1,0.1-0.2
		c0-0.1,0-0.1,0.1-0.1c0.1,0,0.1,0,0.2,0c0.1,0,0.1,0,0.1,0c0.1,0,0.1,0,0.2,0.1c0.1,0,0.1,0,0.1,0.1c0,0.1,0,0.1,0,0.1l0.7,8.1
		c0,0.1,0,0.1,0,0.2c0,0.1,0,0.1-0.1,0.1c0,0.1,0,0.1-0.1,0.1C78.7,237.4,78.7,237.4,78.6,237.4L78.6,237.4z"/>
	<path id="Layer_00000149383881871926574660000017238890749042757288_" class="st5" d="M303.6,313.4H97.1c-1.3-0.1-2.6-0.3-3.8-0.8
		c-1.2-0.5-2.3-1.2-3.2-2c-1-0.9-1.8-2-2.3-3.1c-0.6-1.2-1-2.4-1.1-3.7L75.1,164c-0.1-1.2,0-2.5,0.4-3.6c0.4-1.2,1-2.3,1.8-3.2
		c0.9-0.9,1.9-1.6,3-2.1s2.3-0.7,3.6-0.7h206.4c1.3,0,2.6,0.3,3.8,0.8c1.2,0.5,2.3,1.2,3.2,2c1,0.9,1.8,2,2.3,3.1
		c0.6,1.2,1,2.4,1.1,3.7l11.6,139.8c0.2,1.2,0,2.4-0.4,3.6c-0.3,1.2-1,2.2-1.8,3.1s-1.8,1.7-3,2.2
		C306,313.1,304.8,313.4,303.6,313.4L303.6,313.4z"/>
	<path id="Layer_00000089570588298175216760000010954779353622428070_" class="st10" d="M303.6,313.8H97.1c-1.4-0.1-2.7-0.3-3.9-0.8
		c-1.3-0.5-2.4-1.2-3.4-2.1c-1-1-1.8-2-2.4-3.2s-1-2.5-1.1-3.9L74.7,164c-0.1-0.6-0.1-1.2,0-1.9c0.1-0.6,0.2-1.2,0.4-1.8
		c0.2-0.6,0.5-1.2,0.8-1.8c0.3-0.5,0.7-1,1.1-1.5c0.5-0.5,1-0.9,1.5-1.3c0.5-0.3,1.1-0.6,1.6-0.9c0.6-0.3,1.2-0.5,1.9-0.6
		c0.6-0.1,1.2-0.2,1.9-0.2h206.4c1.4,0,2.7,0.3,4,0.8c1.2,0.5,2.3,1.2,3.3,2.1c1,0.9,1.8,2,2.4,3.2c0.6,1.3,1,2.6,1.1,3.9
		l11.6,139.8c0.2,1.2,0,2.5-0.4,3.7c-0.4,1.3-1,2.4-1.9,3.3c-0.9,1-1.9,1.7-3.1,2.2S304.8,313.8,303.6,313.8L303.6,313.8z
		 M83.9,154.8c-1.2,0-2.4,0.3-3.5,0.7c-1,0.5-2,1.2-2.8,2c-0.8,0.9-1.4,1.9-1.8,3c-0.3,1.2-0.5,2.3-0.3,3.5l11.6,139.8
		c0.1,1.2,0.5,2.4,1,3.5c0.6,1.1,1.3,2.1,2.2,3c0.9,0.8,2,1.4,3.2,1.9c1.1,0.5,2.3,0.7,3.6,0.8h206.5c1.1,0,2.3-0.2,3.4-0.7
		c1-0.5,2-1.2,2.8-2c0.8-0.9,1.4-1.9,1.8-3c0.3-1.1,0.5-2.3,0.3-3.5L300.3,164c-0.1-1.2-0.5-2.4-1-3.5c-0.6-1.1-1.3-2.1-2.2-3
		c-0.9-0.8-2-1.4-3.2-1.9c-1.1-0.5-2.3-0.7-3.6-0.8L83.9,154.8z"/>
	<path id="Layer_00000113317245404771062440000000393204607023673770_" class="st11" d="M290.3,154.4H83.9c-1.3,0-2.5,0.3-3.6,0.7
		c-1.1,0.5-2.1,1.3-3,2.2c-0.8,0.9-1.4,1.9-1.8,3.1c-0.4,1.1-0.5,2.4-0.4,3.6h225.6c-0.1-1.3-0.5-2.5-1.1-3.7
		c-0.5-1.1-1.3-2.2-2.3-3c-0.9-0.9-2-1.6-3.2-2.1S291.6,154.5,290.3,154.4L290.3,154.4z"/>
	<path id="Layer_00000139257526091806252940000014876786239290258862_" class="st12" d="M88.7,159.2c0,0.3,0,0.5-0.1,0.8
		c-0.1,0.3-0.2,0.5-0.4,0.7c-0.2,0.2-0.4,0.3-0.6,0.4c-0.3,0.1-0.5,0.2-0.8,0.2c-0.3,0-0.5-0.1-0.8-0.2c-0.3-0.1-0.5-0.2-0.7-0.4
		c-0.2-0.2-0.4-0.4-0.5-0.7s-0.2-0.5-0.2-0.8c-0.1-0.3-0.1-0.5,0-0.8c0.1-0.2,0.3-0.4,0.4-0.6c0.2-0.2,0.4-0.4,0.7-0.5
		c0.2-0.1,0.4-0.1,0.7-0.1c0.3,0,0.6,0,0.9,0.1c0.3,0.1,0.5,0.3,0.7,0.5s0.4,0.4,0.5,0.6C88.6,158.7,88.7,158.9,88.7,159.2z"/>
	<path id="Layer_00000144316434229895999440000004157922964557057185_" class="st13" d="M97.1,159.2c0,0.3,0,0.5-0.1,0.8
		c-0.1,0.3-0.2,0.5-0.4,0.7c-0.2,0.2-0.4,0.3-0.6,0.4c-0.3,0.1-0.5,0.2-0.8,0.2s-0.5-0.1-0.8-0.2c-0.3-0.1-0.5-0.2-0.7-0.4
		c-0.2-0.2-0.4-0.4-0.5-0.7c-0.1-0.3-0.2-0.5-0.2-0.8c0-0.3,0-0.5,0.1-0.8c0.1-0.2,0.2-0.4,0.4-0.6s0.4-0.4,0.6-0.5
		c0.3-0.1,0.5-0.1,0.8-0.1c0.3,0,0.5,0,0.8,0.1c0.3,0.1,0.5,0.3,0.7,0.5c0.2,0.2,0.4,0.4,0.5,0.6C97,158.7,97.1,158.9,97.1,159.2z"
		/>
	<path id="Layer_00000177474099812487090130000001649832710669845175_" class="st9" d="M105.5,159.2c0,0.3,0,0.5-0.1,0.8
		c-0.1,0.3-0.2,0.5-0.4,0.7c-0.2,0.2-0.4,0.3-0.6,0.4c-0.3,0.1-0.5,0.2-0.8,0.2c-0.3,0-0.5-0.1-0.8-0.2c-0.3-0.1-0.5-0.2-0.7-0.4
		c-0.2-0.2-0.4-0.4-0.5-0.7s-0.2-0.5-0.2-0.8c-0.1-0.3-0.1-0.5,0-0.8c0.1-0.2,0.3-0.4,0.4-0.6c0.2-0.2,0.4-0.4,0.7-0.5
		c0.2-0.1,0.5-0.1,0.8-0.1c0.3,0,0.5,0,0.8,0.1c0.3,0.1,0.5,0.3,0.7,0.5s0.4,0.4,0.5,0.6C105.4,158.7,105.5,158.9,105.5,159.2z"/>
	<path id="Layer_00000181082421356123267060000014447582817868822959_" class="st3" d="M285.6,295.1L112,295c-1.1,0-2.1-0.2-3-0.6
		c-0.9-0.3-1.8-0.9-2.6-1.6c-0.7-0.7-1.3-1.5-1.8-2.4c-0.5-0.9-0.8-1.9-0.9-3L95.6,190c-0.1-1,0-2,0.3-2.9s0.8-1.8,1.5-2.5
		c0.6-0.7,1.4-1.3,2.3-1.7c0.9-0.3,1.9-0.5,2.9-0.5h173.7c1,0,2,0.2,3,0.6c0.9,0.4,1.8,0.9,2.5,1.6c0.8,0.7,1.4,1.6,1.9,2.5
		c0.5,0.9,0.7,1.9,0.8,2.9l8.1,97.5c0.1,1,0,1.9-0.3,2.8c-0.3,1-0.8,1.8-1.5,2.5c-0.6,0.7-1.4,1.3-2.3,1.7c-0.9,0.4-1.9,0.6-2.9,0.5
		V295.1z"/>
	<path id="Layer_00000115492486275855672920000009999891467838556599_" class="st14" d="M231.9,199.4l-53.8,64.8
		c-1.7,2-2.8,4.5-3.3,7.1s-0.3,5.2,0.6,7.7c0.9,2.5,2.4,4.8,4.3,6.5c2,1.8,4.4,3,7,3.6l87.3,18.8c2.7,0.6,5.6,0.5,8.2-0.4
		c2.7-0.9,5-2.5,6.8-4.7c1.8-2.1,3-4.7,3.5-7.4c0.4-2.8,0.1-5.6-0.9-8.2l-33.5-83.7c-1-2.5-2.6-4.6-4.7-6.3
		c-2.1-1.7-4.6-2.8-7.2-3.2c-2.7-0.4-5.4-0.1-7.9,0.8C235.8,195.8,233.6,197.4,231.9,199.4L231.9,199.4z"/>
	<path id="Layer_00000168112372264624414640000002044651309239155334_" class="st14" d="M112.2,208.5L93.4,259
		c-0.5,1.5-0.7,3.2-0.4,4.8c0.2,1.6,0.9,3.2,1.9,4.5s2.3,2.3,3.8,2.9c1.5,0.7,3.1,1,4.8,0.8l54.7-5.4c1.8-0.1,3.4-0.8,4.8-1.8
		c1.4-1.1,2.5-2.4,3.2-4.1c0.7-1.6,0.9-3.3,0.7-5.1c-0.2-1.7-0.9-3.3-2-4.7l-36-45.1c-1.1-1.4-2.5-2.4-4.1-3s-3.4-0.8-5.1-0.5
		c-1.7,0.2-3.3,1-4.6,2.1C113.8,205.5,112.8,206.9,112.2,208.5z"/>
	<path id="Layer_00000043452698591027894350000017862847963960268174_" class="st11" d="M250.5,183.1l-50.3,73
		c-1.6,2.3-2.6,4.9-2.8,7.7c-0.3,2.7,0.2,5.5,1.3,8c1.1,2.6,2.9,4.8,5.1,6.4c2.2,1.7,4.8,2.8,7.6,3.1l92.4,12.3
		c2.9,0.4,5.9,0,8.6-1.2c2.7-1.1,5-3,6.7-5.4s2.8-5.2,3-8.1s-0.3-5.9-1.6-8.5l-42.2-85.3c-1.2-2.5-3.1-4.7-5.5-6.3
		c-2.3-1.5-5-2.5-7.8-2.7s-5.7,0.4-8.2,1.6C254.3,178.9,252.1,180.8,250.5,183.1L250.5,183.1z"/>
	<path id="Layer_00000152263282219973744520000012429373184160727997_" class="st5" d="M213.6,274.8c-0.9-0.1-1.7-0.3-2.5-0.6
		c-0.7-0.3-1.5-0.8-2.2-1.3c-0.7-0.5-1.3-1-1.8-1.7c-0.5-0.6-1-1.3-1.3-2.1c-0.4-0.7-0.7-1.4-0.9-2.2c-0.1-0.8-0.2-1.6-0.2-2.4
		c0.1-0.8,0.2-1.6,0.5-2.4c0.2-0.8,0.5-1.5,1-2.2l50.4-73.2c0.5-0.7,1-1.2,1.7-1.7c0.6-0.5,1.3-0.9,2-1.2c0.7-0.3,1.5-0.6,2.3-0.7
		c0.8-0.1,1.6,0,2.3,0.1c0.9,0.1,1.7,0.3,2.5,0.6c0.7,0.3,1.5,0.7,2.2,1.2c0.7,0.5,1.3,1.1,1.8,1.8c0.5,0.6,1,1.3,1.4,2.1l42.2,85.5
		c0.4,0.7,0.7,1.5,0.8,2.3c0.2,0.8,0.3,1.6,0.2,2.4c0,0.8-0.1,1.6-0.4,2.3c-0.3,0.8-0.6,1.5-1.1,2.2s-1,1.2-1.6,1.7
		c-0.6,0.5-1.3,1-2,1.3c-0.7,0.3-1.5,0.5-2.3,0.6c-0.8,0.1-1.6,0-2.4-0.1L213.6,274.8z"/>
	<path id="Layer_00000024688247228893633650000018344147025795999364_" class="st9" d="M260.6,209.1l5.9,0.8
		c0.9,0.1,1.8,0.3,2.6,0.8c0.9,0.5,1.6,1.1,2.2,1.8c0.6,0.7,1,1.4,1.3,2.3c0.3,0.9,0.5,1.8,0.4,2.7l-0.4,7.7c0,0.1,0,0.1,0,0.2
		c0,0.1,0,0.1,0,0.2c0,0.1,0,0.2,0,0.3c0,0.1,0,0.1,0,0.2l-4.2,23.1c-0.2,0.8-0.5,1.5-0.9,2.2c-0.5,0.7-1,1.3-1.7,1.8
		s-1.4,0.8-2.2,0.9c-0.7,0.2-1.5,0.2-2.3,0.1c-0.9-0.1-1.7-0.4-2.5-0.8c-0.7-0.4-1.4-0.9-2-1.5c-0.6-0.6-1.1-1.3-1.4-2.1
		c-0.3-0.8-0.6-1.6-0.7-2.5l-1.6-23.9c0-0.1,0-0.1-0.1-0.2c0-0.1,0-0.1,0-0.2c0-0.1,0-0.1,0-0.2c0.1-0.1,0.1-0.1,0.1-0.2l0.3-7.7
		c0.1-0.9,0.3-1.7,0.7-2.5c0.4-0.8,0.9-1.5,1.6-2c0.7-0.6,1.5-1,2.4-1.2C258.9,209,259.7,209,260.6,209.1L260.6,209.1z M260.2,260.6
		l1.6,0.2c0.8,0.1,1.6,0.4,2.3,0.8c0.7,0.4,1.4,0.9,1.9,1.6c0.5,0.6,0.9,1.3,1.2,2.1c0.3,0.8,0.4,1.6,0.4,2.4c0,0.8-0.2,1.6-0.6,2.3
		c-0.3,0.7-0.8,1.3-1.4,1.8c-0.7,0.5-1.4,0.9-2.1,1.1c-0.8,0.2-1.6,0.2-2.3,0.1l-1.6-0.2c-0.9-0.1-1.7-0.4-2.4-0.8s-1.4-0.9-1.9-1.6
		c-0.5-0.6-0.9-1.3-1.2-2.1s-0.4-1.6-0.4-2.4c0.1-0.8,0.3-1.6,0.6-2.3c0.4-0.7,0.9-1.3,1.5-1.8c0.6-0.5,1.3-0.8,2.1-1.1
		C258.6,260.5,259.4,260.5,260.2,260.6z"/>
	<path id="Layer_00000071543824664563005350000008862972613275230140_" class="st11" d="M131.5,194.3l-13.8,52.3
		c-0.4,1.6-0.4,3.3,0,4.9c0.4,1.6,1.2,3,2.3,4.2c1.1,1.2,2.5,2.1,4.1,2.6s3.2,0.6,4.9,0.3l53.5-10.4c1.7-0.4,3.3-1.1,4.6-2.3
		s2.3-2.6,2.8-4.3c0.5-1.6,0.6-3.4,0.2-5.1c-0.4-1.7-1.2-3.2-2.4-4.5L148,190.1c-1.2-1.3-2.7-2.2-4.4-2.7c-1.6-0.5-3.4-0.5-5.1-0.1
		c-1.7,0.4-3.2,1.3-4.4,2.5C132.8,191,131.9,192.6,131.5,194.3L131.5,194.3z"/>
	<path id="Layer_00000000912119917470815240000011997593582732576898_" class="st5" d="M128.8,254.4c-0.5,0.1-0.9,0.1-1.4,0.1
		c-0.5-0.1-1-0.2-1.5-0.3c-0.5-0.1-0.9-0.4-1.3-0.7c-0.5-0.3-0.9-0.6-1.2-0.9c-0.3-0.3-0.6-0.7-0.9-1.2c-0.2-0.4-0.4-0.9-0.5-1.4
		c-0.1-0.5-0.2-0.9-0.2-1.4c0-0.5,0-1,0.1-1.5l13.9-52.5c0.1-0.5,0.3-0.9,0.5-1.3c0.3-0.4,0.6-0.8,0.9-1.1c0.3-0.3,0.7-0.6,1.2-0.8
		c0.4-0.2,0.8-0.3,1.3-0.4c0.5-0.1,1-0.2,1.5-0.1c0.5,0,0.9,0.1,1.4,0.3c0.5,0.1,0.9,0.3,1.4,0.6c0.4,0.3,0.8,0.6,1.1,1l39.9,42
		c0.3,0.3,0.6,0.7,0.9,1.2c0.2,0.4,0.4,0.8,0.5,1.3s0.2,1,0.2,1.5c0.1,0.5,0,1-0.1,1.5c-0.1,0.4-0.3,0.8-0.6,1.3
		c-0.2,0.4-0.5,0.7-0.9,1c-0.3,0.3-0.7,0.6-1.1,0.9c-0.4,0.2-0.8,0.3-1.3,0.4L128.8,254.4z"/>
	<path id="Layer_00000066509676010557584910000005737669983841833125_" class="st9" d="M142.3,206.9l3.4-0.6c0.5-0.1,1.1-0.1,1.6,0
		c0.6,0.1,1.1,0.3,1.6,0.6c0.5,0.3,0.9,0.7,1.2,1.1c0.3,0.5,0.6,1,0.7,1.5l1.2,4.6c0,0.1,0,0.1,0,0.1c0,0.1,0,0.1,0.1,0.2
		c0,0,0,0,0,0.1c0,0,0,0,0,0.1l2.2,14.4c0.1,0.5,0,0.9-0.1,1.4c-0.1,0.5-0.2,1-0.5,1.4c-0.3,0.4-0.7,0.7-1.1,1
		c-0.4,0.3-0.8,0.4-1.3,0.5c-0.5,0.1-1,0.1-1.5,0c-0.5-0.1-1-0.2-1.5-0.5c-0.4-0.3-0.8-0.6-1.1-1c-0.4-0.4-0.7-0.8-0.8-1.3
		l-5.6-13.7c0,0,0,0,0-0.1c-0.1,0-0.1,0-0.1-0.1c0-0.1,0-0.1,0-0.1c0-0.1,0-0.1-0.1-0.1l-1.2-4.6c-0.2-0.5-0.3-1.1-0.2-1.6
		c0.1-0.5,0.2-1,0.5-1.5c0.3-0.5,0.7-0.9,1.1-1.2C141.3,207.2,141.8,207,142.3,206.9L142.3,206.9z M151.9,237.2l1-0.2
		c0.5-0.1,0.9,0,1.4,0.1c0.5,0.1,1,0.2,1.4,0.5c0.4,0.3,0.8,0.6,1.1,1c0.3,0.4,0.5,0.9,0.6,1.4v-0.1c0.1,0.5,0.2,0.9,0.2,1.4
		c-0.1,0.5-0.2,1-0.5,1.4s-0.6,0.7-1,1c-0.3,0.3-0.7,0.4-1.2,0.5l-1,0.2c-0.5,0.1-0.9,0.1-1.4,0c-0.5-0.1-1-0.2-1.4-0.5
		c-0.4-0.3-0.8-0.6-1.1-1.1c-0.3-0.4-0.5-0.8-0.6-1.3s-0.2-0.9-0.2-1.4c0.1-0.5,0.2-0.9,0.5-1.3c0.3-0.4,0.6-0.7,1-1
		C151,237.5,151.4,237.3,151.9,237.2L151.9,237.2z"/>
</g>
<g id="freepik--Character--inject-17">
	<path id="Layer_00000090981242504469971120000001430513971357849496_" class="st15" d="M388.4,206l-7.8,2.5l6.2,7.4
		c0.5-0.4,0.9-0.8,1.3-1.2c0.4-0.4,0.8-0.8,1.2-1.3c0.4-0.5,0.8-0.9,1.1-1.4s0.7-0.9,1-1.4c0.1-0.3,0.2-0.6,0.3-0.9
		c0.1-0.3,0-0.7-0.1-1c-0.1-0.3-0.2-0.5-0.4-0.8c-0.2-0.3-0.4-0.5-0.7-0.7L388.4,206z"/>
	<path id="Layer_00000140723175922354976310000017888745184515956099_" class="st15" d="M377,214.6l4.7,5.7l5.2-4.4l-6.3-7.3
		L377,214.6L377,214.6z"/>
	<path id="Layer_00000093864799178457504690000012401014567707314305_" class="st15" d="M390.9,145.7c1.9,5.2,3.6,10.4,5.3,15.7
		c1.6,5.2,3.1,10.5,4.5,16.1l0.4,2.1l0.2,1.1l0.2,0.6v0.1v0.2v0.4c0.1,0.5,0.1,0.9,0.1,1.4c0,0.5,0,1,0,1.5c0,0.5,0,0.9-0.1,1.4
		c-0.1,0.5-0.2,0.9-0.3,1.4c-0.1,0.7-0.3,1.5-0.5,2.3c-0.2,0.7-0.4,1.5-0.7,2.2c-0.2,0.7-0.5,1.4-0.8,2.1c-0.3,0.7-0.5,1.4-0.8,2.1
		c-0.6,1.3-1.2,2.6-1.9,3.9c-0.7,1.3-1.3,2.5-2,3.8c-0.7,1.2-1.5,2.4-2.3,3.6c-0.8,1.2-1.6,2.4-2.4,3.5l-5.2-2.8
		c1.8-5,3.7-10.1,5-15.1c0.1-0.6,0.3-1.2,0.5-1.7c0.1-0.6,0.2-1.2,0.3-1.8c0.1-0.6,0.2-1.2,0.3-1.8c0.1-0.6,0.2-1.2,0.3-1.8
		c0-0.2,0-0.4,0-0.6c0-0.2,0-0.4,0-0.6c0-0.2,0-0.4,0-0.6c-0.1-0.3-0.1-0.5-0.1-0.7l-0.5-1.5l-0.5-1.9c-1.6-5-3.4-10.1-5.2-15.2
		c-1.7-5.2-3.5-10.3-5.2-15.5L390.9,145.7z"/>
	<path id="Layer_00000116943087481999967620000018068621969604758657_" class="st16" d="M347.7,114.7c0.1,0.7-0.1,1.2-0.5,1.4
		c-0.4,0.1-0.8-0.4-1-1c-0.2-0.7,0.1-1.3,0.5-1.4S347.6,114.1,347.7,114.7z"/>
	<path id="Layer_00000143593218658620759250000003933135249635045254_" class="st15" d="M347.6,115.9c-0.1,0.5-0.2,1.1-0.3,1.6
		c-0.1,0.5-0.2,1-0.4,1.5c-0.1,0.5-0.3,1-0.5,1.5c-0.1,0.5-0.3,1-0.6,1.5c0.3,0.1,0.5,0.2,0.8,0.2c0.3,0.1,0.5,0.1,0.8,0.1
		c0.3-0.1,0.5-0.1,0.8-0.2c0.2-0.1,0.4-0.2,0.7-0.3L347.6,115.9z"/>
	<path id="Layer_00000009589594984728824550000001373606975376391852_" class="st16" d="M346,111c0,0,0,0-0.1,0c0,0,0,0-0.1,0
		c0-0.1,0-0.1,0-0.1c-0.1,0-0.1,0-0.1-0.1c-0.1,0-0.1,0-0.1-0.1s0-0.1,0-0.1c0-0.1,0-0.1,0.1-0.2c0,0,0,0,0.1-0.1
		c0.3-0.1,0.5-0.3,0.8-0.4c0.3-0.1,0.5-0.1,0.8-0.1c0.3-0.1,0.6-0.1,0.9,0c0.3,0.1,0.6,0.2,0.9,0.3c0,0,0,0,0.1,0
		c0,0.1,0,0.1,0.1,0.2c0,0,0,0,0,0.1c0,0.1,0,0.1,0,0.1c-0.1,0.1-0.1,0.1-0.1,0.2c-0.1,0-0.1,0-0.1,0.1c-0.1,0-0.1,0-0.2,0
		c-0.1,0-0.1,0-0.1,0c-0.2-0.1-0.4-0.2-0.7-0.2c-0.2-0.1-0.4-0.1-0.7-0.1c-0.2,0-0.4,0-0.7,0.1c-0.2,0.1-0.4,0.2-0.6,0.3
		c0,0,0,0,0,0.1C346.1,111,346.1,111,346,111L346,111C346,111,346,111,346,111L346,111z"/>
	<path id="Layer_00000029759814139742102660000013796160410437156231_" class="st15" d="M369.1,116.7c0.7,7.3-0.3,14.3,1.3,20.6
		c0,0-1.8,5.9-12.5,5.9c-11.8,0-5.4-5.9-5.4-5.9c6.5-1.5,6.5-6.3,5.5-10.8L369.1,116.7z"/>
	<path id="Layer_00000011720239151894073430000010749508635884851618_" class="st17" d="M372.7,139.3c0.9-1.8,1.5-4.4-0.4-5.1
		c-2.1-0.7-13.2-1-17.3,0.4c-0.5,0.1-1,0.4-1.5,0.7c-0.4,0.3-0.8,0.7-1.1,1.2c-0.3,0.5-0.4,1-0.5,1.6c-0.1,0.5-0.1,1.1,0,1.6
		L372.7,139.3z"/>
	<path id="Layer_00000152946588311613045910000007197719440577363377_" class="st18" d="M396.4,402.8c-0.1,0-0.3,0-0.5,0
		c-0.1,0-0.3,0-0.4,0c-0.1,0-0.3,0-0.4-0.1c-0.1-0.1-0.2-0.1-0.3-0.2c-0.1-0.1-0.1-0.1-0.2-0.2c-0.1-0.1-0.1-0.2-0.1-0.3
		c-0.1-0.1-0.1-0.2-0.1-0.3c0-0.1,0-0.1,0-0.2c0-0.1,0-0.1,0-0.2c0.1,0,0.1,0,0.1-0.1c0.1-0.1,0.1-0.1,0.1-0.1
		c0.9-0.7,4,0.3,4.3,0.4c0,0,0,0,0.1,0c0,0,0,0,0,0.1l0,0c0,0,0,0,0,0.1l0,0c0,0.1,0,0.1,0,0.1l0,0c-0.1,0.1-0.1,0.1-0.1,0.1
		c-0.1,0.1-0.3,0.1-0.5,0.2c-0.2,0.1-0.4,0.1-0.5,0.2c-0.2,0.1-0.4,0.1-0.6,0.2c-0.1,0.1-0.3,0.1-0.5,0.2
		C396.7,402.8,396.5,402.8,396.4,402.8L396.4,402.8z M398.3,401.7c0,0,0,0-0.1,0C398.3,401.7,398.3,401.7,398.3,401.7z M398.2,401.8
		c-1.2-0.4-2.9-0.8-3.3-0.4l0,0c-0.1,0-0.1,0-0.1,0.1c0,0,0,0,0,0c0,0.1,0,0.1,0,0.1c0,0.1,0,0.1,0.1,0.2c0,0.1,0,0.1,0.1,0.2
		c0,0.1,0,0.1,0.1,0.2c0.1,0,0.1,0,0.2,0.1C395.8,402.6,396.9,402.4,398.2,401.8L398.2,401.8z"/>
	<path id="Layer_00000042738313026211108500000011038628336782497425_" class="st18" d="M398.7,401.9c-0.9-0.2-3.1-1.7-3.1-2.7
		c0-0.1,0-0.1,0-0.2c0.1-0.1,0.1-0.1,0.1-0.2c0.1-0.1,0.1-0.1,0.2-0.1c0.1-0.1,0.1-0.1,0.2-0.1c0.1-0.1,0.1-0.1,0.2-0.1
		c0.1,0,0.2,0,0.3,0c0.1,0,0.1,0,0.2,0c0.1,0.1,0.1,0.1,0.2,0.1c1.2,0.6,2,2.9,2,3c0,0.1,0,0.1,0,0.1c0,0.1,0,0.1,0,0.1
		c0,0,0,0,0,0.1c-0.1,0-0.1,0-0.1,0L398.7,401.9z M396.2,398.9c-0.2,0.1-0.2,0.2-0.2,0.2c0,0.6,1.4,1.8,2.4,2.2
		c-0.1-0.2-0.1-0.4-0.2-0.7c-0.1-0.2-0.3-0.4-0.4-0.6c-0.1-0.2-0.3-0.4-0.5-0.6c-0.1-0.2-0.3-0.4-0.5-0.5c0,0,0,0-0.1,0
		c-0.1-0.1-0.1-0.1-0.1-0.1c-0.1,0-0.1,0-0.2,0c0,0,0,0-0.1,0L396.2,398.9z"/>
	<path id="Layer_00000154385617917594963640000001477942706088598706_" class="st18" d="M341.7,408.8c-0.1,0-0.3,0-0.4-0.1
		c-0.1,0-0.3,0-0.4-0.1s-0.3-0.1-0.4-0.2c-0.1-0.1-0.1-0.2-0.2-0.3c-0.1-0.1-0.1-0.1-0.1-0.2c-0.1-0.1-0.1-0.2-0.1-0.3
		c0-0.1,0-0.2,0-0.3c0-0.1,0-0.1,0-0.2s0-0.1,0.1-0.2c0,0,0,0,0.1-0.1c0.1-0.1,0.1-0.1,0.1-0.1c1-0.5,3.8,1.2,4.1,1.4c0,0,0,0,0,0.1
		c0.1,0,0.1,0,0.1,0c0,0,0,0,0,0.1c0,0,0,0,0,0c0,0.1,0,0.1,0,0.1c0,0,0,0-0.1,0c0,0,0,0,0,0.1c0,0,0,0-0.1,0
		c-0.1,0.1-0.3,0.1-0.5,0.1c-0.2,0.1-0.4,0.1-0.6,0.1s-0.4,0-0.6,0.1c-0.1,0-0.3,0-0.5,0C342.1,408.8,341.9,408.8,341.7,408.8z
		 M340.6,407.1c0,0-0.1,0-0.1,0.2c0,0.1,0,0.1,0,0.2s0,0.1,0,0.2c0.1,0.1,0.1,0.1,0.1,0.2c0.1,0.1,0.1,0.1,0.2,0.1
		c0.5,0.4,1.6,0.5,3,0.2C342.7,407.5,341.1,406.8,340.6,407.1L340.6,407.1z"/>
	<path id="Layer_00000066480456377969092670000015437957482590634912_" class="st18" d="M344.3,408.5c-0.9-0.5-2.6-2.3-2.5-3.3
		c0.1-0.1,0.1-0.2,0.1-0.3c0.1,0,0.1,0,0.2-0.1c0.1-0.1,0.1-0.1,0.2-0.1c0.1-0.1,0.1-0.1,0.2-0.1c0.1,0,0.1,0,0.2,0
		c0.1,0,0.2,0,0.3,0.1c0.1,0,0.1,0,0.2,0.1c0.1,0,0.1,0,0.2,0.1c1,0.8,1.2,3.3,1.2,3.4c0,0,0,0,0,0.1l0,0c0,0,0,0-0.1,0.1
		c0,0,0,0,0,0c0,0,0,0,0,0c0,0,0,0-0.1,0l0,0l0,0L344.3,408.5z M342.5,405c-0.3,0-0.3,0.2-0.3,0.2c-0.1,0.6,1,2,1.9,2.7
		c0-0.3,0-0.5-0.1-0.8c-0.1-0.2-0.1-0.4-0.2-0.7c-0.1-0.2-0.2-0.4-0.3-0.6c-0.1-0.2-0.3-0.4-0.4-0.6c0-0.1,0-0.1-0.1-0.1
		s-0.1,0-0.1-0.1c-0.1,0-0.1,0-0.1,0C342.7,405,342.7,405,342.5,405L342.5,405z"/>
	<path id="Layer_00000145048932969945305430000011533305090516119938_" class="st15" d="M353.7,408.2h-7.9l-0.1-18.3h7.9
		L353.7,408.2z"/>
	<path id="Layer_00000127028094391185650590000005825104927790598026_" class="st15" d="M408.7,401.4l-7.6,1.4l-5.5-18l7.6-1.4
		L408.7,401.4z"/>
	<path id="Layer_00000100364717699086734220000016628671272871997852_" class="st17" d="M399.6,400.8l8.6-2c0.1,0,0.2,0,0.3,0
		c0.1,0,0.1,0,0.2,0c0.1,0.1,0.1,0.1,0.2,0.2s0.1,0.1,0.1,0.2l2.9,6.5c0.1,0.1,0.1,0.3,0.1,0.5c0,0.2-0.1,0.4-0.2,0.5
		c-0.1,0.2-0.2,0.3-0.3,0.4c-0.1,0.1-0.3,0.2-0.5,0.2c-3,0.7-4.5,0.9-8.3,1.8c-2.3,0.5-7.1,1.9-10.3,2.7c-3.3,0.7-4.3-2.4-3-3
		c5.6-2.8,7.5-5,9.1-7.2c0.1-0.1,0.1-0.2,0.2-0.3s0.2-0.1,0.3-0.2c0.1-0.1,0.2-0.1,0.3-0.2C399.4,400.8,399.5,400.8,399.6,400.8
		L399.6,400.8z"/>
	<path id="Layer_00000182530294531716583550000015059480655351508145_" class="st17" d="M345.9,407.3h8.6c0.1,0,0.1,0,0.2,0
		c0.1,0,0.1,0,0.2,0.1c0.1,0.1,0.1,0.1,0.2,0.2c0,0.1,0,0.1,0,0.2l1.3,7c0.1,0.2,0.1,0.4,0,0.5c-0.1,0.2-0.1,0.4-0.2,0.5
		c-0.1,0.1-0.3,0.2-0.5,0.3c-0.1,0.1-0.3,0.1-0.5,0.1c-3.1-0.1-7.6-0.2-11.5-0.2c-4.5,0-6.2,0.2-11.5,0.2c-3.3,0-4-3.3-2.7-3.6
		c6.3-1.3,9-1.5,14.4-4.7c0.2-0.1,0.4-0.2,0.5-0.3c0.1-0.1,0.3-0.1,0.5-0.2c0.1,0,0.3,0,0.5-0.1
		C345.5,407.3,345.7,407.3,345.9,407.3z"/>
	<path id="Layer_00000111190356754553951590000014507528477017716900_" class="st13" d="M388,139.4c7.4,5.2,9.6,18.5,9.6,18.5
		l-16.7,8.5c-0.7-1.3-1.3-2.7-1.9-4c-0.6-1.4-1.1-2.8-1.6-4.1c-0.5-1.4-1-2.8-1.4-4.2c-0.5-1.5-0.9-2.9-1.2-4.3
		C373,141.9,382.8,135.7,388,139.4z"/>
	<path id="Layer_00000152238024984247309040000015923490197368333469_" class="st19" d="M379.6,147.9l6.6,15.7l-5.3,2.8
		c-0.4-0.9-0.8-1.7-1.2-2.6c-0.4-0.8-0.8-1.6-1.1-2.5c-0.4-0.9-0.8-1.7-1.1-2.6s-0.6-1.7-0.9-2.6L379.6,147.9z"/>
	<path id="Layer_00000016075479688169869560000008780118949819917213_" class="st13" d="M338.9,174c0.1,8.8,0.6,19.8,1.9,33.4H383
		c0.5-6.2-2.1-35.5,4.2-64.7c0.1-0.5,0.1-1.1,0-1.6c-0.1-0.5-0.3-1-0.6-1.4c-0.3-0.5-0.6-0.8-1.1-1.1s-1-0.5-1.5-0.6
		c-0.8-0.1-1.6-0.2-2.5-0.3c-0.8-0.1-1.6-0.2-2.5-0.3c-0.8-0.1-1.6-0.2-2.5-0.3c-0.8-0.1-1.6-0.1-2.5-0.1c-1.5-0.1-3-0.2-4.5-0.2
		c-1.5-0.1-3-0.1-4.5-0.1c-1.5,0-2.9,0-4.4,0.1c-1.5,0-3,0.1-4.5,0.2c-0.6,0-1.2,0-1.8,0.1c-0.6,0.1-1.2,0.2-1.8,0.3
		c-0.6,0.1-1.2,0.1-1.8,0.2c-0.6,0.1-1.2,0.3-1.8,0.4c-0.9,0.1-1.7,0.4-2.5,0.9c-0.8,0.4-1.5,0.9-2.2,1.5c-0.7,0.7-1.2,1.4-1.7,2.1
		c-0.5,0.8-0.8,1.6-1,2.5c-0.3,1.3-0.6,2.7-0.9,4.1c-0.3,1.3-0.5,2.7-0.7,4.1c-0.2,1.3-0.3,2.7-0.4,4.1c-0.1,1.4-0.2,2.8-0.3,4.1
		C339,165.1,338.9,169.2,338.9,174L338.9,174z"/>
	<path id="Layer_00000067927958892621640320000014615260861273131454_" class="st19" d="M352.2,157.5c-2.8,2-8.1,3-13,3.4
		c0.1-1.3,0.2-2.6,0.3-3.7c1.3-0.7,2.6-1.3,3.8-1.9L352.2,157.5z"/>
	<g id="Layer_00000168809566841249180850000005904826701118845101_" class="st20">
		<path id="Layer_00000103240713755377250930000010393785442522572183_" d="M345.7,389.9v10.2h7.9v-10.2H345.7z"/>
		<path id="Layer_00000034068652551425499340000011244155123465930653_" d="M403.2,383.4l-7.6,1.4l2.8,9.3l7.6-1.4L403.2,383.4z"/>
	</g>
	<path id="Layer_00000097470101795695613800000005496248386784655547_" class="st15" d="M368,108.2c1.1,7.8,2.2,12.3-0.8,17.2
		c-0.9,1.6-2.3,2.9-3.9,3.7c-1.7,0.9-3.5,1.3-5.4,1.2c-1.8-0.1-3.6-0.7-5.2-1.7c-1.5-1.1-2.7-2.5-3.5-4.2c-3.1-6.5-4.4-18.1,2.3-23
		c1.5-1.1,3.2-1.8,5-2.1c1.8-0.2,3.6,0,5.2,0.7c1.7,0.7,3.2,1.9,4.3,3.3C367.1,104.7,367.8,106.4,368,108.2z"/>
	<path id="Layer_00000096758548774329715620000013422715652614108060_" class="st16" d="M351.8,113.9c-2.9-1.3-2.6-5.9-1.7-7.8
		c-3.4,1.1-8.3,1.8-9.2-1.7c-0.9-3.4,2.1-4.5,0.3-7.5c-1.8-2.9,4-6.1,6.7-2c2.7,4.2,9.4,2.3,13.8-1.6c3.1-2.9,7.8,0.8,5.9,4.6
		c0,0,9.5-0.6,7.6,5.8c-1.8,6.5-4.5,6.7-3.9,11.3c0.4,3.1,0.8,9.4-2.9,10.3C363.9,126.3,352.6,122.3,351.8,113.9L351.8,113.9z"/>
	<path id="Layer_00000014629769067177978320000006854957904150310534_" class="st19" d="M351.8,122.3c-0.9,0.6-1.8,1.3-2.7,2
		l0.1,0.1c0.2,0.5,0.4,0.9,0.7,1.4c0.3,0.4,0.7,0.8,1,1.2c0.3,0.4,0.7,0.7,1.1,1c0.4,0.3,0.8,0.6,1.3,0.9c0.5-0.5,0.8-2.4,1.9-2.3
		c3.2,0.1,9.3-1.3,10.3-4.9L351.8,122.3z"/>
	<path id="Layer_00000158023405826541543580000018126725458844349093_" class="st15" d="M354.3,113.8c0,0.4,0,0.8,0,1.3
		c0,0.4,0,0.8-0.1,1.3c-0.1,0.4-0.2,0.8-0.3,1.2c-0.1,0.5-0.2,0.9-0.4,1.3c-0.9,1.8-2.3,0.6-2.9-1.6c-0.5-2-0.6-5.4,0.7-6.4
		C352.6,109.9,354,111.5,354.3,113.8L354.3,113.8z"/>
	<path id="Layer_00000152948921570663883490000016510363204608023739_" class="st9" d="M355.8,207.4c0,0,6.6,60.3,10.6,82.9
		c4.5,24.8,27.4,102.4,27.4,102.4l14.1-3c0,0-15.7-72.6-17.9-97.1c-2.3-26.6-7-85.2-7-85.2L355.8,207.4z"/>
	<path id="Layer_00000170987083033609122880000012953388417976254397_" class="st17" d="M390.6,388l2.4,5.2l16-3.5l-1.1-4.8
		L390.6,388z"/>
	<path id="Layer_00000087396987907389228390000009867720534530156735_" class="st19" d="M360.6,228.9c10.3,2,7.7,40.7,5.7,60.5
		c-2.5-14-5.8-41-8-60.2c0.1-0.1,0.3-0.2,0.5-0.2c0.2-0.1,0.4-0.1,0.6-0.2c0.2,0,0.4,0,0.6,0S360.4,228.8,360.6,228.9L360.6,228.9z"
		/>
	<path id="Layer_00000009552467404801963170000013159933655427904410_" class="st9" d="M340.8,207.4c0,0-3.4,59-3.4,83.1
		c-0.1,25,5.5,107,5.5,107h13.3c0,0,3.6-80.5,5.2-105.1c1.7-26.8,7.1-85,7.1-85H340.8z"/>
	<path id="Layer_00000039837163389881658610000018208869648543957638_" class="st17" d="M340.5,392.2c-0.1,0,0.5,5.5,0.5,5.5h16.3
		l0.6-5L340.5,392.2z"/>
	<path id="Layer_00000068652219780338914960000002610959084546911914_" class="st15" d="M357.5,151.7c-1.6,0.2-2.9,0.3-4.4,0.3
		c-1.5,0.1-2.9,0.1-4.3,0.1c-2.9,0-5.8-0.2-8.7-0.5c-0.7-0.1-1.5-0.2-2.2-0.3c-0.7-0.1-1.5-0.2-2.2-0.3c-0.7-0.1-1.4-0.3-2.1-0.4
		c-0.7-0.2-1.5-0.4-2.2-0.5c-0.7-0.2-1.5-0.4-2.3-0.6c-0.7-0.2-1.5-0.4-2.2-0.7s-1.5-0.6-2.2-0.9c-0.7-0.3-1.4-0.6-2.1-0.9l-0.4-0.2
		c-0.6-0.3-1.1-0.8-1.6-1.3c-0.5-0.5-0.8-1-1-1.7c-0.2-0.7-0.3-1.3-0.3-2c0.1-0.7,0.3-1.4,0.6-2c0-0.1,0-0.1,0.1-0.2
		c0-0.1,0-0.1,0.1-0.2s0.1-0.1,0.1-0.2c0.1-0.1,0.1-0.1,0.2-0.2c0.3-0.4,0.6-0.8,0.9-1.2c0.3-0.4,0.7-0.8,1-1.1
		c0.3-0.3,0.7-0.7,1-1.1c0.3-0.3,0.7-0.7,1.1-1c1.4-1.2,2.7-2.2,4.1-3.2c2.7-2.1,5.5-3.9,8.3-5.7c2.8-1.7,5.6-3.4,8.5-5
		c2.8-1.6,5.7-3,8.7-4.4c0.7-0.3,1.4-0.3,2.1-0.1c0.7,0.2,1.2,0.7,1.6,1.3c0.4,0.6,0.5,1.3,0.4,2s-0.5,1.4-1,1.8
		c-2.5,2-5.1,3.9-7.6,5.8c-2.5,2-5,3.9-7.5,5.9s-4.9,4-7.1,6c-1.2,1-2.3,2-3.2,3.1c-0.2,0.2-0.4,0.4-0.7,0.7
		c-0.2,0.2-0.4,0.4-0.6,0.7c-0.2,0.2-0.4,0.4-0.5,0.7c-0.2,0.3-0.4,0.5-0.6,0.8l-2.2-8c0.5,0.2,1.1,0.4,1.7,0.5
		c0.5,0.2,1.1,0.4,1.6,0.5c0.6,0.2,1.2,0.3,1.7,0.4c0.6,0.1,1.2,0.3,1.7,0.4c0.6,0.1,1.2,0.2,1.9,0.3c0.6,0.1,1.2,0.1,1.8,0.2
		c0.7,0.1,1.3,0.1,1.9,0.2c0.6,0.1,1.2,0.1,1.8,0.1c2.5,0.2,5.1,0.3,7.7,0.3c1.3,0,2.6,0,3.9,0c1.2,0,2.6-0.1,3.7-0.2h0.1
		c1.6,0,3,0.6,4.1,1.6s1.8,2.5,1.9,4s-0.3,3-1.3,4.1C360.4,150.6,359.1,151.4,357.5,151.7L357.5,151.7z"/>
	<path id="Layer_00000034797661108296266580000000514447951657962118_" class="st15" d="M363.1,114.7l-5,1.1c0,0-6.7-0.8-8.2,4.2
		l4,3.4l6.1,1c0.3,0.1,0.5,0.1,0.7,0.1c0.3,0,0.5,0,0.8-0.1c0.2,0,0.4-0.1,0.7-0.2c0.2-0.1,0.4-0.1,0.6-0.2l1.6-0.9
		c0.2-0.1,0.4-0.2,0.5-0.3s0.3-0.3,0.4-0.4c0.1-0.2,0.2-0.4,0.3-0.6c0.1-0.1,0.1-0.3,0.1-0.5l0.4-4c0-0.4-0.1-0.8-0.2-1.2
		c-0.1-0.3-0.4-0.6-0.7-0.9c-0.3-0.2-0.6-0.4-1-0.5C363.9,114.6,363.5,114.6,363.1,114.7L363.1,114.7z"/>
	<path id="Layer_00000080892359320120483390000014480781526474036158_" class="st13" d="M353.4,157.6c-8.4,2.3-18-0.6-18-0.6
		l3.5-18.8c0,0,8.3-0.8,13.6-0.9C365.9,137,368.5,153.4,353.4,157.6z"/>
</g>
</svg>
