<?xml version="1.0" encoding="utf-8"?>
<!-- Generator: Adobe Illustrator 27.0.0, SVG Export Plug-In . SVG Version: 6.00 Build 0)  -->
<svg version="1.1" id="Layer_1" xmlns="http://www.w3.org/2000/svg" xmlns:xlink="http://www.w3.org/1999/xlink" x="0px" y="0px"
	 viewBox="0 0 500 500" style="enable-background:new 0 0 500 500;" xml:space="preserve">
<style type="text/css">
	.st0{fill:#0DA487;}
	.st1{fill:#809C73;}
	.st2{fill:#516845;}
	.st3{fill:#E3C558;}
	.st4{fill:#637F54;}
	.st5{opacity:0.1;}
	.st6{fill:#912B38;}
	.st7{fill:#263238;}
	.st8{fill:#EBEBEB;}
	.st9{fill:#455A64;}
	.st10{fill:#D3766A;}
	.st11{fill:#D26A58;}
	.st12{fill:#FFFFFF;}
	.st13{opacity:0.1;fill:#030402;enable-background:new    ;}
	.st14{opacity:0.1;enable-background:new    ;}
	.st15{opacity:0.2;fill:#263238;enable-background:new    ;}
	.st16{opacity:0.2;enable-background:new    ;}
	.st17{fill:#6B4E45;}
</style>
<g id="freepik--Boxes--inject-7">
	<rect x="239" y="379" class="st0" width="99.7" height="82.4"/>
	<rect x="239" y="379" class="st1" width="99.7" height="82.4"/>
	<rect x="338.7" y="379.1" class="st0" width="39.5" height="82.4"/>
	<rect x="338.7" y="379.1" class="st2" width="39.5" height="82.4"/>
	<path class="st3" d="M375.5,455.7c-2.9-5.9-5.8-11.7-8.7-17.6l-8.6-17.7l-8.5-17.8c-2.8-5.9-5.6-11.9-8.3-17.9
		c2.9,5.9,5.8,11.7,8.7,17.6l8.6,17.7l8.5,17.8C370,443.8,372.7,449.8,375.5,455.7z"/>
	<path class="st3" d="M375.5,384.7c-2.7,6-5.5,12-8.3,17.9l-8.5,17.8l-8.6,17.7c-2.9,5.9-5.8,11.8-8.7,17.6c2.8-6,5.5-12,8.3-17.9
		l8.5-17.8l8.6-17.7C369.7,396.5,372.6,390.6,375.5,384.7z"/>
	<polygon class="st3" points="295.9,396.9 294.4,396.9 293.2,396.9 292.5,395.5 291.5,396.9 290.2,394 289,396.9 285.6,396.9 
		284,396.9 283.4,395 282.9,396.9 281.8,396.9 281.8,379.1 295.9,379.1 	"/>
	<rect x="270.4" y="296.7" class="st1" width="74.4" height="82.4"/>
	<rect x="344.7" y="296.7" class="st0" width="38.4" height="82.4"/>
	<rect x="344.7" y="296.7" class="st4" width="38.4" height="82.4"/>
	<g class="st5">
		<path d="M339.3,373.4c-5.5-5.9-10.9-11.7-16.2-17.6L307,338l-15.8-17.8c-5.2-5.9-10.4-11.9-15.6-17.9c5.5,5.9,10.9,11.7,16.2,17.6
			l16,17.7l15.8,17.8C328.9,361.4,334.1,367.4,339.3,373.4z"/>
		<path d="M339.3,302.4c-5.1,6-10.3,12-15.6,17.9L307.9,338l-16,17.7c-5.3,5.9-10.7,11.8-16.2,17.6c5.1-6,10.3-12,15.6-17.9
			l15.8-17.8l16-17.7C328.4,314.1,333.8,308.2,339.3,302.4z"/>
	</g>
	<rect x="371" y="365.1" class="st3" width="6.7" height="9.5"/>
</g>
<g id="freepik--Floor--inject-7">
	<polygon class="st6" points="41.5,461.5 93.6,461.2 145.7,461.1 250,461 354.3,461.1 406.4,461.2 458.5,461.5 406.4,461.7 
		354.3,461.8 250,462 145.7,461.8 93.6,461.7 	"/>
</g>
<g id="freepik--Fly--inject-7">
	<path class="st7" d="M289.7,177.8c-0.6-0.4-1.1-0.7-1.7-1.1l0.4-0.6l1.7,1.1L289.7,177.8z"/>
	<path class="st7" d="M265.3,278h-0.7v-0.8c1.3,0,2.7,0,4-0.1l0.1,0.8C267.6,277.9,266.4,278,265.3,278z M272.7,277.2l-0.2-0.7
		c1.3-0.3,2.6-0.7,3.8-1.2l0.3,0.7C275.4,276.5,274.1,276.9,272.7,277.2L272.7,277.2z M280.4,274.2l-0.4-0.6
		c1.1-0.7,2.2-1.4,3.3-2.3l0.5,0.6C282.7,272.7,281.5,273.5,280.4,274.2L280.4,274.2z M286.7,269l-0.5-0.5c0.9-1,1.7-2,2.5-3.1
		l0.6,0.4C288.5,266.9,287.6,268,286.7,269L286.7,269z M291.3,262.2l-0.7-0.3c0.6-1.2,1-2.5,1.4-3.7l0.7,0.2
		C292.3,259.7,291.8,261,291.3,262.2L291.3,262.2z M293.4,254.3l-0.8-0.1c0-0.5,0.1-1.1,0.1-1.6c0-0.7,0-1.5-0.1-2.2
		c-0.8-0.1-1.6-0.1-2.3-0.3l0.1-0.7c1.2,0.2,2.5,0.3,3.7,0.3h0.3v0.8h-0.3h-0.8c0.1,0.7,0.1,1.5,0.1,2.2
		C293.5,253.1,293.5,253.7,293.4,254.3L293.4,254.3z M298.5,249.9l-0.2-0.7c1.3-0.3,2.5-0.8,3.7-1.4l0.3,0.7
		C301.1,249.1,299.8,249.6,298.5,249.9L298.5,249.9z M286.3,249c-1.3-0.5-2.5-1-3.8-1.7l0.4-0.6c1.2,0.6,2.4,1.2,3.6,1.6L286.3,249z
		 M291.7,246.4c-0.4-1.3-1-2.4-1.7-3.6l0.6-0.4c0.7,1.2,1.3,2.4,1.8,3.7L291.7,246.4z M305.8,246.2l-0.5-0.6c1-0.9,1.9-1.8,2.8-2.9
		l0.6,0.5C307.8,244.3,306.9,245.3,305.8,246.2L305.8,246.2z M279.2,245l-0.2-0.2c-1-0.9-1.8-1.9-2.3-3.1l0.7-0.3
		c0.5,1.1,1.2,2.1,2.1,2.9l0.2,0.2L279.2,245z M311,239.9l-0.6-0.4c0.7-1.2,1.4-2.4,1.9-3.5l0.7,0.3
		C312.4,237.5,311.7,238.7,311,239.9z M287.5,239.7c-0.9-0.9-1.9-1.7-3-2.3l-0.1-0.1l0.4-0.6l0.2,0.1c1.1,0.7,2.2,1.5,3.1,2.4
		L287.5,239.7z M277.6,237.8l-0.6-0.4c0.9-1.2,2.3-1.9,3.8-1.9v0.8C279.5,236.2,278.3,236.8,277.6,237.8L277.6,237.8z M314.6,232.5
		l-0.7-0.3c0.5-1.3,0.9-2.5,1.2-3.8l0.7,0.2C315.4,230,315,231.3,314.6,232.5L314.6,232.5z M316.6,224.6l-0.8-0.1
		c0.2-1.3,0.3-2.7,0.3-4h0.8C316.8,221.9,316.7,223.3,316.6,224.6L316.6,224.6z M316,216.5c-0.1-1.3-0.3-2.7-0.6-4l0.7-0.1
		c0.3,1.3,0.5,2.7,0.6,4.1L316,216.5z M314.4,208.7c-0.4-1.3-0.8-2.5-1.4-3.8l0.7-0.3c0.5,1.3,1,2.6,1.4,3.9L314.4,208.7z
		 M311.4,201.2c-0.6-1.2-1.3-2.4-2-3.5l0.6-0.4c0.7,1.2,1.4,2.4,2,3.6L311.4,201.2z M307.2,194.3c-0.8-1.1-1.6-2.1-2.5-3.2l0.6-0.5
		c0.9,1.1,1.7,2.1,2.5,3.2L307.2,194.3z M302.1,188.1c-0.9-1-1.9-1.9-2.9-2.9l0.5-0.6c1,0.9,2,1.9,2.9,2.9L302.1,188.1z
		 M296.2,182.6c-1-0.9-2.1-1.7-3.2-2.5l0.4-0.6c1.1,0.8,2.2,1.6,3.2,2.5L296.2,182.6z"/>
	<path class="st7" d="M260.4,277.6c-0.7-0.1-1.3-0.2-2-0.4l0.2-0.7c0,0,0.7,0.2,1.9,0.4L260.4,277.6z"/>
	<path class="st7" d="M250.3,276.1c-0.5,4,7.7,6.2,8.3,1S250.8,272.1,250.3,276.1z"/>
	<path class="st8" d="M261,282.8c-0.8,1.5-3.5,1.7-6.2-0.2c-1.9-1.4-3.5-3.2-4.7-5.3c2.4-0.2,4.7,0,7,0.6
		C260.4,279,261.8,281.2,261,282.8z"/>
	<path class="st7" d="M250.1,277.3c1.6,0.7,3.1,1.5,4.7,2.2s3.1,1.6,4.6,2.4c-1.6-0.7-3.1-1.5-4.7-2.2S251.6,278.1,250.1,277.3z"/>
	<path class="st7" d="M257.4,282.7c-0.4-0.4-0.7-0.9-1-1.3c-0.3-0.5-0.6-0.9-0.8-1.4c0.4,0.4,0.7,0.9,1,1.3
		C256.8,281.8,257.1,282.3,257.4,282.7z"/>
	<path class="st7" d="M254,279.2c0.6-0.1,1.1-0.3,1.7-0.3c0.6-0.1,1.1-0.1,1.7-0.1C256.3,279,255.1,279.2,254,279.2z"/>
	<path class="st7" d="M253.1,279.9c-0.3-0.4-0.6-0.9-0.7-1.5C252.8,278.9,253,279.4,253.1,279.9z"/>
	<path class="st8" d="M262.3,272.3c-0.4-1.6-3-2.5-6.1-1.2c-2.2,1-4.1,2.3-5.8,4c2.2,0.8,4.6,1.1,7,1
		C260.8,275.8,262.7,274,262.3,272.3z"/>
	<path class="st7" d="M250.4,275.1c1.7-0.3,3.4-0.7,5.1-1.1s3.4-0.8,5-1.3c-1.7,0.3-3.4,0.7-5.1,1.1S252.1,274.6,250.4,275.1z"/>
	<path class="st7" d="M258.8,271.5c-0.4,0.3-0.9,0.6-1.2,1c-0.4,0.4-0.8,0.8-1.1,1.2c0.4-0.3,0.9-0.6,1.2-1
		C258,272.3,258.4,271.9,258.8,271.5z"/>
	<path class="st7" d="M254.6,274.1c1,0.5,2.1,0.9,3.2,1.2C256.8,274.8,255.8,274.4,254.6,274.1z"/>
	<path class="st7" d="M254,273.3c-0.2,0.2-0.4,0.4-0.6,0.6c-0.2,0.2-0.3,0.4-0.4,0.7c0.2-0.2,0.4-0.4,0.6-0.6
		C253.7,273.8,253.9,273.5,254,273.3z"/>
	<path class="st9" d="M250.3,276.1c0.8,0.1,1.4,0.8,1.3,1.6s-0.8,1.4-1.6,1.3c-0.8-0.1-1.4-0.8-1.3-1.6
		C248.8,276.6,249.5,276.1,250.3,276.1z"/>
	<path class="st9" d="M250.6,273.2c0.8,0.1,1.4,0.8,1.3,1.6s-0.8,1.4-1.6,1.3s-1.4-0.8-1.3-1.6S249.8,273.1,250.6,273.2L250.6,273.2
		z"/>
</g>
<g id="freepik--Character--inject-7">
	<path class="st10" d="M160,370.3c0,0-21.3,42.7-21.3,42.7c-1.8,8.8-3.1,16.6-3.5,20.7c0,0,0,0,0,0.1c-0.2,0.9-0.1,1.9,0.1,2.9
		c0,0,0,0,0,0.1c2.3,2.3,72.3,18.4,75,18.2s2.1-7.8-0.1-10.6s-26.3-21-26.3-21l20.8-42.8L160,370.3z"/>
	<path class="st8" d="M209.2,454.9c-2.6,0.3-71.6-15.9-73.9-18.2c0,0,0,0,0-0.1c-0.3-0.9-0.3-1.9-0.1-2.9c0,0,0,0,0-0.1
		c0.3-4.1,1.7-11.9,3.5-20.7l5.1-10.2l44.2,12.1l-4.1,8.4c0,0,23,18.2,25.2,21S211.9,454.6,209.2,454.9z"/>
	<path class="st11" d="M210.2,453.7c-2.7,0.2-72.9-17.7-75.1-20.1c-0.9-0.9,1.1-11.3,3.9-23.8l0.1-0.4l45.4,11l-0.2,0.8
		c0,0,23.8,18.9,26,21.8S212.9,453.5,210.2,453.7z"/>
	<path class="st12" d="M210.1,450.8c-11.8-3.3-59.5-15.5-71.4-17.9c-0.1,0-0.1,0,0,0.1c11.6,3.5,59.4,15.4,71.4,18
		C210.3,451.1,210.3,450.9,210.1,450.8z"/>
	<path class="st12" d="M188.1,422.4c-4.4-2.1-10.3-2.8-14.7-0.4c-0.2,0.1,0,0.3,0.1,0.3c4.8-0.3,9.7-0.1,14.4,0.6
		c0.2,0,0.3-0.1,0.3-0.3C188.2,422.6,188.2,422.5,188.1,422.4z"/>
	<path class="st12" d="M190.9,425.3c-4.4-2-10.3-2.8-14.7-0.4c-0.2,0.1,0,0.3,0.1,0.3c4.8-0.3,9.7-0.1,14.4,0.6
		c0.2,0,0.3-0.1,0.3-0.3C191.1,425.5,191,425.4,190.9,425.3z"/>
	<path class="st12" d="M193.8,428.2c-4.4-2.1-10.3-2.8-14.7-0.4c-0.2,0.1,0,0.3,0.1,0.3c4.8-0.3,9.6-0.1,14.4,0.6
		c0.2,0,0.3-0.1,0.3-0.3C193.9,428.4,193.9,428.3,193.8,428.2z"/>
	<path class="st3" d="M211.6,450.4c1.1,0.8,0.1,6-0.9,6.1s-77.5-19.8-78.7-20.4s0.4-5.2,2-5S211.6,450.4,211.6,450.4z"/>
	<path class="st12" d="M148.7,420.3c-4.4-3.8-10.4,3.1-6,6.9S153.1,424.2,148.7,420.3z"/>
	<path class="st6" d="M143.9,399.4l51.2,12.9c0,0,47.8-86.2,46.7-108.1c-1.5-30.2-37-123.1-37-123.1h-42.5
		c0,0,28.2,100.4,28.6,117.3C191.2,307.3,143.9,399.4,143.9,399.4z"/>
	<path class="st7" d="M197.4,401.9c-2.7-1.1-27.1-8.1-45.3-12c-0.1,0-0.1,0.1-0.1,0.1c0,0,0,0.1,0.1,0.1c5.7,2,41.9,11.5,45.3,12
		C197.4,402.1,197.5,402,197.4,401.9z"/>
	<path class="st7" d="M194.5,276.9c-3.4-14.2-7-28.3-10.8-42.4s-7.9-28.2-12.3-42.2c-0.5-1.7-1.1-3.4-1.7-5.1c0-0.1-0.2-0.2-0.3-0.1
		s-0.2,0.2-0.1,0.3c4,13.9,8,27.8,11.8,41.7s7.4,27.9,10.8,42c0.9,3.5,1.7,7,2.5,10.4c0.9,3.6,1.7,7.2,2.2,10.9
		c0.4,3.5,0.2,7-0.7,10.5c-1,3.4-2.2,6.6-3.8,9.7c-6.1,13.3-12.2,26.6-18.4,39.9c-6.1,13.3-7.1,16.4-13,29.8c-0.7,1.7-1.5,3.3-2.2,5
		c0,0.1,0.1,0.2,0.2,0.1c6.7-13.2,7.7-16.4,14-29.8s12.5-27,18.7-40.5c2.8-6.1,6.1-12.3,6.5-19.1
		C198.4,290.8,196.1,283.7,194.5,276.9z"/>
	<path class="st10" d="M196.8,387.2l1.6,47c0.3,9,0.7,16.9,1.2,20.9c0,0,0,0,0,0.1c0,1,0.3,1.9,0.7,2.8l0.1,0.1
		c2.7,1.7,74.6,1.7,77.1,0.8s0.3-8-2.5-10.3S244.8,434,244.8,434l-2.1-47L196.8,387.2z"/>
	<path class="st8" d="M198.1,424.6c0,0,0.3,9.6,0.3,9.6c0.3,9,0.7,16.9,1.2,20.9c0,0,0,0,0,0.1c0.1,0.9,0.4,1.9,0.7,2.8l0.1,0.1
		c2.7,1.7,74.6,1.7,77.1,0.8s0.3-8-2.5-10.3s-30.3-14.5-30.3-14.5l-0.2-9.8L198.1,424.6z"/>
	<path class="st11" d="M277.7,458.8c-2.5,0.8-75-0.3-77.7-2.1c-1-0.7-1.5-11.2-1.7-24v-0.4l46.8,0.2v0.8c0,0,27.6,12.8,30.3,15.1
		S280.2,458,277.7,458.8z"/>
	<path class="st12" d="M276.9,456c-12.2-0.5-61.5-1.3-73.6-0.9c-0.1,0-0.1,0.1,0,0.1c12.1,0.8,61.4,1.2,73.6,1
		C277.2,456.1,277.2,456,276.9,456z"/>
	<path class="st12" d="M248.9,433.5c-4.8-1-10.7-0.3-14.4,3c-0.1,0.1,0,0.3,0.2,0.3c4.6-1.4,9.4-2.3,14.2-2.7
		c0.2-0.1,0.2-0.2,0.2-0.4C249.1,433.6,249,433.5,248.9,433.5z"/>
	<path class="st12" d="M252.4,435.6c-4.8-1-10.7-0.3-14.4,3c-0.1,0.1,0,0.3,0.2,0.3c4.6-1.4,9.4-2.3,14.2-2.7c0.2,0,0.3-0.2,0.3-0.3
		C252.6,435.7,252.5,435.6,252.4,435.6z"/>
	<path class="st12" d="M255.8,437.7c-4.8-1-10.7-0.3-14.4,3c-0.1,0.1,0,0.3,0.2,0.3c4.6-1.4,9.4-2.3,14.2-2.7
		c0.2-0.1,0.2-0.2,0.2-0.4C255.9,437.8,255.9,437.8,255.8,437.7z"/>
	<path class="st3" d="M278.7,454.8c1.3,0.5,1.1,6.2,0.2,6.6s-80-1.2-81.3-1.6s-0.8-5.1,0.8-5.4S278.7,454.8,278.7,454.8z"/>
	<path class="st12" d="M210.1,440.5c-5.2-2.7-9.4,5.4-4.2,8.1S215.3,443.3,210.1,440.5z"/>
	<path class="st6" d="M204.4,181L204.4,181c-0.2,0.9-10.8,42.7-12.1,43.5c-1.5,0.9,38.5,54.7,43.2,81.1c3,16.9,10,115.3,10,115.3
		h-51c0,0-5-83.6-6.7-111.2c-0.6-10.7-40.8-60.1-44.6-93.1c-1.2-10.4,6.3-35.8,6.3-35.8L204.4,181z"/>
	<path class="st7" d="M193.2,381.2c-0.6-13.9-1.1-27.7-2.2-41.6c-0.6-7.8-1.7-15.4-2.5-23.2c0-0.4-0.4-0.5-0.4-0.1
		c0.4,13.9,1.5,27.7,2.2,41.6s1.4,17.1,2.2,31c0.4,7.8,0.8,15.7,1.4,23.5c0,0.1,0.1,0.1,0.1,0.1c0,0,0.1,0,0.1-0.1
		C194.4,398.4,193.8,395.1,193.2,381.2z"/>
	<path class="st7" d="M235.5,306.3c-0.4-3.7-1.1-7.3-2.1-10.8c-1.1-3.4-2.4-6.8-4.1-10c-3.5-6.7-7.4-13.1-11.2-19.6
		s-7.8-13.1-11.8-19.5c-2.3-3.6-4.5-7.3-6.8-10.9c-2.3-3.6-4.8-7.2-7.2-10.8c0-0.1-0.1-0.1-0.2,0s-0.1,0.1,0,0.2l0,0
		c3.9,6.5,7.8,13.1,11.7,19.6s7.7,13.1,11.6,19.7s7.6,12.9,11.2,19.5c1.8,3.1,3.3,6.4,4.6,9.7c1.2,3.5,2,7.1,2.6,10.7
		c1.4,8.5,2.5,17,4.2,25.4c0,0.1,0.1,0.1,0.1,0.1c0,0,0.1,0,0.1-0.1C237.5,321.7,236.6,313.9,235.5,306.3z"/>
	<path class="st7" d="M241,412.2c-2.9-0.4-25.1-1.1-43.7-0.4c-0.1,0-0.1,0.2,0,0.2c6.1,0.5,40.3,0.8,43.7,0.4
		C241.1,412.4,241.1,412.2,241,412.2z"/>
	<path class="st7" d="M198.9,221.7c-5.2,1.9-10.2,4.2-15,7c-0.1,0-0.1,0.1-0.1,0.2c0,0.1,0.1,0.1,0.2,0.1c5.1-2.2,10.2-4.3,15.2-6.7
		c0.2-0.1,0.2-0.3,0.1-0.5C199.3,221.6,199.1,221.6,198.9,221.7z"/>
	<path class="st7" d="M200.4,187c0-0.2-0.3-0.2-0.3,0c0,5.7-0.3,11.3-0.9,16.9c-0.2,2.6-2.3,17-6.9,16c-0.8-0.2-1.1-0.9-1.3-2.1
		c0-1.5,0.2-3,0.6-4.4c0.5-3,0.9-6,1.2-9.1c0.5-5.7,0.5-11.4-0.2-17.1c0-0.1-0.1-0.1-0.2-0.1c-0.1,0-0.1,0.1-0.1,0.1
		c0.1,7.9-0.3,15.7-1.4,23.5c-0.6,3.8-2.5,9.4,1.5,10s6.6-8.9,7.1-11.5C200.9,202,201.1,194.5,200.4,187z"/>
	<path class="st7" d="M192.5,220.2c-0.4,1-0.7,2-1,3c-0.3,0.8-0.4,1.6-0.4,2.4c0,0.1,0.1,0.2,0.2,0.1c0,0,0.1,0,0.1-0.1
		c0.5-0.7,0.8-1.5,1.1-2.4c0.4-0.9,0.7-1.8,1-2.8c0.1-0.3,0-0.5-0.3-0.6S192.6,220,192.5,220.2z"/>
	<path class="st7" d="M194.7,323.2c-0.5-7.1-0.4-14.6-3.5-21.2c-1.6-3.2-3.5-6.3-5.5-9.2c-2.1-3.2-4.1-6.3-6.1-9.5
		c-8-12.8-15.7-25.8-22.8-39.1c-3.4-6.4-6.5-13.1-8.2-20.2c-1.7-7.5-2-15.2-0.9-22.8c0.2-1.9,0.5-3.8,0.8-5.6c0-0.1,0-0.1-0.1-0.1
		c0,0-0.1,0-0.1,0.1c-1.6,7.2-2.2,14.6-1.7,22c0.8,7.1,2.8,13.9,5.9,20.3c3.1,6.7,6.8,13.2,10.4,19.6c3.8,6.7,7.6,13.2,11.6,19.7
		c4,6.5,8.1,12.8,12.2,19.1c2.1,3,3.7,6.3,4.9,9.8c0.9,3.6,1.4,7.4,1.6,11.1c1,15.7,5,68.1,6.4,83.7c0.2,2,0.4,4,0.5,6
		c0,0.1,0,0.2,0.1,0.2c0.1,0,0.2,0,0.2-0.1c0,0,0,0,0-0.1C199.8,391.1,195.7,338.9,194.7,323.2z"/>
	<path class="st7" d="M170.2,194.8c0-0.1-0.2-0.1-0.2,0c-0.1,4.4,0,8.9-1.7,13c-1.5,3.8-4.6,6.4-8.1,8.4c-2,1.1-4.1,2.2-6.2,3.1
		c-0.1,0.1-0.1,0.3,0.1,0.3c4-1.3,8.1-2.7,11.5-5.4c3.6-2.9,5.1-7.1,5.3-11.6C170.9,200,170.7,197.4,170.2,194.8z"/>
	<path class="st10" d="M192.4,123.6c5.7,17.6,21.2,47.5,26.7,51.1c4.9,3.2,27.9-0.4,38-2.8c3.8-0.9-4.7-29.6-8.7-28.5
		c-4.8,1.3-19.1,4.5-20.2,3.7s-15.5-18.6-25.7-29.1C193.1,108.4,190.2,116.9,192.4,123.6z"/>
	<path class="st10" d="M254.9,172.1c1.9-0.2,18.3-1,25.8-5.1c4-2.2,14.2-9.4,13.2-11.9c-0.9-2.4-4.2-1.1-4.2-1.1s4.5-3.3,3.2-6.5
		s-6.8-0.8-6.8-0.8s4.4-3.7,2.8-6.9s-6.6,0.2-6.6,0.2s4.2-3.2,1.8-5.2c-2.9-2.5-9.9,4.3-14.6,5.9c-1.1,0.4-22.4,5.7-22.4,5.7
		L254.9,172.1z"/>
	<path class="st7" d="M282.1,139.9c-5.2,4.9-8.3,6.2-15.2,7.6c-0.1,0-0.1,0.2,0,0.2c6.9-0.8,11-1.8,15.5-7.6
		C282.5,139.9,282.3,139.7,282.1,139.9z"/>
	<path class="st7" d="M285.9,146.5c-5.8,4.7-9.2,6.1-16.4,8.1c-0.1,0-0.1,0.2,0,0.2c7.2-1.4,11.3-2.5,16.5-7.9
		C286.3,146.6,286.1,146.3,285.9,146.5z"/>
	<path class="st7" d="M289.2,154.1c-6,4.1-9.6,5.8-16.8,6.9c-0.1,0-0.1,0.1-0.1,0.1c0,0.1,0.1,0.1,0.1,0.1c7.4-0.4,12-2.4,16.9-6.9
		C289.7,154,289.6,153.8,289.2,154.1z"/>
	<path class="st10" d="M241.5,147.3c0,0,5.9-6.7,9.2-9.1s18.7-6.8,19.8-3.5c1.5,4.2-6.9,8.5-11.3,10.1c0,0,3.4,9.8-2,14.2
		S241.5,147.3,241.5,147.3z"/>
	<path class="st7" d="M270.5,136c-1.5,4.8-7.4,6.5-11.5,8.3c-0.2,0.1-0.3,0.3-0.2,0.6c0,0,0,0.1,0.1,0.1c1.2,4.2,1.6,10.5-1.4,14
		c-0.1,0.1,0,0.2,0.1,0.1c3.7-3.4,3.8-9.6,2.2-14.1C264.2,143.3,270,141.3,270.5,136C270.6,136,270.6,136,270.5,136z"/>
	<path class="st3" d="M254.9,177l-7.5-34.3l-18.7,3.4c-7.4-8.4-22.1-25.3-28-30.3c-7-5.9-11.6-1.5-9,7.5
		c5.8,20.6,22.9,50.8,27.3,53.6C225.5,181,254.9,177,254.9,177z"/>
	<path class="st13" d="M228.2,156.5c0.9,0.2,1.9,0.3,2.8,0.3c2,0.3,2.9,3.2,1.1,4.3c-1.9,1.2-4.3,1.4-6.4,0.6c-2-0.8-3.7-2.7-3.3-5
		c0.2-1.4,1.5-2.3,2.9-2c0.4,0.1,0.8,0.2,1.1,0.5C226.9,155.7,227.6,156.1,228.2,156.5z M223.1,148.3c-0.7,3.4,4.5,6.3,7.2,4.5
		c0.8-0.6,1-1.7,0.4-2.5c-0.1-0.1-0.2-0.2-0.3-0.3c-0.8-0.6-1.4-0.7-2.1-1.3c-0.2-0.2-0.5-0.4-0.6-0.7c-0.4-0.5-0.9-1-1.5-1.3
		c-1.1-0.5-2.4,0-2.9,1.2C223.1,148,223.1,148.2,223.1,148.3z M214.7,148.5c-1.1,1.4-0.3,3.5,0.7,4.8c0.9,1.3,2.4,2,3.9,1.9
		c0.8-0.1,1.4-0.9,1.2-1.6c0-0.4-0.2-0.7-0.5-0.9c-0.6-0.5-1.1-1.1-1.4-1.7c-0.5-1.1-0.8-2.4-2-2.9
		C215.9,147.8,215.2,147.9,214.7,148.5z M236.8,170.8c-1.4,2.9,2.9,6.1,5.5,5.5c0.9-0.2,1.7-1.3,0.9-2.1c-0.6-0.7-1.4-1.2-1.9-1.9
		c-0.7-0.9-1.1-1.9-2.2-2.4C238.2,169.5,237.2,169.9,236.8,170.8L236.8,170.8z M196.5,135.8c-0.2-0.5-0.6-0.9-1-1.2
		c0.6,1.4,1.1,2.9,1.8,4.3C197.3,137.8,197.1,136.7,196.5,135.8z M202.1,132.8c-0.2-2.5-1.2-4.8-2.8-6.7c-1.2-1.6-3.3-4-5.5-3.5
		c-0.5,0.2-0.8,0.6-0.8,1.1c-0.1,1.7,1.8,3.5,2.6,4.9c1,1.7,1.8,3.6,2.9,5.3c0.6,0.9,1.8,1.1,2.7,0.6
		C201.8,134,202.1,133.4,202.1,132.8L202.1,132.8z M201.5,143.6c0.8,0,1.5-0.6,1.7-1.4c0.2-0.8,0.1-1.6-0.1-2.3
		c-0.1-0.7-0.5-1.4-1-1.9c-0.6-0.5-1.5-0.5-2,0.1c-0.2,0.2-0.3,0.4-0.3,0.6c-0.1,0.6-0.1,1.2,0,1.8c0,0.2,0,0.5,0,0.8
		c0,0.4,0,0.8,0.1,1.1C200,143,200.7,143.5,201.5,143.6L201.5,143.6z"/>
	<path class="st7" d="M248.3,174c-0.9-2-3-10.9-3.5-13.1s-2.2-11.1-2.7-13.4c0-0.1,0.1-0.2,0.2-0.1c0.5,2.2,2.9,11.1,3.5,13.3
		s2.5,11.1,2.7,13.3C248.5,174,248.4,174,248.3,174C248.4,174.1,248.3,174,248.3,174z"/>
	<path class="st14" d="M231,178.7c-5.2,0-9.9-0.5-12-1.9c-4.5-2.9-21.5-33-27.4-53.6c-1.5-5.2-0.6-8.8,1.8-9.9L231,178.7z"/>
	<path class="st3" d="M146.4,185.7c0.1,0.2,62.5,8.2,63.2,7.6c0.4-1.7,0.6-3.5,0.8-5.3c0,0-5.7-67.9-8.7-71.9
		c-2.6-3.5-10.4-6-15.8-3.7c-11.2,4.8-38.1,65.5-37.8,68C148,180.4,146.2,185.5,146.4,185.7z"/>
	<path class="st13" d="M168.9,177.4c1,0.5,2,0.8,3,1.1c2.1,0.8,2.3,4.3,0,5c-2.4,0.8-5.1,0.3-7.2-1.1c-2-1.4-3.3-4-2.2-6.3
		c0.6-1.4,2.3-2.1,3.7-1.4c0.4,0.2,0.8,0.5,1.1,0.8C167.8,176.1,168.1,177,168.9,177.4z M165.5,167.1c-1.7,3.5,3.2,8.1,6.7,6.9
		c1-0.4,1.5-1.6,1.1-2.6c-0.1-0.2-0.2-0.3-0.3-0.5c-0.7-0.9-1.4-1.2-2-2c-0.2-0.3-0.4-0.6-0.5-0.9c-0.3-0.7-0.7-1.3-1.3-1.9
		C168,165,166.1,165.8,165.5,167.1z M159.7,163.4c-1.9,0.7-2.4,3.2-2.2,5c0.1,1.8,1.1,3.4,2.6,4.2c0.8,0.4,1.8,0,2.2-0.8
		c0.2-0.4,0.2-0.8,0.1-1.2c-0.3-0.8-0.4-1.7-0.3-2.5c0.2-1.3,0.7-2.8-0.2-3.9C161.3,163.4,160.5,163.1,159.7,163.4L159.7,163.4z
		 M180.2,175.2c-1-0.1-1.9,0.6-2,1.6c-0.1,1,0.5,2,1.6,2.3c0.7,0.2,1.4,0.2,2.1,0c0.3-0.1,0.6-0.4,0.8-0.7c0.2-0.3,0.3-0.7,0.2-1.1
		c-0.1-0.7-0.7-1.3-1.4-1.4c-0.1-0.1-0.1-0.2-0.2-0.2C181,175.4,180.6,175.3,180.2,175.2L180.2,175.2z M164.9,151.1
		c-1.7,1.7-1,5.6,0.9,6.9c0.8,0.6,1.9,0.4,2.5-0.3c0.2-0.2,0.3-0.5,0.3-0.8c0-0.4,0-0.8,0-1.2c0-0.4-0.1-0.7,0-1
		c0.1-0.9,0.2-1.7,0.1-2.6c-0.2-1.2-1.4-2-2.6-1.8C165.6,150.5,165.2,150.7,164.9,151.1z M154,176c-2.3,2.7,1.5,7.4,4.5,7.5
		c1,0,2.2-1,1.6-2.1c-0.5-0.9-1.2-1.7-1.6-2.6c-0.5-1.1-0.7-2.4-1.8-3.2C155.9,175,154.7,175.2,154,176z M209.2,175.1
		c-0.8,0.1-1.4,0.7-1.6,1.4c-0.3,1.1-0.4,2.1-1.2,3c-0.9,0.7-1.7,1.5-2.4,2.4c-0.4,0.7-0.1,1.6,0.6,2c0.2,0.1,0.5,0.2,0.7,0.2
		c1.7-0.2,3.3-1.1,4.5-2.4C209.6,179.8,209.4,177.6,209.2,175.1L209.2,175.1z M204.2,166.9c-0.6,1.4-0.5,2.9-0.9,4.3
		c-0.4,1.3-0.9,2.6-1.5,3.8c-0.4,0.9,0.4,2.3,1.5,1.8c1.8-0.7,3.2-2,4.1-3.7c0.8-1.6,1.6-4.2,0.9-5.9S205,164.9,204.2,166.9
		L204.2,166.9z M198.5,180.5c-0.8,1.1-1.9,1.9-3.1,2.6c-1.1,0.4-1.8,1.5-1.4,2.7c0.4,1.1,1.5,1.8,2.7,1.4c0.2-0.1,0.3-0.1,0.5-0.2
		c2.1-0.9,3.7-2.7,4.3-4.9C201.9,180.3,199.6,179.2,198.5,180.5L198.5,180.5z M189.3,131.5c1.2,0.2,2.3-0.5,2.6-1.6
		c0.6-2.2-1.4-4.4-2.9-5.7s-3.7-2.6-5.8-1.9c-0.9,0.3-1.4,1.3-1.1,2.2c0.1,0.3,0.2,0.5,0.4,0.7c0.9,1.2,2.2,2,3.2,3.1
		C186.8,129.5,187.6,131.2,189.3,131.5L189.3,131.5z M197,140c0.8-1.2,0.2-3-0.4-4.1c-0.3-0.6-0.8-1.2-1.4-1.5
		c-0.9-0.6-2-0.3-2.6,0.6c-0.3,0.6-0.3,1.2-0.1,1.8c0.1,0.3,0.2,0.6,0.3,0.9v0.1v0.1c0.2,1,0.6,1.9,1.2,2.6c0.7,0.7,1.9,0.7,2.7,0
		C196.8,140.3,196.9,140.2,197,140z M202.2,132.8c-0.2-2.5-1.2-4.8-2.8-6.7c-1.2-1.6-3.3-4-5.5-3.5c-0.5,0.2-0.8,0.6-0.8,1.1
		c-0.1,1.7,1.8,3.5,2.6,4.9c1,1.7,1.8,3.6,2.9,5.3c0.6,0.9,1.8,1.1,2.7,0.4C201.8,134,202.1,133.4,202.2,132.8L202.2,132.8z
		 M194.6,150c0.4,0.1,0.7,0.1,1.1,0c0.6-0.2,1-0.5,1.3-1.1c0.3-0.5,0.4-1.1,0.4-1.7c0-0.6-0.2-1.1-0.4-1.6l-0.3-0.4l-0.4-0.3
		c-1-0.5-2.3-0.1-2.8,0.9c-0.1,0.1-0.1,0.3-0.2,0.4c-0.2,0.6-0.3,1.2-0.4,1.8l0.1,0.6c0.1,0.3,0.2,0.5,0.4,0.7
		C193.7,149.6,194.1,149.8,194.6,150L194.6,150z M201.5,143.6c0.8,0,1.5-0.6,1.7-1.4c0.2-0.8,0.1-1.6-0.1-2.3
		c-0.1-0.7-0.5-1.4-1-1.9c-0.6-0.5-1.5-0.5-2,0.1c-0.2,0.2-0.3,0.4-0.3,0.6c-0.1,0.6-0.1,1.2,0,1.8c0,0.2,0,0.5,0,0.8
		c0,0.4,0,0.8,0.1,1.1C200,143,200.7,143.5,201.5,143.6L201.5,143.6z"/>
	<path class="st10" d="M198,126.8c-3.8-0.3-8.7-8.5-9.6-13.7c-0.1-0.4,1.5-3.4,3.1-7.1c1-2.3,2.1-4.8,2.9-7.2l13.8,8.7
		c-1.9,2.7-3.4,5.7-4.6,8.7c-0.1,0.3-0.2,0.7-0.2,1c0,0.1,0,0.1,0,0.2C203.1,119.4,201.7,127.1,198,126.8z"/>
	<path class="st7" d="M203.5,117.2c0,0.1,0,0.1,0,0.2c-0.5-0.1-1.1-0.2-1.6-0.4c-8.7-3.1-7.1-14.5-6.5-17.6l3.4,2.2l9.4,6
		c-1.9,2.7-3.4,5.7-4.5,8.7C203.6,116.6,203.5,116.9,203.5,117.2z"/>
	<path class="st10" d="M195.8,82.8c-2.9,5.2-3.4,21.7-0.2,26.1c4.6,6.4,13.8,8.8,19.6,3c5.6-5.7,5.9-27.3,2.2-31.4
		C212.1,74.2,200.1,75.1,195.8,82.8z"/>
	<path class="st7" d="M209.1,96.1C209.1,96.1,209,96.1,209.1,96.1c-0.1,1.2-0.3,2.5-1.3,2.9v0.1C209.1,98.9,209.3,97.2,209.1,96.1z"
		/>
	<path class="st7" d="M208.1,94.9c-1.8-0.2-2.1,3.5-0.4,3.7S209.7,95.1,208.1,94.9z"/>
	<path class="st7" d="M215.7,96.5c0,0,0.1,0.1,0.1,0.1c-0.1,1.1-0.1,2.4,0.9,2.9c0,0,0,0.1,0,0.1C215.4,99.3,215.4,97.6,215.7,96.5z
		"/>
	<path class="st7" d="M216.8,95.4c1.8,0,1.7,3.7,0,3.7S215.2,95.4,216.8,95.4z"/>
	<path class="st7" d="M209.6,94.2c-0.5,0.1-1,0.1-1.5,0.2c-0.5,0.1-1.1,0.1-1.6-0.1c-0.3-0.2-0.4-0.6-0.3-0.9c0.3-0.6,1-1,1.7-1
		c0.7-0.1,1.4,0,2,0.4c0.4,0.3,0.4,0.8,0.2,1.1C210,94,209.8,94.1,209.6,94.2z"/>
	<path class="st7" d="M218.4,92c-0.5-0.1-1-0.3-1.4-0.5c-0.5-0.1-1-0.4-1.4-0.8c-0.2-0.3-0.1-0.7,0.1-0.9c0.6-0.4,1.3-0.5,1.9-0.2
		c0.7,0.2,1.3,0.6,1.6,1.2c0.2,0.4,0.1,0.9-0.3,1.1C218.8,92,218.6,92,218.4,92z"/>
	<path class="st7" d="M208.3,105.1c1.5-0.4,3-0.4,4.5,0c0.1,0,0.3-0.3,0.3-0.4l0,0l0.1-2.4c0.3,0.2,1.9,1,1.9,0.6
		c0.2-3.9-0.1-7.8-0.7-11.7c0-0.1-0.1-0.1-0.1-0.1c0,0-0.1,0-0.1,0.1c-0.2,3.6,0.3,7.2,0.2,10.8c-0.6-0.3-1.1-0.5-1.8-0.7
		c-0.1,0,0,2.6,0,2.9c-1.4-0.5-2.9-0.4-4.2,0.2C207.8,104.9,207.6,105.4,208.3,105.1z"/>
	<path class="st7" d="M205.3,107.5c0.2,0.3,0.5,0.7,0.9,0.7c0.4,0,0.8-0.1,1.2-0.2c0,0,0.1,0,0,0.1c-0.4,0.4-0.9,0.6-1.5,0.5
		c-0.4-0.1-0.8-0.5-0.8-1C205.2,107.5,205.3,107.5,205.3,107.5z"/>
	<path class="st15" d="M200.7,77.5c-0.1,2.6-0.8,10.5-2,12.2s-3.9,5.4-5.2,6c0.2-5.3,1-10.4,2.4-13C197,80.5,198.6,78.8,200.7,77.5z
		"/>
	<path class="st7" d="M214.9,85.3c-1.4,1.4-3.5,2.1-5.5,1.6c-2-0.5-3.7-1.9-4.3-3.9c0-0.1-0.1,0-0.1,0c0.5,2.1,2.2,3.8,4.3,4.3
		c2.1,0.4,4.3-0.4,5.7-2C215.1,85.3,215,85.2,214.9,85.3z"/>
	<path class="st7" d="M209.9,70.5c-3.1-0.2-6.1,1.2-8,3.7c-0.8,1.3-1.1,2.7-0.9,4.2h0.1c0-2.6,1.5-5,3.9-6.2
		c2.5-1.4,5.6-1.6,8.3-0.4c1.3,0.5,2.4,1.5,3,2.8c0.1,0.1,0.3,0.1,0.3-0.1C215.6,72.2,213,70.6,209.9,70.5z"/>
	<path class="st7" d="M229,79.2c-0.4-1.7-1.5-3.2-2.9-4.2c-2-1.4-4.3-1.4-6.7-1.3c-0.1,0-0.1,0.1,0,0.1c2-0.2,4,0.2,5.8,1.1
		c1.5,0.9,2.6,2.2,3.1,3.8c1.1,3.4-0.4,7.1-3.6,8.7c-1.8,0.9-3.9,0.9-5.8,0.2c-0.1,0-0.1,0.1-0.1,0.1c3.7,1.6,8,0,9.6-3.7
		C229.2,82.4,229.4,80.7,229,79.2z"/>
	<path class="st7" d="M194.8,86c0,0-2.8-6.3,0.2-9.6c1.7-1.9,6.7-1.2,6.7-1.2c1.5-1.9,3.7-3.1,6.1-3.4c4.3-0.7,9.2,2.2,9.2,2.2
		s4.2-2,7.8,0.4c5,3.4,3.8,11.3-1.7,13.5c-3.8,1.5-8.6-2.1-8.6-2.1c-0.5,0-5.7,2.6-9.1-2.1c0,0-3.2,2.5-5.8,0.4
		C198.5,85.7,196.7,86.4,194.8,86z"/>
	<path class="st10" d="M196.5,96.4c0,0-2.6-5.9-5.2-5s-1.3,8.8,1.2,10.4c1.3,0.9,3.1,0.6,4-0.7c0,0,0,0,0-0.1L196.5,96.4z"/>
	<path class="st7" d="M191.7,93.8c1.8,1.2,2.4,3.1,2.8,5.1c-0.3-0.8-1.2-1.2-2-1c-0.1,0-0.2,0.1-0.2,0.1c-0.1,0,0,0.1,0,0.1
		c0.7-0.1,1.5,0.3,1.8,1c0.3,0.5,0.5,1.1,0.6,1.7c0,0.2,0.4,0.2,0.4,0l0,0C195.5,98.3,194.3,94.5,191.7,93.8L191.7,93.8z"/>
	
		<rect x="234.7" y="123.1" transform="matrix(0.9562 -0.2929 0.2929 0.9562 -33.0112 92.0644)" class="st0" width="112.6" height="66.3"/>
	
		<rect x="234.7" y="123.1" transform="matrix(0.9562 -0.2929 0.2929 0.9562 -33.0112 92.0644)" class="st1" width="112.6" height="66.3"/>
	
		<rect x="307.8" y="112.2" transform="matrix(0.9562 -0.2929 0.2929 0.9562 -28.2381 102.0504)" class="st16" width="37.8" height="66.3"/>
	<path class="st3" d="M333.3,111.3c-1.2,5.6-2.4,11.2-3.6,16.8l-3.4,16.9l-3.3,16.9c-1.1,5.6-2.1,11.3-3.2,16.9
		c1.2-5.6,2.4-11.2,3.6-16.8l3.4-16.9l3.3-16.9C331.3,122.7,332.3,117,333.3,111.3z"/>
	<path class="st3" d="M351.1,169.4c-4-4.1-8-8.2-12.1-12.3l-12.2-12.2l-12.3-12.1c-4.1-4-8.2-8-12.4-12c4,4.1,8,8.2,12.1,12.3
		l12.2,12.2l12.3,12.1C342.8,161.4,347,165.4,351.1,169.4z"/>
	
		<rect x="246.8" y="140.6" transform="matrix(0.9562 -0.2929 0.2929 0.9562 -31.628 78.7305)" class="st7" width="0.6" height="8.7"/>
	
		<rect x="245.4" y="141.1" transform="matrix(0.9562 -0.2929 0.2929 0.9562 -31.8136 78.3366)" class="st7" width="0.6" height="8.7"/>
	
		<rect x="244" y="141.5" transform="matrix(0.9562 -0.2929 0.2929 0.9562 -32.0087 77.9403)" class="st7" width="0.6" height="8.7"/>
	
		<rect x="242.6" y="141.9" transform="matrix(0.9562 -0.2927 0.2927 0.9562 -32.1778 77.4985)" class="st7" width="0.6" height="8.7"/>
	
		<rect x="241.1" y="142.4" transform="matrix(0.9562 -0.2929 0.2929 0.9562 -32.3812 77.1499)" class="st7" width="0.6" height="8.7"/>
	
		<rect x="239.7" y="142.8" transform="matrix(0.9562 -0.2929 0.2929 0.9562 -32.5671 76.7551)" class="st7" width="0.6" height="8.7"/>
	
		<rect x="238.3" y="143.2" transform="matrix(0.9562 -0.2929 0.2929 0.9562 -32.7662 76.3574)" class="st7" width="0.6" height="8.7"/>
	<rect x="236.9" y="143.7" transform="matrix(0.9561 -0.293 0.293 0.9561 -32.9639 76.009)" class="st7" width="0.6" height="8.7"/>
	
		<rect x="235.5" y="144.1" transform="matrix(0.9562 -0.2929 0.2929 0.9562 -33.1452 75.5641)" class="st7" width="0.6" height="8.7"/>
	<path class="st7" d="M252.1,139.6l-2.5,0.1l5.3-1.6l-2.1,1.3l0.9,3.1c1.7-0.3,2.8,1.1,3.7,3.9l-5.3,1.7c-0.9-2.8-0.7-4.6,0.9-5.3
		L252.1,139.6z"/>
	<polygon class="st7" points="257.5,141.7 258.9,141.3 257.6,137.2 261.2,136.1 262.4,140.2 263.8,139.8 262,145 	"/>
	<polygon class="st14" points="227.4,141.1 229,146.3 303.4,134 298.9,119.2 	"/>
	<polygon class="st0" points="368.4,178.7 332.2,189.7 318.3,182.6 354.5,171.5 	"/>
	<polygon class="st1" points="368.4,178.7 332.2,189.7 318.3,182.6 354.5,171.5 	"/>
	<polygon class="st0" points="239.3,218.2 275.5,207.1 283,193.4 246.8,204.4 	"/>
	<polygon class="st1" points="239.3,218.2 275.5,207.1 283,193.4 246.8,204.4 	"/>
	<path class="st10" d="M179.7,131.3c5.3,17.7,20,48,25.5,51.7c4.8,3.3,27.9,0.3,38-1.9c3.8-0.8-4-29.7-8-28.7
		c-4.8,1.1-19.2,4-20.3,3.2s-15-19-25-29.7C180.8,116.2,177.7,124.6,179.7,131.3z"/>
	<path class="st10" d="M233.1,154.7c0,0,7.6-8.6,13.1-11.9c5.7-3.3,12.2-5.1,18.7-5.4c7.1-0.3,24.5,3.9,24.1,9.2
		c-0.3,4.7-17.9-0.5-17.9-0.5s18.8,2.4,17.4,8s-21.5-1.6-21.5-1.6s19.2,2.9,16.9,8.5c-1.8,4.2-20.3-1.3-20.3-1.3s16.5,2.6,14.9,7
		c-1.8,4.9-19.2,0.9-19.2,0.9c-6.1,10.5-13.3,13-18.6,14.1C239.3,181.9,233.1,154.7,233.1,154.7z"/>
	<path class="st7" d="M264.8,144.9c2.2,0.2,4.5,0.4,6.6,0.8s4.4,0.9,6.5,1.5c2.8,0.7,5.5,1.8,8.1,3.1c-4.8-2.1-12.6-3.6-14.8-4
		S266.9,145.4,264.8,144.9C264.7,145,264.7,144.9,264.8,144.9z"/>
	<path class="st7" d="M263.2,152.8c2.8,0.4,5.6,0.6,8.4,1.1s5.4,1.2,8.1,1.9c0.2,0.1,0.1,0.1-0.1,0.1c-2.8-0.6-5.4-0.9-8.2-1.4
		S266,153.3,263.2,152.8C263.1,152.9,263.1,152.8,263.2,152.8z"/>
	<path class="st7" d="M260.6,159.3c4.3,0.5,8.6,1.4,12.8,2.7c0.2,0.1,0.1,0.2-0.1,0.1c-4.2-1-7.5-1.8-12.6-2.7
		C260.5,159.5,260.5,159.3,260.6,159.3z"/>
	<path class="st3" d="M240.9,186.2l-6.7-34.5l-18.7,2.9c-7.2-8.6-21.5-25.8-27.3-31c-6.9-6.1-11.5-1.8-9.2,7.3
		c5.4,20.7,21.7,51.2,26.1,54.2C211.4,189.5,240.9,186.2,240.9,186.2z"/>
	<path class="st13" d="M228.2,156.5c0.9,0.2,1.9,0.3,2.8,0.3c2,0.3,2.9,3.2,1.1,4.3c-1.9,1.2-4.3,1.4-6.4,0.6c-2-0.8-3.7-2.7-3.3-5
		c0.2-1.4,1.5-2.3,2.9-2c0.4,0.1,0.8,0.2,1.1,0.5C226.9,155.7,227.6,156.1,228.2,156.5z M226.2,153c1.3,0.6,2.8,0.6,4-0.1
		c0.2-0.1,0.4-0.4,0.5-0.6L226.2,153z M216.5,154.5c0.8,0.6,1.8,0.8,2.8,0.8c0.7-0.1,1.2-0.7,1.3-1.4L216.5,154.5z M237.7,169.9
		c-0.4,0.2-0.7,0.5-0.9,0.9c-0.8,1.7,0.3,3.5,2,4.6L237.7,169.9z M207.6,176.5c-0.3,1.1-0.4,2.1-1.2,3c-0.9,0.7-1.7,1.6-2.4,2.5
		c-0.4,0.7-0.1,1.6,0.6,2c0.2,0.1,0.5,0.2,0.7,0.2c3.6-0.4,6.3-3.6,6.1-7.2c-0.1-1.1-1.1-1.9-2.2-1.7
		C208.5,175.3,207.8,175.8,207.6,176.5L207.6,176.5z M204.1,166.8c-0.6,1.4-0.5,2.9-0.9,4.3c-0.4,1.3-0.9,2.6-1.5,3.8
		c-0.4,0.9,0.4,2.3,1.5,1.8c1.8-0.7,3.2-2,4.1-3.7c0.8-1.6,1.6-4.2,0.9-5.9S205,164.9,204.1,166.8L204.1,166.8z M189.3,131.5
		c1.2,0.2,2.3-0.5,2.6-1.6c0.6-2.2-1.4-4.4-2.9-5.7s-3.7-2.6-5.8-1.9c-0.9,0.3-1.4,1.3-1.1,2.2c0.1,0.3,0.2,0.5,0.4,0.7
		c0.9,1.2,2.2,2,3.2,3.1C186.7,129.5,187.6,131.2,189.3,131.5L189.3,131.5z M197,140c0.8-1.2,0.2-3-0.4-4.1
		c-0.3-0.6-0.8-1.2-1.4-1.5c-0.9-0.6-2-0.3-2.6,0.6c-0.3,0.6-0.3,1.2-0.1,1.8c0.1,0.3,0.2,0.6,0.3,0.9v0.1v0.1
		c0.2,1,0.6,1.9,1.2,2.6c0.7,0.7,1.9,0.7,2.7,0C196.8,140.3,196.9,140.2,197,140z M194.6,150c0.4,0.1,0.7,0.1,1.1,0
		c0.6-0.2,1-0.5,1.3-1.1c0.3-0.5,0.4-1.1,0.4-1.7c0-0.6-0.2-1.1-0.4-1.6l-0.3-0.4l-0.4-0.3c-1-0.5-2.3-0.1-2.8,0.9
		c-0.1,0.1-0.1,0.3-0.2,0.4c-0.2,0.6-0.3,1.2-0.4,1.8l0.1,0.6c0.1,0.3,0.2,0.5,0.4,0.7C193.7,149.6,194.1,149.8,194.6,150L194.6,150
		z M203,139.9L203,139.9l-2-2.2c-0.7-0.1-1.3,0.4-1.4,1c-0.1,0.6-0.1,1.2,0,1.8c0,0.2,0,0.5,0,0.8c0,0.4,0,0.8,0.1,1.1
		c0.2,0.8,1,1.3,1.8,1.3c0.8,0,1.5-0.6,1.7-1.4C203.3,141.4,203.2,140.6,203,139.9z"/>
	<path class="st7" d="M234.4,183.1c-0.8-2.1-2.7-10.9-3.2-13.2s-1.9-11.2-2.4-13.5c0-0.1,0.1-0.2,0.2-0.1c0.5,2.2,2.7,11.1,3.2,13.3
		s2.3,11.1,2.3,13.4C234.6,183.1,234.5,183.1,234.4,183.1C234.5,183.1,234.4,183.1,234.4,183.1z"/>
	<path class="st7" d="M228.3,187.2c-3.1,0.2-6.1,0.2-9.2,0.2c-3.1,0-6.2-0.2-9.2-0.5c-1.6-0.2-3.1-0.6-4.5-1.2
		c-1.3-0.9-2.4-2-3.3-3.4c-1.8-2.5-3.5-5.1-4.9-7.9c-3-5.4-5.6-11-8.1-16.6s-4.8-11.3-6.9-17.1c2.6,5.6,5.1,11.2,7.7,16.7
		s5.3,11.1,8.1,16.5c1.4,2.7,3,5.3,4.7,7.8c0.8,1.3,1.8,2.4,3,3.3c1.4,0.6,2.8,1,4.3,1.2C216,187.1,222.1,187.4,228.3,187.2z"/>
	<path class="st7" d="M184,145.7c-0.4-0.4-0.8-0.9-1.1-1.4c-0.3-0.5-0.6-1-0.8-1.6c0.2,0.2,0.3,0.5,0.5,0.7l0.5,0.7
		C183.4,144.7,183.7,145.2,184,145.7z"/>
	<path class="st7" d="M199.8,136.4c2.5,2.5,4.8,5.3,7.1,8s4.6,5.5,7,8.1l0.9,1c0.2,0.1,0.3,0.3,0.5,0.5s0.1,0.1,0.2,0.2s0,0,0,0
		s0.1,0,0.1,0c0.8,0,1.7-0.2,2.6-0.3l5.3-0.8c3.5-0.5,7.1-1.1,10.6-1.5l0,0l0,0l0.1,0.9l-0.2-0.9h0.1c-3.5,0.8-7,1.4-10.6,2.1
		c-1.8,0.3-3.5,0.6-5.3,0.9c-0.9,0.2-1.8,0.3-2.8,0.3c-0.1,0-0.1,0-0.2,0c-0.1,0-0.2-0.1-0.3-0.1c-0.1-0.1-0.2-0.2-0.3-0.2l-0.5-0.5
		c-0.3-0.3-0.6-0.7-0.9-1c-2.4-2.7-4.6-5.5-6.9-8.3l-3.4-4.2C202,139.2,201,137.8,199.8,136.4z"/>
	<path class="st7" d="M201.1,136.7c0.4,0.5,0.7,1,1,1.5c0.3,0.5,0.5,1.1,0.6,1.6c-0.1-0.3-0.3-0.5-0.4-0.8l-0.4-0.8
		C201.6,137.8,201.3,137.3,201.1,136.7z"/>
</g>
<g id="freepik--Plant--inject-7">
	<path class="st11" d="M81.2,398.2c-0.4-9.4-0.2-18.7,0.4-28.1c1.4-19.3,4.3-38.4,8.8-57.1c2.4-10.6,5.5-21,8.6-31.4
		c0.1-0.3,0.6-0.2,0.5,0.1c-9.7,36.6-17.7,74.5-17.2,112.5c0.2,10.7,1.4,21.1,2.4,31.7c0,0.3-0.4,0.4-0.5,0.1
		C82.2,417,81.5,407.5,81.2,398.2z"/>
	<path class="st11" d="M99.5,281.7c0,0,14.7,37.4,11.4,46.2s-10.1,10.7-10.1,10.7s9,12.9,2.7,25s-20.3,11.5-21.2,25.2
		C82.3,388.7,81.5,331.5,99.5,281.7z"/>
	<path class="st7" d="M83.9,365.1c0-0.1,0-0.1,0-0.2c1.9-25.5,6.7-50.8,14.3-75.3c0-0.1,0.1,0,0.1,0c-2.9,10.9-5.5,21.9-7.7,33
		c2-1.9,4.4-3.2,7-3.9c0,0,0.1,0,0,0.1c-2.8,1-5.3,2.7-7.3,4.9c-0.4,2.2-0.8,4.3-1.2,6.5c3.3-3.7,7.9-5.5,12.4-7.2
		c0.1,0,0.1,0.1,0,0.1c-4.8,1.9-9.5,4.4-12.7,8.5c-1.1,6.2-2.1,12.4-3,18.7c2.4-2.5,5.4-4.2,8.8-5c0.1,0,0.2,0.1,0,0.2
		c-3.5,1-6.6,3-8.9,5.7h-0.1c-0.3,2.2-0.6,4.4-0.8,6.6c1.9-1.6,4-2.8,6.3-3.7c0.1,0,0.1,0.1,0,0.1c-2.3,1-4.3,2.4-6.1,4.1
		c0,0,0,0-0.1,0c-0.2,2.1-0.5,4.2-0.7,6.3c3.3-4,7.6-7.1,12.5-8.9c0,0,0.1,0,0.1,0c0,0,0,0.1,0,0.1c-4.8,2.1-9,5.4-12.3,9.5
		c-0.1,0.1-0.2,0.1-0.3,0.1c-0.3,3.2-0.6,6.5-0.8,9.7h-0.1C83.4,371.7,83.6,368.4,83.9,365.1z"/>
	<path class="st7" d="M95.7,315c2.7-1.7,5.7-2.6,8.9-2.8c0.1,0,0.1,0.1,0,0.1c-3,0.6-6,1.5-8.8,2.9c-0.1,0-0.1,0-0.1-0.1
		C95.7,315.1,95.7,315,95.7,315z"/>
	<path class="st7" d="M93.9,354.6c2.1-1.2,4.3-1.9,6.7-2.3c0.1,0,0.1,0.1,0,0.1c-2.3,0.5-4.5,1.2-6.6,2.3
		C93.9,354.8,93.8,354.7,93.9,354.6z"/>
	<path class="st11" d="M42.4,328.5c6.2,4.3,12,9.3,17.1,14.9c5.3,5.9,9.4,12.8,12,20.3c5.6,15.6,8.6,32,8.9,48.5
		c0.2,9.2-0.7,18.3-2.6,27.3c0,0.1-0.2,0.2-0.3,0.2c-0.1,0-0.2-0.1-0.2-0.3c2.4-15.8,2.3-31.9-0.2-47.7
		c-2.5-15.5-6.5-32.3-16.3-44.9C55.2,340,48.6,334.6,42,329C41.6,328.7,42,328.2,42.4,328.5z"/>
	<path class="st11" d="M78.2,401.1c-3.5-5.7-7.7-11.1-12.4-15.9c-7.4-7.4-13.6-12.6-14.5-17.5s7.4-8.5,7.4-8.5s-10.2,1.8-13-2.5
		s-4.1-29.1-4.1-29.1S60,341,68.7,359.5S78.2,401.1,78.2,401.1z"/>
	<path class="st7" d="M47.9,334.1c7.8,7.7,15.7,15.8,20.3,25.9c1.6,3.5,2.9,7.1,4.1,10.7l0,0c0.2,0.7,0.5,1.5,0.7,2.2
		c0,0,0,0.1,0,0.1c2.2,7.5,3.9,15.2,5.3,22.9c0,0-0.1,0.1-0.1,0c-0.8-3.9-1.7-7.8-2.7-11.7h-0.1c-1.5-0.7-3.2-1.1-4.8-1.2
		c-0.1,0-0.1-0.2,0-0.2c1.6,0.1,3.3,0.4,4.8,0.9c-0.9-3.5-1.9-7-3-10.5c-3.6-0.9-7.3-1.4-11-1.4c0,0,0,0,0-0.1
		c3.6-0.2,7.3,0.1,10.8,0.9c-0.2-0.6-0.4-1.2-0.6-1.8c-2.4-0.6-4.9-1-7.3-1.2c-0.1,0,0-0.1,0-0.1c2.4,0,4.8,0.3,7.2,0.9
		c-1-3-2.1-5.9-3.3-8.8c-1-2.4-2.2-4.6-3.5-6.8c-2-0.5-3.9-0.8-5.9-1.1c-0.1,0,0-0.1,0-0.1c1.9-0.1,3.8,0,5.6,0.5
		c-1-1.6-2-3.1-3.1-4.6l0,0c-4.2-0.9-8.4-1.8-12.7-1c0,0-0.1-0.1,0-0.1c0,0,0,0,0,0c4-1.1,8.1-0.5,12.1,0.3
		c-0.4-0.6-0.9-1.2-1.3-1.7c-2.5-0.8-5.1-1.2-7.8-1.2 M51.5,345.7c2.4-0.2,4.9,0,7.2,0.6c-3.4-4.3-7.2-8.3-11-12.3
		c-0.2-0.1,0-0.3,0.1-0.1L51.5,345.7z"/>
	<path class="st7" d="M48.1,351c1.2-0.2,2.5-0.2,3.7-0.1c0.2,0,0.1,0.3,0,0.3c-1.2,0-2.4-0.1-3.7,0C48,351.1,48,351,48.1,351z"/>
	<path class="st7" d="M61.4,375c2,0,3.9,0.4,5.7,1.1c0,0,0,0.1,0,0.1c-1.9-0.5-3.8-0.6-5.7-1C61.3,375.3,61.3,375,61.4,375z"/>
	<path class="st7" d="M65.4,366.7c0.8,0,1.6,0.1,2.4,0.2c0.1,0,0.1,0.1,0,0.1c-0.8,0-1.6,0-2.4-0.1
		C65.4,366.9,65.3,366.9,65.4,366.7C65.4,366.8,65.4,366.7,65.4,366.7z"/>
	<path class="st11" d="M132.6,354.8c-6,2-11.8,4.8-17.2,8.1c-5.6,3.6-10.5,8.2-14.4,13.7c-8.1,11.3-14.4,23.9-18.4,37.2
		c-2.3,7.4-3.7,15-4.2,22.7c0,0.1,0.1,0.2,0.2,0.2s0.2-0.1,0.2-0.2c1.7-13.3,5.5-26.3,11.2-38.5c5.6-11.9,12.7-24.6,23.6-32.5
		c5.9-4.3,12.6-7.1,19.2-10.1C133.2,355.2,133,354.7,132.6,354.8z"/>
	<path class="st11" d="M86.9,405.3c4.2-3.8,8.8-7.2,13.7-10c7.7-4.3,13.9-7.1,15.8-10.8s-4-8.6-4-8.6s7.8,3.8,11.1,1
		s10.1-22.6,10.1-22.6s-18.1,6.4-29.4,19.5S86.9,405.3,86.9,405.3z"/>
	<path class="st7" d="M87.8,401.2c9-17,21.1-32.3,37.7-42.5l0,0c-4.3,2.8-8.4,6-12.1,9.5c3.4-0.2,6.7,0.5,9.7,2c0.1,0,0,0.1,0,0.1
		c-3.2-1.2-6.6-1.8-10-1.7c0,0-0.1,0-0.1,0c-0.6,0.5-1.2,1.1-1.7,1.7c1.7,0.1,3.5,0.3,5.2,0.7c0,0,0,0.1,0,0.1
		c-1.8-0.3-3.6-0.5-5.5-0.5c-3,3.1-5.9,6.3-8.5,9.7c1.2-0.2,2.5-0.1,3.6,0.3c0,0,0.1,0,0.1,0.1s0,0.1-0.1,0.1
		c-1.3-0.1-2.6-0.2-3.9-0.1c-0.5,0.6-1,1.3-1.5,1.9c3.7-0.2,7.4,0.1,11,1.1 M111.7,383.7c-3.7-0.7-7.5-1-11.3-0.7
		c-0.5,0.6-0.9,1.2-1.3,1.9c2.2-0.1,4.4,0.2,6.5,0.8c0.1,0,0.1,0.1,0,0.1c-2.2-0.5-4.5-0.7-6.8-0.5c-1.9,2.7-3.8,5.4-5.6,8.2
		c1-0.2,1.9-0.1,2.9,0.2 M96.1,393.6c-1-0.1-2.1,0-3.1,0.1c-1.6,2.5-3.2,5-4.7,7.6c-0.3,0.2-0.6,0.1-0.5-0.2L96.1,393.6z"/>
	<path class="st7" d="M101.9,387.1c1.8-0.1,3.6,0.1,5.2,0.6c0,0,0,0.1,0,0.1c-1.7-0.3-3.5-0.5-5.2-0.5c0,0-0.1,0-0.1-0.1
		C101.8,387.2,101.8,387.1,101.9,387.1z"/>
	<path class="st7" d="M117.7,366.4c0.8-0.1,1.6,0,2.4,0.1c0,0,0.1,0.1,0,0.1c0,0,0,0,0,0c-0.8-0.1-1.6-0.1-2.4-0.1
		C117.6,366.6,117.6,366.6,117.7,366.4C117.6,366.5,117.6,366.5,117.7,366.4z"/>
	<polygon class="st3" points="63.5,461.5 104.4,461.5 98.6,418.8 97.1,407.9 70.9,407.9 69.4,418.8 	"/>
	<polygon class="st17" points="69.4,418.8 98.6,418.8 97.1,407.9 70.9,407.9 	"/>
	<rect x="67.1" y="404.1" class="st3" width="33.7" height="9.3"/>
</g>
<g id="freepik--speech-bubble--inject-7">
	<path class="st12" d="M281,60.8C281,73,271.1,83,258.8,83c-4.8,0-9.4-1.5-13.2-4.4l-10.9,2.8l4.5-10.1c-5.8-10.8-1.7-24.3,9.1-30.1
		s24.3-1.7,30.1,9.1C280.1,53.5,281,57.1,281,60.8z"/>
	<path class="st6" d="M281,60.8c0,4.1-1.1,8.2-3.3,11.7c-0.5,0.9-1.1,1.7-1.7,2.6c-0.7,0.8-1.4,1.5-2.1,2.2c-1.5,1.4-3.2,2.6-5,3.5
		c-1.8,0.9-3.8,1.6-5.8,2c-1,0.2-2,0.3-3.1,0.4c-1,0.1-2.1,0.1-3.1,0c-4.2-0.3-8.1-1.8-11.5-4.2l0.3,0.1l-10.9,2.9l-0.9,0.2l0.4-0.8
		l4.5-10.2v0.4c-3.3-6.2-3.6-13.5-0.7-19.9c1.4-3.1,3.5-5.9,6.2-8.1c5.3-4.4,12.4-6.1,19.2-4.6c3.3,0.8,6.4,2.2,9.1,4.3
		C277.9,47.4,281,53.9,281,60.8z M281,60.8c0-10.5-7.4-19.5-17.7-21.6c-3.3-0.7-6.7-0.5-9.9,0.3c-3.2,0.8-6.2,2.4-8.7,4.6
		c-2.5,2.2-4.5,4.9-5.8,7.9c-1.3,3-2,6.3-1.8,9.6c0.2,3.3,1,6.5,2.6,9.4l0.1,0.2l-0.1,0.2l-4.6,10.1l-0.5-0.6l10.9-2.7h0.2l0.1,0.1
		c3.2,2.5,7.1,4,11.1,4.3c1,0.1,2,0.1,3,0c3.1-0.1,6.1-0.9,8.8-2.2c1.8-0.9,3.5-2,5-3.4c0.8-0.7,1.5-1.4,2.1-2.2
		c0.6-0.8,1.2-1.6,1.8-2.5C279.8,68.9,280.9,64.9,281,60.8z"/>
	<path class="st3" d="M260.3,63.2v2.4c0,1-0.8,1.8-1.7,1.8c0,0-0.1,0-0.1,0c-1,0-1.8-0.8-1.8-1.8c0,0,0,0,0,0v-3.9c0,0,0,0,0-0.1
		s0,0,0-0.1c0-1,0.8-1.8,1.8-1.8c2.3,0.1,4.3-1.7,4.4-4c0.1-2.3-1.7-4.3-4-4.4c-0.1,0-0.3,0-0.4,0c-1.5,0-2.9,0.8-3.6,2.1
		c-0.5,0.9-1.7,1.2-2.6,0.7c0,0,0,0,0,0c-0.9-0.5-1.2-1.6-0.6-2.5c0,0,0,0,0,0c2.2-3.8,7-5.1,10.8-2.9c3.8,2.2,5.1,7,2.9,10.8
		C264.3,61.3,262.4,62.7,260.3,63.2z M260.3,71.4v0.7c0,1-0.8,1.8-1.8,1.8c0,0-0.1,0-0.1,0c-1,0-1.8-0.8-1.8-1.8v-0.7
		c0-1,0.8-1.8,1.8-1.8C259.5,69.6,260.3,70.4,260.3,71.4C260.3,71.4,260.3,71.4,260.3,71.4z"/>
</g>
</svg>
