<?xml version="1.0" encoding="utf-8"?>
<!-- Generator: Adobe Illustrator 27.0.0, SVG Export Plug-In . SVG Version: 6.00 Build 0)  -->
<svg version="1.1" id="Layer_1" xmlns="http://www.w3.org/2000/svg" xmlns:xlink="http://www.w3.org/1999/xlink" x="0px" y="0px"
	 viewBox="0 0 1080 1080" style="enable-background:new 0 0 1080 1080;" xml:space="preserve">
<style type="text/css">
	.st0{fill:#F9F9F9;}
	.st1{fill:#472E96;}
</style>
<rect class="st0" width="1080" height="1080"/>
<path class="st1" d="M953.3,461.4c0-228-185.5-413.3-413.3-413.3S126.7,233.6,126.7,461.4c0,27.2,2.8,53.4,7.9,78.8
	c-5,25.2-7.9,51.5-7.9,78.4c0,228,185.5,413.3,413.3,413.3s413.3-185.5,413.3-413.3c0-26.7-2.8-53-7.9-78.4
	C950.4,514.8,953.3,488.3,953.3,461.4z M540,107.5c195.1,0,353.9,158.8,353.9,353.9c0,25-2.6,49.3-7.7,72.7
	c-32.2,156.2-166,271.4-326.8,280.1c-12.9,1.3-26.1,1.3-39.2,0c-97.5-9.6-170.8-91.1-170.8-189.4c0-2.4,0.7-4.8,0.7-7.2
	c6.6,7.7,13.6,14.7,21,21.5c2,1.8,4.2,3.5,6.1,5.3c6.4,5.5,13.1,10.7,19.9,15.5c2.6,1.8,5,3.5,7.7,5.3c8.3,5.3,16.9,10.3,25.6,14.5
	c0.9,0.4,1.8,1.1,2.8,1.5c9.9,4.6,19.9,8.5,30.4,11.8c2.8,0.9,5.7,1.5,8.8,2.4c7.9,2.2,16,4.2,24.3,5.5c3.1,0.7,6.4,1.1,9.6,1.5
	c11,1.5,22.1,2.4,33.5,2.4c12.7,0,25-0.9,37.2-2.8c85.4-12.7,159-69,193.2-150.2c12.9-30.4,19.5-62.9,19.5-96.8
	c0-137.8-112.1-249.9-249.9-249.9c-8.5,0-17.1,0.4-24.3,1.1c-14.9,0.9-29.8,2.6-44.2,5c-3.9,0.7-7.7,1.3-11.6,2.2
	c-12.5,2.4-25,5.3-37,9c-2,0.7-3.9,1.1-5.9,1.5c-13.8,4.2-27.2,9.4-40.3,15.1c-3.3,1.3-6.4,2.8-9.6,4.4c-11,5-21.5,10.5-32,16.4
	c-2.4,1.3-5,2.6-7.4,4.2c-12.3,7.4-24.1,15.3-35.7,23.9c-2.2,1.8-4.4,3.5-6.4,5c-9.6,7.4-18.8,15.5-27.8,23.9
	c-2.2,2-4.4,4.2-6.6,6.1c-10.3,10.1-20.4,20.8-29.6,32c-0.9,1.1-1.8,2.2-2.6,3.3c-8.3,10.3-16.2,21-23.4,32.2
	c-0.9,1.5-2.2,2.6-3.1,4.2C223.5,230.8,367.6,106.8,540,106.8L540,107.5z M427.2,471.9c3.3-2.4,6.4-4.8,9.6-7
	c4.2-2.8,8.8-5,13.4-7.4c3.5-1.8,6.8-3.7,10.3-5.5c4.8-2.2,9.9-3.9,14.9-5.7c3.5-1.3,6.8-2.6,10.3-3.7c5.7-1.8,11.6-2.8,17.5-3.9
	c3.1-0.7,5.9-1.5,9-2c9-1.3,18.4-2,27.6-2c9.2,0,18.6,0.7,27.6,2c3.1,0.4,5.9,1.3,9,2c5.9,1.1,11.8,2.2,17.5,3.9
	c3.5,1.1,6.8,2.4,10.3,3.7c5,1.8,10.1,3.5,14.9,5.7c3.5,1.5,6.8,3.5,10.3,5.5c4.4,2.4,9,4.8,13.4,7.4c3.3,2.2,6.6,4.6,9.6,7
	c3.9,2.8,8.1,5.9,11.8,9.2c3.1,2.6,5.9,5.5,8.8,8.3c3.5,3.5,7,7,10.3,10.7c2.6,3.1,5,6.4,7.4,9.4c3.1,3.9,6.1,8.1,8.8,12.5
	c2.2,3.3,4.2,7,6.1,10.5c1.3,2.4,2.6,5,3.9,7.7c-1.3,2.4-2.4,5-3.7,7.2c-2,3.7-4.2,7.2-6.4,10.7c-2.6,4.2-5.7,8.3-8.8,12.3
	c-2.4,3.3-4.8,6.4-7.4,9.4c-3.3,3.7-7,7.4-10.5,11c-2.8,2.6-5.5,5.5-8.5,8.1c-3.9,3.3-8.1,6.4-12.3,9.4c-3.1,2.2-6.1,4.6-9.2,6.6
	c-4.4,2.8-9,5.3-13.8,7.7c-3.3,1.8-6.4,3.7-9.9,5.3c-5,2.2-10.3,4.2-15.3,5.9c-3.3,1.1-6.6,2.6-9.9,3.5c-5.9,1.8-11.8,2.8-18,4.2
	c-2.8,0.7-5.7,1.3-8.5,1.8c-9,1.3-18.4,2-27.6,2s-18.6-0.7-27.6-2c-2.8-0.4-5.7-1.3-8.8-1.8c-6.1-1.1-12-2.4-18-3.9
	c-3.3-1.1-6.6-2.4-9.9-3.5c-5.3-1.8-10.3-3.7-15.3-5.9c-3.3-1.5-6.6-3.5-9.9-5.3c-4.6-2.4-9.2-4.8-13.8-7.7c-3.3-2-6.1-4.4-9.2-6.6
	c-4.2-3.1-8.3-6.1-12-9.4c-3.1-2.6-5.7-5.3-8.5-8.1c-3.5-3.5-7.2-7-10.5-11c-2.6-3.1-5-6.4-7.4-9.4c-3.1-3.9-5.9-8.1-8.8-12.3
	c-2.2-3.5-4.4-7-6.4-10.7c-1.3-2.4-2.4-4.8-3.7-7.2c1.3-2.6,2.4-5.3,3.9-7.7c2-3.5,3.9-7,6.1-10.5c2.8-4.4,5.7-8.3,8.8-12.5
	c2.4-3.3,4.8-6.4,7.4-9.4c3.3-3.7,6.8-7.2,10.3-10.7c2.8-2.8,5.7-5.7,8.8-8.3c3.7-3.3,7.9-6.1,11.8-9.2L427.2,471.9z M540,972.5
	c-195.1,0-353.9-158.8-353.9-353.9c0-24.7,2.6-49.1,7.7-72.3c32.2-156.4,166-271.8,326.8-280.6c6.6-0.7,13.1-1.1,19.7-1.1
	c12.3,0,24.1,1.3,35.7,3.5c1.3,0.2,2.6,0.4,3.7,0.7c10.3,2.2,20.1,5.5,29.8,9.2c2.6,1.1,5.3,2,7.7,3.1c8.3,3.7,16.2,8.1,23.7,12.9
	c3.3,2.2,6.6,4.2,9.9,6.6c6.8,4.8,12.9,10.1,19.1,15.8c3.1,3.1,6.4,6.1,9.2,9.2c5.7,6.1,11,12.3,15.8,19.1c2.2,3.1,4.4,6.4,6.4,9.6
	c4.8,7.7,9.2,15.5,12.9,23.9c1.1,2.4,2,5,3.1,7.7c3.7,9.6,7,19.3,9.2,29.6c0.2,1.3,0.4,2.6,0.7,3.9c2.2,11.6,3.5,23.4,3.5,35.5
	c0,2.6-0.7,4.8-0.7,7.4c-6.6-7.7-13.6-14.7-20.8-21.5c-2.2-2-4.4-3.7-6.4-5.5c-6.4-5.5-12.9-10.5-19.7-15.3
	c-2.6-1.8-5.3-3.7-7.9-5.5c-8.1-5.3-16.6-10.1-25.4-14.5c-1.1-0.4-2-1.1-3.1-1.5c-9.9-4.6-19.9-8.5-30.4-11.8
	c-2.8-0.9-5.7-1.5-8.8-2.4c-7.9-2.2-16-4.2-24.3-5.5c-3.1-0.7-6.4-1.1-9.4-1.5c-11-1.5-22.1-2.4-33.5-2.4c-12.7,0-25.2,0.9-37.2,2.8
	c-85.6,12.9-159,69.2-192.9,150.5l0,0c0,0,0,0,0,0.2c0,0,0,0,0,0.2c-12.5,29.3-19.3,62.4-19.3,95.9c0,128.8,96.4,235.7,224.3,248.6
	c8.5,0.9,17.1,1.3,25.6,1.3c0,0,0,0,0.2,0c8.5,0,16.9-0.4,23.9-1.1c14.9-0.9,29.8-2.6,44.2-5c3.9-0.7,7.9-1.3,11.6-2.2
	c12.5-2.4,24.7-5.3,36.8-8.8c2-0.7,4.2-1.1,6.1-1.8c13.8-4.2,27.2-9.4,40.1-14.9c3.3-1.5,6.6-3.1,10.1-4.6c10.7-4.8,21-10.3,31.1-16
	c2.6-1.5,5.5-2.8,8.1-4.6c12-7.2,23.9-15.1,35.3-23.7c2.4-1.8,4.8-3.7,7.2-5.7c9.2-7.2,18.2-14.9,26.7-23c2.4-2.4,5-4.6,7.4-7
	c10.1-9.9,19.9-20.4,29.1-31.3c1.3-1.5,2.4-3.3,3.7-4.8c7.9-9.9,15.3-19.9,22.1-30.4c1.1-1.8,2.4-3.1,3.5-4.8
	c-31.3,163.4-175.2,287.1-347.6,287.1L540,972.5z"/>
</svg>
