<?xml version="1.0" encoding="UTF-8"?>
<svg id="Icons" xmlns="http://www.w3.org/2000/svg" viewBox="0 0 32 32">
  <defs>
    <style>
      .cls-1 {
        fill: #fff;
      }
    </style>
  </defs>
  <path class="cls-1" d="m24,13.5v-3.5c0-4.4-3.6-8-8-8s-8,3.6-8,8v3.5c-1.9,2-3,4.6-3,7.5,0,3.5,1.6,6.7,4.4,8.8.2.1.4.2.6.2h12c.2,0,.4-.1.6-.2,2.8-2.1,4.4-5.3,4.4-8.8,0-2.9-1.1-5.6-3-7.5Zm-14-1.7v-1.8c0-3.3,2.7-6,6-6s6,2.7,6,6v1.8c-1.7-1.1-3.8-1.8-6-1.8s-4.3.7-6,1.8Zm12,8.3h-.3c-.4,0-.8-.3-1-.7-.3-1.1-1.1-2-2-2.6-.5-.3-.6-.9-.3-1.4.3-.5.9-.6,1.4-.3,1.3.9,2.3,2.2,2.8,3.7.2.6-.1,1.1-.6,1.3Z"/>
</svg>