<svg version="1.2" xmlns="http://www.w3.org/2000/svg" viewBox="0 0 185 132" width="1514" height="1080">
	<title>Small</title>
	<style>
		.s0 { fill: #000000 } 
	</style>
	<g id="Objects">
		<g>
			<g>
				<path class="s0" d="m181.3 35.9h-5.6v-15.9c0-3.1-2.4-5.6-5.4-5.6h-2.6c-3 0-5.4 2.5-5.4 5.6v15.9h-0.4v-22.9c0-3.1-2.5-5.6-5.4-5.6h-2.6c-3 0-5.4 2.5-5.4 5.6v22.9h-0.5v-29.4c0-3-2.4-5.5-5.4-5.5h-2.6c-3 0-5.4 2.5-5.4 5.5v29.4h-13v-0.1c-2-6.5-4.3-9.7-8.7-11.8-5.1-2.5-9.6 0.1-9.6 0.1 0 0-2.6-4.4-8.2-4.8-5.6-0.4-9.3 3.9-9.3 3.9 0 0-3.9-2.7-8.3-2.2-4.4 0.4-7.6 4.3-7.6 4.3 0 0-6-1.8-10.3-0.1-3.4 1.3-5 5-5.3 7.2-0.1 0.9-0.2 2.1-0.3 3.5h-4.1v-29.4c0-3-2.4-5.5-5.4-5.5h-2.6c-3 0-5.4 2.5-5.4 5.5v29.4h-0.5v-22.9c0-3.1-2.4-5.6-5.4-5.6h-2.6c-3 0-5.4 2.5-5.4 5.6v22.9h-0.4v-15.9c0-3.1-2.5-5.6-5.4-5.6h-2.7c-3 0-5.4 2.5-5.4 5.6v15.9h-5.3c-1 0-1.9 0.8-1.9 1.9v10.6c0 1 0.9 1.9 1.9 1.9h5.3v15.9c0 3 2.4 5.5 5.4 5.5h2.7c2.9 0 5.4-2.5 5.4-5.5v-15.9h0.4v22.9c0 3 2.4 5.5 5.4 5.5h2.6c3 0 5.4-2.5 5.4-5.5v-22.9h0.5v29.3c0 3.1 2.4 5.6 5.4 5.6h2.6c3 0 5.4-2.5 5.4-5.6v-29.3h2.8c0 4.7 0.2 16.3 1.6 25.8 1.7 12.2 7.7 15.6 7.7 15.6l-1.8 32.6h1.9l1.9-33.3c-1.7-1.2-3.2-2.7-4.2-4.6-6.3-11.6-5-36.1-5-36.1h2.4c0 0-0.1 2-0.1 5 0.7-0.8 1.6-1.3 2.2-1.6q-0.3-0.7-0.5-1.5c-2.2-6.9-2.6-16.3-2.4-18.2 0.2-1.9 1.2-6.1 5.7-7.2 4.6-1.1 9 0.6 9 0.6 0 0 2.2-3.9 7.2-4.3 5-0.4 8.4 3 8.4 3 1.9-3.8 6.2-5 9.9-4.5 5.8 0.7 5.9 6.6 5.9 6.6 0 0 1.8-3.7 6.6-3.3 3.6 0.3 9.4 2.9 10.4 11h-1.8c0 2.4-0.1 4.9-0.1 5.8 1 0 2 0.1 2.7 0.4 1.3 0.5 2.4 1.6 3.4 2.9 0.9 1.3 1.6 2.9 2.2 4.5 0 0 3.9 9.8 4.7 13.4 0.5 2.1 1.5 4.6 1 7.2-0.3 1.8-1.5 3.6-3.6 6.3-3 3.7-6.6 7.8-10.2 11.1-6.1 5.6-9.2 7.9-9.2 7.9l1.7 28.9h2.2l-1.8-28.2c10.2-7.5 19.1-18.7 19.9-19.7 1.8-2.1 4.1-6.2 2.3-11.9-1.4-4.5-2.7-9-4.3-12.9q-0.2-0.7-0.5-1.3h6.5v29.3c0 3.1 2.4 5.6 5.4 5.6h2.6c3 0 5.4-2.5 5.4-5.6v-29.3h0.5v22.9c0 3.1 2.4 5.5 5.3 5.5h2.7c2.9 0 5.4-2.4 5.4-5.5v-22.9h0.4v15.9c0 3 2.4 5.5 5.4 5.5h2.6c3 0 5.4-2.5 5.4-5.5v-15.9h5.6c1 0 1.9-0.9 1.9-1.9v-10.6c0-1.1-0.9-1.9-1.9-1.9zm-61.7 8.3c-1.6-0.8-6.2-0.2-10.8 1 2.7 2.4 2.7 5.5 2.7 5.6q-0.3-0.6-0.6-1.2c-1.7-2.7-5-3.7-7.9-2.7q-1.5 0.5-2.7 1c-2 0.8-3.2 2.2-3 3.3q0 0.1 0 0.3c0.5 0.7 1.6 1.6 3.8 2.1 5.1 1.1 8.4-1.1 8.4-1.1 0 0-2.7 2.7-8.5 1.8q-2.2-0.4-3.3-1.2c1.8 5 7 6.4 12 6.2 2.4-0.1 6-1.3 7.8-2.9 1.2-1 2.3-2.4 2.8-4 0 0-0.1 2.8-2 5.1 1.9-0.2 3-1 3.1-1.1-0.1 0.3-2.1 4.3-12.3 4.6-2.1 0.1-3.9-0.1-5.5-0.6-15.5 3-18.6 20.7-18.6 20.7 0.1-15.1 11.3-20.9 14.9-22.3q-0.5-0.4-1-0.8c0 0-0.9-0.7-1.2-1.1 0 0-5.3 2.2-8.6-2.8-0.4 0.5-1.3 1.3-3 1.7-2.8 0.8-4.9-0.5-4.9-0.5 4.6 1 7-2.8 7-2.8-0.3-0.6-0.5-1.2-0.7-1.9-1.3-4.5-1.7-16.9-1.8-21-2-2-4.6-2.7-4.6-2.7 2.7 0.2 4.2 1.1 4.5 1.3-0.5-0.5-3.9-3.6-7.8-2.8q-0.1 0-0.1 0c-3.2 0.7-5.3 3.8-5 7.2 0.3 3.8 0.9 10.5 1.4 14 0.7 4.9 1.6 9.3 5.8 11.1 4 1.6 8.4-1.9 8.9-2.3-0.3 0.5-3.3 5.3-8.9 4.4-2.1-0.4-4.1-1.7-5.6-4.2-0.5 0.5-1.3 1-2.5 1.3-2.9 0.8-5-0.5-5-0.5 3.7 0.8 6-1.5 6.7-2.4q-0.2-0.6-0.4-1.2c-1.2-3.7-2.6-18-2.9-21.7-2.2-1-5-1.2-5-1.2 1.6-0.6 4.6 0.2 4.9 0.3-0.4-0.3-4.9-2.5-8.9-0.4-4.2 2.2-3 10-2.3 14.1 0.9 5.1 2.6 13 6.6 14.5 3.9 1.4 8.3-1.3 8.7-1.6-0.2 0.4-2.6 4.3-7.4 3.9-2.8-0.1-5.3-1.3-7.3-6.2-2.3 1.9-2.3 5.4-2.3 5.5v-0.1 0.1c1.4-1.6 3.4-2.1 3.6-2.1-3.4 2.1-3.1 8.8-3.1 9.2 0.7 6.3 2.1 13.1 4.9 18 3.5 6.2 14.3 10.3 14.3 10.3 0 0-3.1-0.2-6.8-1.4l-2 19.4-0.2-20.2q-0.6-0.3-1.1-0.5l-2.4 31.6h43.4l-2.5-28c-1.4 0.3-5.9 0.6-8.1 0.8l-1 23.4-1.6-23.2c-2.7 0.1-5.3 0-6.3-0.2 1.9-0.1 5.1-0.5 8.9-1.5-7 0.7-13.4 0.1-13.4 0.1 10.9-0.8 17.6-1.7 21.3-3.1 2.6-1 5-2.8 7.5-4.8 10.4-8.4 16.2-16.9 16.7-18.5 0.9-3.1-6-23-9.8-25.1zm-24.4 5.9c0.3-1.9 3-3.6 6.6-4.9-0.2-2.6-0.3-12.8-1.7-18.1-1.6-1.9-5.2-2.9-5.2-2.9 2 0.2 3.2 0.5 4 0.7-1.1-1-2.8-1.8-5.7-1.1-4.7 1-4.9 5.1-4.7 7.4 0.2 3.8 0.5 9.5 0.7 11.9 0.3 3.3 0.3 9.8 2.9 11.8 1.7 1.3 3.9 1.5 5.1 1.3-1.5-2-2.1-4.3-2-6.1zm21.3-16.1c0.5-3.6-3.6-6.2-5.2-6.8-2-0.7-6.5-0.8-7.9 3.7-0.2 4.3 0.4 11.2 0.8 13.5 1.1-0.4 1.8-0.6 3.1-0.9 3.1-0.8 5.8-1.5 8.5-1.7 0-1 0-3.7 0-5.9 0-3.1-2-5.1-2.2-5.4 1.6 1.1 2.4 2.4 2.9 3.5zm-21.3 16.1c0.3-1.9 3-3.6 6.6-4.9-0.2-2.6-0.3-12.8-1.7-18.1-1.6-1.9-5.2-2.9-5.2-2.9 2 0.2 3.2 0.5 4 0.7-1.1-1-2.8-1.8-5.7-1.1-4.7 1-4.9 5.1-4.7 7.4 0.2 3.8 0.5 9.5 0.7 11.9 0.3 3.3 0.3 9.8 2.9 11.8 1.7 1.3 3.9 1.5 5.1 1.3-1.5-2-2.1-4.3-2-6.1zm-86.4-11.7h-5.7c0-0.4 0.1-1.2 1.3-1.2h4.4zm3.5-16.9l-1.3 14.3v-14.9c0-4.5 4.6-4.7 4.6-4.7-3.2 1-3.3 5.3-3.3 5.3zm13.9-7l-1.3 21.3v-21.9c0-4.6 4.7-4.7 4.7-4.7-3.3 0.9-3.4 5.3-3.4 5.3zm13.7-6.6l-1.3 27.9v-28.5c0-4.5 4.7-4.7 4.7-4.7-3.3 1-3.4 5.3-3.4 5.3zm10.1 30.5v-1.3h3.9c0 0.3 0 1.3 0 1.3zm84.6 0h-15.3c0 0 0-1 0-1.3h15.3zm3.4-30.5l-1.3 27.9v-28.5c0-4.5 4.6-4.7 4.6-4.7-3.2 1-3.3 5.3-3.3 5.3zm13.7 6.6l-1.3 21.3v-21.9c0-4.6 4.6-4.7 4.6-4.7-3.2 0.9-3.3 5.3-3.3 5.3zm13.8 7l-1.3 14.3v-14.9c0-4.5 4.6-4.7 4.6-4.7-3.2 1-3.3 5.3-3.3 5.3zm16 16.9h-5.7v-1.3h4.4c1.2 0 1.3 0.9 1.3 1.2q0 0.1 0 0.1zm-65-4.5c0.5-3.6-3.6-6.2-5.2-6.8-2-0.6-6.5-0.8-7.9 3.8-0.2 4.2 0.4 11.1 0.8 13.4 1.2-0.4 1.8-0.6 3.1-0.9 3.1-0.8 5.8-1.5 8.5-1.7 0-0.9 0-3.6 0-5.9 0-3-2-5.1-2.2-5.4 1.6 1.2 2.5 2.5 2.9 3.5zm-21.2 16.2c0.2-2 2.9-3.7 6.5-5-0.2-2.6-0.3-12.7-1.7-18.1-1.6-1.9-5.2-2.9-5.2-2.9 2 0.2 3.2 0.5 4 0.7-1.1-0.9-2.8-1.7-5.7-1.1-4.7 1-4.8 5.2-4.7 7.4 0.2 3.8 0.5 9.6 0.7 11.9 0.3 3.3 0.3 9.8 2.9 11.8 1.8 1.4 3.9 1.5 5.1 1.4-1.5-2.1-2.1-4.4-1.9-6.1zm21.2-16.2c0.5-3.6-3.6-6.2-5.2-6.8-2-0.6-6.5-0.8-7.9 3.8-0.2 4.2 0.4 11.1 0.8 13.4 1.2-0.4 1.8-0.6 3.1-0.9 3.1-0.8 5.8-1.5 8.5-1.7 0-0.9 0-3.6 0-5.9 0-3-2-5.1-2.2-5.4 1.6 1.2 2.5 2.5 2.9 3.5zm-21.2 16.2c0.2-2 2.9-3.7 6.5-5-0.2-2.6-0.3-12.7-1.7-18.1-1.6-1.9-5.2-2.9-5.2-2.9 2 0.2 3.2 0.5 4 0.7-1.1-0.9-2.8-1.7-5.7-1.1-4.7 1-4.8 5.2-4.7 7.4 0.2 3.8 0.5 9.6 0.7 11.9 0.3 3.3 0.3 9.8 2.9 11.8 1.8 1.4 3.9 1.5 5.1 1.4-1.5-2.1-2.1-4.4-1.9-6.1zm21.2-16.2c0.5-3.6-3.6-6.2-5.2-6.8-2-0.6-6.5-0.8-7.9 3.8-0.2 4.2 0.4 11.1 0.8 13.4 1.2-0.4 1.8-0.6 3.1-0.9 3.1-0.8 5.8-1.5 8.5-1.7 0-0.9 0-3.6 0-5.9 0-3-2-5.1-2.2-5.4 1.6 1.2 2.5 2.5 2.9 3.5zm-32.7 49.3c0 0-1.4-5.4 0.4-10.9-0.4-1.7-1.2-3.1-1.3-3.3 0.7 0.5 1.4 1.5 1.7 2.1 0.9-2 2.1-4 4.2-5.7-0.6 0.7-5.4 6.6-5 17.8zm27.8-21.9c0.3 0.2 5.8 4 10.6 3.1 0 0-7.2 3.3-10.6-3.1zm4.9-27.4c0.5-3.6-3.6-6.2-5.2-6.8-2-0.6-6.5-0.8-7.9 3.8-0.2 4.2 0.4 11.1 0.8 13.4 1.2-0.4 1.8-0.6 3.1-0.9 3.1-0.8 5.8-1.5 8.5-1.7 0-0.9 0-3.6 0-5.9 0-3-2-5.1-2.2-5.4 1.6 1.2 2.5 2.5 2.9 3.5zm-21.2 16.2c0.2-2 2.9-3.7 6.5-5-0.2-2.6-0.3-12.7-1.7-18.1-1.6-1.9-5.2-2.9-5.2-2.9 2 0.2 3.2 0.5 4 0.7-1.1-0.9-2.8-1.7-5.7-1.1-4.7 1-4.8 5.2-4.7 7.4 0.2 3.8 0.5 9.6 0.7 11.9 0.3 3.3 0.3 9.8 2.9 11.8 1.8 1.4 3.9 1.5 5.1 1.4-1.5-2.1-2.1-4.4-1.9-6.1z"/>
				<path class="s0" d="m110.3 124.3h-2.4l0.5 6.4h2.2zm-48.1 0l-0.4 6.3h2.2l0.5-6.3z"/>
			</g>
		</g>
	</g>
</svg>