<?xml version="1.0" encoding="utf-8"?>
<!-- Generator: Adobe Illustrator 27.0.0, SVG Export Plug-In . SVG Version: 6.00 Build 0)  -->
<svg version="1.1" id="Layer_1" xmlns="http://www.w3.org/2000/svg" xmlns:xlink="http://www.w3.org/1999/xlink" x="0px" y="0px"
	 viewBox="0 0 510 510" style="enable-background:new 0 0 510 510;" xml:space="preserve">
<style type="text/css">
	.st0{fill:#FD5101;}
</style>
<g id="team_x2C__business_people_x2C__businessmen">
	<g>
		<path class="st0" d="M170.6,255.3c-2.9,0-5.3-2.4-5.3-5.3v-21.4c0-2.9,2.4-5.3,5.3-5.3s5.3,2.4,5.3,5.3V250
			C175.9,253,173.5,255.3,170.6,255.3L170.6,255.3z"/>
		<path class="st0" d="M128.4,255c-9,0-18-2.7-26.8-8.1c-2.5-1.5-3.3-4.8-1.8-7.2c1.5-2.5,4.8-3.2,7.2-1.7
			c7.1,4.3,14.2,6.5,21.3,6.5c15.4,0,31.3-10.6,43.7-28.9c1.6-2.4,4.9-3.1,7.3-1.4c2.4,1.6,3.1,4.9,1.4,7.3
			C166.5,242.8,147.4,255,128.4,255z"/>
		<path class="st0" d="M86.5,232c-1.5,0-3-0.6-4-1.9c-17.8-21.1-28-51.3-28-82.6c0-64.2,37.1-92.9,73.9-92.9
			c14.2,0,27.7,4.2,38.9,12c2.4,1.7,3,5,1.3,7.3c-1.7,2.4-5,2.9-7.4,1.3c-9.5-6.6-20.9-10.1-32.9-10.1c-37.9,0-63.3,33.1-63.3,82.4
			c0,28.9,9.3,56.6,25.5,75.8c1.9,2.2,1.6,5.6-0.7,7.4C88.9,231.5,87.7,232,86.5,232L86.5,232z"/>
		<path class="st0" d="M90.8,257.3c0.3-1.7,0.6-3.4,0.6-5.1v-25.8c0-2.9-2.4-5.3-5.3-5.3s-5.3,2.4-5.3,5.3v25.8c0,0.5-0.2,1-0.2,1.5
			C84.1,254.7,87.5,255.9,90.8,257.3L90.8,257.3z"/>
		<g>
			<path class="st0" d="M61.5,450.7c-1.9,0-3.7-1-4.7-2.8L23.7,384c-1.4-2.6-0.3-5.8,2.2-7.1c2.6-1.3,5.8-0.3,7.1,2.2L66.2,443
				c1.3,2.6,0.3,5.8-2.2,7.1C63.2,450.5,62.3,450.7,61.5,450.7L61.5,450.7z"/>
			<path class="st0" d="M77.6,322.7c-2.6,0-4.8-1.9-5.2-4.6l-6.7-48.6l-32,38.6c-1.9,2.2-5.2,2.6-7.4,0.7c-2.2-1.9-2.6-5.2-0.7-7.4
				l39.6-47.9c1.3-1.6,3.5-2.3,5.5-1.7c2,0.6,3.5,2.3,3.8,4.4l8.3,60.5c0.4,2.9-1.6,5.5-4.5,6C78.1,322.7,77.9,322.7,77.6,322.7
				L77.6,322.7z"/>
			<path class="st0" d="M111.9,296.5c-1,0-2-0.3-2.9-0.9c-13.5-8.9-22-26.1-27.6-40.5l-9.2,6.1c-2.4,1.6-5.7,1-7.3-1.5
				c-1.6-2.4-1-5.7,1.5-7.3l14.8-9.9c1.3-0.9,3.1-1.1,4.6-0.6c1.5,0.5,2.8,1.7,3.3,3.2c7.7,21.6,16.1,35.2,25.8,41.5
				c2.4,1.6,3.1,4.9,1.5,7.3C115.3,295.7,113.6,296.5,111.9,296.5L111.9,296.5z"/>
		</g>
	</g>
	<g>
		<path class="st0" d="M339.4,255.3c-2.9,0-5.3-2.4-5.3-5.3v-21.4c0-2.9,2.4-5.3,5.3-5.3s5.3,2.4,5.3,5.3V250
			C344.7,253,342.3,255.3,339.4,255.3L339.4,255.3z"/>
		<path class="st0" d="M381.6,255c-19,0-38.1-12.2-52.4-33.6c-1.6-2.4-1-5.7,1.4-7.3s5.7-1,7.3,1.4c12.4,18.4,28.3,28.9,43.7,28.9
			c7,0,14.2-2.2,21.3-6.5c2.5-1.5,5.7-0.7,7.2,1.8c1.5,2.5,0.7,5.7-1.8,7.2C399.6,252.3,390.6,255,381.6,255L381.6,255z"/>
		<path class="st0" d="M423.5,232c-1.2,0-2.4-0.4-3.4-1.2c-2.2-1.9-2.5-5.2-0.6-7.4c16.2-19.3,25.5-46.9,25.5-75.8
			c0-49.3-25.4-82.4-63.3-82.4c-12,0-23.4,3.5-32.9,10.1c-2.4,1.6-5.7,1.1-7.4-1.3c-1.7-2.4-1.1-5.7,1.3-7.3
			c11.2-7.8,24.7-12,38.9-12c36.8,0,73.9,28.7,73.9,92.9c0,31.3-10.2,61.5-28,82.6C426.5,231.3,425,232,423.5,232L423.5,232z"/>
		<path class="st0" d="M426.4,255.2l0.2-0.2c0.8-0.8,1.8-1.3,2.7-1.8c0-0.4-0.1-0.7-0.1-1.1v-25.8c0-2.9-2.4-5.3-5.3-5.3
			s-5.3,2.4-5.3,5.3v25.8c0,4.4,1.2,8.6,3,12.7c0.9-1.1,1.5-2.3,2.3-3.5C423.8,259.3,424.5,257.1,426.4,255.2L426.4,255.2z"/>
		<g>
			<path class="st0" d="M448.5,450.7c-0.8,0-1.7-0.2-2.4-0.6c-2.6-1.4-3.6-4.5-2.2-7.1l33.1-63.8c1.3-2.6,4.5-3.6,7.1-2.2
				c2.6,1.3,3.6,4.5,2.2,7.1l-33.1,63.8C452.2,449.6,450.4,450.7,448.5,450.7L448.5,450.7z"/>
			<path class="st0" d="M432.4,322.7c-0.2,0-0.5,0-0.7,0c-2.9-0.4-4.9-3.1-4.5-6l8.3-60.5c0.3-2.1,1.8-3.8,3.8-4.4
				c2-0.6,4.2,0.1,5.5,1.7l39.6,47.9c1.9,2.2,1.5,5.6-0.7,7.4c-2.2,1.9-5.6,1.5-7.4-0.7l-32-38.6l-6.7,48.6
				C437.2,320.8,435,322.7,432.4,322.7L432.4,322.7z"/>
			<path class="st0" d="M398.1,296.5c-1.7,0-3.4-0.8-4.4-2.4c-1.6-2.4-0.9-5.7,1.5-7.3c9.7-6.4,18.1-20,25.8-41.5
				c0.5-1.5,1.8-2.7,3.3-3.2c1.5-0.5,3.2-0.3,4.6,0.6l14.8,9.9c2.4,1.6,3.1,4.9,1.5,7.3c-1.6,2.4-4.9,3.1-7.3,1.5l-9.2-6.1
				c-5.5,14.3-14.1,31.6-27.6,40.5C400.1,296.2,399.1,296.5,398.1,296.5L398.1,296.5z"/>
		</g>
	</g>
	<g>
		<path class="st0" d="M397.7,308.4l-44-19.3l-31.3-37.5c-0.1-0.1-0.2-0.1-0.4-0.2c-0.3-0.3-0.5-0.6-0.8-0.8l-13.5-9v-15.6
			c19.1-23.3,31.6-58.1,31.6-95.6c0-74.3-42.4-107.5-84.4-107.5s-84.4,33.2-84.4,107.5c0,36.2,11.6,70.7,31.6,95.2v16l-13.5,9
			c-0.3,0.2-0.5,0.5-0.8,0.8c-0.1,0.1-0.3,0.1-0.4,0.2l-31.3,37.5l-44,19.2c-25.5,11.2-42,36.6-42,64.7v108.7c0,2.9,2.4,5.3,5.3,5.3
			s5.3-2.4,5.3-5.3V373.1c0-24,14-45.6,35.7-55l24.7-10.8l-6.4,7.6c-1.8,2.1-1.6,5.2,0.3,7.1l15.1,15.1l-23.6,7.9
			c-1.5,0.5-2.6,1.6-3.2,3c-0.6,1.4-0.5,3,0.2,4.4l68.6,131.9c0.9,1.8,2.8,2.8,4.7,2.8c0.8,0,1.7-0.2,2.4-0.6
			c2.6-1.3,3.6-4.5,2.2-7.1L135.9,353l25.8-8.6c1.7-0.6,3.1-2,3.5-3.8c0.4-1.8-0.1-3.6-1.4-4.9L146.1,318l42-50.5L215.8,466
			c0,0,0,0,0,0c0,0,0,0.1,0,0.1l2.3,16.5c0.4,2.6,2.6,4.5,5.2,4.5c0.2,0,0.5,0,0.7,0c2.9-0.4,4.9-3.1,4.5-6l-2.3-16.5c0,0,0,0,0,0
			c0,0,0,0,0-0.1l-18.7-134.2l31.7-18.1c2.5-1.4,3.4-4.7,2-7.2c-1.4-2.5-4.7-3.4-7.2-2l-28.1,16l-8.6-61.5l7.5-5
			c8.9,23.1,23.5,49.9,50.1,49.9c28.6,0,43.6-32.5,50.2-49.9l7.5,5l-8.6,61.5l-28.1-16c-2.5-1.4-5.8-0.6-7.2,2
			c-1.4,2.5-0.6,5.8,2,7.2l31.7,18.1l-18.7,134.2c0,0,0,0,0,0.1c0,0,0,0,0,0l-2.3,16.5c-0.4,2.9,1.6,5.5,4.5,6c0.2,0,0.5,0,0.7,0
			c2.6,0,4.8-1.9,5.2-4.5l2.3-16.5c0,0,0-0.1,0-0.1c0,0,0,0,0,0l27.7-198.5l42,50.5l-17.7,17.7c-1.3,1.3-1.8,3.2-1.4,4.9
			c0.4,1.8,1.7,3.2,3.5,3.8l25.8,8.6l-65.7,126.4c-1.4,2.6-0.3,5.8,2.2,7.1c0.8,0.4,1.6,0.6,2.4,0.6c1.9,0,3.7-1,4.7-2.8l68.6-131.9
			c0.7-1.4,0.8-3,0.2-4.4c-0.6-1.4-1.8-2.5-3.2-3l-23.5-7.9l15.1-15.1c1.9-1.9,2.1-5,0.3-7.1l-6.4-7.6l24.7,10.8
			c21.7,9.5,35.6,31.1,35.6,55v108.7c0,2.9,2.4,5.3,5.3,5.3s5.3-2.4,5.3-5.3V373.1C439.6,345,423.2,319.6,397.7,308.4L397.7,308.4z
			 M255,291.9c-16.7,0-30.5-15.9-42.2-48.5v-6.7c4,3.6,8.2,6.5,12.4,9c0.4,0.4,0.7,0.8,1.2,1c9.4,5.4,19,8.2,28.6,8.2
			c15.1,0,29.6-6.7,42.2-18v6.5C285.6,276,271.8,291.9,255,291.9L255,291.9z"/>
		<path class="st0" d="M239.2,339.4h31.7c2.1,0,4-1.2,4.8-3.1c0,0,1.6-3.5,3.5-8c1.1-2.7-0.1-5.8-2.8-6.9s-5.8,0.1-6.9,2.8
			c-0.8,1.8-1.5,3.4-2.1,4.8h-24.8c-0.6-1.3-1.2-2.8-2-4.5c-1.1-2.7-4.3-3.9-6.9-2.8c-2.7,1.1-3.9,4.2-2.8,6.9
			c1.9,4.4,3.4,7.8,3.4,7.8C235.2,338.2,237.1,339.4,239.2,339.4L239.2,339.4z"/>
		<path class="st0" d="M286.3,416.8L276,354.4c-0.4-2.5-2.6-4.4-5.2-4.4h-31.6c-2.6,0-4.8,1.9-5.2,4.4l-10.3,62.5
			c-0.5,2.9,1.5,5.6,4.4,6.1c0.3,0,0.6,0.1,0.9,0.1c2.5,0,4.8-1.8,5.2-4.4l9.6-58.1h22.7l9.6,58c0.5,2.9,3.2,4.8,6.1,4.3
			C284.8,422.4,286.8,419.7,286.3,416.8L286.3,416.8z"/>
	</g>
</g>
</svg>
