<?xml version="1.0" encoding="utf-8"?>
<!-- Generator: Adobe Illustrator 27.0.0, SVG Export Plug-In . SVG Version: 6.00 Build 0)  -->
<svg version="1.1" id="Layer_1" xmlns="http://www.w3.org/2000/svg" xmlns:xlink="http://www.w3.org/1999/xlink" x="0px" y="0px"
	 viewBox="0 0 510 510" style="enable-background:new 0 0 510 510;" xml:space="preserve">
<style type="text/css">
	.st0{fill:#FD5101;}
</style>
<path class="st0" d="M137.1,435.6c-2.8-0.8-5.7,0.9-6.5,3.7l-4.1,14.9c-15.9-12.8-35.5-19.8-56.2-19.8c-15.6,0-31.1,4.2-44.8,12.1
	c-2.5,1.5-3.4,4.7-1.9,7.2c1.5,2.5,4.7,3.4,7.2,1.9c12.1-7,25.8-10.7,39.6-10.7c20.8,0,40.4,8,55.3,22.5c1,1,2.3,1.5,3.7,1.5
	c0.5,0,0.9-0.1,1.4-0.2c1.8-0.5,3.2-1.9,3.7-3.7l6.4-23C141.6,439.3,139.9,436.4,137.1,435.6L137.1,435.6z"/>
<path class="st0" d="M484.5,405.6c-30.2-17.4-68.5-17.6-98.6-0.9l-6.9-24.9c-0.8-2.8-3.7-4.4-6.5-3.7c-2.8,0.8-4.5,3.7-3.7,6.5
	l8.8,31.6c0.5,1.6,1.6,2.9,3.2,3.5c0.6,0.2,1.2,0.3,1.9,0.3c1,0,2-0.3,2.9-0.9c27.7-18.1,64.7-19.1,93.7-2.5
	c2.5,1.5,5.8,0.6,7.2-1.9C487.9,410.3,487,407.1,484.5,405.6z"/>
<path class="st0" d="M338,376.1c-2.8-0.8-5.7,0.9-6.5,3.7l-9.5,34.2c-5.8-2.4-11.9-4.1-18.1-5.1c-2.9-0.4-5.6,1.5-6,4.4
	c-0.5,2.9,1.5,5.6,4.4,6c7.2,1.1,14.2,3.4,20.8,6.8c0.8,0.4,1.6,0.6,2.4,0.6c0.7,0,1.5-0.1,2.1-0.4c1.5-0.6,2.5-1.9,3-3.4l11.1-40.2
	C342.5,379.8,340.8,376.9,338,376.1L338,376.1z"/>
<path class="st0" d="M245,437.3c2.7-2.6,5.6-5,8.7-7c2.4-1.6,3-4.9,1.4-7.3c-1.6-2.4-4.9-3-7.3-1.4c-3.6,2.4-6.9,5.1-10.1,8.1
	c-2.1,2-2.2,5.4-0.2,7.5c1,1.1,2.4,1.6,3.8,1.6C242.7,438.8,244,438.3,245,437.3L245,437.3z"/>
<path class="st0" d="M267.2,471.9c-1.9-2.6-4.1-5-6.3-7.1c-0.6-0.6-1.2-1.1-1.8-1.7c-1.8-1.8-3.7-3.3-5.4-4.5c0,0,0,0,0,0
	c-7.4-5.7-15.9-9.7-25.2-11.9c-14.1-3.5-31.6-1.9-46.1,5.3l-3.7-13.3c-0.8-2.8-3.7-4.4-6.5-3.7c-2.8,0.8-4.4,3.7-3.7,6.5l5.5,19.8
	c0.4,1.6,1.6,2.9,3.2,3.5c1.5,0.6,3.3,0.4,4.7-0.4c13-8.1,29.4-10.6,42.9-7.6c0.4,0.2,0.7,0.3,1.1,0.4c7.7,1.8,14.9,5.1,21.5,10
	c1.5,1.1,3.1,2.4,4.6,3.8c0,0,0.1,0,0.1,0.1c2.4,2.1,4.6,4.5,6.6,7.1l4.5,6.7c1,1.5,2.7,2.3,4.4,2.3c1,0,1.9-0.3,2.8-0.8
	c2.4-1.5,3.2-4.7,1.7-7.1C270.6,476.6,269,474.1,267.2,471.9L267.2,471.9z"/>
<path class="st0" d="M481.9,277.1l-42.5-42.5c0-0.9-0.1-1.8-0.1-2.7c-3.3-78.9-31.5-139.4-43.4-161.6c-0.5-0.9-0.9-1.8-1.4-2.5
	c-5.7-10.5-25.4-45-39.2-45S321.7,57.2,316,67.6c-0.5,0.8-0.9,1.8-1.4,2.6c-12,22.5-40.1,83.2-43.5,161.6c-0.1,0.9-0.1,1.9-0.1,2.8
	l-23.3,23.3c-2.1,2.1-2.1,5.4,0,7.5c1,1,2.4,1.5,3.7,1.5s2.7-0.5,3.7-1.5l15.6-15.6c0.2,22.2,3.8,45,10.5,65.8
	c1.3,4.2,2.7,8.2,4.2,12.4c2.7,7,9.5,11.5,17.4,11.5h20.7c2.9,0,5.3-2.4,5.3-5.3s-2.4-5.3-5.3-5.3h-20.7c-3.5,0-6.4-1.9-7.5-4.7
	c-1.4-3.9-2.8-7.7-4-11.8c-6.5-20.4-10-42.8-10-64.6c0-5.2,0.1-10.2,0.4-15.5c3.1-73.7,28.7-131.2,41-154.9
	c10.1,5.7,21.2,8.7,32.4,8.7s22.2-2.9,32.5-8.6c12.2,23.4,37.8,80.7,41,154.9c0.3,5.2,0.4,10.2,0.4,15.4c0,21.9-3.5,44.2-10.1,64.7
	c-1.1,4-2.5,7.8-3.9,11.6c-1.1,2.9-4.1,4.7-7.5,4.7h-20.7c-2.9,0-5.3,2.4-5.3,5.3s2.4,5.3,5.3,5.3h20.7c7.9,0,14.7-4.5,17.4-11.6
	c1.5-4.1,2.9-8.2,4.1-12.2c6.7-20.7,10.4-43.5,10.6-65.8l34.8,34.8c1.3,1.3,2.1,3.3,2.1,5.1v59.7c-7.7-6.2-19.3-15.7-30-24.4
	c-2.3-1.8-5.6-1.5-7.4,0.8c-1.8,2.3-1.5,5.6,0.8,7.4c18,14.5,38.6,31.3,38.6,31.3c1,0.8,2.1,1.2,3.3,1.2c0.8,0,1.5-0.2,2.3-0.5
	c1.8-0.9,3-2.7,3-4.8v-70.8C487.1,285,485.2,280.4,481.9,277.1L481.9,277.1z"/>
<path class="st0" d="M397.4,170.6c0-23.3-18.9-42.2-42.2-42.2S313,147.3,313,170.6s18.9,42.2,42.2,42.2S397.4,193.8,397.4,170.6z
	 M323.6,170.6c0-17.4,14.2-31.6,31.6-31.6s31.6,14.2,31.6,31.6s-14.2,31.6-31.6,31.6S323.6,188,323.6,170.6z"/>
<path class="st0" d="M197.4,228.6c0-23.3-18.9-42.2-42.2-42.2S113,205.3,113,228.6s18.9,42.2,42.2,42.2S197.4,251.9,197.4,228.6
	L197.4,228.6z M123.6,228.6c0-17.4,14.2-31.6,31.6-31.6s31.6,14.2,31.6,31.6s-14.2,31.6-31.6,31.6S123.6,246,123.6,228.6z"/>
<path class="st0" d="M371.1,272c0-9.4-7.1-17-15.8-17s-15.8,7.6-15.8,17v82.1c0,9.4,7.1,17,15.8,17s15.8-7.6,15.8-17V272z"/>
<path class="st0" d="M238.9,297.9c0-0.9-0.1-1.8-0.1-2.7c-3.3-78.9-31.5-139.4-43.4-161.6c-0.5-0.9-0.9-1.8-1.4-2.5
	c-5.7-10.6-25.4-45-39.2-45s-33.5,34.3-39.2,44.8c-0.5,0.8-0.9,1.8-1.3,2.6c-12,22.5-40.1,83.2-43.4,161.6c-0.1,0.9-0.1,1.9-0.1,2.8
	l-42.5,42.5c-3.3,3.3-5.2,7.9-5.2,12.6v70.8c0,2,1.2,3.9,3,4.8c0.7,0.4,1.5,0.5,2.3,0.5c1.2,0,2.4-0.4,3.3-1.2
	c0,0,21-17.2,39.1-31.8c2.3-1.8,2.6-5.1,0.8-7.4c-1.8-2.3-5.1-2.6-7.4-0.8c-10.9,8.7-22.8,18.4-30.6,24.8V353c0-1.9,0.8-3.8,2.2-5.1
	l34.8-34.8c0.2,22.2,3.8,45,10.4,65.8c1.3,4.2,2.7,8.2,4.2,12.4c2.7,7,9.5,11.5,17.4,11.5h20.7c2.9,0,5.3-2.4,5.3-5.3
	s-2.4-5.3-5.3-5.3h-20.7c-3.5,0-6.4-1.9-7.5-4.7c-1.4-3.9-2.8-7.7-4-11.8c-6.5-20.4-10-42.8-10-64.5c0-5.2,0.1-10.2,0.4-15.5
	c3.1-73.7,28.7-131.2,41-154.9c10.1,5.7,21.2,8.7,32.4,8.7s22.2-2.9,32.5-8.6c12.2,23.4,37.8,80.7,41,154.9
	c0.3,5.2,0.4,10.2,0.4,15.4c0,21.9-3.5,44.2-10.1,64.7c-1.1,4-2.4,7.8-3.9,11.6c-1.1,2.9-4.1,4.7-7.5,4.7h-20.7
	c-2.9,0-5.3,2.4-5.3,5.3s2.4,5.3,5.3,5.3h20.7c7.9,0,14.7-4.5,17.4-11.6c1.5-4.1,2.9-8.2,4.1-12.2c6.7-20.7,10.4-43.5,10.6-65.8
	l34.8,34.8c1.3,1.3,2.1,3.3,2.1,5.1v59.7c-7.7-6.2-19.3-15.7-30-24.4c-2.3-1.8-5.6-1.5-7.4,0.8c-1.8,2.3-1.5,5.6,0.8,7.4
	c18,14.5,38.6,31.3,38.6,31.3c1,0.8,2.1,1.2,3.3,1.2c0.8,0,1.5-0.2,2.3-0.5c1.8-0.9,3-2.7,3-4.8V353c0-4.7-1.9-9.3-5.2-12.6
	L238.9,297.9L238.9,297.9z M127.3,131.5c14.1-24.8,24.7-34.3,27.3-34.8c2.8,0.5,13.5,9.9,27.6,34.9
	C164.8,141.3,144.4,141.2,127.3,131.5L127.3,131.5z"/>
<path class="st0" d="M170.6,335.3c0-9.4-7.1-17-15.8-17s-15.8,7.6-15.8,17v82.1c0,9.4,7.1,17,15.8,17s15.8-7.6,15.8-17V335.3z"/>
</svg>
