<?xml version="1.0" encoding="utf-8"?>
<!-- Generator: Adobe Illustrator 27.0.0, SVG Export Plug-In . SVG Version: 6.00 Build 0)  -->
<svg version="1.1" id="Layer_1" xmlns="http://www.w3.org/2000/svg" xmlns:xlink="http://www.w3.org/1999/xlink" x="0px" y="0px"
	 viewBox="0 0 510 510" style="enable-background:new 0 0 510 510;" xml:space="preserve">
<style type="text/css">
	.st0{fill:#FD5101;}
</style>
<g id="achievement_x2C__award_x2C__medal_x2C__victory">
	<path class="st0" d="M263,126c-0.9,0-1.8,0-2.7,0.1v12.9h-10.6v-12.7c-3.5,0.1-7,0.1-10.6,0v18c0,2.9,2.4,5.3,5.3,5.3h21.1
		c2.9,0,5.3-2.4,5.3-5.3v-18.7C268.1,125.9,265.4,126,263,126L263,126z"/>
	<path class="st0" d="M255,487.1C159,487.1,80.9,409,80.9,313S159,138.9,255,138.9S429.1,217,429.1,313S351,487.1,255,487.1z
		 M255,149.5c-90.2,0-163.5,73.4-163.5,163.5S164.8,476.6,255,476.6S418.5,403.2,418.5,313S345.2,149.5,255,149.5L255,149.5z"/>
	<path class="st0" d="M255,434.4c-66.9,0-121.3-54.4-121.3-121.3S188.1,191.7,255,191.7S376.3,246.1,376.3,313
		S321.9,434.4,255,434.4z M255,202.2c-61.1,0-110.8,49.7-110.8,110.8S193.9,423.8,255,423.8S365.8,374.1,365.8,313
		S316.1,202.2,255,202.2z"/>
	<path class="st0" d="M154.4,107.5c-1.6,0-3.1-0.7-4.2-2L92.6,31.4l8.3-6.5L158.5,99c1.8,2.3,1.4,5.6-0.9,7.4
		C156.6,107.2,155.5,107.5,154.4,107.5L154.4,107.5z"/>
	<path class="st0" d="M241.7,43.5c-1.6,0-3.1-0.7-4.2-2l-7.8-10c-1.8-2.3-1.4-5.6,0.9-7.4c2.3-1.8,5.6-1.4,7.4,0.9l7.8,10
		c1.8,2.3,1.4,5.6-0.9,7.4C244,43.1,242.8,43.4,241.7,43.5L241.7,43.5z"/>
	<path class="st0" d="M339.4,128.4H202.2c-2,0-3.9-1.2-4.7-3s-0.7-4,0.6-5.6l73.9-95c1.8-2.3,5.1-2.7,7.4-0.9
		c2.3,1.8,2.7,5.1,0.9,7.4L213,117.8h123.8l72.3-92.9c1.8-2.3,5.1-2.7,7.4-0.9c2.3,1.8,2.7,5.1,0.9,7.4l-73.9,95
		C342.6,127.6,341,128.4,339.4,128.4L339.4,128.4z"/>
	<path class="st0" d="M302.5,128.4H170.6c-2.9,0-5.3-2.3-5.3-5.3s2.4-5.3,5.3-5.3h131.9c2.9,0,5.3,2.4,5.3,5.3
		S305.4,128.4,302.5,128.4z"/>
	<path class="st0" d="M294.1,371.1c-0.8,0-1.6-0.2-2.4-0.6L255,351.9l-36.7,18.6c-1.8,0.9-3.9,0.7-5.5-0.5c-1.6-1.2-2.4-3.2-2.1-5.2
		l7-39.2l-29.6-27.8c-1.5-1.4-2-3.5-1.4-5.4s2.3-3.3,4.3-3.6l41-5.7l18.3-35.8c1.8-3.5,7.6-3.5,9.4,0l18.3,35.8l41,5.7
		c2,0.3,3.7,1.7,4.3,3.6s0.1,4-1.4,5.4l-29.6,27.8l7,39.2c0.4,2-0.4,4-2,5.2C296.3,370.7,295.2,371.1,294.1,371.1L294.1,371.1z"/>
</g>
</svg>
