<?xml version="1.0" encoding="utf-8"?>
<!-- Generator: Adobe Illustrator 27.0.0, SVG Export Plug-In . SVG Version: 6.00 Build 0)  -->
<svg version="1.1" id="Layer_1" xmlns="http://www.w3.org/2000/svg" xmlns:xlink="http://www.w3.org/1999/xlink" x="0px" y="0px"
	 viewBox="0 0 510 510" style="enable-background:new 0 0 510 510;" xml:space="preserve">
<style type="text/css">
	.st0{fill:#FD5101;}
</style>
<path class="st0" d="M386.3,237.8c-0.7,0-1.4-0.1-2.1-0.4c-2.7-1.2-3.9-4.3-2.7-7c7.8-17.6,11.8-36.3,11.8-55.7
	c0-17.6-3.3-34.8-9.8-51c-1.1-2.7,0.2-5.8,2.9-6.9c2.7-1.1,5.8,0.2,6.9,2.9c7,17.5,10.5,36,10.5,54.9c0,20.9-4.3,41.1-12.7,60
	C390.3,236.6,388.4,237.7,386.3,237.8L386.3,237.8z"/>
<path class="st0" d="M123.7,232.5c-2.1,0-4.1-1.3-4.9-3.3c-6.9-17.4-10.4-35.7-10.4-54.6c0-81.4,66.3-147.7,147.7-147.7
	c32.3,0,63,10.2,88.8,29.6c2.3,1.8,2.8,5.1,1,7.4c-1.7,2.3-5,2.8-7.4,1c-23.9-18-52.4-27.5-82.4-27.5C180.5,37.4,119,99,119,174.6
	c0,17.5,3.2,34.6,9.6,50.7c1.1,2.7-0.2,5.8-3,6.9C125,232.4,124.3,232.5,123.7,232.5L123.7,232.5z"/>
<path class="st0" d="M254.2,227.4c-5.5,0-10.7-2.2-14.4-6L182.9,163c-7.9-8.1-7.9-21.4,0-29.5c7.7-7.9,21.2-7.9,28.9,0l41.3,42.4
	c0.4,0.5,1.7,0.4,2.1,0L363.7,64.5c7.4-7.6,21.4-7.6,28.9,0c7.9,8.1,7.9,21.4,0,29.5l-124,127.3
	C264.9,225.2,259.7,227.4,254.2,227.4L254.2,227.4z"/>
<path class="st0" d="M119.9,270.1c-0.3,0-0.5-0.1-0.8-0.2c0,0.1-0.1,0.2-0.2,0.4l67.6,12.3c2.9,0.6,5.6-1.4,6.1-4.2
	c0.5-2.9-1.4-5.6-4.2-6.1l-64.2-11.7C127.1,264.2,125.6,270.7,119.9,270.1L119.9,270.1z"/>
<path class="st0" d="M126,363.9l-30.6-12.2v-10.8c-1.2,3.8-2.6,7.5-4.3,11.2c-0.2,0.4-0.4,0.6-0.7,0.9c-0.1,0.2-0.2,0.5-0.3,0.7
	c0,0.4-0.1,0.7-0.1,1.1c-0.1,2.2-1.3,3.7-2.7,4.7c0.3,0.2,0.5,0.5,0.8,0.7l32.5,13C120.3,369.2,122.4,365.2,126,363.9L126,363.9z"/>
<path class="st0" d="M406.8,400.9c-1.2-7.2-5.7-13.4-12.1-16.6l-43.8-23.9l-26.4-18.1c-2.4-1.6-5.7-1-7.3,1.4
	c-1.6,2.4-1,5.7,1.4,7.3l26.9,18.3l44.4,24.2c3.5,1.8,5.9,5.1,6.6,9c0.7,4-0.6,7.9-3.6,11c-3.5,3.6-9.6,4.3-14.8,1.7l-21.6-10.9
	c-2.6-1.3-5.8-0.3-7.1,2.3c-1.3,2.6-0.3,5.8,2.3,7.1c3.5,1.8,5.9,5.1,6.6,9c0.6,4-0.6,7.9-3.6,11c-3.5,3.6-9.6,4.3-14.8,1.7
	l-15.5-7.9c0,0,0,0,0,0l0,0c-2.6-1.3-5.8-0.3-7.1,2.3c-1.3,2.6-0.3,5.8,2.3,7.1c2.9,1.5,5.1,4,6.1,7.2s0.8,6.5-0.7,9.4
	c-1.5,2.9-4,5.1-7.2,6.1c-3.1,1-6.5,0.8-9.4-0.8l-28.3-14.3c-2.6-1.3-5.8-0.3-7.1,2.3c-1.3,2.6-0.3,5.8,2.3,7.1c3.5,1.8,6,5.1,6.6,9
	c0.6,4-0.6,7.9-3.7,10.9c-3.5,3.6-9.6,4.3-14.8,1.7l-15.5-7.9c-0.1,3.8-3.1,7.2-6.9,8.3l17.6,9c3.6,1.8,7.5,2.7,11.2,2.7
	c6,0,11.7-2.2,15.8-6.4c5-5.1,7.4-11.9,6.7-18.7l11.1,5.6c5.4,2.8,11.6,3.3,17.5,1.4c5.8-1.9,10.5-5.9,13.3-11.4
	c2-4,2.8-8.4,2.4-12.7c8.9,3.7,19.1,2,25.5-4.4c5-5.1,7.4-11.8,6.7-18.7l4.5,2.3c9.2,4.6,20.3,3.1,27-3.7
	C405.6,415.5,408,408.2,406.8,400.9L406.8,400.9z"/>
<path class="st0" d="M398.6,376.3c-2.9,0-5.3-2.4-5.3-5.3v-5.3c0-1.9,1.1-3.7,2.8-4.6l19.6-10.6l-29-83.3l-31.8,11.5
	c-2.5,0.9-5.3,0.8-7.7-0.2c-29.8-13-58-23.5-63.2-23.5c0,0-0.1,0-0.1,0c-13.4,2.4-42.8,14.6-55.3,19.7c-5.6,2.3-10.1,6.3-12.8,11.2
	c-2.7,4.9-6,10.3-9.6,16.2l-4.6,7.5c-1.6,2.6-2.1,5.8-1.3,8.7c0.7,2.6,2.3,4.7,4.5,5.9c9.4,5.1,19.8,1.9,25.2-4.1
	c3.1-3.5,8-12.2,10.8-19.5c0.8-2,2.7-3.4,4.9-3.4h36.9c2.8,0,5.1,2.2,5.3,5c0.6,12.1,14.9,34.1,35.1,39.5c2.8,0.8,4.5,3.6,3.7,6.5
	c-0.8,2.8-3.6,4.5-6.5,3.7c-23-6.1-38.8-28.2-42.3-44.1h-28.8c-3,7-7.5,15.1-11.4,19.5c-9.5,10.5-25.5,13.1-38,6.2
	c-4.8-2.6-8.2-7-9.7-12.5c-1.5-5.7-0.6-11.9,2.4-16.9l4.7-7.6c3.5-5.6,6.8-10.8,9.3-15.6c3.8-7.1,10.2-12.8,18-16
	c21.2-8.8,44.7-18,57.6-20.4c8.8-1.6,51.3,16.4,69.2,24.2l36.8-13.3c1.3-0.5,2.8-0.4,4.1,0.2s2.2,1.7,2.7,3l32.2,92.6
	c0.9,2.4-0.2,5.1-2.5,6.4l-20.8,11.2v2.2C403.8,373.9,401.5,376.3,398.6,376.3L398.6,376.3L398.6,376.3z"/>
<path class="st0" d="M433.9,380.7c-4.6,0-8.7-2.8-10.2-7.1l-38.9-111.9c-1-2.5-0.9-5.3,0.4-7.9c1.2-2.6,3.5-4.6,6.2-5.6l89.9-30
	c2.8-0.9,5.8,0.6,6.7,3.3c0.9,2.8-0.6,5.8-3.3,6.7l-89.9,30l39,112l48.2-9.7c2.9-0.6,5.6,1.3,6.2,4.1c0.6,2.9-1.3,5.6-4.1,6.2
	l-48.2,9.7C435.2,380.7,434.5,380.7,433.9,380.7L433.9,380.7z"/>
<path class="st0" d="M78.4,380.7c-0.6,0-1.2,0-1.8-0.1l-48.4-9.7c-2.9-0.6-4.7-3.4-4.1-6.2s3.4-4.7,6.2-4.1l48.2,9.7l38.9-112
	l-89.8-30c-2.8-0.9-4.3-3.9-3.3-6.7c0.9-2.8,3.9-4.3,6.7-3.3l89.9,30c2.8,0.9,5,3,6.2,5.6c1.2,2.6,1.3,5.4,0.3,8.1L88.5,373.7
	C87,378,82.9,380.8,78.4,380.7L78.4,380.7z"/>
<path class="st0" d="M313.8,470.7c-3.6,0-7.1-0.8-10.4-2.5L279.5,456c-2.6-1.3-3.6-4.5-2.3-7.1c1.3-2.6,4.5-3.6,7.1-2.3l23.9,12.2
	c2.9,1.5,6.3,1.8,9.4,0.7c3.1-1,5.7-3.2,7.2-6.1c3.1-6.1,0.7-13.5-5.4-16.6l-11.7-6c-2.6-1.3-3.6-4.5-2.3-7.1
	c1.3-2.6,4.5-3.6,7.1-2.3l11.8,6c11.2,5.7,15.7,19.5,10,30.8c-2.8,5.5-7.5,9.5-13.3,11.4C318.5,470.4,316.1,470.7,313.8,470.7
	L313.8,470.7z"/>
<path class="st0" d="M345.9,447.6c-3.5,0-7-0.8-10.4-2.5L313.7,434c-2.6-1.3-3.6-4.5-2.3-7.1c1.3-2.6,4.5-3.6,7.1-2.3l21.9,11.1
	c6.1,3.1,13.5,0.7,16.6-5.4c3.1-6.1,0.7-13.5-5.4-16.6l-17.3-8.8c-2.6-1.3-3.6-4.5-2.3-7.1c1.3-2.6,4.5-3.6,7.1-2.3l17.3,8.8
	c11.2,5.7,15.7,19.5,10,30.8C362.3,443,354.3,447.6,345.9,447.6L345.9,447.6z"/>
<path class="st0" d="M223.6,491.1c-5.3,0-10.6-2-14.7-6.1l-4.4-4.4c-3.9-3.9-6-9.1-6-14.7s2.2-10.8,6.2-14.6l8.8-8.6
	c8.1-8,21.2-7.9,29.2,0.2l4.4,4.4c3.9,3.9,6,9.1,6,14.7s-2.2,10.7-6.1,14.6l-8.8,8.7C234.1,489.2,228.8,491.2,223.6,491.1
	L223.6,491.1z M228,447.3c-2.6,0-5.1,1-7.1,2.9l-8.8,8.6c-1.9,1.9-3,4.4-3,7.2c0,2.7,1,5.3,2.9,7.2l4.4,4.4c3.9,4,10.4,4,14.3,0.1
	l8.8-8.7c1.9-1.9,3-4.4,3-7.2c0-2.7-1-5.3-2.9-7.2l-4.4-4.4C233.2,448.3,230.6,447.3,228,447.3L228,447.3z"/>
<path class="st0" d="M131.1,411c-5.4,0-10.7-2.1-14.8-6.1l-4.3-4.3c-3.9-3.9-6-9.2-6-14.7s2.2-10.8,6.2-14.6l8.8-8.6
	c8.1-8,21.2-7.9,29.2,0.2l4.4,4.4c3.9,3.9,6,9.1,6,14.7c0,5.5-2.2,10.7-6.2,14.6l-8.8,8.6C141.6,409,136.4,411,131.1,411L131.1,411z
	 M135.5,367.2c-2.6,0-5.1,1-7.1,2.9l-8.8,8.6c-1.9,1.9-3,4.5-3,7.2c0,2.7,1,5.3,2.9,7.2l4.3,4.3c4,4,10.4,4,14.4,0.1l8.8-8.6
	c1.9-1.9,3-4.4,3-7.2c0-2.7-1-5.3-2.9-7.2l-4.4-4.4C140.8,368.2,138.1,367.2,135.5,367.2L135.5,367.2z"/>
<path class="st0" d="M154.1,446H154c-5.5,0-10.7-2.2-14.6-6.1l-4.3-4.4c-8-8.1-7.9-21.2,0.1-29.2l17.5-17.4c8.1-8,21.2-8,29.2,0.1
	l4.3,4.4c3.9,3.9,6,9.1,6,14.7c0,5.5-2.2,10.7-6.1,14.6L168.6,440C164.8,443.8,159.6,446,154.1,446L154.1,446z M167.2,393.4
	c-2.6,0-5.2,1-7.1,2.9l-17.5,17.4c-4,3.9-4,10.4-0.1,14.3l4.3,4.4c1.9,1.9,4.4,3,7.1,3c2.6-0.5,5.3-1,7.2-2.9l17.5-17.4
	c1.9-1.9,3-4.5,3-7.2c0-2.7-1-5.3-2.9-7.2l0,0l-4.3-4.4C172.4,394.4,169.8,393.4,167.2,393.4L167.2,393.4z"/>
<path class="st0" d="M188.8,468.5c-5.3,0-10.6-2-14.7-6.1l-4.4-4.4c-3.9-3.9-6-9.1-6-14.6c0-5.5,2.2-10.7,6.1-14.6l13.2-13
	c8.1-8,21.2-7.9,29.2,0.2l4.3,4.4c3.9,3.9,6,9.1,6,14.7s-2.2,10.7-6.1,14.6l-13.1,13C199.3,466.6,194.1,468.5,188.8,468.5
	L188.8,468.5z M197.6,420.3c-2.6,0-5.1,1-7.1,2.9l-13.2,13c-1.9,1.9-3,4.4-3,7.1s1,5.3,2.9,7.2l4.4,4.4c3.9,4,10.3,4,14.3,0.1
	l13.1-13c1.9-1.9,3-4.4,3-7.2s-1-5.3-2.9-7.2l-4.3-4.4C202.8,421.4,200.2,420.4,197.6,420.3L197.6,420.3z"/>
</svg>
