<?xml version="1.0" encoding="UTF-8"?>
<svg xmlns="http://www.w3.org/2000/svg" xmlns:xlink="http://www.w3.org/1999/xlink" viewBox="0 0 278 278">
  <defs>
    <style>
      .cls-1 {
        fill: #4be8f9;
      }

      .cls-2 {
        fill: url(#radial-gradient-2);
      }

      .cls-3 {
        fill: url(#radial-gradient);
      }

      .cls-4 {
        isolation: isolate;
      }

      .cls-5 {
        opacity: .4;
      }

      .cls-5, .cls-6, .cls-7, .cls-8 {
        fill: #0e2268;
      }

      .cls-9 {
        fill: url(#linear-gradient-2);
      }

      .cls-9, .cls-10, .cls-11, .cls-6, .cls-7, .cls-12 {
        mix-blend-mode: multiply;
      }

      .cls-9, .cls-10, .cls-11, .cls-7, .cls-12 {
        opacity: .82;
      }

      .cls-10 {
        fill: url(#linear-gradient-3);
      }

      .cls-11 {
        fill: url(#linear-gradient-4);
      }

      .cls-6 {
        opacity: .2;
      }

      .cls-13 {
        opacity: .15;
      }

      .cls-12 {
        fill: url(#linear-gradient);
      }
    </style>
    <radialGradient id="radial-gradient" cx="150.2" cy="353.58" fx="150.2" fy="353.58" r="144.33" gradientTransform="translate(0 -203.02) scale(1 .85)" gradientUnits="userSpaceOnUse">
      <stop offset="0" stop-color="#00dcff"/>
      <stop offset="1" stop-color="#0090ff"/>
    </radialGradient>
    <linearGradient id="linear-gradient" x1="174.36" y1="101.47" x2="237.61" y2="87.05" gradientUnits="userSpaceOnUse">
      <stop offset="0" stop-color="#ec008c"/>
      <stop offset="1" stop-color="#fff" stop-opacity="0"/>
    </linearGradient>
    <linearGradient id="linear-gradient-2" x1="156.57" y1="100.81" x2="73.34" y2="102.87" xlink:href="#linear-gradient"/>
    <radialGradient id="radial-gradient-2" cx="54.4" cy="96.75" fx="54.4" fy="96.75" r="127.39" gradientTransform="translate(88.88) scale(.98 1)" xlink:href="#radial-gradient"/>
    <linearGradient id="linear-gradient-3" x1="148.66" y1="100.84" x2="66.79" y2="102.86" xlink:href="#linear-gradient"/>
    <linearGradient id="linear-gradient-4" x1="174.64" y1="99.05" x2="229.2" y2="86.61" gradientUnits="userSpaceOnUse">
      <stop offset=".2" stop-color="#ec008c"/>
      <stop offset="1" stop-color="#fff" stop-opacity="0"/>
    </linearGradient>
  </defs>
  <g class="cls-4">
    <g id="Layer_1">
      <g>
        <g>
          <path class="cls-3" d="M103.52,273.45c-28.11-.02-55.93-13.05-74.03-36.02l-2.57-3.22C1.99,203.49-1.11,159.53,16.87,127.68c15.31-27.11,43.56-41.87,78.28-41.87h56.1l-.12-7.9c-.42-29.58,12.29-50.41,33.7-57.31,15.68-5.04,33.94-1.94,49.1,7.99l.04-.04c1.35.9,2.64,1.86,3.89,2.84,1.33,1.01,2.63,2.06,3.91,3.21l-.06.04c13.69,12.52,20.13,29.35,16.1,44.99-5.66,22.01-30.16,35.73-65.26,35.73h-8.93l3.14,59.74c2.17,41.32-14.86,75.34-47.65,90.64-11.16,5.17-23.29,7.71-35.57,7.71ZM93.52,115.36c-23.01,0-39.52,8.3-47.97,24.44-10.38,19.83-6.83,47.93,9.43,66.72l2.9,3.4c16.75,19.9,45.55,27.67,67.42,17.91,18.27-8.14,27.6-26.73,27.22-52.73l-.86-59.74h-58.14ZM182.05,85.81h8.62c20.45,0,34.45-6.01,37.38-15.86,2.01-6.72-1.39-14.59-8.62-20.59-7.26-5.7-16-7.81-23.03-5.47-10.16,3.38-15.72,15.86-14.77,34.01l.42,7.9Z"/>
          <path class="cls-12" d="M228.49,67.98c-1.53,11.07-15.69,17.83-37.81,17.83h-8.62l1.56,29.54h8.93c45.83,0,64.31-21.87,66.25-41.31l-30.3-6.06Z"/>
          <path class="cls-9" d="M71.42,88.34l-2.62,31.19c7.11-2.71,15.35-4.17,24.72-4.17h58.14l-.42-29.54h-56.1c-8.37,0-16.28.9-23.73,2.53Z"/>
        </g>
        <g>
          <path class="cls-6" d="M277.53,76.17c.11-.71.21-1.42.28-2.13h0c1.41-13.98-5.01-28.37-17.08-39.41l.06-.04c-1.28-1.15-2.58-2.2-3.91-3.21-1.25-.98-2.54-1.94-3.89-2.84l-.04.05c-15.16-9.92-33.41-13.03-49.1-7.99-21.4,6.9-34.12,27.73-33.69,57.31l.12,7.9h-56.1c-8.24,0-16.1.86-23.52,2.49-.07.01-.14.02-.2.04h0c-23.77,5.27-42.91,18.72-54.55,39.34-17.97,31.85-14.88,75.81,10.05,106.53l2.57,3.22c18.11,22.96,45.92,36,74.03,36.02,12.28,0,24.42-2.54,35.57-7.71,32.79-15.3,49.82-49.32,47.65-90.64l-3.14-59.74h8.93c2.11,0,4.13-.06,6.13-.15.19,0,.38-.02.56-.03,20.32-1.01,34.69-6.6,44.23-14.24.4-.32.79-.64,1.17-.97.52-.44,1.02-.89,1.51-1.34,5.04-4.63,8.7-10.11,10.8-16.32.21-.6.4-1.2.57-1.81.08-.3.2-.58.28-.88.1-.39.17-.78.25-1.17.08-.37.17-.74.24-1.11.07-.39.15-.78.21-1.17ZM144.32,227.83c-21.87,9.76-50.67,1.99-67.42-17.91l-2.9-3.4c-16.26-18.79-19.81-46.89-9.43-66.72,5.01-9.58,12.88-16.38,23.25-20.33v.06c5.27-2.01,11.18-3.33,17.7-3.88.18-.01.36-.02.54-.04,2.1-.16,4.25-.26,6.48-.26h58.14l.86,59.74c.38,26.01-8.95,44.59-27.22,52.73ZM201.07,85.81l-.42-7.9c-.95-18.15,4.61-30.63,14.77-34.01,7.02-2.34,15.77-.23,23.03,5.47,7.23,6,10.63,13.87,8.62,20.59-2.57,8.61-13.59,14.29-30,15.57-.11,0-.23.01-.34.02-1.05.08-2.11.14-3.2.18-1.25.05-2.53.07-3.83.07h-8.62Z"/>
          <g>
            <g>
              <g class="cls-13">
                <g>
                  <path class="cls-8" d="M111.67,273.45c-26.64-.02-53-13.05-70.16-36.02l-2.43-3.22c-23.63-30.72-26.56-74.68-9.53-106.53,14.51-27.11,41.28-41.87,74.19-41.87h53.16l-.11-7.9c-.4-29.58,11.65-50.41,31.93-57.31,14.86-5.04,32.16-1.94,46.53,7.99l.04-.04c1.28.9,2.5,1.86,3.69,2.84,1.26,1.01,2.49,2.06,3.7,3.21l-.06.04c12.97,12.52,19.07,29.35,15.26,44.99-5.36,22.01-28.58,35.73-61.85,35.73h-8.47l2.97,59.74c2.06,41.32-14.08,75.34-45.16,90.64-10.57,5.17-22.07,7.71-33.71,7.71ZM102.2,115.36c-21.81,0-37.45,8.3-45.46,24.44-9.84,19.83-6.47,47.93,8.93,66.72l2.75,3.4c15.88,19.9,43.17,27.67,63.89,17.91,17.32-8.14,26.16-26.73,25.8-52.73l-.81-59.74h-55.1ZM186.1,85.81h8.17c19.38,0,32.65-6.01,35.43-15.86,1.91-6.72-1.32-14.59-8.17-20.59-6.88-5.7-15.17-7.81-21.82-5.47-9.63,3.38-14.9,15.86-14,34.01l.39,7.9Z"/>
                  <path class="cls-7" d="M230.11,67.98c-1.45,11.07-14.87,17.83-35.84,17.83h-8.17l1.48,29.54h8.47c43.43,0,60.95-21.87,62.78-41.31l-28.72-6.06Z"/>
                  <path class="cls-7" d="M81.25,88.34l-2.49,31.19c6.74-2.71,14.55-4.17,23.43-4.17h55.1l-.4-29.54h-53.16c-7.93,0-15.43.9-22.48,2.53Z"/>
                </g>
              </g>
              <g>
                <path class="cls-2" d="M96.48,273.45c-27.65-.02-55.01-13.05-72.82-36.02l-2.52-3.22C-3.38,203.49-6.42,159.53,11.25,127.68c15.06-27.11,42.84-41.87,76.99-41.87h55.17l-.12-7.9c-.42-29.58,12.09-50.41,33.14-57.31,15.43-5.04,33.38-1.94,48.29,7.99l.04-.04c1.33.9,2.6,1.86,3.83,2.84,1.31,1.01,2.59,2.06,3.84,3.21l-.06.04c13.46,12.52,19.8,29.35,15.84,44.99-5.57,22.01-29.66,35.73-64.19,35.73h-8.79l3.08,59.74c2.14,41.32-14.61,75.34-46.87,90.64-10.97,5.17-22.91,7.71-34.99,7.71ZM86.65,115.36c-22.63,0-38.87,8.3-47.18,24.44-10.21,19.83-6.72,47.93,9.27,66.72l2.85,3.4c16.48,19.9,44.8,27.67,66.31,17.91,17.97-8.14,27.15-26.73,26.77-52.73l-.84-59.74h-57.19ZM173.71,85.81h8.48c20.12,0,33.88-6.01,36.77-15.86,1.98-6.72-1.37-14.59-8.48-20.59-7.14-5.7-15.74-7.81-22.65-5.47-9.99,3.38-15.46,15.86-14.53,34.01l.41,7.9Z"/>
                <path class="cls-10" d="M64.91,88.34l-2.58,31.19c6.99-2.71,15.1-4.17,24.32-4.17h57.19l-.41-29.54h-55.17c-8.23,0-16.01.9-23.33,2.53Z"/>
                <path class="cls-11" d="M183.61,115.36c45.07,0,61.65-21.87,63.55-41.31l-29.8-6.06c-1.5,11.07-13.61,17.83-35.38,17.83"/>
              </g>
              <g>
                <path class="cls-1" d="M52.17,211.03c16.83,19.9,45.76,27.67,67.73,17.91,18.36-8.14,27.73-26.73,27.35-52.73l-1.29-89.29h-2.53l1.24,88.18c.37,26.01-8.8,44.59-26.77,52.73-21.51,9.76-49.83,1.99-66.31-17.91l-2.85-3.4c-7.06-8.29-11.68-18.4-13.76-28.81,2.02,10.8,6.81,21.33,14.28,29.92l2.91,3.4Z"/>
                <path class="cls-1" d="M69,87.55l-4.09.79c1.34-.3,2.7-.57,4.08-.82,0,0,0-.02-.01-.03-25.27,4.57-45.61,18.38-57.72,40.19-2.26,4.07-4.17,8.33-5.75,12.74,1.53-4.02,3.85-7.21,5.97-10.93,11.3-19.93,34.6-36.13,57.57-41.88-.01-.02-.02-.04-.04-.06Z"/>
                <path class="cls-1" d="M143.42,85.81l.02,1.11h2.53l-.12-7.9c-.43-29.58,12.35-50.41,33.85-57.31,9.29-2.97,19.48-3.11,29.4-.69-10.9-3.51-22.34-3.79-32.65-.42-21.05,6.9-33.56,27.73-33.14,57.31l.12,7.9Z"/>
              </g>
            </g>
            <polygon class="cls-5" points="181.98 85.81 183.61 115.36 175.25 115.36 173.71 85.81 181.98 85.81"/>
          </g>
        </g>
      </g>
    </g>
  </g>
</svg>