<?xml version="1.0" encoding="UTF-8"?>
<svg id="Layer_1" xmlns="http://www.w3.org/2000/svg" viewBox="0 0 278 278">
  <defs>
    <style>
      .cls-1 {
        fill: #08ac5e;
      }
    </style>
  </defs>
  <polygon class="cls-1" points="158.09 171.57 257.8 71.87 276.58 90.65 195.66 171.57 240.43 216.34 221.64 235.12 158.09 171.57"/>
  <polygon class="cls-1" points="37.57 216.34 82.34 171.57 1.42 90.65 20.2 71.87 119.91 171.57 56.36 235.12 37.57 216.34"/>
  <polygon class="cls-1" points="139 228.24 94.24 273 75.45 254.22 139 190.67 202.55 254.22 183.76 273 139 228.24"/>
  <path class="cls-1" d="M39.29,52.78L84.07,8h109.86l44.77,44.78-99.71,99.71L39.29,52.78ZM76.86,52.78l62.14,62.14,62.14-62.14-18.21-18.21h-87.86l-18.21,18.21Z"/>
</svg>