<?xml version="1.0" encoding="UTF-8"?>
<svg id="Layer_1" data-name="Layer 1" xmlns="http://www.w3.org/2000/svg" viewBox="0 0 172.3 87.6">
  <defs>
    <style>
      .cls-1 {
        fill: #fd5101;
      }

      .cls-2 {
        fill: #472e96;
      }
    </style>
  </defs>
  <g>
    <path class="cls-2" d="M73.45,53.75c-.49-.75-1.12-1.34-1.87-1.76-.75-.42-1.59-.63-2.51-.63-1.08,0-2.06.27-2.92.82-.86.55-1.54,1.32-2.03,2.3-.49.98-.74,2.09-.74,3.34s.25,2.36.74,3.35c.49.99,1.17,1.76,2.03,2.31.86.55,1.83.82,2.92.82.92,0,1.76-.21,2.51-.63.75-.42,1.37-1.01,1.87-1.76v2.1h2.37v-16.71h-2.37v6.46ZM72.96,60.09c-.33.68-.78,1.2-1.36,1.58-.58.37-1.24.56-1.97.56s-1.4-.19-1.98-.56c-.59-.37-1.05-.9-1.37-1.58-.33-.68-.49-1.44-.49-2.28s.16-1.6.49-2.27c.33-.67.79-1.19,1.37-1.57.59-.37,1.25-.56,1.98-.56s1.39.19,1.97.56c.58.37,1.04.9,1.36,1.57.33.67.49,1.43.49,2.27s-.16,1.61-.49,2.28Z"/>
    <path class="cls-2" d="M89.51,57.4c-.12-3.5-2.67-6.04-6.08-6.04-3.63,0-6.26,2.7-6.26,6.42s2.73,6.44,6.65,6.44c2.01,0,3.73-.74,4.86-2.08l.2-.24-1.39-1.59-.27.32c-.8.94-1.97,1.44-3.38,1.44-1.9,0-3.37-.92-4.01-2.47l9.69-1.88v-.31ZM79.46,57.73v-.07c0-2.47,1.63-4.2,3.97-4.2,1.8,0,3.23,1.1,3.67,2.78l-7.65,1.48Z"/>
    <path class="cls-2" d="M100.6,52.18c-.86-.55-1.83-.82-2.92-.82-.92,0-1.76.21-2.51.63-.75.42-1.37,1.01-1.87,1.76v-2.1h-2.37v16.48h2.37v-6.22c.49.75,1.12,1.34,1.87,1.76.75.42,1.59.63,2.51.63,1.08,0,2.06-.27,2.92-.82.86-.55,1.54-1.32,2.03-2.31.49-.99.74-2.1.74-3.35s-.25-2.36-.74-3.34c-.49-.98-1.17-1.75-2.03-2.3ZM100.49,60.09c-.33.68-.79,1.2-1.37,1.58-.59.37-1.25.56-1.98.56s-1.39-.19-1.97-.56c-.58-.37-1.04-.9-1.36-1.58-.33-.68-.49-1.44-.49-2.28s.16-1.6.49-2.27c.33-.67.78-1.19,1.36-1.57.58-.37,1.24-.56,1.97-.56s1.39.19,1.98.56c.59.37,1.05.9,1.37,1.57.33.67.49,1.43.49,2.27s-.16,1.61-.49,2.28Z"/>
    <path class="cls-2" d="M114.2,52.23c-1-.58-2.08-.87-3.24-.87s-2.27.29-3.26.87c-1,.58-1.79,1.37-2.37,2.36-.58.99-.87,2.06-.87,3.23s.29,2.24.87,3.24c.58,1,1.37,1.79,2.37,2.37,1,.58,2.08.87,3.26.87s2.24-.29,3.24-.87c1-.58,1.79-1.37,2.37-2.37.58-1,.87-2.08.87-3.24s-.29-2.24-.87-3.23c-.58-.99-1.37-1.77-2.37-2.36ZM114.51,60.02c-.37.68-.88,1.22-1.51,1.61-.63.4-1.31.6-2.04.6s-1.44-.2-2.08-.6c-.64-.4-1.14-.94-1.52-1.61-.37-.68-.56-1.41-.56-2.21s.19-1.53.56-2.21c.37-.68.88-1.21,1.52-1.6.64-.39,1.33-.59,2.08-.59s1.41.2,2.04.59c.63.39,1.13.92,1.51,1.6.37.68.56,1.41.56,2.21s-.19,1.53-.56,2.21Z"/>
    <rect class="cls-2" x="119.09" y="51.64" width="2.34" height="12.36"/>
    <path class="cls-2" d="M120.26,46.74c-.4,0-.74.14-1.02.42-.28.28-.42.61-.42.99s.14.72.42,1c.28.29.62.43,1.02.43s.71-.14.99-.43c.28-.29.42-.62.42-1s-.14-.71-.42-.99c-.28-.28-.61-.42-.99-.42Z"/>
    <path class="cls-2" d="M132.38,51.95c-.7-.4-1.5-.6-2.39-.6-.85,0-1.63.19-2.34.57-.72.38-1.26.89-1.63,1.53v-1.82h-2.34v12.36h2.34v-7.68c0-.53.15-1.01.45-1.46.3-.45.72-.8,1.24-1.06.53-.26,1.1-.39,1.72-.39.84,0,1.53.29,2.06.87s.79,1.34.79,2.26v7.46h2.32v-7.87c0-.94-.2-1.77-.59-2.5-.39-.73-.94-1.29-1.64-1.69Z"/>
    <path class="cls-2" d="M141.96,62.1c-.23.09-.47.13-.73.13-.35,0-.65-.14-.9-.42-.25-.28-.37-.63-.37-1.06v-7.1h2.92v-2.01h-2.92v-3.4h-2.32v3.4h-1.87v2.01h1.87v7.27c0,.99.3,1.8.91,2.43.61.63,1.39.94,2.34.94.45,0,.88-.08,1.32-.24.43-.16.81-.37,1.15-.65l-.86-1.63c-.13.13-.31.24-.54.32Z"/>
    <path class="cls-2" d="M153.08,58.6c-.39-.48-.87-.84-1.43-1.1-.57-.25-1.3-.51-2.19-.77-.81-.25-1.41-.46-1.78-.61-.37-.15-.66-.32-.85-.51s-.29-.45-.29-.77c0-.49.21-.88.63-1.16.42-.28.96-.42,1.61-.42,1.13,0,2.32.4,3.56,1.2l1-1.67c-.69-.45-1.42-.8-2.21-1.05-.79-.25-1.57-.38-2.36-.38-1.32,0-2.4.34-3.24,1.03-.84.69-1.26,1.59-1.26,2.73,0,.96.33,1.69.99,2.21.66.52,1.75.98,3.26,1.4.99.27,1.71.54,2.18.8.46.26.69.66.69,1.18s-.22.92-.66,1.22c-.44.3-1.02.45-1.76.45-.69,0-1.39-.13-2.1-.39-.72-.26-1.42-.65-2.1-1.16l-1.1,1.63c.75.59,1.59,1.04,2.51,1.36.92.32,1.85.48,2.77.48,1.37,0,2.49-.35,3.37-1.05.88-.7,1.32-1.63,1.32-2.77,0-.77-.2-1.39-.59-1.87Z"/>
    <path class="cls-2" d="M94.17,35.19c.67.79,1.68,1.3,2.83,1.3h2.06c1.1,0,2.07-.52,2.69-1.3.67.79,1.68,1.3,2.83,1.3h4.4c1.98,0,3.57-1.59,3.57-3.55v-7.12h-2.31v7.12c0,.67-.54,1.23-1.24,1.23h-4.42c-.92,0-1.71-.74-1.8-1.66v-4.54h-2.34v4.51c0,.92-.74,1.68-1.66,1.68h-1.8c-.92,0-1.71-.74-1.8-1.66v-4.58h-2.34v4.56c0,.92-.74,1.68-1.64,1.68h-2.13c-.63,0-1.12-.52-1.12-1.15v-7.21h-2.34v6.22c0,1.17-.94,2.13-2.11,2.13-1.26,0-2.25-.81-2.25-2.07v-4.04h-2.31v3.97c0,1.17-.9,2.13-2.27,2.13s-2.2-.9-2.2-2.07v-4.11h-2.29v9.93c0,.45-.36.81-.81.81h-3.95c-1.89,0-3.39-1.53-3.39-3.39v-3.88h-2.34v3.88c0,3.14,2.56,5.7,5.73,5.7h4.49c1.41,0,2.56-1.15,2.56-2.58v-2.83c.58.54,1.32.85,2.34.85,1.37,0,2.56-.65,3.26-1.64.76,1.03,1.98,1.64,3.35,1.64,1.28,0,2.36-.49,3.12-1.37.52.81,1.46,1.37,2.54,1.37h2.38c1.1,0,2.07-.52,2.69-1.3Z"/>
    <path class="cls-2" d="M92.06,25.61c.79,0,1.41-.65,1.41-1.41s-.63-1.39-1.41-1.39-1.41.63-1.41,1.39.65,1.41,1.41,1.41Z"/>
    <path class="cls-2" d="M95.86,25.61c.76,0,1.41-.65,1.41-1.41s-.65-1.39-1.41-1.39-1.41.63-1.41,1.39.63,1.41,1.41,1.41Z"/>
    <path class="cls-2" d="M101.65,25.52c.79,0,1.41-.63,1.41-1.41s-.63-1.39-1.41-1.39-1.41.63-1.41,1.39.65,1.41,1.41,1.41Z"/>
    <path class="cls-2" d="M109.71,39.93c0,.79.65,1.41,1.41,1.41s1.41-.63,1.41-1.41c0-.74-.63-1.39-1.41-1.39s-1.41.65-1.41,1.39Z"/>
    <path class="cls-2" d="M105.87,39.93c0,.79.65,1.41,1.41,1.41s1.41-.63,1.41-1.41c0-.74-.63-1.39-1.41-1.39s-1.41.65-1.41,1.39Z"/>
    <path class="cls-2" d="M126.73,36.5h1.08c1.1,0,2.07-.52,2.69-1.3.67.79,1.68,1.3,2.83,1.3h4.29c1.98,0,3.57-1.59,3.57-3.55v-7.12h-2.31v7.12c0,.67-.54,1.23-1.23,1.23h-4.31c-.92,0-1.71-.74-1.8-1.66v-4.58h-2.34v4.56c0,.92-.74,1.68-1.66,1.68h-2.54v-8.42h-4.9c-2.96,0-5.23,2.36-5.23,5.32s2.27,5.41,5.23,5.41h2.49l-.02.36c-.09.67-.34,1.21-.72,1.57-1.35,1.24-3.44,1.24-5.66,1.21l-.02,2.31c3.73,0,5.57-.29,7.21-1.84,1.01-.94,1.55-2.16,1.62-3.62h1.73ZM122.67,34.18h-2.56c-1.68,0-2.94-1.37-2.94-3.1s1.26-2.99,2.94-2.99h2.56v6.08Z"/>
    <path class="cls-2" d="M128.91,39.93c0,.79.65,1.41,1.41,1.41s1.41-.63,1.41-1.41c0-.74-.63-1.39-1.41-1.39s-1.41.65-1.41,1.39Z"/>
    <path class="cls-2" d="M138.34,39.93c0,.79.65,1.41,1.41,1.41s1.42-.63,1.42-1.41c0-.74-.63-1.39-1.42-1.39s-1.41.65-1.41,1.39Z"/>
    <path class="cls-2" d="M137.33,39.93c0-.74-.63-1.39-1.41-1.39s-1.41.65-1.41,1.39c0,.79.65,1.41,1.41,1.41s1.41-.63,1.41-1.41Z"/>
    <path class="cls-2" d="M152.28,35.06c.76-.97,1.01-2.13.74-3.35l-1.77-6.53-2.22.63,1.75,6.51c.13.49-.04.97-.27,1.28-.27.34-.67.58-1.21.58h-5.95v2.31h5.95c1.19,0,2.27-.54,2.99-1.44Z"/>
  </g>
  <path class="cls-1" d="M54.27,39.76c0-10.41-8.47-18.87-18.87-18.87s-18.87,8.47-18.87,18.87c0,1.24.13,2.44.36,3.6-.23,1.15-.36,2.35-.36,3.58,0,10.41,8.47,18.87,18.87,18.87s18.87-8.47,18.87-18.87c0-1.22-.13-2.42-.36-3.58.23-1.16.36-2.37.36-3.6ZM35.4,23.6c8.91,0,16.16,7.25,16.16,16.16,0,1.14-.12,2.25-.35,3.32-1.47,7.13-7.58,12.39-14.92,12.79-.59.06-1.19.06-1.79,0-4.45-.44-7.8-4.16-7.8-8.65,0-.11.03-.22.03-.33.3.35.62.67.96.98.09.08.19.16.28.24.29.25.6.49.91.71.12.08.23.16.35.24.38.24.77.47,1.17.66.04.02.08.05.13.07.45.21.91.39,1.39.54.13.04.26.07.4.11.36.1.73.19,1.11.25.14.03.29.05.44.07.5.07,1.01.11,1.53.11.58,0,1.14-.04,1.7-.13,3.9-.58,7.26-3.15,8.82-6.86.59-1.39.89-2.87.89-4.42,0-6.29-5.12-11.41-11.41-11.41-.39,0-.78.02-1.11.05-.68.04-1.36.12-2.02.23-.18.03-.35.06-.53.1-.57.11-1.14.24-1.69.41-.09.03-.18.05-.27.07-.63.19-1.24.43-1.84.69-.15.06-.29.13-.44.2-.5.23-.98.48-1.46.75-.11.06-.23.12-.34.19-.56.34-1.1.7-1.63,1.09-.1.08-.2.16-.29.23-.44.34-.86.71-1.27,1.09-.1.09-.2.19-.3.28-.47.46-.93.95-1.35,1.46-.04.05-.08.1-.12.15-.38.47-.74.96-1.07,1.47-.04.07-.1.12-.14.19,1.42-7.47,8-13.13,15.87-13.13ZM30.25,40.24c.15-.11.29-.22.44-.32.19-.13.4-.23.61-.34.16-.08.31-.17.47-.25.22-.1.45-.18.68-.26.16-.06.31-.12.47-.17.26-.08.53-.13.8-.18.14-.03.27-.07.41-.09.41-.06.84-.09,1.26-.09s.85.03,1.26.09c.14.02.27.06.41.09.27.05.54.1.8.18.16.05.31.11.47.17.23.08.46.16.68.26.16.07.31.16.47.25.2.11.41.22.61.34.15.1.3.21.44.32.18.13.37.27.54.42.14.12.27.25.4.38.16.16.32.32.47.49.12.14.23.29.34.43.14.18.28.37.4.57.1.15.19.32.28.48.06.11.12.23.18.35-.06.11-.11.23-.17.33-.09.17-.19.33-.29.49-.12.19-.26.38-.4.56-.11.15-.22.29-.34.43-.15.17-.32.34-.48.5-.13.12-.25.25-.39.37-.18.15-.37.29-.56.43-.14.1-.28.21-.42.3-.2.13-.41.24-.63.35-.15.08-.29.17-.45.24-.23.1-.47.19-.7.27-.15.05-.3.12-.45.16-.27.08-.54.13-.82.19-.13.03-.26.06-.39.08-.41.06-.84.09-1.26.09s-.85-.03-1.26-.09c-.13-.02-.26-.06-.4-.08-.28-.05-.55-.11-.82-.18-.15-.05-.3-.11-.45-.16-.24-.08-.47-.17-.7-.27-.15-.07-.3-.16-.45-.24-.21-.11-.42-.22-.63-.35-.15-.09-.28-.2-.42-.3-.19-.14-.38-.28-.55-.43-.14-.12-.26-.24-.39-.37-.16-.16-.33-.32-.48-.5-.12-.14-.23-.29-.34-.43-.14-.18-.27-.37-.4-.56-.1-.16-.2-.32-.29-.49-.06-.11-.11-.22-.17-.33.06-.12.11-.24.18-.35.09-.16.18-.32.28-.48.13-.2.26-.38.4-.57.11-.15.22-.29.34-.43.15-.17.31-.33.47-.49.13-.13.26-.26.4-.38.17-.15.36-.28.54-.42ZM35.4,63.1c-8.91,0-16.16-7.25-16.16-16.16,0-1.13.12-2.24.35-3.3,1.47-7.14,7.58-12.41,14.92-12.81.3-.03.6-.05.9-.05.56,0,1.1.06,1.63.16.06.01.12.02.17.03.47.1.92.25,1.36.42.12.05.24.09.35.14.38.17.74.37,1.08.59.15.1.3.19.45.3.31.22.59.46.87.72.14.14.29.28.42.42.26.28.5.56.72.87.1.14.2.29.29.44.22.35.42.71.59,1.09.05.11.09.23.14.35.17.44.32.88.42,1.35.01.06.02.12.03.18.1.53.16,1.07.16,1.62,0,.12-.03.22-.03.34-.3-.35-.62-.67-.95-.98-.1-.09-.2-.17-.29-.25-.29-.25-.59-.48-.9-.7-.12-.08-.24-.17-.36-.25-.37-.24-.76-.46-1.16-.66-.05-.02-.09-.05-.14-.07-.45-.21-.91-.39-1.39-.54-.13-.04-.26-.07-.4-.11-.36-.1-.73-.19-1.11-.25-.14-.03-.29-.05-.43-.07-.5-.07-1.01-.11-1.53-.11-.58,0-1.15.04-1.7.13-3.91.59-7.26,3.16-8.81,6.87,0,0,0,0,0,0,0,0,0,0,0,.01,0,0,0,0,0,.01-.57,1.34-.88,2.85-.88,4.38,0,5.88,4.4,10.76,10.24,11.35.39.04.78.06,1.17.06,0,0,0,0,.01,0,.39,0,.77-.02,1.09-.05.68-.04,1.36-.12,2.02-.23.18-.03.36-.06.53-.1.57-.11,1.13-.24,1.68-.4.09-.03.19-.05.28-.08.63-.19,1.24-.43,1.83-.68.15-.07.3-.14.46-.21.49-.22.96-.47,1.42-.73.12-.07.25-.13.37-.21.55-.33,1.09-.69,1.61-1.08.11-.08.22-.17.33-.26.42-.33.83-.68,1.22-1.05.11-.11.23-.21.34-.32.46-.45.91-.93,1.33-1.43.06-.07.11-.15.17-.22.36-.45.7-.91,1.01-1.39.05-.08.11-.14.16-.22-1.43,7.46-8,13.11-15.87,13.11Z"/>
</svg>