<?xml version="1.0" encoding="UTF-8"?>
<svg id="Layer_1" data-name="Layer 1" xmlns="http://www.w3.org/2000/svg" viewBox="0 0 87.6 87.6">
  <defs>
    <style>
      .cls-1 {
        fill: #f9f9f9;
      }
    </style>
  </defs>
  <path class="cls-1" d="M67.86,40.28c0-13.27-10.79-24.06-24.06-24.06s-24.06,10.79-24.06,24.06c0,1.58.17,3.11.46,4.59-.3,1.47-.46,3-.46,4.56,0,13.27,10.79,24.06,24.06,24.06s24.06-10.79,24.06-24.06c0-1.55-.17-3.08-.46-4.56.3-1.48.46-3.02.46-4.59ZM43.8,19.68c11.36,0,20.6,9.24,20.6,20.6,0,1.45-.15,2.87-.45,4.24-1.87,9.09-9.66,15.79-19.02,16.3-.76.08-1.51.08-2.28,0-5.67-.57-9.94-5.31-9.94-11.03,0-.14.04-.28.04-.42.38.45.79.86,1.22,1.25.11.11.24.2.36.3.37.32.76.62,1.16.9.15.1.3.21.45.3.48.31.98.59,1.49.84.06.03.11.06.16.09.57.27,1.16.49,1.77.68.17.05.34.09.51.14.46.13.94.24,1.42.32.18.03.37.07.56.09.64.09,1.29.14,1.95.14.73,0,1.46-.05,2.17-.16,4.97-.74,9.25-4.02,11.24-8.75.75-1.77,1.13-3.66,1.13-5.63,0-8.02-6.52-14.54-14.54-14.54-.5,0-.99.02-1.41.07-.87.05-1.73.16-2.58.3-.23.04-.45.08-.67.12-.73.14-1.45.31-2.15.52-.12.03-.23.06-.35.09-.8.25-1.58.55-2.35.87-.19.08-.37.17-.56.26-.63.29-1.25.61-1.86.95-.14.08-.29.16-.43.24-.72.43-1.41.89-2.07,1.39-.13.1-.25.2-.37.3-.56.44-1.1.9-1.62,1.39-.13.12-.26.24-.39.36-.61.59-1.18,1.21-1.72,1.86-.05.06-.1.13-.15.2-.49.6-.94,1.23-1.37,1.87-.06.08-.12.16-.18.24,1.81-9.52,10.2-16.74,20.24-16.74ZM37.24,40.89c.19-.14.37-.28.56-.41.25-.16.51-.3.77-.44.2-.11.39-.22.6-.32.28-.13.58-.23.87-.34.2-.07.39-.16.6-.22.33-.1.68-.16,1.02-.23.18-.03.35-.09.53-.11.53-.08,1.07-.12,1.61-.12s1.08.04,1.61.12c.18.03.35.08.53.11.34.07.69.13,1.02.23.2.06.4.15.6.22.29.11.59.21.87.34.2.09.4.21.6.32.26.14.52.28.77.44.19.13.38.27.56.41.23.17.47.34.68.53.18.15.34.32.51.48.21.2.41.41.6.63.15.18.29.36.44.55.18.23.35.47.51.72.13.2.24.4.36.61.08.15.15.3.23.45-.07.14-.14.29-.22.43-.12.21-.24.42-.37.63-.16.25-.33.48-.51.71-.14.19-.28.37-.44.55-.19.22-.4.43-.61.64-.16.16-.32.32-.49.47-.23.2-.47.37-.71.55-.18.13-.35.27-.54.39-.26.17-.53.31-.8.45-.19.1-.38.21-.57.3-.29.13-.59.24-.9.35-.19.07-.38.15-.57.21-.34.1-.69.17-1.05.24-.17.03-.33.08-.5.11-.53.08-1.07.12-1.61.12s-1.08-.04-1.61-.12c-.17-.02-.34-.07-.5-.11-.35-.07-.7-.14-1.05-.24-.2-.06-.38-.14-.57-.21-.3-.11-.61-.21-.9-.35-.2-.09-.38-.2-.57-.3-.27-.14-.54-.29-.8-.45-.19-.12-.36-.26-.54-.39-.24-.18-.48-.35-.71-.55-.17-.15-.33-.31-.5-.47-.21-.21-.42-.41-.61-.63-.15-.18-.3-.36-.44-.55-.18-.23-.35-.47-.51-.71-.13-.2-.25-.41-.37-.63-.08-.14-.15-.28-.22-.43.07-.15.15-.3.23-.45.11-.21.23-.41.36-.61.16-.25.34-.49.51-.72.14-.19.28-.38.44-.55.19-.22.4-.42.6-.63.17-.16.33-.33.51-.48.22-.19.45-.36.69-.53ZM43.8,70.03c-11.36,0-20.6-9.24-20.6-20.6,0-1.44.15-2.85.45-4.21,1.87-9.11,9.66-15.82,19.01-16.33.39-.04.77-.06,1.15-.06.71,0,1.4.08,2.07.21.07.01.15.02.22.04.6.13,1.17.32,1.73.54.15.06.3.11.45.18.48.21.94.47,1.38.75.19.12.39.25.57.38.39.28.76.59,1.11.91.18.17.36.35.54.54.33.35.64.72.92,1.11.13.18.25.37.37.57.28.44.54.9.75,1.39.07.15.12.3.18.45.22.56.41,1.13.54,1.72.02.08.02.16.04.24.13.67.21,1.36.21,2.07,0,.15-.04.29-.04.43-.38-.44-.79-.86-1.21-1.25-.12-.11-.25-.21-.38-.32-.37-.31-.75-.61-1.14-.89-.15-.11-.3-.21-.46-.31-.48-.31-.97-.59-1.48-.84-.06-.03-.12-.07-.18-.09-.57-.27-1.16-.49-1.77-.68-.17-.05-.34-.1-.51-.14-.46-.13-.94-.24-1.42-.32-.18-.03-.37-.07-.55-.09-.64-.09-1.29-.15-1.95-.15-.74,0-1.46.05-2.17.16-4.98.75-9.26,4.03-11.24,8.76,0,0,0,0,0,0,0,0,0,.01,0,.02,0,0,0,0,0,.01-.73,1.71-1.12,3.64-1.12,5.58,0,7.5,5.61,13.72,13.05,14.46.5.05.99.08,1.49.08,0,0,.01,0,.02,0,.5,0,.98-.02,1.39-.07.87-.05,1.73-.16,2.58-.3.23-.04.45-.08.68-.12.72-.14,1.44-.31,2.14-.51.12-.04.24-.06.36-.1.8-.25,1.58-.54,2.34-.87.2-.08.39-.18.58-.27.62-.28,1.22-.59,1.82-.93.16-.09.32-.17.47-.26.71-.42,1.39-.88,2.05-1.37.14-.11.28-.22.42-.33.54-.42,1.06-.87,1.56-1.33.15-.14.29-.27.44-.41.59-.58,1.16-1.18,1.69-1.82.07-.09.14-.19.21-.28.46-.57.89-1.16,1.29-1.77.06-.1.14-.18.21-.28-1.82,9.51-10.2,16.72-20.24,16.72Z"/>
</svg>